<svg xmlns="http://www.w3.org/2000/svg" xmlns:xlink="http://www.w3.org/1999/xlink" width="74" height="75" xmlns:v="https://vecta.io/nano"><style><![CDATA[.B{fill:#000}.C{stroke:#fff}.D{stroke-width:.5}]]></style><defs><path id="A" d="M.001.336h73.664V74H.001z"/><path id="B" d="M0 74.664h73.664V1H0z"/><path id="C" d="M31.478 25.791l-.382 2.315h1.97l.363-2.315h-1.951zm2.713-4.566h1.356l-.513 3.193h1.605v1.373h-1.82l-.38 2.315h1.653v1.39H34.24l-.545 3.358h-1.39l.545-3.358h-1.968l-.547 3.358h-1.372l.513-3.358H27.97v-1.39h1.771l.364-2.315h-1.588v-1.373h1.836l.479-3.193h1.374l-.513 3.21h1.985l.513-3.21z"/><path id="D" d="M40.577 22.962h1.951v9.893h-2.299V25.03l-1.87.893-.529-1.704z"/><path id="E" d="M19.71 46.487h1.184c.654 0 1.185-.12 1.593-.36s.612-.649.612-1.223c0-.535-.201-.923-.602-1.163s-.929-.361-1.584-.361H19.71v3.107zm0-5.372h1.224c.574 0 1.015-.131 1.323-.392s.461-.604.461-1.032c0-.401-.148-.712-.442-.933s-.735-.33-1.323-.33H19.71v2.687zm1.704-4.973c1.351 0 2.426.294 3.229.883s1.202 1.403 1.202 2.445c0 .388-.07.736-.21 1.043s-.324.572-.552.792-.477.405-.752.551a2.88 2.88 0 0 1-.811.301 4.26 4.26 0 0 1 1.032.331 3 3 0 0 1 .862.602c.247.247.444.543.592.891s.22.749.22 1.203a3.11 3.11 0 0 1-.341 1.444 3.23 3.23 0 0 1-.982 1.132c-.428.315-.946.562-1.554.743s-1.286.27-2.035.27h-4.651V36.142h4.751z"/><path id="F" d="M28.311 36.143h8.42v2.326h-5.373v2.586h4.852v2.306h-4.852v3.087h5.433v2.326h-8.48z"/><path id="G" d="M58.504 36.143v2.366h-3.448v10.265h-3.048V38.509H48.64v-2.366z"/></defs><g fill="none" fill-rule="evenodd"><g transform="translate(0 .664)"><mask id="H" fill="#fff"><use xlink:href="#A"/></mask><path d="M73.665 37.168C73.665 57.51 57.175 74 36.833 74S.001 57.51.001 37.168 16.491.336 36.833.336s36.832 16.49 36.832 36.832" fill="#2d7dc2" mask="url(#H)"/></g><g fill="#fff"><path d="M57.524 19.996c1.107.884 1.248 2.317 1.248 2.317s-1.68-.02-2.786-.919c-1.094-.887-1.2-2.288-1.2-2.288s1.644.017 2.738.89M45.209 61.274c-1.41 1.701-1.707 3.741-1.691 3.747-.008.026 2.69-.776 4.037-2.674 1.323-1.843.926-3.712.942-3.707-.008.019-1.903.974-3.288 2.634"/><path d="M46.446 67.27c-2.279-.431-2.935-2.341-2.937-2.324.027.01 2.566-.77 4.661-.504 2.124.279 3.282 1.738 3.281 1.754.03.008-2.688 1.517-5.005 1.074m3.408-8.096c-.992 1.831-.854 3.776-.839 3.779-.004.027 2.375-1.199 3.282-3.201.892-1.943.149-3.609.164-3.607-.004.018-1.631 1.243-2.607 3.029"/><path d="M52.231 64.51c-2.241.013-3.239-1.642-3.239-1.626.024.005 2.258-1.171 4.305-1.302 2.068-.123 3.458 1.016 3.459 1.031.029.001-2.257 1.889-4.525 1.897m1.633-8.111c-.592 1.876-.072 3.652-.058 3.653-.001.026 2.022-1.533 2.51-3.55.483-1.959-.543-3.376-.529-3.376-.002.017-1.34 1.444-1.923 3.273"/><path d="M57.169 60.915c-2.132.416-3.402-.937-3.4-.922.023-.001 1.916-1.486 3.854-1.975 1.95-.483 3.495.319 3.498.334.027-.003-1.803 2.15-3.952 2.563m.017-7.801c-.219 1.847.619 3.399.633 3.397.002.024 1.645-1.777 1.748-3.735.106-1.902-1.14-3.041-1.127-3.044.001.018-1.035 1.581-1.254 3.382"/><path d="M61.201 56.71c-1.964.766-3.433-.261-3.428-.247.021-.004 1.552-1.715 3.328-2.513 1.783-.791 3.409-.324 3.413-.311.024-.007-1.34 2.308-3.313 3.071m-1.409-7.233a5.65 5.65 0 0 0 1.223 3.044c.006.021 1.26-1.937 1.015-3.775-.232-1.789-1.635-2.635-1.624-2.639.004.016-.726 1.657-.614 3.37"/><path d="M64.296 52.106c-1.747 1.057-3.341.364-3.335.377.019-.007 1.182-1.862 2.752-2.916 1.572-1.046 3.213-.898 3.219-.887.021-.01-.884 2.375-2.636 3.426m-2.627-6.473a5.3 5.3 0 0 0 1.71 2.622c.009.02.875-2.018.324-3.691-.531-1.63-2.032-2.184-2.021-2.19.006.015-.419 1.68-.013 3.259"/><path d="M66.46 47.299c-1.494 1.285-3.146.92-3.138.931.016-.01.812-1.937 2.143-3.192 1.329-1.243 2.925-1.387 2.932-1.378.018-.012-.442 2.361-1.937 3.639m-3.638-5.585a5.07 5.07 0 0 0 2.097 2.159c.011.017.496-2.033-.32-3.508-.79-1.439-2.334-1.708-2.324-1.714.009.012-.116 1.652.547 3.063"/><path d="M67.71 42.453c-1.213 1.455-2.861 1.396-2.852 1.406.014-.011.451-1.946 1.514-3.347 1.061-1.389 2.56-1.792 2.569-1.785.016-.014-.02 2.283-1.231 3.726m-4.449-4.617c.907 1.243 2.38 1.684 2.388 1.676.014.014.129-1.99-.911-3.245-1.013-1.227-2.55-1.228-2.542-1.236.011.012.181 1.586 1.065 2.805"/><path d="M68.08 37.712c-.91 1.567-2.501 1.79-2.49 1.797.011-.012.099-1.901.875-3.399.773-1.481 2.132-2.108 2.142-2.102.014-.016.383 2.15-.527 3.704m-5.079-3.615c1.097 1.028 2.588 1.199 2.595 1.191.016.012-.227-1.899-1.457-2.92-1.2-1.002-2.688-.757-2.68-.766.014.01.473 1.484 1.542 2.495"/><path d="M67.604 33.191c-.591 1.628-2.077 2.099-2.065 2.104.008-.013-.239-1.81.229-3.356.471-1.529 1.652-2.341 1.663-2.337.012-.015.767 1.977.173 3.589m-5.543-2.611c1.253.806 2.718.728 2.723.719.019.009-.571-1.769-1.959-2.553-1.359-.77-2.756-.304-2.75-.312.016.006.759 1.352 1.986 2.146"/><path d="M66.318 28.986c-.259 1.641-1.602 2.325-1.588 2.329.007-.014-.564-1.683-.418-3.233.152-1.534 1.123-2.492 1.136-2.49.01-.016 1.135 1.769.87 3.394m-5.867-1.629c1.383.58 2.781.275 2.785.267.022.005-.905-1.606-2.427-2.15-1.492-.538-2.762.122-2.758.113.019.004 1.045 1.196 2.4 1.77"/><path d="M64.248 25.173c.088 1.611-1.075 2.474-1.061 2.475.005-.013-.88-1.523-1.072-3.038-.18-1.499.551-2.568.565-2.567.006-.016 1.493 1.535 1.568 3.13m-6.069-.685c1.49.355 2.786-.15 2.789-.159.024.004-1.235-1.413-2.868-1.721-1.605-.306-2.718.519-2.714.51.021.002 1.33 1.015 2.793 1.37"/><path d="M61.414 21.814c.447 1.542-.504 2.546-.487 2.546.002-.014-1.194-1.338-1.739-2.781-.53-1.427-.069-2.57-.053-2.571.006-.016 1.848 1.278 2.279 2.806"/><path d="M33.639 71.768l-.276-1.144c2.657-2.862 9.5-5.486 12.848-6.623 3.236-1.098 6.256-2.807 8.956-5.052 5.437-4.521 8.874-10.636 9.799-17.021.713-4.929.403-9.1-.855-12.485-1.299-3.492-3.607-6.107-6.839-7.844l.184-.241c3.296 1.766 5.65 4.425 6.98 7.979 1.282 3.429 1.605 7.65.893 12.634-.925 6.485-4.408 12.701-9.927 17.301-2.744 2.287-5.816 4.028-9.108 5.148-3.409 1.16-8.644 2.946-12.655 7.348m-16.965-51.22c-1.086.803-1.287 2.135-1.287 2.135s1.589.004 2.675-.817c1.07-.808 1.23-2.103 1.23-2.103s-1.547-.008-2.618.785m10.191 40.349c1.334 1.753 1.561 3.86 1.544 3.867.007.028-2.64-.809-3.903-2.771-1.236-1.897-.771-3.806-.787-3.801.007.018 1.839 1.001 3.146 2.705"/><path d="M25.421 67.095c2.283-.445 2.998-2.428 2.999-2.41-.026.01-2.517-.802-4.605-.531-2.123.284-3.339 1.798-3.338 1.815-.032.008 2.617 1.586 4.944 1.126m-3.062-8.365c.907 1.879.691 3.88.677 3.884.003.026-2.305-1.243-3.115-3.301-.794-1.987.012-3.679-.003-3.677.003.019 1.553 1.271 2.441 3.094"/><path d="M19.774 64.215c2.229.019 3.289-1.689 3.288-1.673-.025.004-2.189-1.213-4.215-1.353-2.047-.133-3.486 1.037-3.488 1.052-.028.002 2.156 1.961 4.415 1.974m-1.25-8.327a7.12 7.12 0 0 1-.11 3.728c-.001.026-1.929-1.577-2.314-3.635-.379-1.988.699-3.413.686-3.413.001.017 1.249 1.465 1.738 3.32"/><path d="M15.034 60.49c2.098.435 3.421-.951 3.418-.936-.022 0-1.825-1.528-3.72-2.035-1.906-.5-3.482.313-3.486.327-.026-.002 1.673 2.212 3.788 2.644m.377-7.942c.123 1.866-.782 3.438-.795 3.437-.004.024-1.533-1.812-1.53-3.791-.004-1.912 1.277-3.044 1.264-3.046-.001.016.936 1.588 1.061 3.4"/><path d="M11.259 56.171c1.903.789 3.409-.25 3.404-.235-.02-.005-1.444-1.748-3.153-2.565-1.714-.808-3.348-.346-3.354-.333-.022-.007 1.192 2.348 3.103 3.133m1.78-7.288a6.05 6.05 0 0 1-1.365 3.046c-.007.022-1.133-1.953-.789-3.791.326-1.777 1.743-2.608 1.731-2.612-.004.016.623 1.65.423 3.357"/><path d="M8.462 51.493c1.663 1.075 3.272.386 3.266.398-.018-.006-1.06-1.877-2.543-2.943-1.483-1.056-3.105-.918-3.112-.907-.019-.01.725 2.385 2.389 3.452m2.946-6.445c-.5 1.6-1.81 2.597-1.819 2.592-.01.019-.742-2.013-.107-3.665.611-1.602 2.101-2.133 2.091-2.138-.007.014.317 1.654-.165 3.211"/><path d="M6.623 46.666c1.39 1.291 3.031.938 3.023.948-.014-.009-.683-1.93-1.912-3.183-1.223-1.24-2.774-1.394-2.782-1.385-.017-.013.285 2.339 1.671 3.62m3.878-5.487a5.3 5.3 0 0 1-2.166 2.104c-.012.018-.364-2.002.515-3.44.848-1.395 2.358-1.643 2.349-1.649-.009.012.024 1.611-.698 2.985"/><path d="M5.697 41.863c1.096 1.442 2.708 1.398 2.698 1.407-.012-.011-.325-1.917-1.276-3.3-.947-1.365-2.379-1.772-2.389-1.765-.014-.014-.124 2.23.967 3.658m4.594-4.47a5.11 5.11 0 0 1-2.41 1.608c-.015.014-.009-1.937 1.071-3.142 1.046-1.174 2.527-1.158 2.521-1.166-.012.011-.261 1.529-1.182 2.7"/><path d="M5.63 37.226c.787 1.534 2.318 1.767 2.308 1.773-.01-.012.015-1.85-.647-3.308-.659-1.439-1.933-2.057-1.943-2.051-.013-.016-.504 2.071.282 3.586m5.117-3.442c-1.113.979-2.563 1.128-2.568 1.12-.017.012.328-1.825 1.57-2.792 1.207-.943 2.62-.692 2.613-.701-.013.009-.531 1.415-1.615 2.373"/><path d="M6.366 32.865c.472 1.572 1.88 2.042 1.868 2.047-.008-.013.334-1.739-.027-3.227-.363-1.465-1.449-2.252-1.461-2.248-.01-.015-.855 1.876-.38 3.428m5.473-2.434c-1.244.754-2.646.662-2.65.653-.02.009.645-1.677 2.017-2.405 1.339-.713 2.648-.255 2.642-.264-.016.007-.794 1.275-2.009 2.016"/><path d="M7.85 28.864c.152 1.564 1.402 2.233 1.39 2.236-.006-.012.634-1.595.581-3.069-.061-1.451-.933-2.367-.946-2.365-.007-.016-1.184 1.655-1.025 3.198m5.694-1.471c-1.349.532-2.667.227-2.671.218-.02.006.949-1.503 2.426-1.996 1.444-.486 2.619.15 2.615.141-.017.004-1.05 1.113-2.37 1.637"/><path d="M10.042 25.287c-.172 1.517.891 2.346.877 2.347-.004-.013.922-1.426 1.183-2.849.249-1.4-.388-2.408-.401-2.407-.007-.016-1.499 1.414-1.659 2.909m5.803-.564c-1.432.314-2.637-.177-2.64-.185-.022.003 1.244-1.305 2.804-1.571 1.531-.264 2.546.521 2.543.512-.02.002-1.304.932-2.707 1.244"/><path d="M12.913 22.183c-.504 1.433.348 2.385.332 2.385-.001-.013 1.198-1.237 1.785-2.573.57-1.319.189-2.383.175-2.384-.005-.015-1.808 1.157-2.292 2.572"/><path d="M41.095 71.647l.403-.871c-4.194-5.412-12.443-5.891-15.723-7.073-3.165-1.143-6.087-2.911-8.658-5.223-5.143-4.623-8.182-10.786-8.714-17.109-.405-4.813.135-8.829 1.535-12.046a14.32 14.32 0 0 1 6.901-7.286l-.164-.228c-3.203 1.603-5.578 4.065-7.043 7.409-1.426 3.258-1.983 7.323-1.586 12.19.526 6.423 3.602 12.693 8.823 17.4 2.614 2.357 5.585 4.159 8.808 5.325 3.341 1.207 10.458 1.004 15.418 7.512M28.577 12.694l.322 1.357.035.177.046.25.047.263.035.215h.009l.035-.217.047-.261.052-.248.039-.179.341-1.357h.667l.341 1.353.037.176.051.252.051.266.037.215h.01l.037-.217.049-.259.049-.25.037-.183.309-1.353h.643l-.751 2.938h-.7l-.378-1.516-.086-.368-.077-.378h-.009l-.075.373-.084.369-.363 1.52h-.686l-.765-2.938h.648z"/><path d="M32.262 15.633v-2.938h.639v1.166h1.114v-1.166h.64v2.938h-.64v-1.269h-1.114v1.269zm5.046-2.939v.503h-.83v2.435h-.639v-2.435h-.811v-.503z"/><path d="M38.121 14.168c0 .174.021.326.062.455a.94.94 0 0 0 .17.321c.071.085.156.15.25.192a.75.75 0 0 0 .306.063c.106 0 .206-.021.301-.063a.64.64 0 0 0 .245-.192c.068-.085.122-.192.163-.321a1.51 1.51 0 0 0 .061-.455c0-.181-.022-.336-.064-.467s-.098-.238-.17-.324a.65.65 0 0 0-.249-.188.78.78 0 0 0-.305-.061.71.71 0 0 0-.304.065.66.66 0 0 0-.242.194c-.069.086-.123.193-.163.324s-.061.283-.061.457m.788-1.525a1.6 1.6 0 0 1 .578.102 1.28 1.28 0 0 1 .457.296c.128.13.228.289.301.479s.11.406.11.648a1.72 1.72 0 0 1-.112.635 1.42 1.42 0 0 1-.308.475 1.35 1.35 0 0 1-.464.301 1.6 1.6 0 0 1-.58.105c-.209 0-.402-.034-.58-.1s-.329-.165-.457-.294a1.38 1.38 0 0 1-.3-.476c-.074-.188-.11-.404-.11-.646 0-.236.037-.448.113-.637s.176-.348.307-.48a1.31 1.31 0 0 1 .464-.303 1.58 1.58 0 0 1 .581-.105m2.593 1.431h.261c.081 0 .158-.007.231-.021s.137-.039.192-.074a.41.41 0 0 0 .128-.14c.031-.058.046-.13.046-.217 0-.152-.051-.264-.154-.336s-.233-.108-.392-.108h-.312v.896zm-.639-1.38h1.031c.17 0 .326.02.463.061s.257.099.355.176a.79.79 0 0 1 .227.283.88.88 0 0 1 .079.38c0 .168-.032.312-.093.434s-.148.222-.255.301a1.11 1.11 0 0 1-.375.177 1.74 1.74 0 0 1-.457.058h-.336v1.069h-.639v-2.939zm2.182 2.608a.37.37 0 0 1 .031-.149c.02-.047.047-.087.081-.122a.4.4 0 0 1 .119-.08c.045-.018.093-.027.143-.027.099 0 .186.035.259.107s.109.162.109.271c0 .118-.037.211-.109.279s-.16.103-.259.103-.187-.034-.262-.103a.36.36 0 0 1-.112-.279m2.315-.075a.82.82 0 0 0 .264-.039c.076-.026.138-.053.188-.077l.116.428c-.061.035-.152.068-.27.099a1.52 1.52 0 0 1-.387.046c-.168 0-.325-.024-.471-.074s-.273-.124-.38-.222-.192-.219-.254-.361-.094-.31-.094-.499c0-.175.03-.333.089-.476s.141-.266.247-.369a1.07 1.07 0 0 1 .383-.237c.15-.055.312-.084.489-.084.097 0 .198.009.306.027a1.16 1.16 0 0 1 .338.121l-.13.43a1.12 1.12 0 0 0-.212-.091c-.077-.023-.154-.035-.232-.035-.192 0-.348.059-.469.177s-.179.291-.179.518c0 .134.019.246.058.338s.089.165.152.222.132.096.21.121.157.037.238.037m2.368-.7c0-.128-.014-.236-.042-.327a.61.61 0 0 0-.111-.219c-.047-.056-.102-.098-.163-.124a.49.49 0 0 0-.192-.039.5.5 0 0 0-.186.035c-.058.023-.113.062-.16.116a.64.64 0 0 0-.111.217 1.17 1.17 0 0 0-.042.341c0 .121.014.226.042.314a.6.6 0 0 0 .114.217c.048.057.103.099.164.126a.43.43 0 0 0 .188.042c.065 0 .128-.012.187-.035s.112-.062.159-.118a.62.62 0 0 0 .111-.218 1.1 1.1 0 0 0 .042-.328m.64-.023a1.31 1.31 0 0 1-.089.494c-.059.146-.141.269-.245.371s-.226.179-.367.233a1.24 1.24 0 0 1-.452.081c-.162 0-.311-.024-.45-.074s-.258-.123-.359-.22-.18-.215-.238-.356-.086-.303-.086-.483c0-.19.03-.358.088-.506a1.06 1.06 0 0 1 .246-.373c.104-.101.226-.178.366-.231s.291-.079.452-.079a1.32 1.32 0 0 1 .45.074 1.02 1.02 0 0 1 .359.217.98.98 0 0 1 .238.357 1.33 1.33 0 0 1 .087.495m1.063 1.129h-.62v-2.226h.484l.075.286a1.22 1.22 0 0 1 .327-.244.9.9 0 0 1 .401-.087c.317 0 .533.114.648.344.1-.108.213-.193.34-.254a.94.94 0 0 1 .411-.09c.237 0 .417.063.543.19s.19.312.19.556v1.525h-.621v-1.455c0-.107-.026-.19-.076-.25s-.127-.091-.227-.091c-.084 0-.169.021-.254.061a.62.62 0 0 0-.222.173v1.562h-.62v-1.455c0-.107-.026-.19-.077-.25s-.127-.091-.226-.091a.55.55 0 0 0-.254.067.69.69 0 0 0-.222.185v1.544z"/></g><path d="M22.718 12.436v.004l.233-.004.158 1.812.178-1.117h.744l.179 1.117.158-1.828h1.384v-.837h-4.073v.853zm2.185.566l-.317 3.661-.534-.046-.049.008-.384-1.878-.301 1.878-.05-.008-.534.046-.315-3.645h-.74v3.969h4.074v-3.985z" fill="#d8a735"/><use xlink:href="#C" class="B"/><use xlink:href="#C" class="C D"/><use xlink:href="#D" class="B"/><use xlink:href="#D" class="C D"/><use xlink:href="#E" class="B"/><use xlink:href="#E" class="C D"/><use xlink:href="#F" class="B"/><use xlink:href="#F" class="C D"/><path d="M43.067 35.902c.882 0 1.644.09 2.285.271s1.196.397 1.664.651l-.681 2.225c-.522-.267-1.046-.477-1.575-.631s-1.032-.231-1.513-.231c-.615 0-1.082.114-1.404.341s-.48.528-.48.902c0 .428.153.739.461.933s.782.397 1.423.611l1.183.381c.468.16.903.358 1.303.592s.745.504 1.032.811a3.45 3.45 0 0 1 .672 1.042 3.29 3.29 0 0 1 .24 1.264 3.86 3.86 0 0 1-.299 1.514 3.48 3.48 0 0 1-.914 1.253c-.407.36-.921.644-1.543.851s-1.353.312-2.195.312a9.89 9.89 0 0 1-2.256-.251c-.715-.167-1.373-.404-1.974-.712l.681-2.226a10.54 10.54 0 0 0 1.684.662 6.09 6.09 0 0 0 1.725.241c.708 0 1.219-.117 1.533-.351s.471-.552.471-.952c0-.134-.027-.268-.08-.401s-.157-.267-.31-.401-.368-.263-.642-.391-.625-.257-1.053-.391l-.982-.341c-.468-.174-.902-.367-1.303-.581a4.18 4.18 0 0 1-1.033-.762 3.19 3.19 0 0 1-.671-1.022c-.161-.388-.241-.849-.241-1.384 0-.548.104-1.056.311-1.523a3.31 3.31 0 0 1 .922-1.213c.408-.341.909-.609 1.503-.802s1.281-.291 2.056-.291" class="B"/><path d="M43.067 35.902c.882 0 1.644.09 2.285.271s1.196.397 1.664.651l-.681 2.225c-.522-.267-1.046-.477-1.575-.631s-1.032-.231-1.513-.231c-.615 0-1.082.114-1.404.341s-.48.528-.48.902c0 .428.153.739.461.933s.782.397 1.423.611l1.183.381c.468.16.903.358 1.303.592s.745.504 1.032.811a3.45 3.45 0 0 1 .672 1.042 3.29 3.29 0 0 1 .24 1.264 3.86 3.86 0 0 1-.299 1.514 3.48 3.48 0 0 1-.914 1.253c-.407.36-.921.644-1.543.851s-1.353.312-2.195.312a9.89 9.89 0 0 1-2.256-.251c-.715-.167-1.373-.404-1.974-.712l.681-2.226a10.54 10.54 0 0 0 1.684.662 6.09 6.09 0 0 0 1.725.241c.708 0 1.219-.117 1.533-.351s.471-.552.471-.952c0-.134-.027-.268-.08-.401s-.157-.267-.31-.401-.368-.263-.642-.391-.625-.257-1.053-.391l-.982-.341c-.468-.174-.902-.367-1.303-.581a4.18 4.18 0 0 1-1.033-.762 3.19 3.19 0 0 1-.671-1.022c-.161-.388-.241-.849-.241-1.384 0-.548.104-1.056.311-1.523a3.31 3.31 0 0 1 .922-1.213c.408-.341.909-.609 1.503-.802s1.281-.291 2.056-.291z" class="C D"/><use xlink:href="#G" class="B"/><use xlink:href="#G" class="C D"/><path d="M23.661 51.707l.54 1.657.063.198.071.24.07.247.054.221h.015a4.93 4.93 0 0 1 .122-.45l.146-.461.546-1.652h.726l-1.159 3.243h-.767l-1.173-3.243h.746zm3.438 1.524h.288a1.4 1.4 0 0 0 .255-.023c.08-.015.151-.042.211-.082a.43.43 0 0 0 .142-.155.5.5 0 0 0 .051-.239c0-.168-.056-.292-.17-.371s-.257-.118-.432-.118h-.345v.988zm-.705-1.523h1.138a1.84 1.84 0 0 1 .511.066c.153.045.284.11.392.196s.191.19.249.312a.95.95 0 0 1 .088.419 1.03 1.03 0 0 1-.103.478c-.069.135-.162.245-.281.332a1.22 1.22 0 0 1-.414.197c-.158.043-.326.064-.505.064h-.37v1.179h-.705v-3.243zm3.933-.058c.209 0 .395.021.556.062a2.01 2.01 0 0 1 .432.16l-.159.524c-.141-.068-.276-.121-.407-.157a1.43 1.43 0 0 0-.381-.054c-.164 0-.292.033-.384.098s-.136.153-.136.263.04.199.119.257.206.115.381.17l.308.098c.258.086.459.207.606.365a.83.83 0 0 1 .218.582.98.98 0 0 1-.077.386c-.052.12-.129.225-.232.314s-.232.16-.386.211a1.72 1.72 0 0 1-.54.077c-.388 0-.743-.079-1.065-.237l.159-.524a2.62 2.62 0 0 0 .432.167 1.65 1.65 0 0 0 .443.059c.181 0 .319-.034.412-.1s.138-.16.138-.282c0-.041-.007-.081-.023-.12s-.043-.077-.085-.113-.097-.072-.167-.108-.162-.072-.275-.106l-.273-.093a1.99 1.99 0 0 1-.33-.144 1.09 1.09 0 0 1-.255-.191c-.07-.071-.125-.156-.164-.254s-.059-.211-.059-.342c0-.141.025-.271.077-.389a.85.85 0 0 1 .229-.307c.101-.085.227-.152.376-.2a1.67 1.67 0 0 1 .512-.072m2.893 3.3v-3.243h.705v1.287h1.231v-1.287h.705v3.243h-.705v-1.4h-1.231v1.4zm4.992-1.22c0-.141-.016-.261-.047-.359a.71.71 0 0 0-.123-.243.48.48 0 0 0-.18-.136c-.069-.03-.139-.044-.212-.044a.53.53 0 0 0-.205.039.43.43 0 0 0-.175.129c-.051.059-.093.139-.123.239a1.25 1.25 0 0 0-.047.375c0 .135.015.25.047.348s.072.177.126.239a.54.54 0 0 0 .179.14.51.51 0 0 0 .209.045.55.55 0 0 0 .206-.038.45.45 0 0 0 .175-.131c.052-.062.093-.142.123-.24s.047-.218.047-.363m.705-.025c0 .203-.032.384-.098.546a1.18 1.18 0 0 1-.674.666 1.37 1.37 0 0 1-.499.09c-.179 0-.344-.027-.497-.083a1.08 1.08 0 0 1-.396-.241c-.112-.106-.199-.238-.263-.394a1.41 1.41 0 0 1-.095-.533c0-.209.033-.395.097-.558a1.18 1.18 0 0 1 .271-.412c.115-.112.25-.197.404-.255s.32-.087.499-.087.344.027.497.082.285.135.397.239a1.09 1.09 0 0 1 .262.394c.064.158.095.34.095.546m1.972-.624c-.202-.096-.397-.144-.587-.144-.109 0-.194.019-.254.057s-.091.089-.091.154.027.119.08.16.161.085.322.133l.155.047c.212.062.374.151.483.268s.165.267.165.453c0 .243-.093.437-.281.581s-.439.217-.759.217c-.326 0-.605-.059-.838-.175l.154-.505c.099.052.204.094.313.126a1.19 1.19 0 0 0 .335.049c.138 0 .238-.022.301-.065s.096-.098.096-.167-.031-.127-.093-.167-.179-.084-.35-.131l-.16-.046c-.206-.069-.356-.16-.453-.274s-.143-.263-.143-.452a.68.68 0 0 1 .251-.546c.168-.14.404-.211.706-.211a1.88 1.88 0 0 1 .793.159l-.145.479zm2.225-.093h-.654v1.133c0 .117.026.196.08.239s.124.065.214.065c.068 0 .138-.007.211-.021a.6.6 0 0 0 .174-.057l.103.479a1.49 1.49 0 0 1-.262.083 1.65 1.65 0 0 1-.371.041c-.299 0-.512-.06-.639-.178s-.19-.296-.19-.533v-1.251h-.381v-.494h.381v-.756h.68v.756h.654v.494z" fill="#fff"/><mask id="I" fill="#fff"><use xlink:href="#B"/></mask><path d="M43.668 54.95h.685v-2.456h-.685v2.456zm.345-2.98c-.116 0-.207-.035-.272-.101a.34.34 0 0 1-.098-.25c0-.1.032-.183.098-.249s.156-.101.272-.101.204.034.271.101.1.149.1.249-.032.183-.097.25a.37.37 0 0 1-.274.101h0zm1.704 2.98h-.685v-2.456h.536l.083.314c.113-.116.237-.207.373-.27a1.04 1.04 0 0 1 .45-.095c.271 0 .478.073.623.221s.216.362.216.643v1.643h-.685v-1.57c0-.127-.03-.228-.093-.301s-.152-.111-.272-.111c-.089 0-.183.025-.28.075a.95.95 0 0 0-.266.203v1.704zm3.605-1.627c0-.134-.036-.235-.108-.304s-.163-.102-.273-.102a.38.38 0 0 0-.276.102c-.071.069-.106.168-.106.299 0 .137.036.24.109.309a.38.38 0 0 0 .273.102.39.39 0 0 0 .276-.102c.072-.068.105-.17.105-.304h0zm-.777 1.709c-.052.027-.095.063-.129.108s-.052.101-.052.17c0 .1.046.183.137.249s.248.101.47.101.386-.038.49-.113.154-.161.154-.257-.032-.163-.098-.201-.167-.057-.303-.057h-.669zm-.66-1.704c0-.134.027-.255.081-.365a.85.85 0 0 1 .22-.281 1.01 1.01 0 0 1 .335-.177 1.4 1.4 0 0 1 .425-.062 1.47 1.47 0 0 1 .19.013 1.29 1.29 0 0 1 .191.038h1.05v.433h-.222l-.318-.046a.68.68 0 0 1 .11.206c.029.082.044.164.044.247a.79.79 0 0 1-.28.63c-.188.16-.445.239-.77.239-.086 0-.162-.007-.226-.021-.086.036-.129.091-.129.17 0 .056.018.097.056.124s.105.041.201.041h.55c.272 0 .489.06.652.178s.245.308.245.568a.73.73 0 0 1-.096.369.87.87 0 0 1-.27.288c-.117.081-.257.143-.422.188a2.14 2.14 0 0 1-.551.067c-.374 0-.67-.066-.888-.199s-.327-.321-.327-.568a.43.43 0 0 1 .113-.296.76.76 0 0 1 .315-.198c-.049-.034-.097-.083-.145-.147s-.072-.143-.072-.239a.44.44 0 0 1 .104-.294c.068-.082.155-.147.261-.195-.051-.028-.101-.063-.151-.106s-.096-.093-.137-.152-.074-.125-.1-.2a.77.77 0 0 1-.039-.253h0z" mask="url(#I)" fill="#fff"/></g></svg>