<?xml version="1.0" encoding="utf-8"?>
<!-- Generator: Adobe Illustrator 23.0.5, SVG Export Plug-In . SVG Version: 6.00 Build 0)  -->
<svg version="1.1" id="Layer_1" xmlns="http://www.w3.org/2000/svg" xmlns:xlink="http://www.w3.org/1999/xlink" x="0px" y="0px"
	 viewBox="0 0 68 68" style="enable-background:new 0 0 68 68;" xml:space="preserve">
<style type="text/css">
	.st0{opacity:0.1;fill-rule:evenodd;clip-rule:evenodd;fill:#2D84E8;enable-background:new    ;}
	.st1{fill:#2D83E7;}
	.st2{opacity:0.7;fill:#8CBBF2;enable-background:new    ;}
</style>
<title>F4BF5CD7-05F4-48A0-9C3C-0EABE89717C4</title>
<g id="icons">
	<g id="wordpress-copy" transform="translate(-23.000000, -25.000000)">
		<g transform="translate(23.000000, 25.000000)">
			<path id="Rectangle" class="st0" d="M34,0L34,0c18.8,0,34,15.2,34,34l0,0c0,18.8-15.2,34-34,34l0,0C15.2,68,0,52.8,0,34l0,0
				C0,15.2,15.2,0,34,0z"/>
			<g id="icon-wordpress" transform="translate(20.000000, 20.000000)">
				<path id="Shape" class="st1" d="M26.9,0H1.1C0.5,0,0,0.5,0,1.1v5.9C0,7.5,0.5,8,1.1,8h25.9C27.5,8,28,7.5,28,6.9V1.1
					C27.9,0.5,27.5,0,26.9,0z M6.1,5H2.9C2.4,5,2,4.5,2,4s0.4-1,0.9-1h3.1C6.6,3,7,3.5,7,4S6.6,5,6.1,5z M25.1,5H10.9
					C10.4,5,10,4.5,10,4s0.4-1,0.9-1h14.2C25.6,3,26,3.5,26,4S25.6,5,25.1,5z"/>
				<path class="st2" d="M26.9,10H1.1C0.5,10,0,10.5,0,11.1v15.9C0,27.5,0.5,28,1.1,28h25.9c0.6,0,1.1-0.5,1.1-1.1V11.1
					C27.9,10.5,27.5,10,26.9,10z M19,20H8.9C8.4,20,8,19.5,8,19s0.4-1,0.9-1h10.2c0.5,0,0.9,0.5,0.9,1S19.6,20,19,20z"/>
			</g>
		</g>
	</g>
</g>
</svg>
