<?xml version="1.0" encoding="utf-8"?>
<!-- Generator: Adobe Illustrator 23.0.5, SVG Export Plug-In . SVG Version: 6.00 Build 0)  -->
<svg version="1.1" id="Layer_1" xmlns="http://www.w3.org/2000/svg" xmlns:xlink="http://www.w3.org/1999/xlink" x="0px" y="0px"
	 viewBox="0 0 68 68" style="enable-background:new 0 0 68 68;" xml:space="preserve">
<style type="text/css">
	.st0{opacity:0.1;fill-rule:evenodd;clip-rule:evenodd;fill:#FFA35D;enable-background:new    ;}
	.st1{fill:#FFA35D;}
	.st2{opacity:0.4;fill:#FFA35D;enable-background:new    ;}
</style>
<title>F4BF5CD7-05F4-48A0-9C3C-0EABE89717C4</title>
<g id="icons">
	<g id="wordpress-copy" transform="translate(-23.000000, -25.000000)">
		<g transform="translate(23.000000, 25.000000)">
			<path id="Rectangle" class="st0" d="M34,0L34,0c18.8,0,34,15.2,34,34l0,0c0,18.8-15.2,34-34,34l0,0C15.2,68,0,52.8,0,34l0,0
				C0,15.2,15.2,0,34,0z"/>
		</g>
	</g>
</g>
<g>
	<g>
		<path class="st1" d="M35.2,38.1c0,0.5,0,1,0,1.4c0,2.2,0,4.5,0,6.7c0,2.2-1.6,3.8-3.8,3.8c-4.6,0-9.2,0-13.9,0
			c-2.2,0-3.8-1.5-3.8-3.6c-0.1-2.7,0-5.4,0-8.1c0-0.1,0-0.1,0-0.2c0.7,0.4,1.4,0.7,2.1,1.1c1.9,1,3.8,1.9,5.7,2.9c2,1,4,1,5.9,0
			c2.4-1.2,4.9-2.5,7.3-3.7C34.9,38.2,35,38.2,35.2,38.1z"/>
		<path class="st1" d="M14.1,36.3c0.7-1.3,1.8-2.1,3.3-2.1c4.7,0,9.4,0,14.2,0c1.5,0,2.6,0.7,3.3,2.1c-2.4,1.2-4.7,2.4-7,3.6
			c-0.7,0.4-1.4,0.7-2.2,1c-0.9,0.3-1.9,0.3-2.8-0.1C19.9,39.3,17,37.8,14.1,36.3z"/>
	</g>
	<g>
		<path class="st2" d="M24.5,26.1c0-1.8-0.1-3.7,0-5.5c0.1-1.5,1.5-2.6,3-2.6c7.2,0,14.4,0,21.6,0c1.6,0,3,1.3,3.1,2.9
			c0,0.2,0,0.3,0,0.5c0,1.6,0,3.1,0,4.7C43,26.1,33.7,26.1,24.5,26.1z M43,22.1c0-1-0.7-1.7-1.7-1.7c-1,0-1.8,0.8-1.7,1.7
			c0,0.9,0.8,1.7,1.7,1.7C42.2,23.8,43,23.1,43,22.1z M48.8,22.1c0-1-0.8-1.7-1.8-1.7c-1,0-1.7,0.8-1.7,1.7c0,1,0.8,1.8,1.7,1.8
			C48,23.8,48.8,23,48.8,22.1z"/>
		<path class="st2" d="M52.3,37.8H37.2v8.1c4,0,7.9,0,11.8,0c1.9,0,3.3-1.4,3.3-3.3v-4.4C52.3,38,52.3,37.9,52.3,37.8z M41.3,43.6
			c-1,0-1.8-0.8-1.7-1.7c0-0.9,0.8-1.7,1.7-1.7c1,0,1.7,0.8,1.8,1.7C43,42.8,42.2,43.6,41.3,43.6z M47.1,43.6c-1,0-1.8-0.8-1.8-1.7
			c0-1,0.8-1.8,1.7-1.8c0.9,0,1.8,0.8,1.8,1.7C48.8,42.8,48.1,43.6,47.1,43.6z"/>
		<path class="st2" d="M24.4,28.5v3.7c2.4,0,4.8,0,7.1,0c2.2,0,3.9,1.1,5,3c0,0,0.1,0.1,0.1,0.1l0,0.1h15.6v-6.9H24.4z M41.3,33.7
			c-1,0-1.8-0.8-1.8-1.7c0-0.9,0.8-1.7,1.7-1.7c1,0,1.7,0.8,1.7,1.7C43,32.9,42.2,33.7,41.3,33.7z M47.1,33.7c-1,0-1.7-0.8-1.7-1.7
			c0-1,0.8-1.7,1.8-1.7c1,0,1.7,0.8,1.7,1.8C48.8,32.9,48,33.7,47.1,33.7z"/>
	</g>
</g>
</svg>
