<?xml version="1.0" encoding="utf-8"?>
<!-- Generator: Adobe Illustrator 23.0.5, SVG Export Plug-In . SVG Version: 6.00 Build 0)  -->
<svg version="1.1"
	 id="svg2985" inkscape:version="0.48.4 r9939" sodipodi:docname="Forbes-logo.svg" xmlns:cc="http://creativecommons.org/ns#" xmlns:dc="http://purl.org/dc/elements/1.1/" xmlns:inkscape="http://www.inkscape.org/namespaces/inkscape" xmlns:rdf="http://www.w3.org/1999/02/22-rdf-syntax-ns#" xmlns:sodipodi="http://sodipodi.sourceforge.net/DTD/sodipodi-0.dtd" xmlns:svg="http://www.w3.org/2000/svg"
	 xmlns="http://www.w3.org/2000/svg" xmlns:xlink="http://www.w3.org/1999/xlink" x="0px" y="0px" viewBox="216 425.5 150 40"
	 style="enable-background:new 216 425.5 150 40;" xml:space="preserve">
<style type="text/css">
	.st0{fill:#33629A;}
</style>
<sodipodi:namedview  bordercolor="#666666" borderopacity="1" fit-margin-bottom="0" fit-margin-left="0" fit-margin-right="0" fit-margin-top="0" gridtolerance="10" guidetolerance="10" id="namedview2987" inkscape:current-layer="svg2985" inkscape:cx="685.02581" inkscape:cy="170.72431" inkscape:pageopacity="0" inkscape:pageshadow="2" inkscape:window-height="877" inkscape:window-maximized="1" inkscape:window-width="1440" inkscape:window-x="-8" inkscape:window-y="-8" inkscape:zoom="0.88622754" objecttolerance="10" pagecolor="#ffffff" showgrid="false">
	</sodipodi:namedview>
<path id="path2995" inkscape:connector-curvature="0" class="st0" d="M257.5,462.7c-2.3-0.3-4.3-1.3-5.8-2.8
	c-1.3-1.3-2.1-2.6-2.7-4.5c-1-3-1-6.8,0-9.7c0.9-2.8,3-5.3,5.5-6.5c3.5-1.8,8.5-1.7,11.7,0.3c2.9,1.7,4.7,4.8,5.2,9
	c0.2,1.3,0.1,4-0.2,5.1c-1,4.6-3.8,7.7-7.9,8.9c-0.4,0.1-1.1,0.3-1.5,0.3C260.9,462.8,258.3,462.8,257.5,462.7L257.5,462.7z
	 M260.9,460.9c0.7-0.2,1.5-1,1.9-1.8c0.9-1.7,1.3-4.3,1.3-8.4c0-5.1-0.8-8.3-2.5-10c-0.7-0.7-1.2-0.9-2.1-0.9c-2,0-3.3,2.1-3.8,6.2
	c-0.2,1.9-0.2,6.4,0,8.1C256.5,459.2,258.3,461.6,260.9,460.9L260.9,460.9z M297.9,462.7c-0.9-0.1-3.8-0.6-4.8-0.8l-0.7-0.2l0.1-3.7
	c0.1-8.9,0.1-13.7,0.1-18.4c-0.1-4.6-0.1-5.1-0.3-5.8c-0.2-0.9-0.6-1.5-0.9-1.7c-0.2-0.1-0.6-0.3-0.9-0.3c-1.2-0.3-1.1-0.2-1.1-0.8
	c0-0.3,0-0.5,0.1-0.6c0.1-0.1,9.7-1.9,10-1.9c0.1,0,0.1,1.2,0.1,5.5c0,3,0,5.5,0,5.5c0,0,0.4-0.2,0.8-0.3c1.2-0.6,2.3-0.8,4-0.9
	c1.1,0,1.6,0,2.1,0.1c3.6,0.8,6.3,3.7,7.3,8c0.2,1.1,0.3,3.9,0.2,5.3c-0.1,1.2-0.5,2.8-0.9,3.8c-1.6,3.9-4.9,6.5-9.3,7.2
	C302.5,462.8,299.3,462.8,297.9,462.7L297.9,462.7z M301.7,460.8c0.7-0.1,1.2-0.4,1.8-0.9c1.4-1.3,2.5-3.9,2.9-7.2
	c0.2-1.3,0.1-4.4,0-5.5c-0.5-3-1.6-5-3.2-5.8c-0.7-0.3-0.8-0.4-1.6-0.4c-0.6,0-1.1,0.1-1.5,0.2l-0.6,0.2l0,3.4
	c-0.1,4.4,0.1,15.5,0.2,15.8c0.1,0.2,0.2,0.2,0.5,0.3C301.1,460.9,301.2,460.9,301.7,460.8L301.7,460.8z M325,462.6
	c-4.7-0.8-8-4.2-9.1-9c-0.1-0.6-0.2-1.3-0.2-2.7c-0.1-2.1,0.1-3.5,0.7-5.1c1.1-3.2,3-5.4,5.7-6.8c2.9-1.4,6.9-1.5,9.5-0.2
	c2.9,1.5,4.6,4.4,5.1,8.6c0.1,0.6,0.1,1.2,0.1,1.5l0,0.5l-7,0l-7,0l0,0.8c0.1,1.9,0.5,3.6,1.2,5.1c0.3,0.7,0.6,1,1.3,1.7
	c1.5,1.5,3,2.1,5.4,2.1c1.7,0,2.9-0.3,4.2-1.2c0.4-0.2,0.7-0.4,0.8-0.4c0.2,0,0.7,0.6,0.7,0.8c0,0.4-1.4,1.8-2.7,2.6
	c-1.1,0.7-2.8,1.4-4.3,1.7C328.4,462.8,326.1,462.8,325,462.6L325,462.6z M328,447.3l1.6-0.1l-0.1-1.2c-0.2-4.1-1.2-6.4-2.8-6.4
	c-1.8,0-3.2,2.3-3.8,6.1c-0.1,0.5-0.1,1-0.1,1.2l0,0.4l1.8,0C325.6,447.3,327.1,447.3,328,447.3L328,447.3z M343.9,462.7
	c-1.7-0.2-4.4-0.8-5.2-1.1l-0.4-0.2l-0.1-2.2c0-1.2-0.1-2.8-0.1-3.5l0-1.4l0.3-0.1c0.1-0.1,0.4-0.1,0.6-0.1l0.4,0l0.3,0.8
	c1.3,3.1,2.8,4.8,4.7,5.3c0.7,0.2,2.1,0.2,2.7,0c1.5-0.5,2.4-1.7,2.4-3.3c0-1.9-1-2.8-4.9-4.3c-2.4-0.9-3.3-1.4-4.3-2.5
	c-1.1-1.1-1.6-2.4-1.7-4.1c-0.1-2.1,0.5-3.9,2-5.5c1.5-1.5,3.4-2.4,6-2.6c2.3-0.2,5.9,0.3,7.7,1.1l0.3,0.1l0.1,1.9
	c0,1.1,0.1,2.5,0.1,3.1l0,1.2l-0.5,0.2c-0.7,0.3-0.8,0.2-1.2-0.8c-1.1-3-2.4-4.4-4.5-4.8c-1.2-0.3-2.3,0-3,0.8
	c-0.6,0.6-0.8,1.2-0.9,2.1c-0.1,1,0.1,1.6,0.7,2.2c0.8,0.8,2,1.6,4.5,2.6c3.1,1.3,4.5,2.4,5.3,3.9c0.5,1,0.7,1.9,0.6,3.4
	c0,1.2-0.1,1.4-0.3,2.2c-0.9,2.6-2.9,4.3-5.9,5.1c-1,0.3-1.2,0.3-3.3,0.3C345.3,462.8,344.1,462.7,343.9,462.7z M225,462.2
	c-0.1,0-0.1-0.3-0.1-0.7c0-0.8,0-0.7,1.5-1c1.2-0.2,1.6-0.4,2.1-1.1c1-1.3,1.2-3.8,1.2-14.1c0-9.7-0.2-11.7-1.2-13.2
	c-0.5-0.7-1.2-1-2.5-1.2l-1-0.1l0-0.8l0-0.8l0.3-0.1c0.2,0,6.2,0,13.3,0l13,0l0.1,0.4c0,0.2,0.1,2.3,0.1,4.7l0.1,4.4l-0.7,0.2
	c-1,0.3-1,0.3-1.5-0.9c-1.1-3-2.4-4.7-4.1-5.5c-1.2-0.6-1.8-0.7-5.2-0.7h-3l-0.1,0.5c-0.1,0.9-0.2,6.9-0.2,9.7l0,2.8l0.9,0
	c0.5,0,1.4,0,2.1-0.1c1-0.1,1.3-0.1,1.7-0.3c1-0.5,1.8-1.5,2.2-3.3l0.2-0.9l0.8,0l0.8,0v5.7v5.7l-0.8,0l-0.8,0l-0.2-0.9
	c-0.4-1.7-1.2-2.9-2.2-3.3c-0.5-0.2-1.6-0.3-3.7-0.4l-1,0v2.1c0,2.3,0.1,5.5,0.3,7.2c0.2,2.4,0.8,3.7,1.9,4.2
	c0.2,0.1,0.9,0.2,1.5,0.3c0.6,0.1,1.2,0.2,1.2,0.2c0.2,0.1,0.2,1.3,0,1.4C241.8,462.2,225.2,462.2,225,462.2L225,462.2z
	 M271.5,462.1c-0.1-0.1-0.1-0.3-0.1-0.7l0-0.7l0.3-0.1c0.2,0,0.6-0.1,0.9-0.2c0.9-0.2,1.4-0.7,1.7-1.6c0.2-0.8,0.3-3.3,0.4-8.4
	c0-6.2-0.1-7.7-0.8-8.5c-0.3-0.5-0.6-0.6-1.4-0.7c-0.4-0.1-0.8-0.2-1-0.2c-0.2,0-0.2-0.1-0.2-0.6c0-0.4,0-0.5,0.2-0.6
	c0.3-0.1,9.6-2,9.9-2h0.2l0,1.4c0,0.8-0.1,1.9-0.1,2.5l0,1.1l0.3-0.6c1.1-2,2.3-3.2,3.9-3.9c0.9-0.4,1.5-0.5,2.6-0.5
	c1.3,0,2.6,0.4,2.6,0.8c0,0.3-2.3,6.3-2.4,6.4c-0.1,0-0.5-0.1-1-0.4c-1-0.5-2-0.7-2.9-0.7c-1.1,0-2.4,0.4-2.9,1
	c-0.2,0.2-0.2,0.2-0.3,3.7c-0.1,3.4,0.1,7.6,0.3,9.3c0.2,1.4,0.5,2.1,1.3,2.5c0.3,0.1,1.9,0.3,2.5,0.3c0,0,0.1,0.3,0,0.7l0,0.7l-7,0
	C274.7,462.2,271.5,462.2,271.5,462.1L271.5,462.1z"/>
</svg>
