<?xml version="1.0" encoding="utf-8"?>
<!-- Generator: Adobe Illustrator 23.0.5, SVG Export Plug-In . SVG Version: 6.00 Build 0)  -->
<svg version="1.1" id="Layer_1" xmlns="http://www.w3.org/2000/svg" xmlns:xlink="http://www.w3.org/1999/xlink" x="0px" y="0px"
	 viewBox="0 0 110 110" style="enable-background:new 0 0 110 110;" xml:space="preserve">
<style type="text/css">
	.st0{fill:#F36B21;}
	.st1{fill:#333230;}
</style>
<g id="g30_1_" transform="matrix(0.59417267,0,0,0.59417267,5.2392642,18.116547)">
	<g id="g8_1_">
		<polygon id="polygon4_1_" class="st0" points="93.2,9.9 86.9,16.2 90,19.3 99.5,9.9 90,0.5 80.6,9.9 83.7,13 90,6.8 		"/>
		<polygon id="polygon6_1_" class="st0" points="86.9,22.5 83.7,19.3 74.6,10.1 74.3,9.9 86.9,-2.7 83.7,-5.8 68,9.9 83.7,25.6 		
			"/>
	</g>
	<g id="g28_1_">
		<path id="path10_1_" class="st1" d="M39.4,40.1h2.4v4.7c-1.5,1-3.2,1.6-5,1.6c-3.5,0.1-6.4-2.6-6.6-6c0-0.1,0-0.2,0-0.2
			c0-3.6,2.9-6.3,6.7-6.3c1.8,0,3.6,0.6,5,1.8l-1.6,2c-0.9-0.9-2.1-1.3-3.4-1.4c-2.1,0-3.9,1.7-3.9,3.9s1.9,3.8,4,3.8l0,0
			c0.8,0,1.7-0.3,2.4-0.7V40.1z"/>
		<path id="path12_1_" class="st1" d="M53.7,34v2.3h-6.6V39h6v2.3h-6V44h6.8v2.3h-9.6V34H53.7z"/>
		<path id="path14_1_" class="st1" d="M65.5,34v2.3h-6.6V39h6v2.3h-6V44h6.8v2.3h-9.6V34H65.5z"/>
		<path id="path16_1_" class="st1" d="M76,46.4l-3.5-5l-1.8,2v3.1h-2.8V34h2.8v5.6l5.1-5.6H79l-4.6,5.2l5,7.2H76L76,46.4z"/>
		<path id="path18_1_" class="st1" d="M90,34v2.3h-6.1v3h5.6v2.3h-5.6v4.7h-2.8V34H90z"/>
		<path id="path20_1_" class="st1" d="M95.3,34v9.9h5.3v2.4h-8.1V34H95.3z"/>
		<path id="path22_1_" class="st1" d="M110.5,44h-5.7l-1,2.4h-2.9l5.4-12.4h2.9l5.3,12.4h-3L110.5,44z M109.6,41.7l-1.9-4.8l-2,4.8
			H109.6z"/>
		<path id="path24_1_" class="st1" d="M123.3,46.4l-2-3.5h-2.8v3.5h-2.8V34h5.4c3.2,0,5.1,1.6,5.1,4.3c0.1,1.7-0.8,3.3-2.3,4
			l2.6,4.1L123.3,46.4L123.3,46.4z M118.5,40.5h2.6c1.5,0,2.4-0.7,2.4-2.1c0-1.4-0.9-2.1-2.4-2.1h-2.6V40.5z"/>
		<path id="path26_1_" class="st1" d="M137,34v2.3h-6.6V39h6v2.3h-6V44h6.8v2.3h-9.6V34H137z"/>
	</g>
</g>
<g>
	<path d="M20.6,67.4c0,0.3-0.1,0.6-0.2,0.8c-0.1,0.2-0.3,0.4-0.5,0.6s-0.5,0.3-0.8,0.4s-0.6,0.1-1.1,0.1h-2.5v-6.2h2.2
		c0.5,0,0.8,0,1,0.1c0.2,0,0.5,0.1,0.7,0.2c0.2,0.1,0.4,0.3,0.5,0.5c0.1,0.2,0.2,0.4,0.2,0.7c0,0.3-0.1,0.6-0.2,0.8
		c-0.2,0.2-0.4,0.4-0.6,0.5l0,0c0.4,0.1,0.7,0.2,0.9,0.5C20.5,66.6,20.6,67,20.6,67.4z M18.6,64.8c0-0.1,0-0.2-0.1-0.3
		c-0.1-0.1-0.1-0.2-0.2-0.2s-0.2-0.1-0.4-0.1s-0.4,0-0.6,0h-0.1v1.3h0.2c0.3,0,0.5,0,0.6,0s0.2,0,0.3-0.1c0.1-0.1,0.2-0.1,0.3-0.2
		C18.6,65.1,18.6,65,18.6,64.8z M19,67.4c0-0.2,0-0.3-0.1-0.5c-0.1-0.1-0.2-0.2-0.4-0.2c-0.1,0-0.2-0.1-0.4-0.1s-0.4,0-0.7,0h-0.3
		v1.6h0.1c0.4,0,0.7,0,0.8,0s0.3,0,0.5-0.1c0.1-0.1,0.2-0.2,0.3-0.3S19,67.5,19,67.4z"/>
	<path d="M23.8,69.4c-0.9,0-1.6-0.2-2-0.6s-0.7-1-0.7-1.8s0.2-1.4,0.7-1.8s1.1-0.7,1.8-0.7c0.7,0,1.3,0.2,1.6,0.6s0.5,0.9,0.5,1.7
		v0.5h-3.2c0,0.2,0.1,0.4,0.1,0.5s0.2,0.3,0.3,0.3c0.1,0.1,0.3,0.1,0.4,0.2c0.2,0,0.3,0.1,0.5,0.1s0.3,0,0.5-0.1
		c0.2,0,0.3-0.1,0.5-0.1c0.1-0.1,0.2-0.1,0.3-0.2s0.2-0.1,0.2-0.2h0.2V69c-0.1,0-0.2,0.1-0.3,0.1c-0.1,0-0.2,0.1-0.4,0.1
		c-0.2,0-0.3,0.1-0.5,0.1C24.3,69.4,24.1,69.4,23.8,69.4z M24.3,66.4c0-0.3-0.1-0.5-0.2-0.7s-0.3-0.2-0.6-0.2
		c-0.3,0-0.5,0.1-0.7,0.3s-0.2,0.4-0.3,0.7h1.8V66.4z"/>
	<path d="M27.9,69.4c-0.3,0-0.7,0-1-0.1s-0.6-0.2-0.8-0.3v-1.2h0.1c0.1,0.1,0.1,0.1,0.2,0.2s0.2,0.1,0.4,0.2
		c0.1,0.1,0.3,0.1,0.5,0.2c0.2,0,0.4,0.1,0.6,0.1s0.4,0,0.5-0.1s0.2-0.2,0.2-0.3c0-0.1,0-0.2-0.1-0.2c-0.1-0.1-0.2-0.1-0.4-0.2
		c-0.1,0-0.3-0.1-0.4-0.1s-0.3-0.1-0.5-0.1c-0.4-0.1-0.6-0.3-0.8-0.5c-0.2-0.2-0.3-0.5-0.3-0.9c0-0.2,0-0.4,0.1-0.6s0.2-0.3,0.4-0.5
		c0.2-0.1,0.4-0.3,0.7-0.3c0.3-0.1,0.6-0.1,0.9-0.1s0.6,0,0.9,0.1s0.5,0.1,0.7,0.2V66h-0.1c0,0-0.1-0.1-0.2-0.2s-0.2-0.1-0.3-0.2
		c-0.1-0.1-0.3-0.1-0.4-0.1s-0.3-0.1-0.5-0.1s-0.4,0-0.5,0.1s-0.2,0.2-0.2,0.3c0,0.1,0,0.2,0.1,0.3s0.2,0.1,0.5,0.2
		c0.1,0,0.3,0.1,0.4,0.1s0.3,0.1,0.5,0.1c0.3,0.1,0.6,0.3,0.8,0.5c0.2,0.2,0.3,0.5,0.3,0.8c0,0.2-0.1,0.4-0.2,0.6s-0.2,0.4-0.4,0.5
		c-0.2,0.1-0.4,0.3-0.7,0.3C28.7,69.4,28.3,69.4,27.9,69.4z"/>
	<path d="M32.7,69.4c-0.6,0-1-0.1-1.3-0.4c-0.3-0.2-0.4-0.6-0.4-1.2v-2.2h-0.6v-1H31v-1.3h1.5v1.3h1.4v1h-1.4v1.7c0,0.2,0,0.3,0,0.4
		s0,0.2,0.1,0.3c0,0.1,0.1,0.2,0.2,0.2c0.1,0.1,0.2,0.1,0.4,0.1c0.1,0,0.2,0,0.3,0s0.2-0.1,0.3-0.1h0.1v1c-0.2,0-0.3,0.1-0.5,0.1
		C33.2,69.4,33,69.4,32.7,69.4z"/>
	<path d="M43.4,69.3h-1.6v-4.1l-1.1,2.7h-1.1l-1.1-2.7v4.1H37v-6.2h1.8l1.4,3.1l1.4-3.1h1.8C43.4,63.1,43.4,69.3,43.4,69.3z"/>
	<path d="M47.2,68.8C47.1,68.9,47,69,47,69c-0.1,0.1-0.2,0.1-0.3,0.2s-0.3,0.1-0.4,0.1s-0.3,0-0.5,0c-0.4,0-0.8-0.1-1-0.4
		c-0.3-0.3-0.4-0.6-0.4-1.1c0-0.3,0.1-0.6,0.2-0.8s0.3-0.4,0.6-0.5s0.6-0.2,0.9-0.3c0.4-0.1,0.8-0.1,1.2-0.1l0,0
		c0-0.3-0.1-0.4-0.3-0.5s-0.5-0.1-0.9-0.1c-0.2,0-0.4,0-0.6,0.1c-0.2,0.1-0.5,0.1-0.7,0.2h-0.1v-1.1c0.1,0,0.4-0.1,0.7-0.1
		c0.3-0.1,0.6-0.1,1-0.1c0.8,0,1.4,0.1,1.8,0.4c0.4,0.3,0.6,0.7,0.6,1.2v3.2h-1.5L47.2,68.8L47.2,68.8z M47.2,68.1v-1
		c-0.2,0-0.4,0-0.6,0.1c-0.2,0-0.3,0.1-0.5,0.1c-0.1,0-0.2,0.1-0.3,0.2s-0.1,0.2-0.1,0.4c0,0.2,0.1,0.4,0.2,0.5
		c0.1,0.1,0.3,0.1,0.5,0.1c0.1,0,0.3,0,0.4-0.1S47.1,68.2,47.2,68.1z"/>
	<path d="M54.2,69.3h-1.5V67c0-0.2,0-0.4,0-0.6s0-0.3-0.1-0.4s-0.1-0.2-0.2-0.2s-0.2-0.1-0.4-0.1c-0.1,0-0.2,0-0.4,0.1
		c-0.1,0-0.3,0.1-0.4,0.2v3.3h-1.5v-4.7h1.5v0.5c0.2-0.2,0.5-0.4,0.7-0.5s0.5-0.2,0.8-0.2c0.5,0,0.8,0.2,1.1,0.5s0.4,0.7,0.4,1.3
		C54.2,66.2,54.2,69.3,54.2,69.3z"/>
	<path d="M57.8,68.8c-0.1,0.1-0.2,0.2-0.3,0.2c-0.1,0.1-0.2,0.1-0.3,0.2s-0.3,0.1-0.4,0.1s-0.3,0-0.5,0c-0.4,0-0.8-0.1-1-0.4
		c-0.3-0.3-0.4-0.6-0.4-1.1c0-0.3,0.1-0.6,0.2-0.8s0.3-0.4,0.6-0.5s0.6-0.2,0.9-0.3c0.4-0.1,0.8-0.1,1.2-0.1l0,0
		c0-0.3-0.1-0.4-0.3-0.5s-0.5-0.1-0.9-0.1c-0.2,0-0.4,0-0.6,0.1c-0.2,0.1-0.5,0.1-0.7,0.2h-0.1v-1.1c0.1,0,0.4-0.1,0.7-0.1
		c0.3-0.1,0.6-0.1,1-0.1c0.8,0,1.4,0.1,1.8,0.4c0.4,0.3,0.6,0.7,0.6,1.2v3.2h-1.5V68.8z M57.8,68.1v-1c-0.2,0-0.4,0-0.6,0.1
		c-0.2,0-0.3,0.1-0.5,0.1c-0.1,0-0.2,0.1-0.3,0.2s-0.1,0.2-0.1,0.4c0,0.2,0.1,0.4,0.2,0.5c0.1,0.1,0.3,0.1,0.5,0.1
		c0.1,0,0.3,0,0.4-0.1S57.7,68.2,57.8,68.1z"/>
	<path d="M64.6,68.8c0,0.4-0.1,0.8-0.2,1.1c-0.1,0.3-0.3,0.5-0.5,0.7c-0.2,0.2-0.5,0.3-0.8,0.4s-0.6,0.1-1,0.1c-0.3,0-0.6,0-0.9-0.1
		c-0.3,0-0.5-0.1-0.7-0.1v-1.2h0.2c0.1,0,0.2,0.1,0.3,0.1s0.2,0.1,0.3,0.1s0.2,0.1,0.4,0.1s0.2,0,0.4,0s0.5,0,0.6-0.1
		c0.2-0.1,0.3-0.1,0.4-0.2c0.1-0.1,0.1-0.2,0.2-0.3c0-0.1,0-0.3,0-0.5v-0.1c-0.2,0.1-0.4,0.3-0.6,0.3c-0.2,0.1-0.4,0.1-0.7,0.1
		c-0.6,0-1.1-0.2-1.4-0.6c-0.3-0.4-0.5-1-0.5-1.8c0-0.4,0.1-0.7,0.2-1c0.1-0.3,0.2-0.5,0.4-0.7s0.4-0.4,0.6-0.5s0.5-0.2,0.8-0.2
		c0.2,0,0.5,0,0.6,0.1s0.4,0.1,0.5,0.2l0.1-0.2h1.4L64.6,68.8L64.6,68.8z M63.2,67.8v-2.1c-0.1,0-0.2-0.1-0.3-0.1s-0.2,0-0.3,0
		c-0.4,0-0.6,0.1-0.8,0.3c-0.2,0.2-0.3,0.5-0.3,1c0,0.2,0,0.4,0,0.5s0.1,0.3,0.1,0.4c0.1,0.1,0.2,0.2,0.3,0.2
		c0.1,0.1,0.3,0.1,0.4,0.1c0.1,0,0.3,0,0.4-0.1C62.9,68,63.1,67.9,63.2,67.8z"/>
	<path d="M68.2,69.4c-0.9,0-1.6-0.2-2-0.6s-0.7-1-0.7-1.8s0.2-1.4,0.7-1.8s1.1-0.7,1.8-0.7c0.7,0,1.3,0.2,1.6,0.6s0.5,0.9,0.5,1.7
		v0.5h-3.2c0,0.2,0.1,0.4,0.1,0.5s0.2,0.3,0.3,0.3c0.1,0.1,0.3,0.1,0.4,0.2c0.2,0,0.3,0.1,0.5,0.1s0.3,0,0.5-0.1
		c0.2,0,0.3-0.1,0.5-0.1c0.1-0.1,0.2-0.1,0.3-0.2s0.2-0.1,0.2-0.2H70V69c-0.1,0-0.2,0.1-0.3,0.1c-0.1,0-0.2,0.1-0.4,0.1
		c-0.2,0-0.3,0.1-0.5,0.1C68.6,69.4,68.4,69.4,68.2,69.4z M68.6,66.4c0-0.3-0.1-0.5-0.2-0.7s-0.3-0.2-0.6-0.2
		c-0.3,0-0.5,0.1-0.7,0.3s-0.2,0.4-0.3,0.7h1.8V66.4z"/>
	<path d="M75.1,69.3h-1.5v-0.5c-0.1,0.1-0.2,0.2-0.3,0.3s-0.2,0.2-0.3,0.2c-0.1,0.1-0.2,0.1-0.3,0.1c-0.1,0-0.3,0-0.4,0
		c-0.5,0-1-0.2-1.3-0.7c-0.3-0.4-0.5-1-0.5-1.8c0-0.4,0.1-0.8,0.2-1.1c0.1-0.3,0.3-0.6,0.4-0.8c0.2-0.2,0.4-0.4,0.6-0.5
		s0.5-0.2,0.8-0.2c0.2,0,0.4,0,0.6,0.1s0.3,0.1,0.5,0.2v-2h1.5L75.1,69.3L75.1,69.3z M73.6,68v-2.3c-0.1,0-0.2-0.1-0.3-0.1
		c-0.1,0-0.2,0-0.3,0c-0.4,0-0.6,0.1-0.8,0.4c-0.2,0.2-0.3,0.6-0.3,1c0,0.5,0.1,0.8,0.2,1s0.4,0.3,0.7,0.3c0.1,0,0.3,0,0.4-0.1
		C73.4,68.2,73.5,68.1,73.6,68z"/>
	<path d="M84,63.1l-2.1,6.2h-1.6l-2.1-6.2h1.6l1.4,4.2l1.4-4.2C82.6,63.1,84,63.1,84,63.1z"/>
	<path d="M89.4,65c0,0.3,0,0.6-0.1,0.8c-0.1,0.3-0.2,0.5-0.4,0.7c-0.1,0.1-0.2,0.2-0.3,0.3c-0.1,0.1-0.3,0.2-0.4,0.2
		c-0.2,0.1-0.3,0.1-0.5,0.2s-0.4,0.1-0.6,0.1h-0.8v2h-1.6v-6.2H87c0.4,0,0.7,0,0.9,0.1s0.5,0.2,0.7,0.3c0.2,0.2,0.4,0.4,0.5,0.6
		C89.3,64.4,89.4,64.7,89.4,65z M87.8,65.1c0-0.2,0-0.3-0.1-0.5c-0.1-0.1-0.2-0.2-0.3-0.3c-0.1-0.1-0.3-0.1-0.4-0.1s-0.3,0-0.5,0
		h-0.2v1.9h0.1c0.1,0,0.3,0,0.4,0s0.2,0,0.3,0c0.1,0,0.2,0,0.3-0.1c0.1,0,0.2-0.1,0.2-0.1c0.1-0.1,0.2-0.2,0.2-0.3
		C87.8,65.4,87.8,65.3,87.8,65.1z"/>
	<path d="M92.1,69.4c-0.5,0-0.9,0-1.3-0.1s-0.7-0.2-1-0.3v-1.5H90c0.3,0.3,0.7,0.5,1,0.6c0.4,0.1,0.7,0.2,1.1,0.2c0.1,0,0.2,0,0.4,0
		c0.1,0,0.3,0,0.4-0.1c0.1,0,0.2-0.1,0.3-0.2s0.1-0.2,0.1-0.3c0-0.2-0.1-0.3-0.2-0.4s-0.3-0.2-0.4-0.2C92.5,67,92.3,67,92,66.9
		c-0.2-0.1-0.5-0.1-0.7-0.2c-0.5-0.2-0.8-0.4-1-0.7S90,65.4,90,64.9c0-0.6,0.2-1.1,0.7-1.4c0.5-0.4,1.1-0.5,1.8-0.5
		c0.4,0,0.7,0,1.1,0.1s0.7,0.2,1,0.3v1.4h-0.1c-0.2-0.2-0.5-0.4-0.8-0.5s-0.7-0.2-1-0.2c-0.1,0-0.3,0-0.4,0s-0.2,0.1-0.3,0.1
		c-0.1,0-0.2,0.1-0.3,0.2c-0.1,0.1-0.1,0.2-0.1,0.3c0,0.2,0.1,0.3,0.2,0.4s0.3,0.2,0.7,0.3c0.2,0,0.4,0.1,0.6,0.1s0.4,0.1,0.6,0.2
		c0.4,0.2,0.8,0.4,1,0.6c0.2,0.3,0.3,0.6,0.3,1c0,0.6-0.2,1.1-0.7,1.5C93.6,69.2,93,69.4,92.1,69.4z"/>
	<path d="M42,76L42,76c-0.2,0-0.2,0-0.4-0.1s-0.2,0-0.3,0c-0.3,0-0.5,0.1-0.6,0.2s-0.2,0.3-0.2,0.6l0,0h1.2v1h-1.1v3.7h-1.5v-3.7
		h-0.6v-1h0.6v-0.1c0-0.6,0.2-1,0.5-1.3s0.8-0.4,1.4-0.4c0.2,0,0.4,0,0.6,0c0.2,0,0.3,0,0.5,0.1v1H42z"/>
	<path d="M46.8,79.1c0,0.8-0.2,1.4-0.6,1.8c-0.4,0.4-1,0.7-1.8,0.7s-1.4-0.2-1.8-0.7c-0.4-0.4-0.6-1.1-0.6-1.8
		c0-0.8,0.2-1.4,0.6-1.8c0.4-0.4,1-0.7,1.8-0.7s1.4,0.2,1.8,0.7C46.6,77.7,46.8,78.3,46.8,79.1z M45.3,79.1c0-0.3,0-0.5-0.1-0.7
		c0-0.2-0.1-0.3-0.2-0.4c-0.1-0.1-0.2-0.2-0.3-0.2s-0.2-0.1-0.4-0.1c-0.1,0-0.2,0-0.4,0.1c-0.1,0-0.2,0.1-0.3,0.2s-0.2,0.3-0.2,0.4
		c0,0.2-0.1,0.4-0.1,0.7s0,0.5,0.1,0.7c0,0.2,0.1,0.3,0.2,0.4c0.1,0.1,0.2,0.2,0.3,0.2c0.1,0.1,0.2,0.1,0.4,0.1c0.1,0,0.2,0,0.4-0.1
		c0.1,0,0.2-0.1,0.3-0.2s0.2-0.3,0.2-0.4S45.3,79.4,45.3,79.1z"/>
	<path d="M50.7,78.1L50.7,78.1c-0.2,0-0.2,0-0.3,0c-0.1,0-0.2,0-0.4,0s-0.3,0-0.5,0.1c-0.2,0-0.3,0.1-0.5,0.2v3.1h-1.5v-4.7H49v0.7
		c0.1-0.1,0.2-0.1,0.3-0.2s0.2-0.2,0.3-0.2c0.1-0.1,0.2-0.1,0.4-0.2s0.3-0.1,0.4-0.1c0,0,0.1,0,0.2,0s0.1,0,0.2,0v1.3H50.7z"/>
	<path d="M55.8,81.5c-0.5,0-0.9,0-1.3-0.1s-0.7-0.2-1-0.3v-1.5h0.1c0.3,0.3,0.7,0.5,1,0.6c0.4,0.1,0.7,0.2,1.1,0.2
		c0.1,0,0.2,0,0.4,0c0.1,0,0.3,0,0.4-0.1c0.1,0,0.2-0.1,0.3-0.2s0.1-0.2,0.1-0.3c0-0.2-0.1-0.3-0.2-0.4c-0.1-0.1-0.3-0.2-0.4-0.2
		c-0.2-0.1-0.4-0.1-0.7-0.2c-0.2-0.1-0.5-0.1-0.7-0.2c-0.5-0.2-0.8-0.4-1-0.7s-0.3-0.6-0.3-1.1c0-0.6,0.2-1.1,0.7-1.4
		c0.5-0.4,1.1-0.5,1.8-0.5c0.4,0,0.7,0,1.1,0.1s0.7,0.2,1,0.3v1.4h-0.1c-0.2-0.2-0.5-0.4-0.8-0.5s-0.7-0.2-1-0.2c-0.1,0-0.3,0-0.4,0
		c-0.1,0-0.2,0.1-0.3,0.1s-0.2,0.1-0.3,0.2s-0.1,0.2-0.1,0.3c0,0.2,0.1,0.3,0.2,0.4c0.1,0.1,0.3,0.2,0.7,0.3c0.2,0,0.4,0.1,0.6,0.1
		s0.4,0.1,0.6,0.2c0.4,0.2,0.8,0.4,1,0.6c0.2,0.3,0.3,0.6,0.3,1c0,0.6-0.2,1.1-0.7,1.5C57.3,81.3,56.6,81.5,55.8,81.5z"/>
	<path d="M65.6,81.4H64v-4.1l-1,2.6h-1.1l-1.1-2.7v4.1h-1.5v-6.2h1.8l1.4,3.1l1.4-3.1h1.8v6.3H65.6z"/>
	<path d="M66.9,81.4v-6.2h4.2v1.2h-2.7v1.1h2.4v1.2h-2.4v1.6h2.7v1.2L66.9,81.4L66.9,81.4z"/>
</g>
<g>
	<path d="M48.7,94.6h-5.5v-1.2c0.5-0.4,0.9-0.7,1.3-1c0.4-0.3,0.7-0.6,1-0.9c0.4-0.4,0.6-0.7,0.8-1s0.2-0.6,0.2-0.9
		s-0.1-0.6-0.3-0.8c-0.2-0.2-0.5-0.3-0.9-0.3c-0.2,0-0.4,0-0.5,0.1s-0.3,0.1-0.5,0.2S44,89,43.9,89c-0.1,0.1-0.2,0.1-0.3,0.2h-0.1
		v-1.6c0.2-0.1,0.5-0.2,1-0.3c0.4-0.1,0.9-0.2,1.3-0.2c0.9,0,1.6,0.2,2,0.6c0.5,0.4,0.7,1,0.7,1.7c0,0.4-0.1,0.9-0.3,1.3
		s-0.6,0.9-1,1.4c-0.3,0.3-0.6,0.6-0.9,0.8s-0.5,0.4-0.6,0.5h3.2v1.2H48.7z"/>
	<path d="M55.1,90.9c0,0.6-0.1,1.2-0.2,1.7c-0.1,0.5-0.3,0.9-0.5,1.2c-0.2,0.3-0.5,0.6-0.9,0.7c-0.4,0.2-0.8,0.2-1.3,0.2
		s-1-0.1-1.3-0.2c-0.4-0.2-0.7-0.4-0.9-0.7c-0.2-0.3-0.4-0.7-0.5-1.2s-0.2-1-0.2-1.7s0.1-1.2,0.2-1.7c0.1-0.5,0.3-0.9,0.5-1.2
		c0.2-0.3,0.5-0.6,0.9-0.7c0.4-0.2,0.8-0.2,1.3-0.2s1,0.1,1.3,0.3c0.4,0.2,0.7,0.4,0.9,0.8c0.2,0.3,0.4,0.7,0.5,1.2
		C55.1,89.7,55.1,90.2,55.1,90.9z M53.2,90.9c0-0.9-0.1-1.6-0.2-1.9c-0.2-0.4-0.4-0.6-0.8-0.6c-0.4,0-0.6,0.2-0.8,0.6s-0.2,1-0.2,2
		c0,0.9,0.1,1.6,0.2,1.9c0.2,0.4,0.4,0.6,0.8,0.6c0.4,0,0.6-0.2,0.8-0.6C53.2,92.4,53.2,91.8,53.2,90.9z"/>
	<path d="M61.7,94.6h-5.5v-1.2c0.5-0.4,0.9-0.7,1.3-1c0.4-0.3,0.7-0.6,1-0.9c0.4-0.4,0.6-0.7,0.8-1s0.2-0.6,0.2-0.9
		s-0.1-0.6-0.3-0.8c-0.2-0.2-0.5-0.3-0.9-0.3c-0.2,0-0.4,0-0.5,0.1s-0.3,0.1-0.5,0.2S57,89,56.9,89c-0.1,0.1-0.2,0.1-0.3,0.2h-0.1
		v-1.6c0.2-0.1,0.5-0.2,1-0.3c0.4-0.1,0.9-0.2,1.3-0.2c0.9,0,1.6,0.2,2,0.6c0.5,0.4,0.7,1,0.7,1.7c0,0.4-0.1,0.9-0.3,1.3
		s-0.6,0.9-1,1.4c-0.3,0.3-0.6,0.6-0.9,0.8s-0.5,0.4-0.6,0.5h3.2v1.2H61.7z"/>
	<g>
		<path d="M63.3,92.9c0.3,0.2,1,0.5,1.7,0.5c0.9,0,1.4-0.4,1.4-1c0-0.7-0.7-1.1-1.5-1.1h-0.7v-1.2h0.7c0.6,0,1.3-0.2,1.3-0.9
			c0-0.4-0.4-0.8-1.1-0.8c-0.6,0-1.2,0.3-1.5,0.4l-0.4-1.2c0.4-0.3,1.3-0.6,2.3-0.6c1.6,0,2.4,0.8,2.4,1.8c0,0.8-0.4,1.4-1.4,1.7v0
			c0.9,0.2,1.6,0.8,1.6,1.8c0,1.3-1.1,2.2-3,2.2c-1,0-1.8-0.2-2.2-0.5L63.3,92.9z"/>
	</g>
</g>
<path class="st0" d="M55,109.7l-8-4.5l-9,1.8l-6.2-6.7l-9.1-1L19,91l-8.3-3.8l-1-9.1L3,71.9l1.8-9l-4.5-8l4.5-8l-1.8-9l6.7-6.2
	l1-9.1L19,19l3.8-8.3l9.1-1L38.1,3l9,1.8l8-4.5l8,4.5l9-1.8l6.2,6.7l9.1,1L91,19l8.3,3.8l1,9.1l6.7,6.2l-1.8,9l4.5,8l-4.5,8l1.8,9
	l-6.7,6.2l-1,9.1L91,91l-3.8,8.3l-9.1,1l-6.2,6.7l-9-1.8L55,109.7z M47.5,102.1l7.5,4.2l7.5-4.2l8.4,1.7l5.8-6.3l8.5-1l3.5-7.8
	l7.8-3.5l1-8.5l6.3-5.8l-1.7-8.4l4.2-7.5l-4.2-7.5l1.7-8.4l-6.3-5.8l-1-8.5l-7.8-3.5l-3.5-7.8l-8.5-1l-5.8-6.3l-8.4,1.7L55,3.7
	l-7.5,4.2l-8.4-1.7l-5.8,6.3l-8.5,1l-3.5,7.8l-7.8,3.5l-1,8.5l-6.3,5.8l1.7,8.4L3.7,55l4.2,7.5l-1.7,8.4l6.3,5.8l1,8.5l7.8,3.5
	l3.5,7.8l8.5,1l5.8,6.3L47.5,102.1z"/>
<rect x="14.5" y="53.5" class="st0" width="82" height="3"/>
<path class="st0" d="M55,104.6l-7.2-4.1l-8.1,1.7L34.1,96l-8.2-0.9l-3.4-7.5L15,84.2l-1-8.3l-6.1-5.6l1.7-8.1L5.4,55l4.1-7.2
	l-1.7-8.1l6.1-5.6l0.9-8.2l7.5-3.4l3.4-7.5l8.2-0.9L39.5,8l8.1,1.7L55,5.4l7.2,4.1l8.1-1.7l5.6,6.1l8.2,0.9l3.4,7.5l7.5,3.4l0.9,8.2
	l6.1,5.6l-1.7,8.1l4.1,7.2l-4.1,7.2l1.7,8.1l-6,5.8l-0.9,8.2l-7.5,3.4L84.2,95l-8.3,1l-5.6,6.1l-8.1-1.7L55,104.6z M48,99.4l7,4l7-4
	l7.9,1.6l5.5-6l8-0.9l3.3-7.4l7.4-3.3l0.9-8l6-5.5L99.4,62l4-7l-4-7l1.6-7.9l-6-5.5l-0.9-8l-7.4-3.3l-3.3-7.4l-8-0.9l-5.5-6L62,10.6
	l-7-4l-7,4l-8-1.7l-5.5,6l-8,0.9l-3.3,7.4l-7.4,3.3l-0.9,8l-6,5.5l1.6,7.9l-4,7l4,7L8.9,70l6,5.5l0.9,8l7.4,3.3l3.3,7.4l8,0.9l5.5,6
	L48,99.4z"/>
</svg>
