<?xml version="1.0" encoding="utf-8"?>
<!-- Generator: Adobe Illustrator 23.0.5, SVG Export Plug-In . SVG Version: 6.00 Build 0)  -->
<svg version="1.1" id="Layer_1" xmlns="http://www.w3.org/2000/svg" xmlns:xlink="http://www.w3.org/1999/xlink" x="0px" y="0px"
	 viewBox="0 0 383 245.1" style="enable-background:new 0 0 383 245.1;" xml:space="preserve">
<style type="text/css">
	.st0{fill:#FBFDFD;}
	.st1{fill:#76A9D3;}
	.st2{fill:#454545;}
	.st3{fill:#2B2B2B;}
	.st4{fill:#1B3D4D;}
	.st5{fill:#5573D2;}
	.st6{clip-path:url(#SVGID_2_);fill:#6E87D9;}
	.st7{fill:#ECEDEF;}
	.st8{clip-path:url(#SVGID_4_);fill:#6EAB3D;}
	.st9{clip-path:url(#SVGID_4_);fill:#83B85A;}
	.st10{clip-path:url(#SVGID_6_);fill:#FE6D62;}
	.st11{clip-path:url(#SVGID_6_);fill:#FE827A;}
</style>
<g>
	<path class="st0" d="M364.6,236H18.4c-5.1,0-9.2-4.1-9.2-9.2V62.4c0-5.1,4.1-9.2,9.2-9.2h346.2c5.1,0,9.2,4.1,9.2,9.2v164.4
		C373.8,231.9,369.7,236,364.6,236z"/>
	<path class="st1" d="M364.6,236.3H18.4c-5.2,0-9.4-4.2-9.4-9.4V62.4c0-5.2,4.2-9.4,9.4-9.4h346.2c5.2,0,9.4,4.2,9.4,9.4v164.4
		C374,232,369.8,236.3,364.6,236.3z M18.4,53.4c-4.9,0-8.9,4-8.9,8.9v164.4c0,4.9,4,8.9,8.9,8.9h346.2c4.9,0,8.9-4,8.9-8.9V62.4
		c0-4.9-4-8.9-8.9-8.9H18.4z"/>
</g>
<g>
	<path class="st2" d="M26.3,22.1c0,1.3-0.3,2.3-1,3.1c-0.7,0.7-1.6,1.1-2.8,1.1c-1.2,0-2.1-0.4-2.8-1.1c-0.7-0.7-1-1.8-1-3.1
		c0-1.3,0.3-2.4,1-3.1c0.7-0.7,1.6-1.1,2.8-1.1c1.2,0,2.1,0.4,2.7,1.1C25.9,19.7,26.3,20.8,26.3,22.1z M19.7,22.1
		c0,1.1,0.2,1.9,0.7,2.5c0.5,0.6,1.2,0.9,2.1,0.9c0.9,0,1.6-0.3,2-0.9s0.7-1.4,0.7-2.5c0-1.1-0.2-1.9-0.7-2.5s-1.1-0.9-2-0.9
		c-0.9,0-1.6,0.3-2.1,0.9C20,20.1,19.7,21,19.7,22.1z"/>
	<path class="st2" d="M30.8,26.3c-0.4,0-0.8-0.1-1.1-0.2s-0.6-0.4-0.8-0.7h-0.1c0,0.4,0.1,0.7,0.1,1v2.5h-0.9V20h0.8l0.1,0.8h0
		c0.2-0.3,0.5-0.6,0.8-0.7c0.3-0.1,0.7-0.2,1.1-0.2c0.8,0,1.4,0.3,1.9,0.8c0.4,0.6,0.7,1.3,0.7,2.3c0,1-0.2,1.8-0.7,2.3
		C32.2,26,31.6,26.3,30.8,26.3z M30.7,20.7c-0.6,0-1.1,0.2-1.4,0.5s-0.4,0.9-0.4,1.7v0.2c0,0.9,0.1,1.5,0.4,1.8
		c0.3,0.4,0.7,0.6,1.4,0.6c0.5,0,0.9-0.2,1.2-0.6c0.3-0.4,0.4-1,0.4-1.8c0-0.8-0.1-1.3-0.4-1.8C31.6,20.9,31.2,20.7,30.7,20.7z"/>
	<path class="st2" d="M37.5,26.3c-0.9,0-1.6-0.3-2.1-0.8c-0.5-0.6-0.8-1.3-0.8-2.3c0-1,0.2-1.8,0.7-2.4c0.5-0.6,1.1-0.9,2-0.9
		c0.8,0,1.4,0.3,1.8,0.8s0.7,1.2,0.7,2v0.6h-4.2c0,0.7,0.2,1.3,0.5,1.6c0.3,0.4,0.8,0.6,1.5,0.6c0.7,0,1.3-0.1,2-0.4v0.8
		c-0.3,0.1-0.6,0.2-0.9,0.3S37.9,26.3,37.5,26.3z M37.3,20.7c-0.5,0-0.9,0.2-1.2,0.5s-0.5,0.8-0.5,1.3h3.2c0-0.6-0.1-1-0.4-1.3
		C38.1,20.9,37.8,20.7,37.3,20.7z"/>
	<path class="st2" d="M45.6,26.2v-4c0-0.5-0.1-0.9-0.3-1.1c-0.2-0.2-0.6-0.4-1.1-0.4c-0.6,0-1.1,0.2-1.4,0.5
		c-0.3,0.3-0.4,0.9-0.4,1.7v3.2h-0.9V20h0.8l0.2,0.8h0c0.2-0.3,0.5-0.5,0.8-0.7s0.7-0.2,1.1-0.2c0.7,0,1.3,0.2,1.7,0.5
		c0.4,0.4,0.6,0.9,0.6,1.7v4H45.6z"/>
	<path class="st2" d="M48.5,26.2V18h0.9v7.3h3.6v0.9H48.5z"/>
	<path class="st2" d="M54.2,18.4c0-0.2,0.1-0.4,0.2-0.5c0.1-0.1,0.2-0.1,0.4-0.1c0.1,0,0.3,0.1,0.4,0.2s0.2,0.3,0.2,0.5
		s-0.1,0.4-0.2,0.5S54.9,19,54.8,19c-0.2,0-0.3-0.1-0.4-0.2C54.3,18.7,54.2,18.6,54.2,18.4z M55.3,26.2h-0.9V20h0.9V26.2z"/>
	<path class="st2" d="M59.2,25.5c0.2,0,0.3,0,0.5,0c0.2,0,0.3,0,0.4-0.1v0.7c-0.1,0-0.2,0.1-0.4,0.1c-0.2,0-0.4,0-0.5,0
		c-1.2,0-1.8-0.6-1.8-1.9v-3.6h-0.9v-0.4l0.9-0.4l0.4-1.3h0.5V20H60v0.7h-1.8v3.6c0,0.4,0.1,0.7,0.3,0.8
		C58.6,25.4,58.9,25.5,59.2,25.5z"/>
	<path class="st2" d="M63.8,26.3c-0.9,0-1.6-0.3-2.1-0.8c-0.5-0.6-0.8-1.3-0.8-2.3c0-1,0.2-1.8,0.7-2.4c0.5-0.6,1.1-0.9,2-0.9
		c0.8,0,1.4,0.3,1.8,0.8s0.7,1.2,0.7,2v0.6h-4.2c0,0.7,0.2,1.3,0.5,1.6c0.3,0.4,0.8,0.6,1.5,0.6c0.7,0,1.3-0.1,2-0.4v0.8
		c-0.3,0.1-0.6,0.2-0.9,0.3S64.3,26.3,63.8,26.3z M63.6,20.7c-0.5,0-0.9,0.2-1.2,0.5s-0.5,0.8-0.5,1.3h3.2c0-0.6-0.1-1-0.4-1.3
		C64.4,20.9,64.1,20.7,63.6,20.7z"/>
	<path class="st2" d="M72.4,24c0,0.7-0.3,1.3-0.8,1.7c-0.5,0.4-1.2,0.6-2.1,0.6c-1,0-1.7-0.1-2.2-0.4V25c0.3,0.1,0.7,0.3,1.1,0.3
		c0.4,0.1,0.8,0.1,1.2,0.1c0.6,0,1.1-0.1,1.4-0.4s0.5-0.6,0.5-1c0-0.3-0.1-0.5-0.2-0.7S71,23,70.7,22.9c-0.3-0.2-0.7-0.3-1.2-0.5
		c-0.8-0.3-1.3-0.6-1.6-1c-0.3-0.4-0.5-0.9-0.5-1.5c0-0.6,0.2-1.1,0.7-1.5c0.5-0.4,1.1-0.6,1.9-0.6c0.8,0,1.6,0.1,2.2,0.4l-0.3,0.8
		c-0.7-0.3-1.3-0.4-2-0.4c-0.5,0-0.9,0.1-1.2,0.3c-0.3,0.2-0.4,0.5-0.4,0.9c0,0.3,0.1,0.5,0.2,0.7c0.1,0.2,0.3,0.3,0.5,0.5
		s0.6,0.3,1.1,0.5c0.9,0.3,1.4,0.6,1.8,1C72.3,23,72.4,23.4,72.4,24z"/>
	<path class="st2" d="M76.8,26.3c-0.4,0-0.8-0.1-1.1-0.2s-0.6-0.4-0.8-0.7h-0.1c0,0.4,0.1,0.7,0.1,1v2.5H74V20h0.8l0.1,0.8h0
		c0.2-0.3,0.5-0.6,0.8-0.7c0.3-0.1,0.7-0.2,1.1-0.2c0.8,0,1.4,0.3,1.9,0.8c0.4,0.6,0.7,1.3,0.7,2.3c0,1-0.2,1.8-0.7,2.3
		C78.2,26,77.6,26.3,76.8,26.3z M76.7,20.7c-0.6,0-1.1,0.2-1.4,0.5s-0.4,0.9-0.4,1.7v0.2c0,0.9,0.1,1.5,0.4,1.8
		c0.3,0.4,0.7,0.6,1.4,0.6c0.5,0,0.9-0.2,1.2-0.6c0.3-0.4,0.4-1,0.4-1.8c0-0.8-0.1-1.3-0.4-1.8C77.6,20.9,77.2,20.7,76.7,20.7z"/>
	<path class="st2" d="M83.5,26.3c-0.9,0-1.6-0.3-2.1-0.8c-0.5-0.6-0.8-1.3-0.8-2.3c0-1,0.2-1.8,0.7-2.4c0.5-0.6,1.1-0.9,2-0.9
		c0.8,0,1.4,0.3,1.8,0.8s0.7,1.2,0.7,2v0.6h-4.2c0,0.7,0.2,1.3,0.5,1.6c0.3,0.4,0.8,0.6,1.5,0.6c0.7,0,1.3-0.1,2-0.4v0.8
		c-0.3,0.1-0.6,0.2-0.9,0.3S84,26.3,83.5,26.3z M83.3,20.7c-0.5,0-0.9,0.2-1.2,0.5s-0.5,0.8-0.5,1.3h3.2c0-0.6-0.1-1-0.4-1.3
		C84.2,20.9,83.8,20.7,83.3,20.7z"/>
	<path class="st2" d="M90,26.3c-0.9,0-1.6-0.3-2.1-0.8c-0.5-0.6-0.8-1.3-0.8-2.3c0-1,0.2-1.8,0.7-2.4c0.5-0.6,1.1-0.9,2-0.9
		c0.8,0,1.4,0.3,1.8,0.8s0.7,1.2,0.7,2v0.6H88c0,0.7,0.2,1.3,0.5,1.6c0.3,0.4,0.8,0.6,1.5,0.6c0.7,0,1.3-0.1,2-0.4v0.8
		c-0.3,0.1-0.6,0.2-0.9,0.3S90.4,26.3,90,26.3z M89.7,20.7c-0.5,0-0.9,0.2-1.2,0.5s-0.5,0.8-0.5,1.3h3.2c0-0.6-0.1-1-0.4-1.3
		C90.6,20.9,90.2,20.7,89.7,20.7z"/>
	<path class="st2" d="M98,25.3L98,25.3c-0.5,0.6-1.1,0.9-2,0.9c-0.8,0-1.4-0.3-1.9-0.8c-0.4-0.5-0.7-1.3-0.7-2.3s0.2-1.8,0.7-2.4
		c0.4-0.6,1.1-0.8,1.9-0.8c0.8,0,1.5,0.3,1.9,0.9H98l0-0.4l0-0.4v-2.5h0.9v8.7h-0.8L98,25.3z M96.1,25.5c0.6,0,1.1-0.2,1.4-0.5
		c0.3-0.3,0.4-0.9,0.4-1.7v-0.2c0-0.9-0.1-1.5-0.4-1.9s-0.7-0.6-1.4-0.6c-0.5,0-1,0.2-1.2,0.6c-0.3,0.4-0.4,1-0.4,1.8
		c0,0.8,0.1,1.4,0.4,1.8S95.6,25.5,96.1,25.5z"/>
	<path class="st2" d="M106.6,26.3c-0.4,0-0.8-0.1-1.1-0.2s-0.6-0.4-0.8-0.7h-0.1c0,0.4,0.1,0.7,0.1,1v2.5h-0.9V20h0.8l0.1,0.8h0
		c0.2-0.3,0.5-0.6,0.8-0.7c0.3-0.1,0.7-0.2,1.1-0.2c0.8,0,1.4,0.3,1.9,0.8c0.4,0.6,0.7,1.3,0.7,2.3c0,1-0.2,1.8-0.7,2.3
		C108.1,26,107.4,26.3,106.6,26.3z M106.5,20.7c-0.6,0-1.1,0.2-1.4,0.5s-0.4,0.9-0.4,1.7v0.2c0,0.9,0.1,1.5,0.4,1.8
		c0.3,0.4,0.7,0.6,1.4,0.6c0.5,0,0.9-0.2,1.2-0.6c0.3-0.4,0.4-1,0.4-1.8c0-0.8-0.1-1.3-0.4-1.8C107.5,20.9,107,20.7,106.5,20.7z"/>
	<path class="st2" d="M113.4,26.3c-0.9,0-1.6-0.3-2.1-0.8c-0.5-0.6-0.8-1.3-0.8-2.3c0-1,0.2-1.8,0.7-2.4c0.5-0.6,1.1-0.9,2-0.9
		c0.8,0,1.4,0.3,1.8,0.8s0.7,1.2,0.7,2v0.6h-4.2c0,0.7,0.2,1.3,0.5,1.6c0.3,0.4,0.8,0.6,1.5,0.6c0.7,0,1.3-0.1,2-0.4v0.8
		c-0.3,0.1-0.6,0.2-0.9,0.3S113.8,26.3,113.4,26.3z M113.1,20.7c-0.5,0-0.9,0.2-1.2,0.5s-0.5,0.8-0.5,1.3h3.2c0-0.6-0.1-1-0.4-1.3
		C114,20.9,113.6,20.7,113.1,20.7z"/>
	<path class="st2" d="M120,19.9c0.3,0,0.5,0,0.7,0.1l-0.1,0.9c-0.3-0.1-0.5-0.1-0.7-0.1c-0.5,0-0.9,0.2-1.3,0.6
		c-0.4,0.4-0.5,0.9-0.5,1.5v3.3h-0.9V20h0.8l0.1,1.1h0c0.2-0.4,0.5-0.7,0.8-0.9C119.3,20,119.6,19.9,120,19.9z"/>
	<path class="st2" d="M124.6,20.8h-1.6v5.4h-0.9v-5.4h-1.1v-0.4l1.1-0.3v-0.3c0-1.5,0.7-2.3,2-2.3c0.3,0,0.7,0.1,1.1,0.2l-0.2,0.7
		c-0.4-0.1-0.7-0.2-0.9-0.2c-0.4,0-0.6,0.1-0.8,0.3c-0.2,0.2-0.3,0.6-0.3,1.1V20h1.6V20.8z"/>
	<path class="st2" d="M131,23.1c0,1-0.3,1.8-0.8,2.3c-0.5,0.6-1.2,0.8-2.1,0.8c-0.5,0-1-0.1-1.5-0.4c-0.4-0.3-0.8-0.6-1-1.1
		s-0.3-1-0.3-1.7c0-1,0.2-1.8,0.7-2.3c0.5-0.6,1.2-0.8,2.1-0.8c0.9,0,1.5,0.3,2,0.9C130.8,21.4,131,22.1,131,23.1z M126.4,23.1
		c0,0.8,0.2,1.4,0.5,1.8c0.3,0.4,0.8,0.6,1.4,0.6s1.1-0.2,1.4-0.6c0.3-0.4,0.5-1,0.5-1.8c0-0.8-0.2-1.4-0.5-1.8
		c-0.3-0.4-0.8-0.6-1.4-0.6c-0.6,0-1.1,0.2-1.4,0.6S126.4,22.3,126.4,23.1z"/>
	<path class="st2" d="M135.5,19.9c0.3,0,0.5,0,0.7,0.1l-0.1,0.9c-0.3-0.1-0.5-0.1-0.7-0.1c-0.5,0-0.9,0.2-1.3,0.6
		c-0.4,0.4-0.5,0.9-0.5,1.5v3.3h-0.9V20h0.8l0.1,1.1h0c0.2-0.4,0.5-0.7,0.8-0.9C134.7,20,135.1,19.9,135.5,19.9z"/>
	<path class="st2" d="M145.1,26.2v-4c0-0.5-0.1-0.9-0.3-1.1c-0.2-0.2-0.5-0.4-1-0.4c-0.6,0-1,0.2-1.3,0.5c-0.3,0.3-0.4,0.8-0.4,1.5
		v3.4h-0.9v-4c0-0.5-0.1-0.9-0.3-1.1c-0.2-0.2-0.5-0.4-1-0.4c-0.6,0-1,0.2-1.3,0.5c-0.3,0.3-0.4,0.9-0.4,1.7v3.2h-0.9V20h0.8
		l0.2,0.8h0c0.2-0.3,0.4-0.5,0.7-0.7c0.3-0.2,0.7-0.3,1.1-0.3c1,0,1.6,0.3,1.9,1h0c0.2-0.3,0.4-0.6,0.8-0.8s0.7-0.3,1.2-0.3
		c0.7,0,1.2,0.2,1.6,0.5c0.3,0.4,0.5,0.9,0.5,1.7v4H145.1z"/>
	<path class="st2" d="M150.6,26.3c-0.9,0-1.6-0.3-2.1-0.8c-0.5-0.6-0.8-1.3-0.8-2.3c0-1,0.2-1.8,0.7-2.4c0.5-0.6,1.1-0.9,2-0.9
		c0.8,0,1.4,0.3,1.8,0.8s0.7,1.2,0.7,2v0.6h-4.2c0,0.7,0.2,1.3,0.5,1.6c0.3,0.4,0.8,0.6,1.5,0.6c0.7,0,1.3-0.1,2-0.4v0.8
		c-0.3,0.1-0.6,0.2-0.9,0.3S151,26.3,150.6,26.3z M150.3,20.7c-0.5,0-0.9,0.2-1.2,0.5s-0.5,0.8-0.5,1.3h3.2c0-0.6-0.1-1-0.4-1.3
		C151.2,20.9,150.8,20.7,150.3,20.7z"/>
	<path class="st2" d="M158.6,25.3L158.6,25.3c-0.5,0.6-1.1,0.9-2,0.9c-0.8,0-1.4-0.3-1.9-0.8c-0.4-0.5-0.7-1.3-0.7-2.3
		s0.2-1.8,0.7-2.4c0.4-0.6,1.1-0.8,1.9-0.8c0.8,0,1.5,0.3,1.9,0.9h0.1l0-0.4l0-0.4v-2.5h0.9v8.7h-0.8L158.6,25.3z M156.7,25.5
		c0.6,0,1.1-0.2,1.4-0.5c0.3-0.3,0.4-0.9,0.4-1.7v-0.2c0-0.9-0.1-1.5-0.4-1.9s-0.7-0.6-1.4-0.6c-0.5,0-1,0.2-1.2,0.6
		c-0.3,0.4-0.4,1-0.4,1.8c0,0.8,0.1,1.4,0.4,1.8S156.2,25.5,156.7,25.5z"/>
	<path class="st3" d="M166.8,20.9c0.8,0,1.4,0.2,1.9,0.7c0.5,0.4,0.7,1.1,0.7,1.8c0,0.9-0.3,1.6-0.8,2.1c-0.6,0.5-1.4,0.7-2.4,0.7
		c-0.9,0-1.6-0.1-2.2-0.4v-1.5c0.3,0.2,0.6,0.3,1,0.4s0.8,0.1,1.1,0.1c1.1,0,1.6-0.4,1.6-1.3c0-0.8-0.5-1.2-1.6-1.2
		c-0.2,0-0.4,0-0.7,0.1s-0.4,0.1-0.6,0.1l-0.7-0.4l0.3-4.2h4.4v1.5h-2.9l-0.2,1.6l0.2,0C166.2,21,166.5,20.9,166.8,20.9z"/>
	<path class="st3" d="M177.6,26.2h-2l-1.9-3.1l-1.9,3.1h-1.9l2.7-4.2l-2.5-4h1.9l1.8,2.9l1.7-2.9h1.9l-2.6,4L177.6,26.2z"/>
	<path class="st3" d="M184.9,19.8c0.7,0,1.3,0.3,1.7,0.9c0.4,0.6,0.6,1.4,0.6,2.4c0,1-0.2,1.8-0.6,2.4c-0.4,0.6-1,0.8-1.8,0.8
		c-0.7,0-1.3-0.3-1.7-0.8H183l-0.3,0.7h-1.3v-8.7h1.7v2c0,0.3,0,0.7-0.1,1.2h0.1C183.5,20.1,184.1,19.8,184.9,19.8z M184.3,21.2
		c-0.4,0-0.7,0.1-0.9,0.4c-0.2,0.3-0.3,0.7-0.3,1.3V23c0,0.7,0.1,1.2,0.3,1.4s0.5,0.4,0.9,0.4c0.4,0,0.6-0.2,0.8-0.5
		c0.2-0.3,0.3-0.8,0.3-1.4c0-0.6-0.1-1.1-0.3-1.4S184.7,21.2,184.3,21.2z"/>
	<path class="st3" d="M191.5,26.3c-1,0-1.8-0.3-2.4-0.8c-0.6-0.6-0.8-1.3-0.8-2.4c0-1,0.3-1.9,0.8-2.4c0.5-0.6,1.2-0.9,2.2-0.9
		c0.9,0,1.6,0.3,2.1,0.8c0.5,0.5,0.7,1.2,0.7,2.1v0.8h-4c0,0.5,0.2,0.9,0.4,1.1c0.3,0.3,0.6,0.4,1.1,0.4c0.4,0,0.7,0,1.1-0.1
		c0.3-0.1,0.7-0.2,1.1-0.4v1.3c-0.3,0.1-0.6,0.3-1,0.3C192.4,26.2,192,26.3,191.5,26.3z M191.2,21c-0.4,0-0.6,0.1-0.8,0.3
		c-0.2,0.2-0.3,0.6-0.4,1h2.4c0-0.4-0.1-0.7-0.3-1C191.9,21.1,191.6,21,191.2,21z"/>
	<path class="st3" d="M198.1,24.9c0.3,0,0.7-0.1,1.1-0.2V26c-0.4,0.2-0.9,0.3-1.6,0.3c-0.7,0-1.2-0.2-1.5-0.5
		c-0.3-0.3-0.5-0.9-0.5-1.6v-3h-0.8v-0.7l0.9-0.6l0.5-1.3h1.1v1.3h1.7v1.3h-1.7v3c0,0.2,0.1,0.4,0.2,0.5
		C197.6,24.9,197.8,24.9,198.1,24.9z"/>
	<path class="st3" d="M203,24.9c0.3,0,0.7-0.1,1.1-0.2V26c-0.4,0.2-0.9,0.3-1.6,0.3c-0.7,0-1.2-0.2-1.5-0.5
		c-0.3-0.3-0.5-0.9-0.5-1.6v-3h-0.8v-0.7l0.9-0.6l0.5-1.3h1.1v1.3h1.7v1.3h-1.7v3c0,0.2,0.1,0.4,0.2,0.5
		C202.6,24.9,202.8,24.9,203,24.9z"/>
	<path class="st3" d="M208.2,26.3c-1,0-1.8-0.3-2.4-0.8c-0.6-0.6-0.8-1.3-0.8-2.4c0-1,0.3-1.9,0.8-2.4s1.2-0.9,2.2-0.9
		c0.9,0,1.6,0.3,2.1,0.8c0.5,0.5,0.7,1.2,0.7,2.1v0.8h-4c0,0.5,0.2,0.9,0.4,1.1c0.3,0.3,0.6,0.4,1.1,0.4c0.4,0,0.7,0,1.1-0.1
		c0.3-0.1,0.7-0.2,1.1-0.4v1.3c-0.3,0.1-0.6,0.3-1,0.3C209.1,26.2,208.7,26.3,208.2,26.3z M207.9,21c-0.4,0-0.6,0.1-0.8,0.3
		s-0.3,0.6-0.4,1h2.4c0-0.4-0.1-0.7-0.3-1C208.6,21.1,208.3,21,207.9,21z"/>
	<path class="st3" d="M215.6,19.8c0.2,0,0.4,0,0.6,0.1l-0.1,1.6c-0.1,0-0.3-0.1-0.5-0.1c-0.5,0-1,0.1-1.3,0.4s-0.5,0.7-0.5,1.2v3.2
		h-1.7v-6.2h1.3l0.3,1.1h0.1c0.2-0.4,0.5-0.6,0.8-0.8C214.9,19.9,215.2,19.8,215.6,19.8z"/>
	<path class="st3" d="M222.9,24.9c0.3,0,0.7-0.1,1.1-0.2V26c-0.4,0.2-0.9,0.3-1.6,0.3c-0.7,0-1.2-0.2-1.5-0.5
		c-0.3-0.3-0.5-0.9-0.5-1.6v-3h-0.8v-0.7l0.9-0.6l0.5-1.3h1.1v1.3h1.7v1.3h-1.7v3c0,0.2,0.1,0.4,0.2,0.5
		C222.5,24.9,222.7,24.9,222.9,24.9z"/>
	<path class="st3" d="M231,26.2h-1.7v-3.6c0-0.9-0.3-1.4-1-1.4c-0.5,0-0.8,0.2-1,0.5c-0.2,0.3-0.3,0.8-0.3,1.6v2.9h-1.7v-8.7h1.7
		v1.8c0,0.1,0,0.5,0,1l0,0.5h0.1c0.4-0.6,1-0.9,1.8-0.9c0.7,0,1.3,0.2,1.7,0.6c0.4,0.4,0.6,1,0.6,1.7V26.2z"/>
	<path class="st3" d="M236.7,26.2l-0.3-0.8h0c-0.3,0.4-0.6,0.6-0.9,0.8c-0.3,0.1-0.7,0.2-1.2,0.2c-0.6,0-1.1-0.2-1.4-0.5
		c-0.3-0.3-0.5-0.8-0.5-1.5c0-0.7,0.2-1.2,0.7-1.5c0.5-0.3,1.2-0.5,2.1-0.5l1.1,0V22c0-0.6-0.3-0.9-1-0.9c-0.5,0-1.1,0.2-1.8,0.5
		l-0.6-1.2c0.7-0.4,1.5-0.6,2.4-0.6c0.8,0,1.5,0.2,1.9,0.5c0.4,0.4,0.7,0.9,0.7,1.7v4.2H236.7z M236.2,23.3l-0.7,0
		c-0.5,0-0.9,0.1-1.1,0.3s-0.4,0.4-0.4,0.7c0,0.5,0.3,0.7,0.8,0.7c0.4,0,0.7-0.1,0.9-0.3c0.2-0.2,0.4-0.5,0.4-0.9V23.3z"/>
	<path class="st3" d="M245.4,26.2h-1.7v-3.6c0-0.5-0.1-0.8-0.2-1c-0.2-0.2-0.4-0.3-0.8-0.3c-0.5,0-0.8,0.2-1,0.5s-0.3,0.8-0.3,1.6
		v2.9h-1.7v-6.2h1.3l0.2,0.8h0.1c0.2-0.3,0.5-0.5,0.8-0.7c0.3-0.2,0.7-0.2,1.1-0.2c0.7,0,1.3,0.2,1.7,0.6c0.4,0.4,0.6,1,0.6,1.7
		V26.2z"/>
	<path class="st3" d="M255.9,26.2h-1.7v-3.6c0-0.5-0.1-0.8-0.2-1c-0.2-0.2-0.4-0.3-0.8-0.3c-0.5,0-0.8,0.2-1,0.5s-0.3,0.8-0.3,1.6
		v2.9h-1.7v-6.2h1.3l0.2,0.8h0.1c0.2-0.3,0.5-0.5,0.8-0.7c0.3-0.2,0.7-0.2,1.1-0.2c0.7,0,1.3,0.2,1.7,0.6c0.4,0.4,0.6,1,0.6,1.7
		V26.2z"/>
	<path class="st3" d="M263.1,19.9v0.9l-1,0.3c0.2,0.3,0.3,0.6,0.3,0.9c0,0.7-0.2,1.2-0.7,1.6c-0.5,0.4-1.1,0.6-1.9,0.6l-0.3,0
		l-0.3,0c-0.2,0.1-0.3,0.3-0.3,0.4c0,0.2,0.3,0.4,0.9,0.4h1.1c0.7,0,1.2,0.1,1.6,0.4c0.4,0.3,0.5,0.7,0.5,1.3c0,0.7-0.3,1.3-0.9,1.7
		c-0.6,0.4-1.5,0.6-2.6,0.6c-0.9,0-1.5-0.2-2-0.5s-0.7-0.7-0.7-1.3c0-0.4,0.1-0.7,0.4-0.9c0.2-0.3,0.6-0.4,1-0.5
		c-0.2-0.1-0.3-0.2-0.5-0.4c-0.1-0.2-0.2-0.3-0.2-0.5c0-0.2,0.1-0.4,0.2-0.6c0.1-0.2,0.3-0.3,0.6-0.5c-0.3-0.1-0.6-0.4-0.8-0.7
		c-0.2-0.3-0.3-0.7-0.3-1.1c0-0.7,0.2-1.2,0.7-1.6c0.4-0.4,1.1-0.6,1.9-0.6c0.2,0,0.4,0,0.6,0s0.4,0.1,0.5,0.1H263.1z M258.3,27
		c0,0.2,0.1,0.4,0.3,0.6c0.2,0.1,0.5,0.2,0.9,0.2c0.6,0,1.1-0.1,1.4-0.3s0.5-0.4,0.5-0.7c0-0.2-0.1-0.4-0.3-0.5
		c-0.2-0.1-0.5-0.1-0.9-0.1h-0.9c-0.3,0-0.6,0.1-0.8,0.2C258.4,26.6,258.3,26.8,258.3,27z M258.9,22c0,0.3,0.1,0.6,0.2,0.8
		c0.2,0.2,0.4,0.3,0.7,0.3c0.3,0,0.6-0.1,0.7-0.3c0.1-0.2,0.2-0.5,0.2-0.8c0-0.8-0.3-1.1-0.9-1.1C259.2,20.8,258.9,21.2,258.9,22z"
		/>
	<path class="st3" d="M264.1,18.3c0-0.6,0.3-0.8,0.9-0.8s0.9,0.3,0.9,0.8c0,0.3-0.1,0.5-0.2,0.6c-0.2,0.1-0.4,0.2-0.7,0.2
		C264.4,19.1,264.1,18.9,264.1,18.3z M265.8,26.2h-1.7v-6.2h1.7V26.2z"/>
	<path class="st3" d="M273.4,26.2h-1.7v-3.6c0-0.5-0.1-0.8-0.2-1c-0.2-0.2-0.4-0.3-0.8-0.3c-0.5,0-0.8,0.2-1,0.5s-0.3,0.8-0.3,1.6
		v2.9h-1.7v-6.2h1.3l0.2,0.8h0.1c0.2-0.3,0.5-0.5,0.8-0.7c0.3-0.2,0.7-0.2,1.1-0.2c0.7,0,1.3,0.2,1.7,0.6c0.4,0.4,0.6,1,0.6,1.7
		V26.2z"/>
	<path class="st3" d="M276.4,23l-2-3.1h1.9l1.2,2l1.2-2h1.9l-2,3.1l2.1,3.2h-1.9l-1.3-2.1l-1.3,2.1h-1.9L276.4,23z"/>
	<path class="st2" d="M288.6,26.2l-0.2-0.9h0c-0.3,0.4-0.6,0.6-0.9,0.8c-0.3,0.1-0.7,0.2-1.1,0.2c-0.6,0-1.1-0.2-1.4-0.5
		c-0.3-0.3-0.5-0.8-0.5-1.3c0-1.2,1-1.9,3-1.9l1,0v-0.4c0-0.5-0.1-0.8-0.3-1.1c-0.2-0.2-0.5-0.3-1-0.3c-0.5,0-1.1,0.2-1.7,0.5
		l-0.3-0.7c0.3-0.2,0.6-0.3,1-0.4c0.4-0.1,0.7-0.1,1.1-0.1c0.7,0,1.3,0.2,1.6,0.5s0.5,0.8,0.5,1.6v4.2H288.6z M286.5,25.5
		c0.6,0,1-0.2,1.4-0.5c0.3-0.3,0.5-0.8,0.5-1.3v-0.6l-0.9,0c-0.7,0-1.3,0.1-1.6,0.3c-0.3,0.2-0.5,0.5-0.5,0.9c0,0.3,0.1,0.6,0.3,0.8
		C285.9,25.4,286.1,25.5,286.5,25.5z"/>
	<path class="st2" d="M295.4,26.2v-4c0-0.5-0.1-0.9-0.3-1.1c-0.2-0.2-0.6-0.4-1.1-0.4c-0.6,0-1.1,0.2-1.4,0.5s-0.4,0.9-0.4,1.7v3.2
		h-0.9V20h0.8l0.2,0.8h0c0.2-0.3,0.5-0.5,0.8-0.7s0.7-0.2,1.1-0.2c0.7,0,1.3,0.2,1.7,0.5c0.4,0.4,0.6,0.9,0.6,1.7v4H295.4z"/>
	<path class="st2" d="M302.4,25.3L302.4,25.3c-0.5,0.6-1.1,0.9-2,0.9c-0.8,0-1.4-0.3-1.9-0.8c-0.4-0.5-0.7-1.3-0.7-2.3
		s0.2-1.8,0.7-2.4c0.4-0.6,1.1-0.8,1.9-0.8c0.8,0,1.5,0.3,1.9,0.9h0.1l0-0.4l0-0.4v-2.5h0.9v8.7h-0.8L302.4,25.3z M300.5,25.5
		c0.6,0,1.1-0.2,1.4-0.5c0.3-0.3,0.4-0.9,0.4-1.7v-0.2c0-0.9-0.1-1.5-0.4-1.9c-0.3-0.4-0.7-0.6-1.4-0.6c-0.5,0-1,0.2-1.2,0.6
		c-0.3,0.4-0.4,1-0.4,1.8c0,0.8,0.1,1.4,0.4,1.8S300,25.5,300.5,25.5z"/>
	<path class="st3" d="M311.9,26.2h-1.7v-4.7l0-0.8l0-0.8c-0.3,0.3-0.5,0.5-0.6,0.6l-0.9,0.8l-0.8-1l2.6-2.1h1.4V26.2z"/>
	<path class="st3" d="M319.6,19.8c0,0.5-0.2,0.9-0.5,1.3c-0.3,0.4-0.7,0.6-1.3,0.7v0c0.7,0.1,1.2,0.3,1.5,0.6
		c0.3,0.3,0.5,0.7,0.5,1.3c0,0.8-0.3,1.4-0.9,1.8c-0.6,0.4-1.4,0.7-2.4,0.7c-0.9,0-1.7-0.1-2.4-0.4v-1.5c0.3,0.2,0.7,0.3,1,0.4
		s0.8,0.2,1.1,0.2c0.6,0,1-0.1,1.3-0.3c0.3-0.2,0.4-0.5,0.4-0.9c0-0.4-0.2-0.7-0.5-0.8s-0.8-0.2-1.5-0.2h-0.6v-1.3h0.6
		c0.6,0,1.1-0.1,1.4-0.2s0.4-0.4,0.4-0.9c0-0.6-0.4-0.9-1.2-0.9c-0.3,0-0.5,0-0.8,0.1s-0.6,0.2-0.9,0.5l-0.8-1.2
		c0.7-0.5,1.6-0.8,2.7-0.8c0.8,0,1.5,0.2,2,0.5C319.3,18.7,319.6,19.2,319.6,19.8z"/>
	<path class="st3" d="M327.9,26.2h-2l-1.9-3.1l-1.9,3.1h-1.9L323,22l-2.5-4h1.9l1.8,2.9l1.7-2.9h1.9l-2.6,4L327.9,26.2z"/>
	<path class="st3" d="M335.2,19.8c0.7,0,1.3,0.3,1.7,0.9c0.4,0.6,0.6,1.4,0.6,2.4c0,1-0.2,1.8-0.6,2.4c-0.4,0.6-1,0.8-1.8,0.8
		c-0.7,0-1.3-0.3-1.7-0.8h-0.1l-0.3,0.7h-1.3v-8.7h1.7v2c0,0.3,0,0.7-0.1,1.2h0.1C333.9,20.1,334.5,19.8,335.2,19.8z M334.7,21.2
		c-0.4,0-0.7,0.1-0.9,0.4c-0.2,0.3-0.3,0.7-0.3,1.3V23c0,0.7,0.1,1.2,0.3,1.4s0.5,0.4,0.9,0.4c0.4,0,0.6-0.2,0.8-0.5
		c0.2-0.3,0.3-0.8,0.3-1.4c0-0.6-0.1-1.1-0.3-1.4C335.3,21.3,335.1,21.2,334.7,21.2z"/>
	<path class="st3" d="M341.8,26.3c-1,0-1.8-0.3-2.4-0.8c-0.6-0.6-0.8-1.3-0.8-2.4c0-1,0.3-1.9,0.8-2.4s1.2-0.9,2.2-0.9
		c0.9,0,1.6,0.3,2.1,0.8c0.5,0.5,0.7,1.2,0.7,2.1v0.8h-4c0,0.5,0.2,0.9,0.4,1.1c0.3,0.3,0.6,0.4,1.1,0.4c0.4,0,0.7,0,1.1-0.1
		c0.3-0.1,0.7-0.2,1.1-0.4v1.3c-0.3,0.1-0.6,0.3-1,0.3C342.7,26.2,342.3,26.3,341.8,26.3z M341.6,21c-0.4,0-0.6,0.1-0.8,0.3
		s-0.3,0.6-0.4,1h2.4c0-0.4-0.1-0.7-0.3-1C342.2,21.1,342,21,341.6,21z"/>
	<path class="st3" d="M348.4,24.9c0.3,0,0.7-0.1,1.1-0.2V26c-0.4,0.2-0.9,0.3-1.6,0.3c-0.7,0-1.2-0.2-1.5-0.5
		c-0.3-0.3-0.5-0.9-0.5-1.6v-3h-0.8v-0.7l0.9-0.6l0.5-1.3h1.1v1.3h1.7v1.3h-1.7v3c0,0.2,0.1,0.4,0.2,0.5
		C348,24.9,348.2,24.9,348.4,24.9z"/>
	<path class="st3" d="M353.4,24.9c0.3,0,0.7-0.1,1.1-0.2V26c-0.4,0.2-0.9,0.3-1.6,0.3c-0.7,0-1.2-0.2-1.5-0.5
		c-0.3-0.3-0.5-0.9-0.5-1.6v-3h-0.8v-0.7l0.9-0.6l0.5-1.3h1.1v1.3h1.7v1.3h-1.7v3c0,0.2,0.1,0.4,0.2,0.5
		C353,24.9,353.1,24.9,353.4,24.9z"/>
	<path class="st3" d="M358.5,26.3c-1,0-1.8-0.3-2.4-0.8c-0.6-0.6-0.8-1.3-0.8-2.4c0-1,0.3-1.9,0.8-2.4s1.2-0.9,2.2-0.9
		c0.9,0,1.6,0.3,2.1,0.8c0.5,0.5,0.7,1.2,0.7,2.1v0.8h-4c0,0.5,0.2,0.9,0.4,1.1c0.3,0.3,0.6,0.4,1.1,0.4c0.4,0,0.7,0,1.1-0.1
		c0.3-0.1,0.7-0.2,1.1-0.4v1.3c-0.3,0.1-0.6,0.3-1,0.3C359.4,26.2,359,26.3,358.5,26.3z M358.3,21c-0.4,0-0.6,0.1-0.8,0.3
		s-0.3,0.6-0.4,1h2.4c0-0.4-0.1-0.7-0.3-1C358.9,21.1,358.6,21,358.3,21z"/>
	<path class="st3" d="M365.9,19.8c0.2,0,0.4,0,0.6,0.1l-0.1,1.6c-0.1,0-0.3-0.1-0.5-0.1c-0.5,0-1,0.1-1.3,0.4s-0.5,0.7-0.5,1.2v3.2
		h-1.7v-6.2h1.3L364,21h0.1c0.2-0.4,0.5-0.6,0.8-0.8C365.2,19.9,365.6,19.8,365.9,19.8z"/>
	<path class="st3" d="M21.6,38.6c0.3,0,0.7-0.1,1.1-0.2v1.3c-0.4,0.2-0.9,0.3-1.6,0.3c-0.7,0-1.2-0.2-1.5-0.5
		c-0.3-0.3-0.5-0.9-0.5-1.6v-3h-0.8v-0.7l0.9-0.6l0.5-1.3h1.1v1.3h1.7v1.3h-1.7v3c0,0.2,0.1,0.4,0.2,0.5
		C21.2,38.6,21.3,38.6,21.6,38.6z"/>
	<path class="st3" d="M29.7,39.9H28v-3.6c0-0.9-0.3-1.4-1-1.4c-0.5,0-0.8,0.2-1,0.5c-0.2,0.3-0.3,0.8-0.3,1.6v2.9h-1.7v-8.7h1.7V33
		c0,0.1,0,0.5,0,1l0,0.5h0.1c0.4-0.6,1-0.9,1.8-0.9c0.7,0,1.3,0.2,1.7,0.6c0.4,0.4,0.6,1,0.6,1.7V39.9z"/>
	<path class="st3" d="M35.4,39.9L35.1,39h0c-0.3,0.4-0.6,0.6-0.9,0.8S33.4,40,32.9,40c-0.6,0-1.1-0.2-1.4-0.5
		C31.2,39.1,31,38.7,31,38c0-0.7,0.2-1.2,0.7-1.5c0.5-0.3,1.2-0.5,2.1-0.5l1.1,0v-0.3c0-0.6-0.3-0.9-1-0.9c-0.5,0-1.1,0.2-1.8,0.5
		l-0.6-1.2c0.7-0.4,1.5-0.6,2.4-0.6c0.8,0,1.5,0.2,1.9,0.5s0.7,0.9,0.7,1.7v4.2H35.4z M34.9,37l-0.7,0c-0.5,0-0.9,0.1-1.1,0.3
		s-0.4,0.4-0.4,0.7c0,0.5,0.3,0.7,0.8,0.7c0.4,0,0.7-0.1,0.9-0.3c0.2-0.2,0.4-0.5,0.4-0.9V37z"/>
	<path class="st3" d="M44.1,39.9h-1.7v-3.6c0-0.5-0.1-0.8-0.2-1c-0.2-0.2-0.4-0.3-0.8-0.3c-0.5,0-0.8,0.2-1,0.5
		C40.1,35.7,40,36.2,40,37v2.9h-1.7v-6.2h1.3l0.2,0.8H40c0.2-0.3,0.5-0.5,0.8-0.7c0.3-0.2,0.7-0.2,1.1-0.2c0.7,0,1.3,0.2,1.7,0.6
		c0.4,0.4,0.6,1,0.6,1.7V39.9z"/>
	<path class="st3" d="M54,39.9l-0.6-1.9h-3l-0.6,1.9h-1.9l2.9-8.2h2.1l2.9,8.2H54z M53,36.5c-0.5-1.8-0.9-2.8-0.9-3
		s-0.1-0.4-0.1-0.5c-0.1,0.5-0.5,1.7-1.1,3.5H53z"/>
	<path class="st3" d="M60.1,40c-0.7,0-1.3-0.3-1.7-0.8h-0.1c0.1,0.5,0.1,0.8,0.1,0.9v2.5h-1.7v-9h1.4l0.2,0.8h0.1
		c0.4-0.6,1-0.9,1.8-0.9c0.7,0,1.3,0.3,1.7,0.9c0.4,0.6,0.6,1.4,0.6,2.4c0,0.7-0.1,1.2-0.3,1.7c-0.2,0.5-0.5,0.9-0.8,1.1
		C61.1,39.9,60.6,40,60.1,40z M59.6,34.9c-0.4,0-0.7,0.1-0.9,0.4c-0.2,0.3-0.3,0.7-0.3,1.3v0.2c0,0.7,0.1,1.2,0.3,1.4
		s0.5,0.4,0.9,0.4c0.8,0,1.1-0.6,1.1-1.9c0-0.6-0.1-1.1-0.3-1.4S60,34.9,59.6,34.9z"/>
	<path class="st3" d="M67.9,39.9L67.6,39h0c-0.3,0.4-0.6,0.6-0.9,0.8S66,40,65.5,40c-0.6,0-1.1-0.2-1.4-0.5
		c-0.3-0.3-0.5-0.8-0.5-1.5c0-0.7,0.2-1.2,0.7-1.5c0.5-0.3,1.2-0.5,2.1-0.5l1.1,0v-0.3c0-0.6-0.3-0.9-1-0.9c-0.5,0-1.1,0.2-1.8,0.5
		l-0.6-1.2c0.7-0.4,1.5-0.6,2.4-0.6c0.8,0,1.5,0.2,1.9,0.5s0.7,0.9,0.7,1.7v4.2H67.9z M67.4,37l-0.7,0c-0.5,0-0.9,0.1-1.1,0.3
		s-0.4,0.4-0.4,0.7c0,0.5,0.3,0.7,0.8,0.7c0.4,0,0.7-0.1,0.9-0.3c0.2-0.2,0.4-0.5,0.4-0.9V37z"/>
	<path class="st3" d="M73.4,40c-1.9,0-2.9-1.1-2.9-3.2c0-1.1,0.3-1.9,0.8-2.4c0.5-0.6,1.3-0.8,2.3-0.8c0.7,0,1.4,0.1,1.9,0.4
		L75,35.3c-0.3-0.1-0.5-0.2-0.7-0.3c-0.2-0.1-0.5-0.1-0.7-0.1c-0.9,0-1.3,0.6-1.3,1.9c0,1.2,0.4,1.8,1.3,1.8c0.3,0,0.6,0,0.9-0.1
		c0.3-0.1,0.6-0.2,0.8-0.4v1.5c-0.3,0.2-0.6,0.3-0.8,0.4C74.2,40,73.8,40,73.4,40z"/>
	<path class="st3" d="M82.5,39.9h-1.7v-3.6c0-0.9-0.3-1.4-1-1.4c-0.5,0-0.8,0.2-1,0.5c-0.2,0.3-0.3,0.8-0.3,1.6v2.9h-1.7v-8.7h1.7
		V33c0,0.1,0,0.5,0,1l0,0.5h0.1c0.4-0.6,1-0.9,1.8-0.9c0.7,0,1.3,0.2,1.7,0.6c0.4,0.4,0.6,1,0.6,1.7V39.9z"/>
	<path class="st3" d="M87.1,40c-1,0-1.8-0.3-2.4-0.8c-0.6-0.6-0.8-1.3-0.8-2.4c0-1,0.3-1.9,0.8-2.4c0.5-0.6,1.2-0.9,2.2-0.9
		c0.9,0,1.6,0.3,2.1,0.8c0.5,0.5,0.7,1.2,0.7,2.1v0.8h-4c0,0.5,0.2,0.9,0.4,1.1c0.3,0.3,0.6,0.4,1.1,0.4c0.4,0,0.7,0,1.1-0.1
		c0.3-0.1,0.7-0.2,1.1-0.4v1.3c-0.3,0.1-0.6,0.3-1,0.3C88,40,87.6,40,87.1,40z M86.9,34.7c-0.4,0-0.6,0.1-0.8,0.3
		c-0.2,0.2-0.3,0.6-0.4,1H88c0-0.4-0.1-0.7-0.3-1S87.2,34.7,86.9,34.7z"/>
	<path class="st2" d="M99.1,39.9L98,36.3c-0.1-0.2-0.2-0.7-0.4-1.5h0c-0.1,0.7-0.3,1.2-0.4,1.5L96,39.9h-1.1l-1.7-6.1h1
		c0.4,1.5,0.7,2.7,0.9,3.5c0.2,0.8,0.3,1.3,0.4,1.6h0c0-0.2,0.1-0.5,0.2-0.8s0.2-0.6,0.2-0.8l1.1-3.5h1l1.1,3.5
		c0.2,0.6,0.3,1.2,0.4,1.6h0c0-0.1,0.1-0.3,0.1-0.6c0.1-0.3,0.5-1.8,1.2-4.5h1l-1.7,6.1H99.1z"/>
	<path class="st2" d="M107.2,39.9v-4c0-0.5-0.1-0.9-0.3-1.1c-0.2-0.2-0.6-0.4-1.1-0.4c-0.6,0-1.1,0.2-1.4,0.5s-0.4,0.9-0.4,1.7v3.2
		H103v-8.7h0.9v2.6c0,0.3,0,0.6,0,0.8h0.1c0.2-0.3,0.4-0.5,0.8-0.7s0.7-0.3,1.2-0.3c0.7,0,1.3,0.2,1.7,0.5c0.4,0.4,0.6,0.9,0.6,1.7
		v4H107.2z"/>
	<path class="st2" d="M112.6,40c-0.9,0-1.6-0.3-2.1-0.8c-0.5-0.6-0.8-1.3-0.8-2.3c0-1,0.2-1.8,0.7-2.4c0.5-0.6,1.1-0.9,2-0.9
		c0.8,0,1.4,0.3,1.8,0.8s0.7,1.2,0.7,2V37h-4.2c0,0.7,0.2,1.3,0.5,1.6c0.3,0.4,0.8,0.6,1.5,0.6c0.7,0,1.3-0.1,2-0.4v0.8
		c-0.3,0.1-0.6,0.2-0.9,0.3S113,40,112.6,40z M112.3,34.4c-0.5,0-0.9,0.2-1.2,0.5s-0.5,0.8-0.5,1.3h3.2c0-0.6-0.1-1-0.4-1.3
		C113.2,34.6,112.8,34.4,112.3,34.4z"/>
	<path class="st2" d="M120.6,39.9v-4c0-0.5-0.1-0.9-0.3-1.1c-0.2-0.2-0.6-0.4-1.1-0.4c-0.6,0-1.1,0.2-1.4,0.5
		c-0.3,0.3-0.4,0.9-0.4,1.7v3.2h-0.9v-6.1h0.8l0.2,0.8h0c0.2-0.3,0.5-0.5,0.8-0.7s0.7-0.2,1.1-0.2c0.7,0,1.3,0.2,1.7,0.5
		c0.4,0.4,0.6,0.9,0.6,1.7v4H120.6z"/>
	<path class="st2" d="M130.4,38.2c0,0.6-0.2,1-0.6,1.3c-0.4,0.3-1,0.5-1.8,0.5c-0.8,0-1.4-0.1-1.9-0.4v-0.9c0.3,0.1,0.6,0.3,0.9,0.4
		c0.3,0.1,0.7,0.1,1,0.1c0.5,0,0.9-0.1,1.1-0.2c0.3-0.2,0.4-0.4,0.4-0.7c0-0.2-0.1-0.4-0.3-0.6c-0.2-0.2-0.6-0.4-1.2-0.6
		c-0.6-0.2-1-0.4-1.2-0.6s-0.4-0.3-0.5-0.5s-0.2-0.4-0.2-0.7c0-0.5,0.2-0.9,0.6-1.2c0.4-0.3,1-0.4,1.7-0.4c0.7,0,1.3,0.1,1.9,0.4
		l-0.3,0.8c-0.6-0.3-1.2-0.4-1.7-0.4c-0.4,0-0.8,0.1-1,0.2c-0.2,0.1-0.3,0.3-0.3,0.6c0,0.2,0,0.3,0.1,0.4c0.1,0.1,0.2,0.2,0.4,0.3
		c0.2,0.1,0.5,0.3,1.1,0.5c0.7,0.3,1.2,0.5,1.5,0.8C130.2,37.5,130.4,37.8,130.4,38.2z"/>
	<path class="st2" d="M134.5,40c-0.9,0-1.6-0.3-2.1-0.8c-0.5-0.6-0.8-1.3-0.8-2.3c0-1,0.2-1.8,0.7-2.4c0.5-0.6,1.1-0.9,2-0.9
		c0.8,0,1.4,0.3,1.8,0.8s0.7,1.2,0.7,2V37h-4.2c0,0.7,0.2,1.3,0.5,1.6c0.3,0.4,0.8,0.6,1.5,0.6c0.7,0,1.3-0.1,2-0.4v0.8
		c-0.3,0.1-0.6,0.2-0.9,0.3S134.9,40,134.5,40z M134.2,34.4c-0.5,0-0.9,0.2-1.2,0.5s-0.5,0.8-0.5,1.3h3.2c0-0.6-0.1-1-0.4-1.3
		C135.1,34.6,134.7,34.4,134.2,34.4z"/>
	<path class="st2" d="M141.1,33.7c0.3,0,0.5,0,0.7,0.1l-0.1,0.9c-0.3-0.1-0.5-0.1-0.7-0.1c-0.5,0-0.9,0.2-1.3,0.6
		c-0.4,0.4-0.5,0.9-0.5,1.5v3.3h-0.9v-6.1h0.8l0.1,1.1h0c0.2-0.4,0.5-0.7,0.8-0.9C140.4,33.8,140.7,33.7,141.1,33.7z"/>
	<path class="st2" d="M144.3,39.9l-2.3-6.1h1l1.3,3.6c0.3,0.8,0.5,1.4,0.5,1.7h0c0-0.2,0.2-0.6,0.4-1.2s0.7-2,1.5-4.1h1l-2.3,6.1
		H144.3z"/>
	<path class="st2" d="M148.6,32.1c0-0.2,0.1-0.4,0.2-0.5c0.1-0.1,0.2-0.1,0.4-0.1c0.1,0,0.3,0.1,0.4,0.2s0.2,0.3,0.2,0.5
		s-0.1,0.4-0.2,0.5s-0.2,0.2-0.4,0.2c-0.2,0-0.3-0.1-0.4-0.2C148.7,32.5,148.6,32.3,148.6,32.1z M149.6,39.9h-0.9v-6.1h0.9V39.9z"/>
	<path class="st2" d="M155.8,39.9v-4c0-0.5-0.1-0.9-0.3-1.1c-0.2-0.2-0.6-0.4-1.1-0.4c-0.6,0-1.1,0.2-1.4,0.5
		c-0.3,0.3-0.4,0.9-0.4,1.7v3.2h-0.9v-6.1h0.8l0.2,0.8h0c0.2-0.3,0.5-0.5,0.8-0.7s0.7-0.2,1.1-0.2c0.7,0,1.3,0.2,1.7,0.5
		c0.4,0.4,0.6,0.9,0.6,1.7v4H155.8z"/>
	<path class="st2" d="M163.6,33.8v0.6l-1.1,0.1c0.1,0.1,0.2,0.3,0.3,0.5s0.1,0.4,0.1,0.7c0,0.6-0.2,1.1-0.6,1.4s-1,0.5-1.7,0.5
		c-0.2,0-0.4,0-0.5,0c-0.4,0.2-0.6,0.5-0.6,0.8c0,0.2,0.1,0.3,0.2,0.4c0.1,0.1,0.4,0.1,0.7,0.1h1.1c0.7,0,1.2,0.1,1.5,0.4
		c0.4,0.3,0.5,0.7,0.5,1.2c0,0.7-0.3,1.2-0.8,1.6c-0.5,0.4-1.3,0.5-2.4,0.5c-0.8,0-1.4-0.1-1.9-0.4c-0.4-0.3-0.7-0.7-0.7-1.3
		c0-0.4,0.1-0.7,0.4-1c0.2-0.3,0.6-0.5,1-0.6c-0.2-0.1-0.3-0.2-0.4-0.3s-0.2-0.3-0.2-0.5c0-0.2,0.1-0.4,0.2-0.6s0.3-0.3,0.6-0.5
		c-0.3-0.1-0.6-0.4-0.8-0.7c-0.2-0.3-0.3-0.7-0.3-1.1c0-0.7,0.2-1.2,0.6-1.6c0.4-0.4,1-0.5,1.7-0.5c0.3,0,0.6,0,0.9,0.1H163.6z
		 M158.7,40.9c0,0.3,0.1,0.6,0.4,0.8c0.3,0.2,0.7,0.3,1.2,0.3c0.8,0,1.4-0.1,1.7-0.3c0.4-0.2,0.6-0.5,0.6-0.9c0-0.3-0.1-0.6-0.3-0.7
		c-0.2-0.1-0.6-0.2-1.2-0.2h-1.1c-0.4,0-0.7,0.1-1,0.3C158.9,40.3,158.7,40.5,158.7,40.9z M159.2,35.7c0,0.4,0.1,0.8,0.4,1
		c0.2,0.2,0.6,0.3,1,0.3c0.9,0,1.4-0.4,1.4-1.3c0-0.9-0.5-1.4-1.4-1.4c-0.4,0-0.8,0.1-1,0.4C159.4,34.9,159.2,35.3,159.2,35.7z"/>
	<path class="st2" d="M171.6,39.9l-0.2-0.9h0c-0.3,0.4-0.6,0.6-0.9,0.8c-0.3,0.1-0.7,0.2-1.1,0.2c-0.6,0-1.1-0.2-1.4-0.5
		c-0.3-0.3-0.5-0.8-0.5-1.3c0-1.2,1-1.9,3-1.9l1,0v-0.4c0-0.5-0.1-0.8-0.3-1.1s-0.5-0.3-1-0.3c-0.5,0-1.1,0.2-1.7,0.5l-0.3-0.7
		c0.3-0.2,0.6-0.3,1-0.4c0.4-0.1,0.7-0.1,1.1-0.1c0.7,0,1.3,0.2,1.6,0.5s0.5,0.8,0.5,1.6v4.2H171.6z M169.5,39.2
		c0.6,0,1-0.2,1.4-0.5s0.5-0.8,0.5-1.3v-0.6l-0.9,0c-0.7,0-1.3,0.1-1.6,0.3c-0.3,0.2-0.5,0.5-0.5,0.9c0,0.3,0.1,0.6,0.3,0.8
		C168.9,39.1,169.2,39.2,169.5,39.2z"/>
	<path class="st2" d="M179.6,40c-0.9,0-1.6-0.3-2.1-0.8c-0.5-0.5-0.7-1.3-0.7-2.3c0-1,0.2-1.8,0.7-2.4c0.5-0.6,1.2-0.8,2.1-0.8
		c0.3,0,0.6,0,0.9,0.1c0.3,0.1,0.5,0.1,0.7,0.2l-0.3,0.8c-0.2-0.1-0.4-0.1-0.7-0.2c-0.2-0.1-0.5-0.1-0.6-0.1c-1.2,0-1.9,0.8-1.9,2.4
		c0,0.8,0.2,1.3,0.5,1.7c0.3,0.4,0.8,0.6,1.3,0.6c0.5,0,1-0.1,1.6-0.3v0.8C180.8,39.9,180.3,40,179.6,40z"/>
	<path class="st2" d="M186.4,39.9l-0.2-0.9h0c-0.3,0.4-0.6,0.6-0.9,0.8c-0.3,0.1-0.7,0.2-1.1,0.2c-0.6,0-1.1-0.2-1.4-0.5
		c-0.3-0.3-0.5-0.8-0.5-1.3c0-1.2,1-1.9,3-1.9l1,0v-0.4c0-0.5-0.1-0.8-0.3-1.1s-0.5-0.3-1-0.3c-0.5,0-1.1,0.2-1.7,0.5l-0.3-0.7
		c0.3-0.2,0.6-0.3,1-0.4c0.4-0.1,0.7-0.1,1.1-0.1c0.7,0,1.3,0.2,1.6,0.5s0.5,0.8,0.5,1.6v4.2H186.4z M184.3,39.2
		c0.6,0,1-0.2,1.4-0.5s0.5-0.8,0.5-1.3v-0.6l-0.9,0c-0.7,0-1.3,0.1-1.6,0.3c-0.3,0.2-0.5,0.5-0.5,0.9c0,0.3,0.1,0.6,0.3,0.8
		C183.6,39.1,183.9,39.2,184.3,39.2z"/>
	<path class="st2" d="M191.4,40c-0.9,0-1.6-0.3-2.1-0.8c-0.5-0.5-0.7-1.3-0.7-2.3c0-1,0.2-1.8,0.7-2.4c0.5-0.6,1.2-0.8,2.1-0.8
		c0.3,0,0.6,0,0.9,0.1c0.3,0.1,0.5,0.1,0.7,0.2l-0.3,0.8c-0.2-0.1-0.4-0.1-0.7-0.2c-0.2-0.1-0.5-0.1-0.6-0.1c-1.2,0-1.9,0.8-1.9,2.4
		c0,0.8,0.2,1.3,0.5,1.7c0.3,0.4,0.8,0.6,1.3,0.6c0.5,0,1-0.1,1.6-0.3v0.8C192.6,39.9,192.1,40,191.4,40z"/>
	<path class="st2" d="M198.6,39.9v-4c0-0.5-0.1-0.9-0.3-1.1c-0.2-0.2-0.6-0.4-1.1-0.4c-0.6,0-1.1,0.2-1.4,0.5s-0.4,0.9-0.4,1.7v3.2
		h-0.9v-8.7h0.9v2.6c0,0.3,0,0.6,0,0.8h0.1c0.2-0.3,0.4-0.5,0.8-0.7c0.3-0.2,0.7-0.3,1.2-0.3c0.7,0,1.3,0.2,1.7,0.5
		c0.4,0.4,0.6,0.9,0.6,1.7v4H198.6z"/>
	<path class="st2" d="M204,40c-0.9,0-1.6-0.3-2.1-0.8c-0.5-0.6-0.8-1.3-0.8-2.3c0-1,0.2-1.8,0.7-2.4c0.5-0.6,1.1-0.9,2-0.9
		c0.8,0,1.4,0.3,1.8,0.8s0.7,1.2,0.7,2V37h-4.2c0,0.7,0.2,1.3,0.5,1.6c0.3,0.4,0.8,0.6,1.5,0.6c0.7,0,1.3-0.1,2-0.4v0.8
		c-0.3,0.1-0.6,0.2-0.9,0.3S204.5,40,204,40z M203.8,34.4c-0.5,0-0.9,0.2-1.2,0.5c-0.3,0.3-0.5,0.8-0.5,1.3h3.2c0-0.6-0.1-1-0.4-1.3
		C204.7,34.6,204.3,34.4,203.8,34.4z"/>
	<path class="st2" d="M212,39.1L212,39.1c-0.5,0.6-1.1,0.9-2,0.9c-0.8,0-1.4-0.3-1.9-0.8c-0.4-0.5-0.7-1.3-0.7-2.3s0.2-1.8,0.7-2.4
		c0.4-0.6,1.1-0.8,1.9-0.8c0.8,0,1.5,0.3,1.9,0.9h0.1l0-0.4l0-0.4v-2.5h0.9v8.7h-0.8L212,39.1z M210.2,39.2c0.6,0,1.1-0.2,1.4-0.5
		c0.3-0.3,0.4-0.9,0.4-1.7v-0.2c0-0.9-0.1-1.5-0.4-1.9c-0.3-0.4-0.7-0.6-1.4-0.6c-0.5,0-1,0.2-1.2,0.6c-0.3,0.4-0.4,1-0.4,1.8
		c0,0.8,0.1,1.4,0.4,1.8S209.6,39.2,210.2,39.2z"/>
	<path class="st2" d="M225.1,39.9h-0.9l-1.6-5.5c-0.1-0.2-0.2-0.5-0.3-0.9s-0.1-0.6-0.2-0.7c-0.1,0.5-0.2,1-0.4,1.6l-1.6,5.4h-0.9
		l-2.2-8.2h1l1.3,5c0.2,0.7,0.3,1.3,0.4,1.9c0.1-0.7,0.2-1.3,0.4-2l1.5-5h1l1.5,5c0.2,0.6,0.3,1.2,0.5,2c0.1-0.5,0.2-1.2,0.4-1.9
		l1.3-5h1L225.1,39.9z"/>
	<path class="st2" d="M233.7,36.8c0,1-0.3,1.8-0.8,2.3s-1.2,0.8-2.1,0.8c-0.5,0-1-0.1-1.5-0.4c-0.4-0.3-0.8-0.6-1-1.1
		c-0.2-0.5-0.3-1-0.3-1.7c0-1,0.2-1.8,0.7-2.3s1.2-0.8,2.1-0.8c0.9,0,1.5,0.3,2,0.9S233.7,35.9,233.7,36.8z M229.1,36.8
		c0,0.8,0.2,1.4,0.5,1.8s0.8,0.6,1.4,0.6s1.1-0.2,1.4-0.6c0.3-0.4,0.5-1,0.5-1.8c0-0.8-0.2-1.4-0.5-1.8c-0.3-0.4-0.8-0.6-1.4-0.6
		c-0.6,0-1.1,0.2-1.4,0.6C229.2,35.4,229.1,36,229.1,36.8z"/>
	<path class="st2" d="M238.2,33.7c0.3,0,0.5,0,0.7,0.1l-0.1,0.9c-0.3-0.1-0.5-0.1-0.7-0.1c-0.5,0-0.9,0.2-1.3,0.6
		c-0.4,0.4-0.5,0.9-0.5,1.5v3.3h-0.9v-6.1h0.8l0.1,1.1h0c0.2-0.4,0.5-0.7,0.8-0.9C237.4,33.8,237.8,33.7,238.2,33.7z"/>
	<path class="st2" d="M244.2,39.1L244.2,39.1c-0.5,0.6-1.1,0.9-2,0.9c-0.8,0-1.4-0.3-1.9-0.8c-0.4-0.5-0.7-1.3-0.7-2.3
		s0.2-1.8,0.7-2.4c0.4-0.6,1.1-0.8,1.9-0.8c0.8,0,1.5,0.3,1.9,0.9h0.1l0-0.4l0-0.4v-2.5h0.9v8.7h-0.8L244.2,39.1z M242.3,39.2
		c0.6,0,1.1-0.2,1.4-0.5c0.3-0.3,0.4-0.9,0.4-1.7v-0.2c0-0.9-0.1-1.5-0.4-1.9c-0.3-0.4-0.7-0.6-1.4-0.6c-0.5,0-1,0.2-1.2,0.6
		c-0.3,0.4-0.4,1-0.4,1.8c0,0.8,0.1,1.4,0.4,1.8S241.8,39.2,242.3,39.2z"/>
	<path class="st2" d="M252.4,34.1c0,0.8-0.3,1.5-0.8,1.9c-0.6,0.4-1.4,0.7-2.4,0.7h-1v3.2h-0.9v-8.2h2.1
		C251.3,31.7,252.4,32.5,252.4,34.1z M248.1,35.9h0.9c0.8,0,1.5-0.1,1.8-0.4c0.4-0.3,0.6-0.7,0.6-1.3c0-0.5-0.2-0.9-0.5-1.2
		c-0.4-0.3-0.9-0.4-1.7-0.4h-1.1V35.9z"/>
	<path class="st2" d="M256.7,33.7c0.3,0,0.5,0,0.7,0.1l-0.1,0.9c-0.3-0.1-0.5-0.1-0.7-0.1c-0.5,0-0.9,0.2-1.3,0.6
		c-0.4,0.4-0.5,0.9-0.5,1.5v3.3h-0.9v-6.1h0.8l0.1,1.1h0c0.2-0.4,0.5-0.7,0.8-0.9C256,33.8,256.3,33.7,256.7,33.7z"/>
	<path class="st2" d="M261.2,40c-0.9,0-1.6-0.3-2.1-0.8c-0.5-0.6-0.8-1.3-0.8-2.3c0-1,0.2-1.8,0.7-2.4c0.5-0.6,1.1-0.9,2-0.9
		c0.8,0,1.4,0.3,1.8,0.8s0.7,1.2,0.7,2V37h-4.2c0,0.7,0.2,1.3,0.5,1.6c0.3,0.4,0.8,0.6,1.5,0.6c0.7,0,1.3-0.1,2-0.4v0.8
		c-0.3,0.1-0.6,0.2-0.9,0.3S261.6,40,261.2,40z M260.9,34.4c-0.5,0-0.9,0.2-1.2,0.5c-0.3,0.3-0.5,0.8-0.5,1.3h3.2
		c0-0.6-0.1-1-0.4-1.3C261.8,34.6,261.4,34.4,260.9,34.4z"/>
	<path class="st2" d="M269,38.2c0,0.6-0.2,1-0.6,1.3c-0.4,0.3-1,0.5-1.8,0.5c-0.8,0-1.4-0.1-1.9-0.4v-0.9c0.3,0.1,0.6,0.3,0.9,0.4
		c0.3,0.1,0.7,0.1,1,0.1c0.5,0,0.9-0.1,1.1-0.2c0.3-0.2,0.4-0.4,0.4-0.7c0-0.2-0.1-0.4-0.3-0.6c-0.2-0.2-0.6-0.4-1.2-0.6
		c-0.6-0.2-1-0.4-1.2-0.6s-0.4-0.3-0.5-0.5c-0.1-0.2-0.2-0.4-0.2-0.7c0-0.5,0.2-0.9,0.6-1.2c0.4-0.3,1-0.4,1.7-0.4
		c0.7,0,1.3,0.1,1.9,0.4l-0.3,0.8c-0.6-0.3-1.2-0.4-1.7-0.4c-0.4,0-0.8,0.1-1,0.2c-0.2,0.1-0.3,0.3-0.3,0.6c0,0.2,0,0.3,0.1,0.4
		c0.1,0.1,0.2,0.2,0.4,0.3c0.2,0.1,0.5,0.3,1.1,0.5c0.7,0.3,1.2,0.5,1.5,0.8S269,37.8,269,38.2z"/>
	<path class="st2" d="M274.4,38.2c0,0.6-0.2,1-0.6,1.3c-0.4,0.3-1,0.5-1.8,0.5c-0.8,0-1.4-0.1-1.9-0.4v-0.9c0.3,0.1,0.6,0.3,0.9,0.4
		c0.3,0.1,0.7,0.1,1,0.1c0.5,0,0.9-0.1,1.1-0.2c0.3-0.2,0.4-0.4,0.4-0.7c0-0.2-0.1-0.4-0.3-0.6c-0.2-0.2-0.6-0.4-1.2-0.6
		c-0.6-0.2-1-0.4-1.2-0.6s-0.4-0.3-0.5-0.5c-0.1-0.2-0.2-0.4-0.2-0.7c0-0.5,0.2-0.9,0.6-1.2c0.4-0.3,1-0.4,1.7-0.4
		c0.7,0,1.3,0.1,1.9,0.4l-0.3,0.8c-0.6-0.3-1.2-0.4-1.7-0.4c-0.4,0-0.8,0.1-1,0.2c-0.2,0.1-0.3,0.3-0.3,0.6c0,0.2,0,0.3,0.1,0.4
		c0.1,0.1,0.2,0.2,0.4,0.3c0.2,0.1,0.5,0.3,1.1,0.5c0.7,0.3,1.2,0.5,1.5,0.8S274.4,37.8,274.4,38.2z"/>
	<path class="st2" d="M282.9,38.2c0,0.6-0.2,1-0.6,1.3c-0.4,0.3-1,0.5-1.8,0.5c-0.8,0-1.4-0.1-1.9-0.4v-0.9c0.3,0.1,0.6,0.3,0.9,0.4
		c0.3,0.1,0.7,0.1,1,0.1c0.5,0,0.9-0.1,1.1-0.2c0.3-0.2,0.4-0.4,0.4-0.7c0-0.2-0.1-0.4-0.3-0.6c-0.2-0.2-0.6-0.4-1.2-0.6
		c-0.6-0.2-1-0.4-1.2-0.6s-0.4-0.3-0.5-0.5c-0.1-0.2-0.2-0.4-0.2-0.7c0-0.5,0.2-0.9,0.6-1.2c0.4-0.3,1-0.4,1.7-0.4
		c0.7,0,1.3,0.1,1.9,0.4l-0.3,0.8c-0.6-0.3-1.2-0.4-1.7-0.4c-0.4,0-0.8,0.1-1,0.2c-0.2,0.1-0.3,0.3-0.3,0.6c0,0.2,0,0.3,0.1,0.4
		c0.1,0.1,0.2,0.2,0.4,0.3c0.2,0.1,0.5,0.3,1.1,0.5c0.7,0.3,1.2,0.5,1.5,0.8S282.9,37.8,282.9,38.2z"/>
	<path class="st2" d="M284.3,32.1c0-0.2,0.1-0.4,0.2-0.5s0.2-0.1,0.4-0.1c0.1,0,0.3,0.1,0.4,0.2c0.1,0.1,0.2,0.3,0.2,0.5
		s-0.1,0.4-0.2,0.5c-0.1,0.1-0.2,0.2-0.4,0.2c-0.2,0-0.3-0.1-0.4-0.2S284.3,32.3,284.3,32.1z M285.3,39.9h-0.9v-6.1h0.9V39.9z"/>
	<path class="st2" d="M289.2,39.2c0.2,0,0.3,0,0.5,0c0.2,0,0.3,0,0.4-0.1v0.7c-0.1,0-0.2,0.1-0.4,0.1c-0.2,0-0.4,0-0.5,0
		c-1.2,0-1.8-0.6-1.8-1.9v-3.6h-0.9V34l0.9-0.4l0.4-1.3h0.5v1.4h1.8v0.7h-1.8v3.6c0,0.4,0.1,0.7,0.3,0.8
		C288.7,39.1,288.9,39.2,289.2,39.2z"/>
	<path class="st2" d="M293.9,40c-0.9,0-1.6-0.3-2.1-0.8c-0.5-0.6-0.8-1.3-0.8-2.3c0-1,0.2-1.8,0.7-2.4c0.5-0.6,1.1-0.9,2-0.9
		c0.8,0,1.4,0.3,1.8,0.8s0.7,1.2,0.7,2V37h-4.2c0,0.7,0.2,1.3,0.5,1.6c0.3,0.4,0.8,0.6,1.5,0.6c0.7,0,1.3-0.1,2-0.4v0.8
		c-0.3,0.1-0.6,0.2-0.9,0.3S294.3,40,293.9,40z M293.6,34.4c-0.5,0-0.9,0.2-1.2,0.5c-0.3,0.3-0.5,0.8-0.5,1.3h3.2
		c0-0.6-0.1-1-0.4-1.3C294.5,34.6,294.1,34.4,293.6,34.4z"/>
	<path class="st2" d="M306,36.8c0,1-0.3,1.8-0.8,2.3S304,40,303.1,40c-0.5,0-1-0.1-1.5-0.4c-0.4-0.3-0.8-0.6-1-1.1
		c-0.2-0.5-0.3-1-0.3-1.7c0-1,0.2-1.8,0.7-2.3s1.2-0.8,2.1-0.8c0.9,0,1.5,0.3,2,0.9S306,35.9,306,36.8z M301.3,36.8
		c0,0.8,0.2,1.4,0.5,1.8s0.8,0.6,1.4,0.6s1.1-0.2,1.4-0.6c0.3-0.4,0.5-1,0.5-1.8c0-0.8-0.2-1.4-0.5-1.8c-0.3-0.4-0.8-0.6-1.4-0.6
		c-0.6,0-1.1,0.2-1.4,0.6C301.5,35.4,301.3,36,301.3,36.8z"/>
	<path class="st2" d="M308.9,39.9l-2.3-6.1h1l1.3,3.6c0.3,0.8,0.5,1.4,0.5,1.7h0c0-0.2,0.2-0.6,0.4-1.2s0.7-2,1.5-4.1h1l-2.3,6.1
		H308.9z"/>
	<path class="st2" d="M315.9,40c-0.9,0-1.6-0.3-2.1-0.8c-0.5-0.6-0.8-1.3-0.8-2.3c0-1,0.2-1.8,0.7-2.4c0.5-0.6,1.1-0.9,2-0.9
		c0.8,0,1.4,0.3,1.8,0.8s0.7,1.2,0.7,2V37h-4.2c0,0.7,0.2,1.3,0.5,1.6c0.3,0.4,0.8,0.6,1.5,0.6c0.7,0,1.3-0.1,2-0.4v0.8
		c-0.3,0.1-0.6,0.2-0.9,0.3S316.3,40,315.9,40z M315.7,34.4c-0.5,0-0.9,0.2-1.2,0.5c-0.3,0.3-0.5,0.8-0.5,1.3h3.2
		c0-0.6-0.1-1-0.4-1.3C316.5,34.6,316.1,34.4,315.7,34.4z"/>
	<path class="st2" d="M322.5,33.7c0.3,0,0.5,0,0.7,0.1l-0.1,0.9c-0.3-0.1-0.5-0.1-0.7-0.1c-0.5,0-0.9,0.2-1.3,0.6
		c-0.4,0.4-0.5,0.9-0.5,1.5v3.3h-0.9v-6.1h0.8l0.1,1.1h0c0.2-0.4,0.5-0.7,0.8-0.9C321.8,33.8,322.2,33.7,322.5,33.7z"/>
	<path class="st2" d="M333.7,39.9h-0.9V36h-4.3v3.8h-0.9v-8.2h0.9v3.5h4.3v-3.5h0.9V39.9z"/>
	<path class="st2" d="M338.5,39.9h-1v-7.3h-2.6v-0.8h6.1v0.8h-2.6V39.9z"/>
	<path class="st2" d="M344.8,39.9h-1v-7.3h-2.6v-0.8h6.1v0.8h-2.6V39.9z"/>
	<path class="st2" d="M353.8,34.1c0,0.8-0.3,1.5-0.8,1.9c-0.6,0.4-1.4,0.7-2.4,0.7h-1v3.2h-0.9v-8.2h2.1
		C352.8,31.7,353.8,32.5,353.8,34.1z M349.6,35.9h0.9c0.8,0,1.5-0.1,1.8-0.4c0.4-0.3,0.6-0.7,0.6-1.3c0-0.5-0.2-0.9-0.5-1.2
		c-0.4-0.3-0.9-0.4-1.7-0.4h-1.1V35.9z"/>
	<path class="st2" d="M358.5,31.7l-3,8.2h-0.9l3-8.2H358.5z"/>
	<path class="st2" d="M364.5,39.9h-5.4v-0.8l2.2-2.2c0.7-0.7,1.1-1.1,1.3-1.4c0.2-0.3,0.4-0.6,0.5-0.8c0.1-0.3,0.2-0.6,0.2-0.9
		c0-0.4-0.1-0.8-0.4-1c-0.3-0.3-0.6-0.4-1.1-0.4c-0.3,0-0.7,0.1-1,0.2s-0.6,0.3-1,0.6l-0.5-0.6c0.8-0.6,1.6-0.9,2.5-0.9
		c0.8,0,1.4,0.2,1.8,0.6c0.4,0.4,0.7,0.9,0.7,1.6c0,0.5-0.1,1-0.4,1.5c-0.3,0.5-0.8,1.1-1.6,1.9l-1.8,1.7v0h4.2V39.9z"/>
	<path class="st2" d="M366,39.3c0-0.2,0.1-0.4,0.2-0.6s0.3-0.2,0.5-0.2c0.2,0,0.4,0.1,0.5,0.2s0.2,0.3,0.2,0.6
		c0,0.2-0.1,0.4-0.2,0.6s-0.3,0.2-0.5,0.2c-0.2,0-0.3-0.1-0.5-0.2C366,39.8,366,39.6,366,39.3z"/>
</g>
<g>
	<g>
		<g>
			<path class="st4" d="M26.8,72.4c0,1.4-0.3,2.5-1,3.3s-1.7,1.2-3,1.2c-1.3,0-2.3-0.4-3-1.2s-1-1.9-1-3.3s0.3-2.5,1-3.3
				s1.7-1.1,3-1.1c1.3,0,2.3,0.4,3,1.2S26.8,71,26.8,72.4z M20.2,72.4c0,1.1,0.2,1.9,0.6,2.4s1.1,0.8,1.9,0.8c0.8,0,1.5-0.3,1.9-0.8
				s0.6-1.3,0.6-2.4c0-1.1-0.2-1.8-0.6-2.4s-1-0.8-1.9-0.8c-0.8,0-1.5,0.3-1.9,0.8S20.2,71.4,20.2,72.4z"/>
			<path class="st4" d="M31.8,76.8c-0.8,0-1.5-0.3-1.9-0.9h-0.1c0.1,0.5,0.1,0.9,0.1,1v2.7h-1.4v-9.4h1.1c0,0.1,0.1,0.4,0.2,0.9h0.1
				c0.4-0.7,1.1-1,1.9-1c0.8,0,1.4,0.3,1.9,0.9s0.7,1.4,0.7,2.5s-0.2,1.9-0.7,2.5S32.6,76.8,31.8,76.8z M31.4,71.2
				c-0.5,0-0.9,0.2-1.2,0.5s-0.4,0.8-0.4,1.5v0.2c0,0.8,0.1,1.4,0.4,1.7s0.7,0.5,1.2,0.5c0.5,0,0.8-0.2,1.1-0.6s0.4-0.9,0.4-1.7
				c0-0.7-0.1-1.3-0.4-1.6S31.9,71.2,31.4,71.2z"/>
			<path class="st4" d="M38.8,76.8c-1,0-1.8-0.3-2.4-0.9s-0.9-1.4-0.9-2.4c0-1.1,0.3-1.9,0.8-2.5s1.3-0.9,2.2-0.9
				c0.9,0,1.5,0.3,2,0.8s0.7,1.2,0.7,2.1v0.7H37c0,0.6,0.2,1.1,0.5,1.5s0.8,0.5,1.4,0.5c0.4,0,0.7,0,1.1-0.1s0.7-0.2,1.1-0.4v1.1
				c-0.3,0.2-0.7,0.3-1,0.3S39.2,76.8,38.8,76.8z M38.5,71.1c-0.4,0-0.8,0.1-1.1,0.4s-0.4,0.7-0.5,1.2h2.9c0-0.5-0.1-0.9-0.4-1.2
				S39,71.1,38.5,71.1z"/>
			<path class="st4" d="M48.6,76.7h-1.4v-4c0-0.5-0.1-0.9-0.3-1.1s-0.5-0.4-1-0.4c-0.6,0-1,0.2-1.3,0.5s-0.4,0.9-0.4,1.7v3.2h-1.4
				v-6.5h1.1l0.2,0.8h0.1c0.2-0.3,0.5-0.5,0.8-0.7s0.8-0.3,1.2-0.3c1.6,0,2.3,0.8,2.3,2.4V76.7z"/>
			<path class="st4" d="M50.6,76.7v-8.6H52v7.4h3.6v1.2H50.6z"/>
			<path class="st4" d="M56.9,68.5c0-0.2,0.1-0.4,0.2-0.6s0.3-0.2,0.6-0.2c0.2,0,0.4,0.1,0.6,0.2s0.2,0.3,0.2,0.6
				c0,0.2-0.1,0.4-0.2,0.6s-0.3,0.2-0.6,0.2c-0.3,0-0.4-0.1-0.6-0.2S56.9,68.7,56.9,68.5z M58.4,76.7H57v-6.5h1.4V76.7z"/>
			<path class="st4" d="M62.7,75.7c0.3,0,0.7-0.1,1-0.2v1c-0.2,0.1-0.3,0.1-0.6,0.2s-0.5,0.1-0.7,0.1c-1.3,0-2-0.7-2-2.1v-3.5h-0.9
				v-0.6l0.9-0.5l0.5-1.4h0.8v1.4h1.8v1h-1.8v3.5c0,0.3,0.1,0.6,0.2,0.7S62.5,75.7,62.7,75.7z"/>
			<path class="st4" d="M67.9,76.8c-1,0-1.8-0.3-2.4-0.9s-0.9-1.4-0.9-2.4c0-1.1,0.3-1.9,0.8-2.5s1.3-0.9,2.2-0.9
				c0.9,0,1.5,0.3,2,0.8s0.7,1.2,0.7,2.1v0.7h-4.3c0,0.6,0.2,1.1,0.5,1.5s0.8,0.5,1.4,0.5c0.4,0,0.7,0,1.1-0.1s0.7-0.2,1.1-0.4v1.1
				c-0.3,0.2-0.7,0.3-1,0.3S68.3,76.8,67.9,76.8z M67.6,71.1c-0.4,0-0.8,0.1-1.1,0.4s-0.4,0.7-0.5,1.2H69c0-0.5-0.1-0.9-0.4-1.2
				S68.1,71.1,67.6,71.1z"/>
			<path class="st4" d="M77,74.4c0,0.8-0.3,1.4-0.8,1.8s-1.3,0.7-2.3,0.7s-1.8-0.2-2.4-0.5V75c0.4,0.2,0.8,0.3,1.2,0.4
				s0.8,0.2,1.2,0.2c0.6,0,1-0.1,1.2-0.3s0.4-0.5,0.4-0.8c0-0.3-0.1-0.6-0.4-0.8s-0.7-0.5-1.5-0.8c-0.8-0.3-1.3-0.7-1.7-1.1
				s-0.5-0.9-0.5-1.5c0-0.7,0.3-1.3,0.8-1.7s1.2-0.6,2-0.6c0.8,0,1.6,0.2,2.4,0.5l-0.4,1.1c-0.8-0.3-1.4-0.5-2-0.5
				c-0.5,0-0.8,0.1-1,0.3s-0.4,0.5-0.4,0.8c0,0.2,0,0.4,0.1,0.6s0.2,0.3,0.5,0.4s0.6,0.3,1.2,0.6c0.6,0.3,1.1,0.5,1.4,0.7
				s0.5,0.5,0.6,0.8S77,74,77,74.4z"/>
			<path class="st4" d="M81.8,76.8c-0.8,0-1.5-0.3-1.9-0.9h-0.1c0.1,0.5,0.1,0.9,0.1,1v2.7h-1.4v-9.4h1.1c0,0.1,0.1,0.4,0.2,0.9h0.1
				c0.4-0.7,1.1-1,1.9-1c0.8,0,1.4,0.3,1.9,0.9s0.7,1.4,0.7,2.5s-0.2,1.9-0.7,2.5S82.7,76.8,81.8,76.8z M81.5,71.2
				c-0.5,0-0.9,0.2-1.2,0.5s-0.4,0.8-0.4,1.5v0.2c0,0.8,0.1,1.4,0.4,1.7s0.7,0.5,1.2,0.5c0.5,0,0.8-0.2,1.1-0.6s0.4-0.9,0.4-1.7
				c0-0.7-0.1-1.3-0.4-1.6S82,71.2,81.5,71.2z"/>
			<path class="st4" d="M88.9,76.8c-1,0-1.8-0.3-2.4-0.9s-0.9-1.4-0.9-2.4c0-1.1,0.3-1.9,0.8-2.5s1.3-0.9,2.2-0.9
				c0.9,0,1.5,0.3,2,0.8s0.7,1.2,0.7,2.1v0.7h-4.3c0,0.6,0.2,1.1,0.5,1.5s0.8,0.5,1.4,0.5c0.4,0,0.7,0,1.1-0.1s0.7-0.2,1.1-0.4v1.1
				c-0.3,0.2-0.7,0.3-1,0.3S89.3,76.8,88.9,76.8z M88.6,71.1c-0.4,0-0.8,0.1-1.1,0.4s-0.4,0.7-0.5,1.2H90c0-0.5-0.1-0.9-0.4-1.2
				S89.1,71.1,88.6,71.1z"/>
			<path class="st4" d="M95.8,76.8c-1,0-1.8-0.3-2.4-0.9s-0.9-1.4-0.9-2.4c0-1.1,0.3-1.9,0.8-2.5s1.3-0.9,2.2-0.9
				c0.9,0,1.5,0.3,2,0.8s0.7,1.2,0.7,2.1v0.7H94c0,0.6,0.2,1.1,0.5,1.5s0.8,0.5,1.4,0.5c0.4,0,0.7,0,1.1-0.1s0.7-0.2,1.1-0.4v1.1
				c-0.3,0.2-0.7,0.3-1,0.3S96.2,76.8,95.8,76.8z M95.5,71.1c-0.4,0-0.8,0.1-1.1,0.4s-0.4,0.7-0.5,1.2h2.9c0-0.5-0.1-0.9-0.4-1.2
				S96,71.1,95.5,71.1z"/>
			<path class="st4" d="M102,76.8c-0.8,0-1.4-0.3-1.9-0.9s-0.7-1.4-0.7-2.5c0-1.1,0.2-1.9,0.7-2.5s1.1-0.9,1.9-0.9
				c0.9,0,1.5,0.3,1.9,0.9h0.1c-0.1-0.5-0.1-0.8-0.1-1.1v-2.4h1.4v9.1h-1.1l-0.2-0.8H104C103.5,76.5,102.9,76.8,102,76.8z
				 M102.4,75.7c0.6,0,1-0.2,1.2-0.5s0.4-0.8,0.4-1.5v-0.2c0-0.8-0.1-1.4-0.4-1.7s-0.7-0.5-1.2-0.5c-0.5,0-0.9,0.2-1.1,0.6
				s-0.4,1-0.4,1.7c0,0.7,0.1,1.3,0.4,1.6S101.9,75.7,102.4,75.7z"/>
			<path class="st4" d="M112.4,73H110v-1h2.3v-2.4h1.1V72h2.3v1h-2.3v2.4h-1.1V73z"/>
			<path class="st4" d="M120.6,76.7v-8.6h1.4v7.4h3.6v1.2H120.6z"/>
			<path class="st4" d="M132,74.4c0,0.8-0.3,1.4-0.8,1.8s-1.3,0.7-2.3,0.7s-1.8-0.2-2.4-0.5V75c0.4,0.2,0.8,0.3,1.2,0.4
				s0.8,0.2,1.2,0.2c0.6,0,1-0.1,1.2-0.3s0.4-0.5,0.4-0.8c0-0.3-0.1-0.6-0.4-0.8s-0.7-0.5-1.5-0.8c-0.8-0.3-1.3-0.7-1.7-1.1
				s-0.5-0.9-0.5-1.5c0-0.7,0.3-1.3,0.8-1.7s1.2-0.6,2-0.6c0.8,0,1.6,0.2,2.4,0.5l-0.4,1.1c-0.8-0.3-1.4-0.5-2-0.5
				c-0.5,0-0.8,0.1-1,0.3S128,70,128,70.3c0,0.2,0,0.4,0.1,0.6s0.2,0.3,0.5,0.4s0.6,0.3,1.2,0.6c0.6,0.3,1.1,0.5,1.4,0.7
				s0.5,0.5,0.6,0.8S132,74,132,74.4z"/>
			<path class="st4" d="M137.3,69.2c-0.8,0-1.4,0.3-1.9,0.9s-0.7,1.4-0.7,2.4c0,1.1,0.2,1.8,0.7,2.4s1.1,0.8,1.9,0.8
				c0.4,0,0.7,0,1.1-0.1s0.7-0.2,1.1-0.3v1.2c-0.7,0.3-1.4,0.4-2.3,0.4c-1.3,0-2.2-0.4-2.9-1.1s-1-1.8-1-3.3c0-0.9,0.2-1.7,0.5-2.3
				s0.8-1.2,1.4-1.5s1.3-0.5,2.2-0.5c0.9,0,1.7,0.2,2.4,0.6l-0.5,1.2c-0.3-0.1-0.6-0.3-0.9-0.4S137.7,69.2,137.3,69.2z"/>
			<path class="st4" d="M145.2,76.7l-0.3-0.9h0c-0.3,0.4-0.6,0.7-0.9,0.8s-0.7,0.2-1.2,0.2c-0.6,0-1.1-0.2-1.5-0.5s-0.5-0.8-0.5-1.5
				c0-0.7,0.2-1.2,0.7-1.5s1.3-0.5,2.3-0.6l1.1,0v-0.3c0-0.4-0.1-0.7-0.3-0.9s-0.5-0.3-0.9-0.3c-0.3,0-0.7,0-1,0.1s-0.6,0.2-0.9,0.3
				l-0.4-1c0.4-0.2,0.7-0.3,1.2-0.4s0.8-0.1,1.2-0.1c0.8,0,1.4,0.2,1.9,0.5s0.6,0.9,0.6,1.7v4.4H145.2z M143.1,75.8
				c0.5,0,0.9-0.1,1.2-0.4s0.5-0.7,0.5-1.2v-0.6l-0.8,0c-0.6,0-1.1,0.1-1.4,0.3s-0.4,0.5-0.4,0.9c0,0.3,0.1,0.5,0.3,0.7
				S142.8,75.8,143.1,75.8z"/>
			<path class="st4" d="M150.7,76.8c-1,0-1.7-0.3-2.2-0.9s-0.8-1.4-0.8-2.5c0-1.1,0.3-1.9,0.8-2.5s1.3-0.9,2.3-0.9
				c0.7,0,1.3,0.1,1.8,0.4l-0.4,1.1c-0.6-0.2-1.1-0.3-1.4-0.3c-1.1,0-1.7,0.7-1.7,2.2c0,0.7,0.1,1.3,0.4,1.6s0.7,0.5,1.2,0.5
				c0.6,0,1.2-0.2,1.7-0.5v1.2c-0.2,0.1-0.5,0.2-0.8,0.3S151.1,76.8,150.7,76.8z"/>
			<path class="st4" d="M159.7,76.7h-1.4v-4c0-0.5-0.1-0.9-0.3-1.1s-0.5-0.4-1-0.4c-0.6,0-1,0.2-1.3,0.5s-0.4,0.9-0.4,1.7v3.2H154
				v-9.1h1.4v2.3c0,0.4,0,0.8-0.1,1.2h0.1c0.2-0.3,0.4-0.6,0.8-0.7s0.7-0.3,1.2-0.3c1.6,0,2.4,0.8,2.4,2.4V76.7z"/>
			<path class="st4" d="M164.5,76.8c-1,0-1.8-0.3-2.4-0.9s-0.9-1.4-0.9-2.4c0-1.1,0.3-1.9,0.8-2.5s1.3-0.9,2.2-0.9
				c0.9,0,1.5,0.3,2,0.8s0.7,1.2,0.7,2.1v0.7h-4.3c0,0.6,0.2,1.1,0.5,1.5s0.8,0.5,1.4,0.5c0.4,0,0.7,0,1.1-0.1s0.7-0.2,1.1-0.4v1.1
				c-0.3,0.2-0.7,0.3-1,0.3S164.9,76.8,164.5,76.8z M164.2,71.1c-0.4,0-0.8,0.1-1.1,0.4s-0.4,0.7-0.5,1.2h2.9c0-0.5-0.1-0.9-0.4-1.2
				S164.7,71.1,164.2,71.1z"/>
		</g>
	</g>
	<g>
		<g>
			<path class="st2" d="M212.4,76.7h-0.9v-6.1c0-0.5,0-1,0-1.4c-0.1,0.1-0.2,0.2-0.3,0.3s-0.6,0.5-1.4,1.1l-0.5-0.7l2.3-1.8h0.8
				V76.7z"/>
			<path class="st2" d="M218.3,71.5c0.9,0,1.6,0.2,2.1,0.7s0.8,1.1,0.8,1.8c0,0.9-0.3,1.6-0.8,2.1s-1.3,0.8-2.3,0.8
				c-1,0-1.7-0.2-2.2-0.5v-0.9c0.3,0.2,0.6,0.3,1,0.4s0.8,0.1,1.2,0.1c0.7,0,1.2-0.2,1.6-0.5s0.6-0.8,0.6-1.4c0-1.2-0.7-1.8-2.2-1.8
				c-0.4,0-0.9,0.1-1.5,0.2l-0.5-0.3l0.3-4h4.3V69h-3.4l-0.2,2.6C217.4,71.5,217.9,71.5,218.3,71.5z"/>
			<path class="st2" d="M225.3,68c0.8,0,1.4,0.2,1.9,0.5s0.7,0.9,0.7,1.5c0,0.4-0.1,0.8-0.4,1.2s-0.7,0.7-1.3,0.9
				c0.7,0.3,1.2,0.7,1.5,1s0.4,0.8,0.4,1.3c0,0.7-0.2,1.3-0.7,1.7s-1.2,0.6-2,0.6c-0.9,0-1.6-0.2-2.1-0.6s-0.7-1-0.7-1.7
				c0-1,0.6-1.7,1.8-2.3c-0.5-0.3-0.9-0.6-1.2-1s-0.4-0.7-0.4-1.2c0-0.6,0.2-1.1,0.7-1.5S224.6,68,225.3,68z M223.5,74.5
				c0,0.5,0.2,0.8,0.5,1.1s0.8,0.4,1.4,0.4c0.6,0,1-0.1,1.4-0.4s0.5-0.6,0.5-1.1c0-0.4-0.2-0.7-0.5-1s-0.8-0.6-1.6-0.9
				c-0.6,0.3-1,0.5-1.3,0.8S223.5,74.1,223.5,74.5z M225.3,68.8c-0.5,0-0.9,0.1-1.1,0.4s-0.4,0.5-0.4,0.9c0,0.4,0.1,0.7,0.3,0.9
				s0.7,0.5,1.3,0.8c0.6-0.2,1-0.5,1.2-0.8s0.3-0.6,0.3-0.9c0-0.4-0.1-0.7-0.4-0.9S225.8,68.8,225.3,68.8z"/>
			<path class="st2" d="M232.2,68c0.8,0,1.4,0.2,1.9,0.5s0.7,0.9,0.7,1.5c0,0.4-0.1,0.8-0.4,1.2s-0.7,0.7-1.3,0.9
				c0.7,0.3,1.2,0.7,1.5,1s0.4,0.8,0.4,1.3c0,0.7-0.2,1.3-0.7,1.7s-1.2,0.6-2,0.6c-0.9,0-1.6-0.2-2.1-0.6s-0.7-1-0.7-1.7
				c0-1,0.6-1.7,1.8-2.3c-0.5-0.3-0.9-0.6-1.2-1s-0.4-0.7-0.4-1.2c0-0.6,0.2-1.1,0.7-1.5S231.4,68,232.2,68z M230.4,74.5
				c0,0.5,0.2,0.8,0.5,1.1s0.8,0.4,1.4,0.4c0.6,0,1-0.1,1.4-0.4s0.5-0.6,0.5-1.1c0-0.4-0.2-0.7-0.5-1s-0.8-0.6-1.6-0.9
				c-0.6,0.3-1,0.5-1.3,0.8S230.4,74.1,230.4,74.5z M232.2,68.8c-0.5,0-0.9,0.1-1.1,0.4s-0.4,0.5-0.4,0.9c0,0.4,0.1,0.7,0.3,0.9
				s0.7,0.5,1.3,0.8c0.6-0.2,1-0.5,1.2-0.8s0.3-0.6,0.3-0.9c0-0.4-0.1-0.7-0.4-0.9S232.7,68.8,232.2,68.8z"/>
			<path class="st2" d="M241.5,70.2c0,0.5-0.2,1-0.5,1.3s-0.7,0.6-1.3,0.7v0c0.7,0.1,1.2,0.3,1.5,0.7s0.5,0.8,0.5,1.4
				c0,0.8-0.3,1.4-0.8,1.9s-1.4,0.7-2.4,0.7c-0.5,0-0.9,0-1.2-0.1s-0.7-0.2-1.1-0.4v-0.9c0.4,0.2,0.8,0.3,1.2,0.4s0.8,0.1,1.2,0.1
				c1.5,0,2.2-0.6,2.2-1.7c0-1-0.8-1.6-2.4-1.6h-0.8v-0.8h0.9c0.7,0,1.2-0.1,1.6-0.4s0.6-0.7,0.6-1.2c0-0.4-0.1-0.7-0.4-1
				s-0.7-0.4-1.2-0.4c-0.4,0-0.7,0.1-1.1,0.2s-0.7,0.3-1.1,0.6l-0.5-0.7c0.4-0.3,0.8-0.5,1.2-0.7s0.9-0.2,1.5-0.2
				c0.8,0,1.5,0.2,1.9,0.6S241.5,69.5,241.5,70.2z"/>
			<path class="st2" d="M247.8,73.1v3.6h-1v-8.6h2.3c1.1,0,1.8,0.2,2.3,0.6s0.8,1,0.8,1.8c0,1.1-0.6,1.9-1.7,2.3l2.3,3.8h-1.2
				l-2.1-3.6H247.8z M247.8,72.3h1.4c0.7,0,1.2-0.1,1.5-0.4s0.5-0.7,0.5-1.3c0-0.6-0.2-1-0.5-1.2s-0.9-0.4-1.6-0.4h-1.3V72.3z"/>
			<path class="st2" d="M256.8,76.8c-0.9,0-1.7-0.3-2.2-0.9s-0.8-1.4-0.8-2.4c0-1,0.3-1.9,0.8-2.5s1.2-0.9,2.1-0.9
				c0.8,0,1.4,0.3,1.9,0.8s0.7,1.2,0.7,2.1v0.6h-4.4c0,0.8,0.2,1.3,0.6,1.7s0.9,0.6,1.5,0.6c0.7,0,1.4-0.1,2.1-0.4v0.9
				c-0.3,0.1-0.7,0.3-1,0.3S257.2,76.8,256.8,76.8z M256.5,71c-0.5,0-0.9,0.2-1.2,0.5s-0.5,0.8-0.5,1.4h3.4c0-0.6-0.1-1.1-0.4-1.4
				S257,71,256.5,71z"/>
			<path class="st2" d="M263.1,76.8c-0.8,0-1.5-0.3-1.9-0.9s-0.7-1.4-0.7-2.4c0-1.1,0.2-1.9,0.7-2.5s1.1-0.9,2-0.9
				c0.9,0,1.6,0.3,2,1h0.1l0.1-0.9h0.8v9.3h-1v-2.7c0-0.4,0-0.7,0.1-1h-0.1C264.7,76.5,264,76.8,263.1,76.8z M263.2,76
				c0.6,0,1.1-0.2,1.4-0.5s0.5-0.9,0.5-1.8v-0.2c0-0.9-0.2-1.5-0.5-1.9s-0.8-0.6-1.4-0.6c-0.6,0-1,0.2-1.3,0.7s-0.5,1.1-0.5,1.9
				s0.1,1.4,0.4,1.8S262.6,76,263.2,76z"/>
			<path class="st2" d="M269.1,70.3v4.2c0,0.5,0.1,0.9,0.4,1.2s0.6,0.4,1.1,0.4c0.7,0,1.2-0.2,1.5-0.6s0.5-1,0.5-1.8v-3.4h1v6.4
				h-0.8l-0.1-0.9h-0.1c-0.2,0.3-0.5,0.6-0.8,0.7s-0.8,0.3-1.2,0.3c-0.8,0-1.4-0.2-1.8-0.6s-0.6-1-0.6-1.8v-4.2H269.1z"/>
			<path class="st2" d="M278.2,76.8c-0.9,0-1.7-0.3-2.2-0.9s-0.8-1.4-0.8-2.4c0-1,0.3-1.9,0.8-2.5s1.2-0.9,2.1-0.9
				c0.8,0,1.4,0.3,1.9,0.8s0.7,1.2,0.7,2.1v0.6h-4.4c0,0.8,0.2,1.3,0.6,1.7s0.9,0.6,1.5,0.6c0.7,0,1.4-0.1,2.1-0.4v0.9
				c-0.3,0.1-0.7,0.3-1,0.3S278.7,76.8,278.2,76.8z M278,71c-0.5,0-0.9,0.2-1.2,0.5s-0.5,0.8-0.5,1.4h3.4c0-0.6-0.1-1.1-0.4-1.4
				S278.5,71,278,71z"/>
			<path class="st2" d="M286.4,75c0,0.6-0.2,1.1-0.7,1.4s-1.1,0.5-1.9,0.5c-0.9,0-1.5-0.1-2-0.4v-0.9c0.3,0.2,0.6,0.3,1,0.4
				s0.7,0.1,1,0.1c0.5,0,0.9-0.1,1.2-0.2s0.4-0.4,0.4-0.7c0-0.3-0.1-0.5-0.3-0.6s-0.6-0.4-1.3-0.6c-0.6-0.2-1-0.4-1.3-0.6
				s-0.4-0.4-0.6-0.6s-0.2-0.5-0.2-0.8c0-0.5,0.2-0.9,0.6-1.2s1-0.5,1.8-0.5c0.7,0,1.4,0.1,2,0.4l-0.3,0.8c-0.6-0.3-1.2-0.4-1.8-0.4
				c-0.5,0-0.8,0.1-1,0.2s-0.4,0.3-0.4,0.6c0,0.2,0,0.3,0.1,0.4s0.2,0.2,0.4,0.3s0.6,0.3,1.1,0.5c0.8,0.3,1.3,0.6,1.5,0.8
				S286.4,74.5,286.4,75z"/>
			<path class="st2" d="M290.1,76c0.2,0,0.3,0,0.5,0s0.3-0.1,0.4-0.1v0.7c-0.1,0.1-0.3,0.1-0.5,0.1s-0.4,0-0.6,0
				c-1.2,0-1.9-0.7-1.9-2V71h-0.9v-0.5l0.9-0.4l0.4-1.4h0.6v1.5h1.9V71H289v3.8c0,0.4,0.1,0.7,0.3,0.9S289.7,76,290.1,76z"/>
			<path class="st2" d="M296.4,75c0,0.6-0.2,1.1-0.7,1.4s-1.1,0.5-1.9,0.5c-0.9,0-1.5-0.1-2-0.4v-0.9c0.3,0.2,0.6,0.3,1,0.4
				s0.7,0.1,1,0.1c0.5,0,0.9-0.1,1.2-0.2s0.4-0.4,0.4-0.7c0-0.3-0.1-0.5-0.3-0.6s-0.6-0.4-1.3-0.6c-0.6-0.2-1-0.4-1.3-0.6
				s-0.4-0.4-0.6-0.6s-0.2-0.5-0.2-0.8c0-0.5,0.2-0.9,0.6-1.2s1-0.5,1.8-0.5c0.7,0,1.4,0.1,2,0.4l-0.3,0.8c-0.6-0.3-1.2-0.4-1.8-0.4
				c-0.5,0-0.8,0.1-1,0.2s-0.4,0.3-0.4,0.6c0,0.2,0,0.3,0.1,0.4s0.2,0.2,0.4,0.3s0.6,0.3,1.1,0.5c0.8,0.3,1.3,0.6,1.5,0.8
				S296.4,74.5,296.4,75z"/>
			<path class="st2" d="M306.6,70.6c0,0.9-0.3,1.5-0.9,2s-1.4,0.7-2.5,0.7h-1v3.4h-1v-8.6h2.2C305.6,68.1,306.6,69,306.6,70.6z
				 M302.2,72.5h0.9c0.9,0,1.5-0.1,1.9-0.4s0.6-0.7,0.6-1.4c0-0.6-0.2-1-0.6-1.3s-0.9-0.4-1.7-0.4h-1.1V72.5z"/>
			<path class="st2" d="M311,76.8c-0.9,0-1.7-0.3-2.2-0.9s-0.8-1.4-0.8-2.4c0-1,0.3-1.9,0.8-2.5s1.2-0.9,2.1-0.9
				c0.8,0,1.4,0.3,1.9,0.8s0.7,1.2,0.7,2.1v0.6h-4.4c0,0.8,0.2,1.3,0.6,1.7s0.9,0.6,1.5,0.6c0.7,0,1.4-0.1,2.1-0.4v0.9
				c-0.3,0.1-0.7,0.3-1,0.3S311.4,76.8,311,76.8z M310.7,71c-0.5,0-0.9,0.2-1.2,0.5s-0.5,0.8-0.5,1.4h3.4c0-0.6-0.1-1.1-0.4-1.4
				S311.2,71,310.7,71z"/>
			<path class="st2" d="M317.9,70.2c0.3,0,0.5,0,0.8,0.1l-0.1,0.9c-0.3-0.1-0.5-0.1-0.7-0.1c-0.5,0-1,0.2-1.3,0.6s-0.6,0.9-0.6,1.6
				v3.4h-1v-6.4h0.8l0.1,1.2h0c0.2-0.4,0.5-0.7,0.9-1S317.5,70.2,317.9,70.2z"/>
			<path class="st2" d="M328,74.4c0,0.8-0.3,1.3-0.8,1.8s-1.3,0.6-2.2,0.6c-1,0-1.8-0.1-2.3-0.4v-1c0.4,0.1,0.7,0.3,1.1,0.4
				s0.8,0.1,1.2,0.1c0.7,0,1.2-0.1,1.5-0.4s0.5-0.6,0.5-1.1c0-0.3-0.1-0.5-0.2-0.7s-0.3-0.4-0.6-0.5s-0.7-0.3-1.3-0.5
				c-0.8-0.3-1.4-0.6-1.7-1s-0.5-0.9-0.5-1.5c0-0.7,0.2-1.2,0.7-1.6s1.2-0.6,2-0.6c0.9,0,1.6,0.2,2.3,0.5l-0.3,0.9
				c-0.7-0.3-1.4-0.4-2.1-0.4c-0.5,0-0.9,0.1-1.2,0.3s-0.4,0.5-0.4,0.9c0,0.3,0.1,0.5,0.2,0.7s0.3,0.4,0.6,0.5s0.7,0.3,1.2,0.5
				c0.9,0.3,1.5,0.7,1.9,1S328,73.8,328,74.4z"/>
			<path class="st2" d="M332.3,76.8c-0.9,0-1.7-0.3-2.2-0.9s-0.8-1.4-0.8-2.4c0-1,0.3-1.9,0.8-2.5s1.2-0.9,2.1-0.9
				c0.8,0,1.4,0.3,1.9,0.8s0.7,1.2,0.7,2.1v0.6h-4.4c0,0.8,0.2,1.3,0.6,1.7s0.9,0.6,1.5,0.6c0.7,0,1.4-0.1,2.1-0.4v0.9
				c-0.3,0.1-0.7,0.3-1,0.3S332.8,76.8,332.3,76.8z M332.1,71c-0.5,0-0.9,0.2-1.2,0.5s-0.5,0.8-0.5,1.4h3.4c0-0.6-0.1-1.1-0.4-1.4
				S332.6,71,332.1,71z"/>
			<path class="st2" d="M338.9,76.8c-0.9,0-1.6-0.3-2.2-0.9s-0.8-1.4-0.8-2.4c0-1.1,0.3-1.9,0.8-2.5s1.3-0.9,2.2-0.9
				c0.3,0,0.6,0,0.9,0.1s0.6,0.1,0.7,0.2l-0.3,0.8c-0.2-0.1-0.4-0.2-0.7-0.2S339.2,71,339,71c-1.3,0-2,0.8-2,2.5
				c0,0.8,0.2,1.4,0.5,1.8s0.8,0.6,1.4,0.6c0.5,0,1.1-0.1,1.6-0.3v0.9C340.1,76.7,339.6,76.8,338.9,76.8z"/>
			<path class="st2" d="M347.6,73.5c0,1-0.3,1.9-0.8,2.5s-1.3,0.9-2.2,0.9c-0.6,0-1.1-0.1-1.5-0.4s-0.8-0.7-1-1.2s-0.4-1.1-0.4-1.8
				c0-1,0.3-1.9,0.8-2.4s1.3-0.9,2.2-0.9c0.9,0,1.6,0.3,2.1,0.9S347.6,72.5,347.6,73.5z M342.7,73.5c0,0.8,0.2,1.4,0.5,1.9
				s0.8,0.6,1.4,0.6s1.1-0.2,1.5-0.6s0.5-1.1,0.5-1.9c0-0.8-0.2-1.4-0.5-1.9s-0.8-0.6-1.5-0.6c-0.6,0-1.1,0.2-1.4,0.6
				S342.7,72.7,342.7,73.5z"/>
			<path class="st2" d="M353.7,76.7v-4.2c0-0.5-0.1-0.9-0.4-1.2s-0.6-0.4-1.1-0.4c-0.7,0-1.2,0.2-1.5,0.5s-0.5,1-0.5,1.8v3.4h-1
				v-6.4h0.8l0.2,0.9h0c0.2-0.3,0.5-0.6,0.8-0.7s0.8-0.3,1.2-0.3c0.8,0,1.4,0.2,1.7,0.6s0.6,1,0.6,1.8v4.2H353.7z"/>
			<path class="st2" d="M361,75.8L361,75.8c-0.5,0.7-1.2,1-2.1,1c-0.8,0-1.5-0.3-2-0.9s-0.7-1.4-0.7-2.4s0.2-1.9,0.7-2.5
				s1.1-0.9,2-0.9c0.9,0,1.5,0.3,2,0.9h0.1l0-0.5l0-0.5v-2.6h1v9.1h-0.8L361,75.8z M359.1,76c0.7,0,1.1-0.2,1.4-0.5s0.4-0.9,0.4-1.7
				v-0.2c0-0.9-0.2-1.6-0.5-1.9s-0.8-0.6-1.5-0.6c-0.6,0-1,0.2-1.3,0.7s-0.5,1.1-0.5,1.9c0,0.8,0.2,1.4,0.5,1.9S358.5,76,359.1,76z"
				/>
		</g>
	</g>
	<path class="st5" d="M355.7,102.5H25.3c-4,0-7.3-3.3-7.3-7.3v0c0-4,3.3-7.3,7.3-7.3h330.4c4,0,7.3,3.3,7.3,7.3v0
		C363,99.3,359.7,102.5,355.7,102.5z"/>
	<g>
		<defs>
			<path id="SVGID_1_" d="M355.7,102.5H25.3c-4,0-7.3-3.3-7.3-7.3v0c0-4,3.3-7.3,7.3-7.3h330.4c4,0,7.3,3.3,7.3,7.3v0
				C363,99.3,359.7,102.5,355.7,102.5z"/>
		</defs>
		<clipPath id="SVGID_2_">
			<use xlink:href="#SVGID_1_"  style="overflow:visible;"/>
		</clipPath>
		<polygon class="st6" points="62.1,106.4 36.8,106.4 14.8,84.1 40.1,84.1 		"/>
		<polygon class="st6" points="111.8,106.4 86.5,106.4 64.5,84.1 89.8,84.1 		"/>
		<polygon class="st6" points="161.5,106.4 136.2,106.4 114.2,84.1 139.5,84.1 		"/>
		<polygon class="st6" points="211.2,106.4 185.9,106.4 163.9,84.1 189.2,84.1 		"/>
		<polygon class="st6" points="260.9,106.4 235.6,106.4 213.6,84.1 238.9,84.1 		"/>
		<polygon class="st6" points="310.6,106.4 285.3,106.4 263.3,84.1 288.6,84.1 		"/>
		<polygon class="st6" points="360.3,106.4 335,106.4 313,84.1 338.3,84.1 		"/>
	</g>
</g>
<g>
	<g>
		<g>
			<path class="st2" d="M221,130.2c0,0.5-0.2,1-0.5,1.3s-0.7,0.6-1.3,0.7v0c0.7,0.1,1.2,0.3,1.5,0.7s0.5,0.8,0.5,1.4
				c0,0.8-0.3,1.4-0.8,1.9s-1.4,0.7-2.4,0.7c-0.5,0-0.9,0-1.2-0.1s-0.7-0.2-1.1-0.4v-0.9c0.4,0.2,0.8,0.3,1.2,0.4s0.8,0.1,1.2,0.1
				c1.5,0,2.2-0.6,2.2-1.7c0-1-0.8-1.6-2.4-1.6h-0.8v-0.8h0.9c0.7,0,1.2-0.1,1.6-0.4s0.6-0.7,0.6-1.2c0-0.4-0.1-0.7-0.4-1
				s-0.7-0.4-1.2-0.4c-0.4,0-0.7,0.1-1.1,0.2s-0.7,0.3-1.1,0.6l-0.5-0.7c0.4-0.3,0.8-0.5,1.2-0.7s0.9-0.2,1.5-0.2
				c0.8,0,1.5,0.2,1.9,0.6S221,129.5,221,130.2z"/>
			<path class="st2" d="M228.1,136.7h-5.6v-0.8l2.3-2.3c0.7-0.7,1.1-1.2,1.4-1.5s0.4-0.6,0.5-0.9s0.2-0.6,0.2-0.9
				c0-0.5-0.1-0.8-0.4-1.1s-0.7-0.4-1.2-0.4c-0.4,0-0.7,0.1-1,0.2s-0.7,0.3-1.1,0.6l-0.5-0.7c0.8-0.7,1.6-1,2.6-1
				c0.8,0,1.4,0.2,1.9,0.6s0.7,1,0.7,1.7c0,0.5-0.2,1.1-0.5,1.6s-0.9,1.2-1.7,2l-1.9,1.8v0h4.4V136.7z"/>
			<path class="st2" d="M235,132.4c0,1.5-0.2,2.6-0.7,3.3s-1.2,1.1-2.1,1.1c-0.9,0-1.6-0.4-2.1-1.1s-0.7-1.8-0.7-3.3
				c0-1.5,0.2-2.6,0.7-3.3s1.2-1.1,2.1-1.1c0.9,0,1.6,0.4,2.1,1.1S235,131,235,132.4z M230.4,132.4c0,1.2,0.1,2.2,0.4,2.7
				s0.8,0.9,1.4,0.9c0.6,0,1.1-0.3,1.4-0.9s0.4-1.5,0.4-2.7s-0.1-2.1-0.4-2.7s-0.8-0.9-1.4-0.9c-0.6,0-1.1,0.3-1.4,0.8
				S230.4,131.2,230.4,132.4z"/>
			<path class="st2" d="M241.5,130.2c0,0.5-0.2,1-0.5,1.3s-0.7,0.6-1.3,0.7v0c0.7,0.1,1.2,0.3,1.5,0.7s0.5,0.8,0.5,1.4
				c0,0.8-0.3,1.4-0.8,1.9s-1.4,0.7-2.4,0.7c-0.5,0-0.9,0-1.2-0.1s-0.7-0.2-1.1-0.4v-0.9c0.4,0.2,0.8,0.3,1.2,0.4s0.8,0.1,1.2,0.1
				c1.5,0,2.2-0.6,2.2-1.7c0-1-0.8-1.6-2.4-1.6h-0.8v-0.8h0.9c0.7,0,1.2-0.1,1.6-0.4s0.6-0.7,0.6-1.2c0-0.4-0.1-0.7-0.4-1
				s-0.7-0.4-1.2-0.4c-0.4,0-0.7,0.1-1.1,0.2s-0.7,0.3-1.1,0.6l-0.5-0.7c0.4-0.3,0.8-0.5,1.2-0.7s0.9-0.2,1.5-0.2
				c0.8,0,1.5,0.2,1.9,0.6S241.5,129.5,241.5,130.2z"/>
			<path class="st2" d="M247.8,133.2v3.6h-1v-8.6h2.3c1.1,0,1.8,0.2,2.3,0.6s0.8,1,0.8,1.8c0,1.1-0.6,1.9-1.7,2.3l2.3,3.8h-1.2
				l-2.1-3.6H247.8z M247.8,132.3h1.4c0.7,0,1.2-0.1,1.5-0.4s0.5-0.7,0.5-1.3c0-0.6-0.2-1-0.5-1.2s-0.9-0.4-1.6-0.4h-1.3V132.3z"/>
			<path class="st2" d="M256.8,136.9c-0.9,0-1.7-0.3-2.2-0.9s-0.8-1.4-0.8-2.4c0-1,0.3-1.9,0.8-2.5s1.2-0.9,2.1-0.9
				c0.8,0,1.4,0.3,1.9,0.8s0.7,1.2,0.7,2.1v0.6h-4.4c0,0.8,0.2,1.3,0.6,1.7s0.9,0.6,1.5,0.6c0.7,0,1.4-0.1,2.1-0.4v0.9
				c-0.3,0.1-0.7,0.3-1,0.3S257.2,136.9,256.8,136.9z M256.5,131c-0.5,0-0.9,0.2-1.2,0.5s-0.5,0.8-0.5,1.4h3.4
				c0-0.6-0.1-1.1-0.4-1.4S257,131,256.5,131z"/>
			<path class="st2" d="M263.1,136.9c-0.8,0-1.5-0.3-1.9-0.9s-0.7-1.4-0.7-2.4c0-1.1,0.2-1.9,0.7-2.5s1.1-0.9,2-0.9
				c0.9,0,1.6,0.3,2,1h0.1l0.1-0.9h0.8v9.3h-1v-2.7c0-0.4,0-0.7,0.1-1h-0.1C264.7,136.5,264,136.9,263.1,136.9z M263.2,136
				c0.6,0,1.1-0.2,1.4-0.5s0.5-0.9,0.5-1.8v-0.2c0-0.9-0.2-1.5-0.5-1.9s-0.8-0.6-1.4-0.6c-0.6,0-1,0.2-1.3,0.7s-0.5,1.1-0.5,1.9
				s0.1,1.4,0.4,1.8S262.6,136,263.2,136z"/>
			<path class="st2" d="M269.1,130.3v4.2c0,0.5,0.1,0.9,0.4,1.2s0.6,0.4,1.1,0.4c0.7,0,1.2-0.2,1.5-0.6s0.5-1,0.5-1.8v-3.4h1v6.4
				h-0.8l-0.1-0.9h-0.1c-0.2,0.3-0.5,0.6-0.8,0.7s-0.8,0.3-1.2,0.3c-0.8,0-1.4-0.2-1.8-0.6s-0.6-1-0.6-1.8v-4.2H269.1z"/>
			<path class="st2" d="M278.2,136.9c-0.9,0-1.7-0.3-2.2-0.9s-0.8-1.4-0.8-2.4c0-1,0.3-1.9,0.8-2.5s1.2-0.9,2.1-0.9
				c0.8,0,1.4,0.3,1.9,0.8s0.7,1.2,0.7,2.1v0.6h-4.4c0,0.8,0.2,1.3,0.6,1.7s0.9,0.6,1.5,0.6c0.7,0,1.4-0.1,2.1-0.4v0.9
				c-0.3,0.1-0.7,0.3-1,0.3S278.7,136.9,278.2,136.9z M278,131c-0.5,0-0.9,0.2-1.2,0.5s-0.5,0.8-0.5,1.4h3.4c0-0.6-0.1-1.1-0.4-1.4
				S278.5,131,278,131z"/>
			<path class="st2" d="M286.4,135c0,0.6-0.2,1.1-0.7,1.4s-1.1,0.5-1.9,0.5c-0.9,0-1.5-0.1-2-0.4v-0.9c0.3,0.2,0.6,0.3,1,0.4
				s0.7,0.1,1,0.1c0.5,0,0.9-0.1,1.2-0.2s0.4-0.4,0.4-0.7c0-0.3-0.1-0.5-0.3-0.6s-0.6-0.4-1.3-0.6c-0.6-0.2-1-0.4-1.3-0.6
				s-0.4-0.4-0.6-0.6s-0.2-0.5-0.2-0.8c0-0.5,0.2-0.9,0.6-1.2s1-0.5,1.8-0.5c0.7,0,1.4,0.1,2,0.4l-0.3,0.8c-0.6-0.3-1.2-0.4-1.8-0.4
				c-0.5,0-0.8,0.1-1,0.2s-0.4,0.3-0.4,0.6c0,0.2,0,0.3,0.1,0.4s0.2,0.2,0.4,0.3s0.6,0.3,1.1,0.5c0.8,0.3,1.3,0.6,1.5,0.8
				S286.4,134.6,286.4,135z"/>
			<path class="st2" d="M290.1,136.1c0.2,0,0.3,0,0.5,0s0.3-0.1,0.4-0.1v0.7c-0.1,0.1-0.3,0.1-0.5,0.1s-0.4,0-0.6,0
				c-1.2,0-1.9-0.7-1.9-2v-3.8h-0.9v-0.5l0.9-0.4l0.4-1.4h0.6v1.5h1.9v0.8H289v3.8c0,0.4,0.1,0.7,0.3,0.9S289.7,136.1,290.1,136.1z"
				/>
			<path class="st2" d="M296.4,135c0,0.6-0.2,1.1-0.7,1.4s-1.1,0.5-1.9,0.5c-0.9,0-1.5-0.1-2-0.4v-0.9c0.3,0.2,0.6,0.3,1,0.4
				s0.7,0.1,1,0.1c0.5,0,0.9-0.1,1.2-0.2s0.4-0.4,0.4-0.7c0-0.3-0.1-0.5-0.3-0.6s-0.6-0.4-1.3-0.6c-0.6-0.2-1-0.4-1.3-0.6
				s-0.4-0.4-0.6-0.6s-0.2-0.5-0.2-0.8c0-0.5,0.2-0.9,0.6-1.2s1-0.5,1.8-0.5c0.7,0,1.4,0.1,2,0.4l-0.3,0.8c-0.6-0.3-1.2-0.4-1.8-0.4
				c-0.5,0-0.8,0.1-1,0.2s-0.4,0.3-0.4,0.6c0,0.2,0,0.3,0.1,0.4s0.2,0.2,0.4,0.3s0.6,0.3,1.1,0.5c0.8,0.3,1.3,0.6,1.5,0.8
				S296.4,134.6,296.4,135z"/>
			<path class="st2" d="M306.6,130.7c0,0.9-0.3,1.5-0.9,2s-1.4,0.7-2.5,0.7h-1v3.4h-1v-8.6h2.2C305.6,128.2,306.6,129,306.6,130.7z
				 M302.2,132.5h0.9c0.9,0,1.5-0.1,1.9-0.4s0.6-0.7,0.6-1.4c0-0.6-0.2-1-0.6-1.3s-0.9-0.4-1.7-0.4h-1.1V132.5z"/>
			<path class="st2" d="M311,136.9c-0.9,0-1.7-0.3-2.2-0.9s-0.8-1.4-0.8-2.4c0-1,0.3-1.9,0.8-2.5s1.2-0.9,2.1-0.9
				c0.8,0,1.4,0.3,1.9,0.8s0.7,1.2,0.7,2.1v0.6h-4.4c0,0.8,0.2,1.3,0.6,1.7s0.9,0.6,1.5,0.6c0.7,0,1.4-0.1,2.1-0.4v0.9
				c-0.3,0.1-0.7,0.3-1,0.3S311.4,136.9,311,136.9z M310.7,131c-0.5,0-0.9,0.2-1.2,0.5s-0.5,0.8-0.5,1.4h3.4c0-0.6-0.1-1.1-0.4-1.4
				S311.2,131,310.7,131z"/>
			<path class="st2" d="M317.9,130.2c0.3,0,0.5,0,0.8,0.1l-0.1,0.9c-0.3-0.1-0.5-0.1-0.7-0.1c-0.5,0-1,0.2-1.3,0.6s-0.6,0.9-0.6,1.6
				v3.4h-1v-6.4h0.8l0.1,1.2h0c0.2-0.4,0.5-0.7,0.9-1S317.5,130.2,317.9,130.2z"/>
			<path class="st2" d="M328,134.5c0,0.8-0.3,1.3-0.8,1.8s-1.3,0.6-2.2,0.6c-1,0-1.8-0.1-2.3-0.4v-1c0.4,0.1,0.7,0.3,1.1,0.4
				s0.8,0.1,1.2,0.1c0.7,0,1.2-0.1,1.5-0.4s0.5-0.6,0.5-1.1c0-0.3-0.1-0.5-0.2-0.7s-0.3-0.4-0.6-0.5s-0.7-0.3-1.3-0.5
				c-0.8-0.3-1.4-0.6-1.7-1s-0.5-0.9-0.5-1.5c0-0.7,0.2-1.2,0.7-1.6s1.2-0.6,2-0.6c0.9,0,1.6,0.2,2.3,0.5l-0.3,0.9
				c-0.7-0.3-1.4-0.4-2.1-0.4c-0.5,0-0.9,0.1-1.2,0.3s-0.4,0.5-0.4,0.9c0,0.3,0.1,0.5,0.2,0.7s0.3,0.4,0.6,0.5s0.7,0.3,1.2,0.5
				c0.9,0.3,1.5,0.7,1.9,1S328,133.9,328,134.5z"/>
			<path class="st2" d="M332.3,136.9c-0.9,0-1.7-0.3-2.2-0.9s-0.8-1.4-0.8-2.4c0-1,0.3-1.9,0.8-2.5s1.2-0.9,2.1-0.9
				c0.8,0,1.4,0.3,1.9,0.8s0.7,1.2,0.7,2.1v0.6h-4.4c0,0.8,0.2,1.3,0.6,1.7s0.9,0.6,1.5,0.6c0.7,0,1.4-0.1,2.1-0.4v0.9
				c-0.3,0.1-0.7,0.3-1,0.3S332.8,136.9,332.3,136.9z M332.1,131c-0.5,0-0.9,0.2-1.2,0.5s-0.5,0.8-0.5,1.4h3.4
				c0-0.6-0.1-1.1-0.4-1.4S332.6,131,332.1,131z"/>
			<path class="st2" d="M338.9,136.9c-0.9,0-1.6-0.3-2.2-0.9s-0.8-1.4-0.8-2.4c0-1.1,0.3-1.9,0.8-2.5s1.3-0.9,2.2-0.9
				c0.3,0,0.6,0,0.9,0.1s0.6,0.1,0.7,0.2l-0.3,0.8c-0.2-0.1-0.4-0.2-0.7-0.2s-0.5-0.1-0.7-0.1c-1.3,0-2,0.8-2,2.5
				c0,0.8,0.2,1.4,0.5,1.8s0.8,0.6,1.4,0.6c0.5,0,1.1-0.1,1.6-0.3v0.9C340.1,136.8,339.6,136.9,338.9,136.9z"/>
			<path class="st2" d="M347.6,133.5c0,1-0.3,1.9-0.8,2.5s-1.3,0.9-2.2,0.9c-0.6,0-1.1-0.1-1.5-0.4s-0.8-0.7-1-1.2s-0.4-1.1-0.4-1.8
				c0-1,0.3-1.9,0.8-2.4s1.3-0.9,2.2-0.9c0.9,0,1.6,0.3,2.1,0.9S347.6,132.5,347.6,133.5z M342.7,133.5c0,0.8,0.2,1.4,0.5,1.9
				s0.8,0.6,1.4,0.6s1.1-0.2,1.5-0.6s0.5-1.1,0.5-1.9c0-0.8-0.2-1.4-0.5-1.9s-0.8-0.6-1.5-0.6c-0.6,0-1.1,0.2-1.4,0.6
				S342.7,132.7,342.7,133.5z"/>
			<path class="st2" d="M353.7,136.7v-4.2c0-0.5-0.1-0.9-0.4-1.2s-0.6-0.4-1.1-0.4c-0.7,0-1.2,0.2-1.5,0.5s-0.5,1-0.5,1.8v3.4h-1
				v-6.4h0.8l0.2,0.9h0c0.2-0.3,0.5-0.6,0.8-0.7s0.8-0.3,1.2-0.3c0.8,0,1.4,0.2,1.7,0.6s0.6,1,0.6,1.8v4.2H353.7z"/>
			<path class="st2" d="M361,135.9L361,135.9c-0.5,0.7-1.2,1-2.1,1c-0.8,0-1.5-0.3-2-0.9s-0.7-1.4-0.7-2.4s0.2-1.9,0.7-2.5
				s1.1-0.9,2-0.9c0.9,0,1.5,0.3,2,0.9h0.1l0-0.5l0-0.5v-2.6h1v9.1h-0.8L361,135.9z M359.1,136c0.7,0,1.1-0.2,1.4-0.5
				s0.4-0.9,0.4-1.7v-0.2c0-0.9-0.2-1.6-0.5-1.9s-0.8-0.6-1.5-0.6c-0.6,0-1,0.2-1.3,0.7s-0.5,1.1-0.5,1.9c0,0.8,0.2,1.4,0.5,1.9
				S358.5,136,359.1,136z"/>
		</g>
	</g>
	<g>
		<g>
			<path class="st4" d="M26.3,136.7h-1.7l-4.2-6.8h0l0,0.4c0.1,0.7,0.1,1.4,0.1,2v4.5h-1.3v-8.6h1.7l4.2,6.8h0c0-0.1,0-0.4,0-1
				s0-1,0-1.3v-4.5h1.3V136.7z"/>
			<path class="st4" d="M33.9,130.3v0.8l-1.1,0.2c0.1,0.1,0.2,0.3,0.3,0.5s0.1,0.4,0.1,0.6c0,0.7-0.2,1.2-0.7,1.6s-1.1,0.6-1.9,0.6
				c-0.2,0-0.4,0-0.6,0c-0.3,0.2-0.4,0.4-0.4,0.6c0,0.1,0.1,0.3,0.2,0.3s0.4,0.1,0.8,0.1h1.1c0.7,0,1.3,0.2,1.6,0.5s0.6,0.7,0.6,1.3
				c0,0.7-0.3,1.3-0.9,1.7s-1.5,0.6-2.6,0.6c-0.9,0-1.6-0.2-2-0.5s-0.7-0.8-0.7-1.3c0-0.4,0.1-0.7,0.4-1s0.6-0.5,1.1-0.6
				c-0.2-0.1-0.3-0.2-0.5-0.4s-0.2-0.4-0.2-0.5c0-0.2,0.1-0.4,0.2-0.6s0.3-0.3,0.6-0.5c-0.3-0.1-0.6-0.4-0.8-0.7s-0.3-0.7-0.3-1.1
				c0-0.7,0.2-1.2,0.7-1.6s1.1-0.6,1.9-0.6c0.2,0,0.4,0,0.6,0s0.4,0.1,0.5,0.1H33.9z M28.8,137.8c0,0.3,0.1,0.5,0.4,0.7
				s0.6,0.2,1.1,0.2c0.8,0,1.3-0.1,1.7-0.3s0.6-0.5,0.6-0.9c0-0.3-0.1-0.5-0.3-0.6s-0.6-0.2-1.1-0.2h-1c-0.4,0-0.7,0.1-0.9,0.3
				S28.8,137.4,28.8,137.8z M29.4,132.4c0,0.4,0.1,0.7,0.3,0.9s0.5,0.3,0.9,0.3c0.8,0,1.2-0.4,1.2-1.3c0-0.4-0.1-0.7-0.3-1
				S31,131,30.6,131c-0.4,0-0.7,0.1-0.9,0.3S29.4,131.9,29.4,132.4z"/>
			<path class="st4" d="M35,128.5c0-0.2,0.1-0.4,0.2-0.6s0.3-0.2,0.6-0.2c0.2,0,0.4,0.1,0.6,0.2s0.2,0.3,0.2,0.6
				c0,0.2-0.1,0.4-0.2,0.6s-0.3,0.2-0.6,0.2c-0.3,0-0.4-0.1-0.6-0.2S35,128.8,35,128.5z M36.5,136.7h-1.4v-6.5h1.4V136.7z"/>
			<path class="st4" d="M44.1,136.7h-1.4v-4c0-0.5-0.1-0.9-0.3-1.1s-0.5-0.4-1-0.4c-0.6,0-1,0.2-1.3,0.5s-0.4,0.9-0.4,1.7v3.2h-1.4
				v-6.5h1.1l0.2,0.8h0.1c0.2-0.3,0.5-0.5,0.8-0.7s0.8-0.3,1.2-0.3c1.6,0,2.3,0.8,2.3,2.4V136.7z"/>
			<path class="st4" d="M47.5,133.4l-2.2-3.2h1.6l1.5,2.3l1.5-2.3h1.6l-2.2,3.2l2.3,3.3H50l-1.6-2.4l-1.6,2.4h-1.6L47.5,133.4z"/>
			<path class="st4" d="M57.7,133h-2.3v-1h2.3v-2.4h1.1v2.4h2.3v1h-2.3v2.4h-1.1V133z"/>
			<path class="st4" d="M67.3,136.7h-1.4v-8.6h4.8v1.2h-3.4v2.7h3.2v1.2h-3.2V136.7z"/>
			<path class="st4" d="M76.2,136.7l-0.3-0.9h0c-0.3,0.4-0.6,0.7-0.9,0.8s-0.7,0.2-1.2,0.2c-0.6,0-1.1-0.2-1.5-0.5s-0.5-0.8-0.5-1.5
				c0-0.7,0.2-1.2,0.7-1.5s1.3-0.5,2.3-0.6l1.1,0v-0.3c0-0.4-0.1-0.7-0.3-0.9s-0.5-0.3-0.9-0.3c-0.3,0-0.7,0-1,0.1s-0.6,0.2-0.9,0.3
				l-0.4-1c0.4-0.2,0.7-0.3,1.2-0.4s0.8-0.1,1.2-0.1c0.8,0,1.4,0.2,1.9,0.5s0.6,0.9,0.6,1.7v4.4H76.2z M74.1,135.8
				c0.5,0,0.9-0.1,1.2-0.4s0.5-0.7,0.5-1.2v-0.6l-0.8,0c-0.6,0-1.1,0.1-1.4,0.3s-0.4,0.5-0.4,0.9c0,0.3,0.1,0.5,0.3,0.7
				S73.8,135.8,74.1,135.8z"/>
			<path class="st4" d="M83.5,134.9c0,0.6-0.2,1.1-0.7,1.5s-1.1,0.5-2,0.5c-0.9,0-1.6-0.1-2.1-0.4v-1.2c0.8,0.4,1.5,0.5,2.1,0.5
				c0.8,0,1.3-0.3,1.3-0.8c0-0.2,0-0.3-0.1-0.4s-0.2-0.2-0.5-0.3s-0.5-0.3-0.9-0.4c-0.7-0.3-1.3-0.6-1.5-0.9s-0.4-0.7-0.4-1.1
				c0-0.6,0.2-1,0.7-1.3s1.1-0.5,1.8-0.5c0.8,0,1.5,0.2,2.2,0.5l-0.4,1c-0.7-0.3-1.3-0.4-1.8-0.4c-0.7,0-1.1,0.2-1.1,0.6
				c0,0.2,0.1,0.4,0.3,0.5s0.6,0.3,1.2,0.6c0.5,0.2,0.9,0.4,1.2,0.6s0.4,0.4,0.5,0.6S83.5,134.6,83.5,134.9z"/>
			<path class="st4" d="M87.4,135.7c0.3,0,0.7-0.1,1-0.2v1c-0.2,0.1-0.3,0.1-0.6,0.2s-0.5,0.1-0.7,0.1c-1.3,0-2-0.7-2-2.1v-3.5h-0.9
				v-0.6l0.9-0.5l0.5-1.4h0.8v1.4h1.8v1h-1.8v3.5c0,0.3,0.1,0.6,0.2,0.7S87.1,135.7,87.4,135.7z"/>
			<path class="st4" d="M93.5,129.3c-0.8,0-1.4,0.3-1.9,0.9s-0.7,1.4-0.7,2.4c0,1.1,0.2,1.8,0.7,2.4s1.1,0.8,1.9,0.8
				c0.4,0,0.7,0,1.1-0.1s0.7-0.2,1.1-0.3v1.2c-0.7,0.3-1.4,0.4-2.3,0.4c-1.3,0-2.2-0.4-2.9-1.1s-1-1.8-1-3.3c0-0.9,0.2-1.7,0.5-2.3
				s0.8-1.2,1.4-1.5s1.3-0.5,2.2-0.5c0.9,0,1.7,0.2,2.4,0.6l-0.5,1.2c-0.3-0.1-0.6-0.3-0.9-0.4S93.8,129.3,93.5,129.3z"/>
			<path class="st4" d="M100.9,132.1h3.2v4.3c-0.5,0.2-1,0.3-1.5,0.4s-1,0.1-1.5,0.1c-1.3,0-2.3-0.4-3-1.2s-1.1-1.9-1.1-3.2
				c0-1.4,0.4-2.5,1.2-3.2s1.9-1.2,3.3-1.2c0.9,0,1.7,0.2,2.5,0.5l-0.5,1.2c-0.7-0.3-1.4-0.5-2.1-0.5c-0.9,0-1.6,0.3-2.2,0.9
				s-0.8,1.4-0.8,2.4c0,1,0.2,1.8,0.7,2.4s1.2,0.8,2.1,0.8c0.5,0,0.9-0.1,1.5-0.2v-2.2h-1.8V132.1z"/>
			<path class="st4" d="M106.1,136.7v-8.6h1.4v8.6H106.1z"/>
			<path class="st4" d="M116.6,129.3c-0.8,0-1.4,0.3-1.9,0.9s-0.7,1.4-0.7,2.4c0,1.1,0.2,1.8,0.7,2.4s1.1,0.8,1.9,0.8
				c0.4,0,0.7,0,1.1-0.1s0.7-0.2,1.1-0.3v1.2c-0.7,0.3-1.4,0.4-2.3,0.4c-1.3,0-2.2-0.4-2.9-1.1s-1-1.8-1-3.3c0-0.9,0.2-1.7,0.5-2.3
				s0.8-1.2,1.4-1.5s1.3-0.5,2.2-0.5c0.9,0,1.7,0.2,2.4,0.6l-0.5,1.2c-0.3-0.1-0.6-0.3-0.9-0.4S116.9,129.3,116.6,129.3z"/>
			<path class="st4" d="M124.4,136.7l-0.3-0.9h0c-0.3,0.4-0.6,0.7-0.9,0.8s-0.7,0.2-1.2,0.2c-0.6,0-1.1-0.2-1.5-0.5
				s-0.5-0.8-0.5-1.5c0-0.7,0.2-1.2,0.7-1.5s1.3-0.5,2.3-0.6l1.1,0v-0.3c0-0.4-0.1-0.7-0.3-0.9s-0.5-0.3-0.9-0.3c-0.3,0-0.7,0-1,0.1
				s-0.6,0.2-0.9,0.3l-0.4-1c0.4-0.2,0.7-0.3,1.2-0.4s0.8-0.1,1.2-0.1c0.8,0,1.4,0.2,1.9,0.5s0.6,0.9,0.6,1.7v4.4H124.4z
				 M122.4,135.8c0.5,0,0.9-0.1,1.2-0.4s0.5-0.7,0.5-1.2v-0.6l-0.8,0c-0.6,0-1.1,0.1-1.4,0.3s-0.4,0.5-0.4,0.9
				c0,0.3,0.1,0.5,0.3,0.7S122,135.8,122.4,135.8z"/>
			<path class="st4" d="M129.9,136.9c-1,0-1.7-0.3-2.2-0.9s-0.8-1.4-0.8-2.5c0-1.1,0.3-1.9,0.8-2.5s1.3-0.9,2.3-0.9
				c0.7,0,1.3,0.1,1.8,0.4l-0.4,1.1c-0.6-0.2-1.1-0.3-1.4-0.3c-1.1,0-1.7,0.7-1.7,2.2c0,0.7,0.1,1.3,0.4,1.6s0.7,0.5,1.2,0.5
				c0.6,0,1.2-0.2,1.7-0.5v1.2c-0.2,0.1-0.5,0.2-0.8,0.3S130.3,136.9,129.9,136.9z"/>
			<path class="st4" d="M139,136.7h-1.4v-4c0-0.5-0.1-0.9-0.3-1.1s-0.5-0.4-1-0.4c-0.6,0-1,0.2-1.3,0.5s-0.4,0.9-0.4,1.7v3.2h-1.4
				v-9.1h1.4v2.3c0,0.4,0,0.8-0.1,1.2h0.1c0.2-0.3,0.4-0.6,0.8-0.7s0.7-0.3,1.2-0.3c1.6,0,2.4,0.8,2.4,2.4V136.7z"/>
			<path class="st4" d="M143.7,136.9c-1,0-1.8-0.3-2.4-0.9s-0.9-1.4-0.9-2.4c0-1.1,0.3-1.9,0.8-2.5s1.3-0.9,2.2-0.9
				c0.9,0,1.5,0.3,2,0.8s0.7,1.2,0.7,2.1v0.7h-4.3c0,0.6,0.2,1.1,0.5,1.5s0.8,0.5,1.4,0.5c0.4,0,0.7,0,1.1-0.1s0.7-0.2,1.1-0.4v1.1
				c-0.3,0.2-0.7,0.3-1,0.3S144.2,136.9,143.7,136.9z M143.5,131.2c-0.4,0-0.8,0.1-1.1,0.4s-0.4,0.7-0.5,1.2h2.9
				c0-0.5-0.1-0.9-0.4-1.2S143.9,131.2,143.5,131.2z"/>
		</g>
	</g>
	<path class="st7" d="M355.7,162.6H25.3c-4,0-7.3-3.3-7.3-7.3v0c0-4,3.3-7.3,7.3-7.3h330.4c4,0,7.3,3.3,7.3,7.3v0
		C363,159.3,359.7,162.6,355.7,162.6z"/>
	<g>
		<defs>
			<path id="SVGID_3_" d="M155.7,162.6H25.3c-4,0-7.3-3.3-7.3-7.3v0c0-4,3.3-7.3,7.3-7.3h130.4c4,0,7.3,3.3,7.3,7.3v0
				C163,159.3,159.7,162.6,155.7,162.6z"/>
		</defs>
		<clipPath id="SVGID_4_">
			<use xlink:href="#SVGID_3_"  style="overflow:visible;"/>
		</clipPath>
		<rect x="8.9" y="136.7" class="st8" width="163.4" height="36"/>
		<polygon class="st9" points="62.1,166.4 36.8,166.4 14.8,144.1 40.1,144.1 		"/>
		<polygon class="st9" points="111.8,166.4 86.5,166.4 64.5,144.1 89.8,144.1 		"/>
		<polygon class="st9" points="161.5,166.4 136.2,166.4 114.2,144.1 139.5,144.1 		"/>
	</g>
</g>
<g>
	<g>
		<g>
			<path class="st2" d="M219.3,196.8h-0.9v-6.1c0-0.5,0-1,0-1.4c-0.1,0.1-0.2,0.2-0.3,0.3s-0.6,0.5-1.4,1.1l-0.5-0.7l2.3-1.8h0.8
				V196.8z"/>
			<path class="st2" d="M228.1,196.8h-5.6v-0.8l2.3-2.3c0.7-0.7,1.1-1.2,1.4-1.5s0.4-0.6,0.5-0.9s0.2-0.6,0.2-0.9
				c0-0.5-0.1-0.8-0.4-1.1s-0.7-0.4-1.2-0.4c-0.4,0-0.7,0.1-1,0.2s-0.7,0.3-1.1,0.6l-0.5-0.7c0.8-0.7,1.6-1,2.6-1
				c0.8,0,1.4,0.2,1.9,0.6s0.7,1,0.7,1.7c0,0.5-0.2,1.1-0.5,1.6s-0.9,1.2-1.7,2l-1.9,1.8v0h4.4V196.8z"/>
			<path class="st2" d="M235,192.5c0,1.5-0.2,2.6-0.7,3.3s-1.2,1.1-2.1,1.1c-0.9,0-1.6-0.4-2.1-1.1s-0.7-1.8-0.7-3.3
				c0-1.5,0.2-2.6,0.7-3.3s1.2-1.1,2.1-1.1c0.9,0,1.6,0.4,2.1,1.1S235,191.1,235,192.5z M230.4,192.5c0,1.2,0.1,2.2,0.4,2.7
				s0.8,0.9,1.4,0.9c0.6,0,1.1-0.3,1.4-0.9s0.4-1.5,0.4-2.7s-0.1-2.1-0.4-2.7s-0.8-0.9-1.4-0.9c-0.6,0-1.1,0.3-1.4,0.8
				S230.4,191.2,230.4,192.5z"/>
			<path class="st2" d="M242.3,194.8H241v2h-0.9v-2h-4.2V194l4.1-5.8h1v5.8h1.3V194.8z M240.1,193.9v-2.8c0-0.6,0-1.2,0.1-1.9h0
				c-0.2,0.4-0.4,0.7-0.5,0.9l-2.7,3.8H240.1z"/>
			<path class="st2" d="M247.8,193.2v3.6h-1v-8.6h2.3c1.1,0,1.8,0.2,2.3,0.6s0.8,1,0.8,1.8c0,1.1-0.6,1.9-1.7,2.3l2.3,3.8h-1.2
				l-2.1-3.6H247.8z M247.8,192.4h1.4c0.7,0,1.2-0.1,1.5-0.4s0.5-0.7,0.5-1.3c0-0.6-0.2-1-0.5-1.2s-0.9-0.4-1.6-0.4h-1.3V192.4z"/>
			<path class="st2" d="M256.8,196.9c-0.9,0-1.7-0.3-2.2-0.9s-0.8-1.4-0.8-2.4c0-1,0.3-1.9,0.8-2.5s1.2-0.9,2.1-0.9
				c0.8,0,1.4,0.3,1.9,0.8s0.7,1.2,0.7,2.1v0.6h-4.4c0,0.8,0.2,1.3,0.6,1.7s0.9,0.6,1.5,0.6c0.7,0,1.4-0.1,2.1-0.4v0.9
				c-0.3,0.1-0.7,0.3-1,0.3S257.2,196.9,256.8,196.9z M256.5,191.1c-0.5,0-0.9,0.2-1.2,0.5s-0.5,0.8-0.5,1.4h3.4
				c0-0.6-0.1-1.1-0.4-1.4S257,191.1,256.5,191.1z"/>
			<path class="st2" d="M263.1,196.9c-0.8,0-1.5-0.3-1.9-0.9s-0.7-1.4-0.7-2.4c0-1.1,0.2-1.9,0.7-2.5s1.1-0.9,2-0.9
				c0.9,0,1.6,0.3,2,1h0.1l0.1-0.9h0.8v9.3h-1v-2.7c0-0.4,0-0.7,0.1-1h-0.1C264.7,196.6,264,196.9,263.1,196.9z M263.2,196.1
				c0.6,0,1.1-0.2,1.4-0.5s0.5-0.9,0.5-1.8v-0.2c0-0.9-0.2-1.5-0.5-1.9s-0.8-0.6-1.4-0.6c-0.6,0-1,0.2-1.3,0.7s-0.5,1.1-0.5,1.9
				s0.1,1.4,0.4,1.8S262.6,196.1,263.2,196.1z"/>
			<path class="st2" d="M269.1,190.4v4.2c0,0.5,0.1,0.9,0.4,1.2s0.6,0.4,1.1,0.4c0.7,0,1.2-0.2,1.5-0.6s0.5-1,0.5-1.8v-3.4h1v6.4
				h-0.8l-0.1-0.9h-0.1c-0.2,0.3-0.5,0.6-0.8,0.7s-0.8,0.3-1.2,0.3c-0.8,0-1.4-0.2-1.8-0.6s-0.6-1-0.6-1.8v-4.2H269.1z"/>
			<path class="st2" d="M278.2,196.9c-0.9,0-1.7-0.3-2.2-0.9s-0.8-1.4-0.8-2.4c0-1,0.3-1.9,0.8-2.5s1.2-0.9,2.1-0.9
				c0.8,0,1.4,0.3,1.9,0.8s0.7,1.2,0.7,2.1v0.6h-4.4c0,0.8,0.2,1.3,0.6,1.7s0.9,0.6,1.5,0.6c0.7,0,1.4-0.1,2.1-0.4v0.9
				c-0.3,0.1-0.7,0.3-1,0.3S278.7,196.9,278.2,196.9z M278,191.1c-0.5,0-0.9,0.2-1.2,0.5s-0.5,0.8-0.5,1.4h3.4
				c0-0.6-0.1-1.1-0.4-1.4S278.5,191.1,278,191.1z"/>
			<path class="st2" d="M286.4,195c0,0.6-0.2,1.1-0.7,1.4s-1.1,0.5-1.9,0.5c-0.9,0-1.5-0.1-2-0.4v-0.9c0.3,0.2,0.6,0.3,1,0.4
				s0.7,0.1,1,0.1c0.5,0,0.9-0.1,1.2-0.2s0.4-0.4,0.4-0.7c0-0.3-0.1-0.5-0.3-0.6s-0.6-0.4-1.3-0.6c-0.6-0.2-1-0.4-1.3-0.6
				s-0.4-0.4-0.6-0.6s-0.2-0.5-0.2-0.8c0-0.5,0.2-0.9,0.6-1.2s1-0.5,1.8-0.5c0.7,0,1.4,0.1,2,0.4l-0.3,0.8c-0.6-0.3-1.2-0.4-1.8-0.4
				c-0.5,0-0.8,0.1-1,0.2s-0.4,0.3-0.4,0.6c0,0.2,0,0.3,0.1,0.4s0.2,0.2,0.4,0.3s0.6,0.3,1.1,0.5c0.8,0.3,1.3,0.6,1.5,0.8
				S286.4,194.6,286.4,195z"/>
			<path class="st2" d="M290.1,196.1c0.2,0,0.3,0,0.5,0s0.3-0.1,0.4-0.1v0.7c-0.1,0.1-0.3,0.1-0.5,0.1s-0.4,0-0.6,0
				c-1.2,0-1.9-0.7-1.9-2v-3.8h-0.9v-0.5l0.9-0.4l0.4-1.4h0.6v1.5h1.9v0.8H289v3.8c0,0.4,0.1,0.7,0.3,0.9S289.7,196.1,290.1,196.1z"
				/>
			<path class="st2" d="M296.4,195c0,0.6-0.2,1.1-0.7,1.4s-1.1,0.5-1.9,0.5c-0.9,0-1.5-0.1-2-0.4v-0.9c0.3,0.2,0.6,0.3,1,0.4
				s0.7,0.1,1,0.1c0.5,0,0.9-0.1,1.2-0.2s0.4-0.4,0.4-0.7c0-0.3-0.1-0.5-0.3-0.6s-0.6-0.4-1.3-0.6c-0.6-0.2-1-0.4-1.3-0.6
				s-0.4-0.4-0.6-0.6s-0.2-0.5-0.2-0.8c0-0.5,0.2-0.9,0.6-1.2s1-0.5,1.8-0.5c0.7,0,1.4,0.1,2,0.4l-0.3,0.8c-0.6-0.3-1.2-0.4-1.8-0.4
				c-0.5,0-0.8,0.1-1,0.2s-0.4,0.3-0.4,0.6c0,0.2,0,0.3,0.1,0.4s0.2,0.2,0.4,0.3s0.6,0.3,1.1,0.5c0.8,0.3,1.3,0.6,1.5,0.8
				S296.4,194.6,296.4,195z"/>
			<path class="st2" d="M306.6,190.7c0,0.9-0.3,1.5-0.9,2s-1.4,0.7-2.5,0.7h-1v3.4h-1v-8.6h2.2C305.6,188.2,306.6,189.1,306.6,190.7
				z M302.2,192.6h0.9c0.9,0,1.5-0.1,1.9-0.4s0.6-0.7,0.6-1.4c0-0.6-0.2-1-0.6-1.3s-0.9-0.4-1.7-0.4h-1.1V192.6z"/>
			<path class="st2" d="M311,196.9c-0.9,0-1.7-0.3-2.2-0.9s-0.8-1.4-0.8-2.4c0-1,0.3-1.9,0.8-2.5s1.2-0.9,2.1-0.9
				c0.8,0,1.4,0.3,1.9,0.8s0.7,1.2,0.7,2.1v0.6h-4.4c0,0.8,0.2,1.3,0.6,1.7s0.9,0.6,1.5,0.6c0.7,0,1.4-0.1,2.1-0.4v0.9
				c-0.3,0.1-0.7,0.3-1,0.3S311.4,196.9,311,196.9z M310.7,191.1c-0.5,0-0.9,0.2-1.2,0.5s-0.5,0.8-0.5,1.4h3.4
				c0-0.6-0.1-1.1-0.4-1.4S311.2,191.1,310.7,191.1z"/>
			<path class="st2" d="M317.9,190.2c0.3,0,0.5,0,0.8,0.1l-0.1,0.9c-0.3-0.1-0.5-0.1-0.7-0.1c-0.5,0-1,0.2-1.3,0.6s-0.6,0.9-0.6,1.6
				v3.4h-1v-6.4h0.8l0.1,1.2h0c0.2-0.4,0.5-0.7,0.9-1S317.5,190.2,317.9,190.2z"/>
			<path class="st2" d="M328,194.5c0,0.8-0.3,1.3-0.8,1.8s-1.3,0.6-2.2,0.6c-1,0-1.8-0.1-2.3-0.4v-1c0.4,0.1,0.7,0.3,1.1,0.4
				s0.8,0.1,1.2,0.1c0.7,0,1.2-0.1,1.5-0.4s0.5-0.6,0.5-1.1c0-0.3-0.1-0.5-0.2-0.7s-0.3-0.4-0.6-0.5s-0.7-0.3-1.3-0.5
				c-0.8-0.3-1.4-0.6-1.7-1s-0.5-0.9-0.5-1.5c0-0.7,0.2-1.2,0.7-1.6s1.2-0.6,2-0.6c0.9,0,1.6,0.2,2.3,0.5l-0.3,0.9
				c-0.7-0.3-1.4-0.4-2.1-0.4c-0.5,0-0.9,0.1-1.2,0.3s-0.4,0.5-0.4,0.9c0,0.3,0.1,0.5,0.2,0.7s0.3,0.4,0.6,0.5s0.7,0.3,1.2,0.5
				c0.9,0.3,1.5,0.7,1.9,1S328,193.9,328,194.5z"/>
			<path class="st2" d="M332.3,196.9c-0.9,0-1.7-0.3-2.2-0.9s-0.8-1.4-0.8-2.4c0-1,0.3-1.9,0.8-2.5s1.2-0.9,2.1-0.9
				c0.8,0,1.4,0.3,1.9,0.8s0.7,1.2,0.7,2.1v0.6h-4.4c0,0.8,0.2,1.3,0.6,1.7s0.9,0.6,1.5,0.6c0.7,0,1.4-0.1,2.1-0.4v0.9
				c-0.3,0.1-0.7,0.3-1,0.3S332.8,196.9,332.3,196.9z M332.1,191.1c-0.5,0-0.9,0.2-1.2,0.5s-0.5,0.8-0.5,1.4h3.4
				c0-0.6-0.1-1.1-0.4-1.4S332.6,191.1,332.1,191.1z"/>
			<path class="st2" d="M338.9,196.9c-0.9,0-1.6-0.3-2.2-0.9s-0.8-1.4-0.8-2.4c0-1.1,0.3-1.9,0.8-2.5s1.3-0.9,2.2-0.9
				c0.3,0,0.6,0,0.9,0.1s0.6,0.1,0.7,0.2l-0.3,0.8c-0.2-0.1-0.4-0.2-0.7-0.2s-0.5-0.1-0.7-0.1c-1.3,0-2,0.8-2,2.5
				c0,0.8,0.2,1.4,0.5,1.8s0.8,0.6,1.4,0.6c0.5,0,1.1-0.1,1.6-0.3v0.9C340.1,196.8,339.6,196.9,338.9,196.9z"/>
			<path class="st2" d="M347.6,193.6c0,1-0.3,1.9-0.8,2.5s-1.3,0.9-2.2,0.9c-0.6,0-1.1-0.1-1.5-0.4s-0.8-0.7-1-1.2s-0.4-1.1-0.4-1.8
				c0-1,0.3-1.9,0.8-2.4s1.3-0.9,2.2-0.9c0.9,0,1.6,0.3,2.1,0.9S347.6,192.6,347.6,193.6z M342.7,193.6c0,0.8,0.2,1.4,0.5,1.9
				s0.8,0.6,1.4,0.6s1.1-0.2,1.5-0.6s0.5-1.1,0.5-1.9c0-0.8-0.2-1.4-0.5-1.9s-0.8-0.6-1.5-0.6c-0.6,0-1.1,0.2-1.4,0.6
				S342.7,192.7,342.7,193.6z"/>
			<path class="st2" d="M353.7,196.8v-4.2c0-0.5-0.1-0.9-0.4-1.2s-0.6-0.4-1.1-0.4c-0.7,0-1.2,0.2-1.5,0.5s-0.5,1-0.5,1.8v3.4h-1
				v-6.4h0.8l0.2,0.9h0c0.2-0.3,0.5-0.6,0.8-0.7s0.8-0.3,1.2-0.3c0.8,0,1.4,0.2,1.7,0.6s0.6,1,0.6,1.8v4.2H353.7z"/>
			<path class="st2" d="M361,195.9L361,195.9c-0.5,0.7-1.2,1-2.1,1c-0.8,0-1.5-0.3-2-0.9s-0.7-1.4-0.7-2.4s0.2-1.9,0.7-2.5
				s1.1-0.9,2-0.9c0.9,0,1.5,0.3,2,0.9h0.1l0-0.5l0-0.5v-2.6h1v9.1h-0.8L361,195.9z M359.1,196.1c0.7,0,1.1-0.2,1.4-0.5
				s0.4-0.9,0.4-1.7v-0.2c0-0.9-0.2-1.6-0.5-1.9s-0.8-0.6-1.5-0.6c-0.6,0-1,0.2-1.3,0.7s-0.5,1.1-0.5,1.9c0,0.8,0.2,1.4,0.5,1.9
				S358.5,196.1,359.1,196.1z"/>
		</g>
	</g>
	<g>
		<g>
			<path class="st4" d="M24.5,196.8l-0.9-2.4h-3.3l-0.8,2.4H18l3.2-8.6h1.5l3.2,8.6H24.5z M23.3,193.2l-0.8-2.3
				c-0.1-0.2-0.1-0.4-0.2-0.7s-0.2-0.6-0.2-0.7c-0.1,0.5-0.3,1-0.5,1.6l-0.8,2.2H23.3z"/>
			<path class="st4" d="M30.2,196.9c-0.8,0-1.5-0.3-1.9-0.9h-0.1c0.1,0.5,0.1,0.9,0.1,1v2.7H27v-9.4h1.1c0,0.1,0.1,0.4,0.2,0.9h0.1
				c0.4-0.7,1.1-1,1.9-1c0.8,0,1.4,0.3,1.9,0.9s0.7,1.4,0.7,2.5s-0.2,1.9-0.7,2.5S31.1,196.9,30.2,196.9z M29.9,191.3
				c-0.5,0-0.9,0.2-1.2,0.5s-0.4,0.8-0.4,1.5v0.2c0,0.8,0.1,1.4,0.4,1.7s0.7,0.5,1.2,0.5c0.5,0,0.8-0.2,1.1-0.6s0.4-0.9,0.4-1.7
				c0-0.7-0.1-1.3-0.4-1.6S30.4,191.3,29.9,191.3z"/>
			<path class="st4" d="M38.5,196.8l-0.3-0.9h0c-0.3,0.4-0.6,0.7-0.9,0.8s-0.7,0.2-1.2,0.2c-0.6,0-1.1-0.2-1.5-0.5s-0.5-0.8-0.5-1.5
				c0-0.7,0.2-1.2,0.7-1.5s1.3-0.5,2.3-0.6l1.1,0v-0.3c0-0.4-0.1-0.7-0.3-0.9s-0.5-0.3-0.9-0.3c-0.3,0-0.7,0-1,0.1s-0.6,0.2-0.9,0.3
				l-0.4-1c0.4-0.2,0.7-0.3,1.2-0.4s0.8-0.1,1.2-0.1c0.8,0,1.4,0.2,1.9,0.5s0.6,0.9,0.6,1.7v4.4H38.5z M36.4,195.8
				c0.5,0,0.9-0.1,1.2-0.4s0.5-0.7,0.5-1.2v-0.6l-0.8,0c-0.6,0-1.1,0.1-1.4,0.3s-0.4,0.5-0.4,0.9c0,0.3,0.1,0.5,0.3,0.7
				S36.1,195.8,36.4,195.8z"/>
			<path class="st4" d="M44,196.9c-1,0-1.7-0.3-2.2-0.9s-0.8-1.4-0.8-2.5c0-1.1,0.3-1.9,0.8-2.5s1.3-0.9,2.3-0.9
				c0.7,0,1.3,0.1,1.8,0.4l-0.4,1.1c-0.6-0.2-1.1-0.3-1.4-0.3c-1.1,0-1.7,0.7-1.7,2.2c0,0.7,0.1,1.3,0.4,1.6s0.7,0.5,1.2,0.5
				c0.6,0,1.2-0.2,1.7-0.5v1.2c-0.2,0.1-0.5,0.2-0.8,0.3S44.4,196.9,44,196.9z"/>
			<path class="st4" d="M53,196.8h-1.4v-4c0-0.5-0.1-0.9-0.3-1.1s-0.5-0.4-1-0.4c-0.6,0-1,0.2-1.3,0.5s-0.4,0.9-0.4,1.7v3.2h-1.4
				v-9.1h1.4v2.3c0,0.4,0,0.8-0.1,1.2h0.1c0.2-0.3,0.4-0.6,0.8-0.7s0.7-0.3,1.2-0.3c1.6,0,2.4,0.8,2.4,2.4V196.8z"/>
			<path class="st4" d="M57.8,196.9c-1,0-1.8-0.3-2.4-0.9s-0.9-1.4-0.9-2.4c0-1.1,0.3-1.9,0.8-2.5s1.3-0.9,2.2-0.9
				c0.9,0,1.5,0.3,2,0.8s0.7,1.2,0.7,2.1v0.7H56c0,0.6,0.2,1.1,0.5,1.5s0.8,0.5,1.4,0.5c0.4,0,0.7,0,1.1-0.1s0.7-0.2,1.1-0.4v1.1
				c-0.3,0.2-0.7,0.3-1,0.3S58.2,196.9,57.8,196.9z M57.5,191.2c-0.4,0-0.8,0.1-1.1,0.4s-0.4,0.7-0.5,1.2H59c0-0.5-0.1-0.9-0.4-1.2
				S58,191.2,57.5,191.2z"/>
			<path class="st4" d="M66.9,193.1h-2.3v-1h2.3v-2.4H68v2.4h2.3v1H68v2.4h-1.1V193.1z"/>
			<path class="st4" d="M83,196.8h-1.5l-1.5-5.1c-0.1-0.2-0.1-0.5-0.2-1s-0.2-0.7-0.2-0.9c0,0.3-0.1,0.6-0.2,1s-0.2,0.7-0.2,0.9
				l-1.4,5.1h-1.5l-1.1-4.3l-1.1-4.3h1.4l1.2,5c0.2,0.8,0.3,1.5,0.4,2.1c0-0.3,0.1-0.7,0.2-1.1s0.2-0.7,0.2-1l1.4-5h1.4l1.4,5
				c0.1,0.5,0.3,1.2,0.4,2.1c0.1-0.6,0.2-1.3,0.4-2.1l1.2-5h1.4L83,196.8z"/>
			<path class="st4" d="M91.3,190.2c0,0.5-0.2,1-0.5,1.4s-0.8,0.6-1.3,0.7v0c0.7,0.1,1.2,0.3,1.5,0.6s0.5,0.8,0.5,1.4
				c0,0.8-0.3,1.5-0.9,1.9s-1.4,0.7-2.5,0.7c-0.9,0-1.8-0.2-2.4-0.5v-1.2c0.4,0.2,0.7,0.3,1.2,0.4s0.8,0.1,1.2,0.1
				c0.7,0,1.2-0.1,1.5-0.4s0.5-0.6,0.5-1.1c0-0.5-0.2-0.8-0.5-1s-0.9-0.3-1.7-0.3h-0.7v-1.1h0.8c1.4,0,2.1-0.5,2.1-1.4
				c0-0.4-0.1-0.7-0.4-0.8s-0.6-0.3-1.1-0.3c-0.3,0-0.6,0-0.9,0.1s-0.7,0.3-1.1,0.5l-0.7-1c0.8-0.6,1.7-0.9,2.7-0.9
				c0.9,0,1.5,0.2,2,0.6S91.3,189.5,91.3,190.2z"/>
			<path class="st4" d="M99.4,196.8H98v-7.4h-2.5v-1.2h6.4v1.2h-2.5V196.8z"/>
			<path class="st4" d="M108.8,193.5c0,1.1-0.3,1.9-0.8,2.5s-1.3,0.9-2.3,0.9c-0.6,0-1.1-0.1-1.6-0.4s-0.8-0.7-1.1-1.2
				s-0.4-1.1-0.4-1.8c0-1.1,0.3-1.9,0.8-2.5s1.3-0.9,2.3-0.9c0.9,0,1.7,0.3,2.2,0.9S108.8,192.5,108.8,193.5z M104.1,193.5
				c0,1.5,0.6,2.2,1.7,2.2c1.1,0,1.6-0.7,1.6-2.2c0-1.5-0.6-2.2-1.7-2.2c-0.6,0-1,0.2-1.3,0.6S104.1,192.8,104.1,193.5z"/>
			<path class="st4" d="M112.8,195.8c0.3,0,0.7-0.1,1-0.2v1c-0.2,0.1-0.3,0.1-0.6,0.2s-0.5,0.1-0.7,0.1c-1.3,0-2-0.7-2-2.1v-3.5
				h-0.9v-0.6l0.9-0.5l0.5-1.4h0.8v1.4h1.8v1h-1.8v3.5c0,0.3,0.1,0.6,0.2,0.7S112.5,195.8,112.8,195.8z"/>
			<path class="st4" d="M119.2,196.8l-0.3-0.9h0c-0.3,0.4-0.6,0.7-0.9,0.8s-0.7,0.2-1.2,0.2c-0.6,0-1.1-0.2-1.5-0.5
				s-0.5-0.8-0.5-1.5c0-0.7,0.2-1.2,0.7-1.5s1.3-0.5,2.3-0.6l1.1,0v-0.3c0-0.4-0.1-0.7-0.3-0.9s-0.5-0.3-0.9-0.3c-0.3,0-0.7,0-1,0.1
				s-0.6,0.2-0.9,0.3l-0.4-1c0.4-0.2,0.7-0.3,1.2-0.4s0.8-0.1,1.2-0.1c0.8,0,1.4,0.2,1.9,0.5s0.6,0.9,0.6,1.7v4.4H119.2z
				 M117.1,195.8c0.5,0,0.9-0.1,1.2-0.4s0.5-0.7,0.5-1.2v-0.6l-0.8,0c-0.6,0-1.1,0.1-1.4,0.3s-0.4,0.5-0.4,0.9
				c0,0.3,0.1,0.5,0.3,0.7S116.8,195.8,117.1,195.8z"/>
			<path class="st4" d="M123.4,196.8h-1.4v-9.1h1.4V196.8z"/>
			<path class="st4" d="M132.3,189.3c-0.8,0-1.4,0.3-1.9,0.9s-0.7,1.4-0.7,2.4c0,1.1,0.2,1.8,0.7,2.4s1.1,0.8,1.9,0.8
				c0.4,0,0.7,0,1.1-0.1s0.7-0.2,1.1-0.3v1.2c-0.7,0.3-1.4,0.4-2.3,0.4c-1.3,0-2.2-0.4-2.9-1.1s-1-1.8-1-3.3c0-0.9,0.2-1.7,0.5-2.3
				s0.8-1.2,1.4-1.5s1.3-0.5,2.2-0.5c0.9,0,1.7,0.2,2.4,0.6l-0.5,1.2c-0.3-0.1-0.6-0.3-0.9-0.4S132.7,189.3,132.3,189.3z"/>
			<path class="st4" d="M140.2,196.8l-0.3-0.9h0c-0.3,0.4-0.6,0.7-0.9,0.8s-0.7,0.2-1.2,0.2c-0.6,0-1.1-0.2-1.5-0.5
				s-0.5-0.8-0.5-1.5c0-0.7,0.2-1.2,0.7-1.5s1.3-0.5,2.3-0.6l1.1,0v-0.3c0-0.4-0.1-0.7-0.3-0.9s-0.5-0.3-0.9-0.3c-0.3,0-0.7,0-1,0.1
				s-0.6,0.2-0.9,0.3l-0.4-1c0.4-0.2,0.7-0.3,1.2-0.4s0.8-0.1,1.2-0.1c0.8,0,1.4,0.2,1.9,0.5s0.6,0.9,0.6,1.7v4.4H140.2z
				 M138.1,195.8c0.5,0,0.9-0.1,1.2-0.4s0.5-0.7,0.5-1.2v-0.6l-0.8,0c-0.6,0-1.1,0.1-1.4,0.3s-0.4,0.5-0.4,0.9
				c0,0.3,0.1,0.5,0.3,0.7S137.8,195.8,138.1,195.8z"/>
			<path class="st4" d="M145.7,196.9c-1,0-1.7-0.3-2.2-0.9s-0.8-1.4-0.8-2.5c0-1.1,0.3-1.9,0.8-2.5s1.3-0.9,2.3-0.9
				c0.7,0,1.3,0.1,1.8,0.4l-0.4,1.1c-0.6-0.2-1.1-0.3-1.4-0.3c-1.1,0-1.7,0.7-1.7,2.2c0,0.7,0.1,1.3,0.4,1.6s0.7,0.5,1.2,0.5
				c0.6,0,1.2-0.2,1.7-0.5v1.2c-0.2,0.1-0.5,0.2-0.8,0.3S146.1,196.9,145.7,196.9z"/>
			<path class="st4" d="M154.7,196.8h-1.4v-4c0-0.5-0.1-0.9-0.3-1.1s-0.5-0.4-1-0.4c-0.6,0-1,0.2-1.3,0.5s-0.4,0.9-0.4,1.7v3.2H149
				v-9.1h1.4v2.3c0,0.4,0,0.8-0.1,1.2h0.1c0.2-0.3,0.4-0.6,0.8-0.7s0.7-0.3,1.2-0.3c1.6,0,2.4,0.8,2.4,2.4V196.8z"/>
			<path class="st4" d="M159.5,196.9c-1,0-1.8-0.3-2.4-0.9s-0.9-1.4-0.9-2.4c0-1.1,0.3-1.9,0.8-2.5s1.3-0.9,2.2-0.9
				c0.9,0,1.5,0.3,2,0.8s0.7,1.2,0.7,2.1v0.7h-4.3c0,0.6,0.2,1.1,0.5,1.5s0.8,0.5,1.4,0.5c0.4,0,0.7,0,1.1-0.1s0.7-0.2,1.1-0.4v1.1
				c-0.3,0.2-0.7,0.3-1,0.3S159.9,196.9,159.5,196.9z M159.2,191.2c-0.4,0-0.8,0.1-1.1,0.4s-0.4,0.7-0.5,1.2h2.9
				c0-0.5-0.1-0.9-0.4-1.2S159.7,191.2,159.2,191.2z"/>
		</g>
	</g>
	<path class="st7" d="M355.7,222.6H25.3c-4,0-7.3-3.3-7.3-7.3v0c0-4,3.3-7.3,7.3-7.3h330.4c4,0,7.3,3.3,7.3,7.3v0
		C363,219.4,359.7,222.6,355.7,222.6z"/>
	<g>
		<defs>
			<path id="SVGID_5_" d="M75.7,222.6H25.3c-4,0-7.3-3.3-7.3-7.3v0c0-4,3.3-7.3,7.3-7.3h50.4c4,0,7.3,3.3,7.3,7.3v0
				C83,219.4,79.7,222.6,75.7,222.6z"/>
		</defs>
		<clipPath id="SVGID_6_">
			<use xlink:href="#SVGID_5_"  style="overflow:visible;"/>
		</clipPath>
		<rect x="13" y="206" class="st10" width="97.4" height="19.1"/>
		<polygon class="st11" points="62.1,226.5 36.8,226.5 14.8,204.2 40.1,204.2 		"/>
		<polygon class="st11" points="111.8,226.5 86.5,226.5 64.5,204.2 89.8,204.2 		"/>
	</g>
</g>
</svg>
