<?xml version="1.0" encoding="utf-8"?>
<!-- Generator: Adobe Illustrator 23.0.5, SVG Export Plug-In . SVG Version: 6.00 Build 0)  -->
<svg version="1.1" id="Layer_1" xmlns="http://www.w3.org/2000/svg" xmlns:xlink="http://www.w3.org/1999/xlink" x="0px" y="0px"
	 viewBox="0 0 110 110" style="enable-background:new 0 0 110 110;" xml:space="preserve">
<style type="text/css">
	.st0{fill:url(#SVGID_1_);}
	.st1{fill:url(#SVGID_2_);}
	.st2{fill:url(#SVGID_3_);}
	.st3{fill:url(#SVGID_4_);}
	.st4{fill:#C6C6C6;}
	.st5{fill:url(#SVGID_5_);}
	.st6{fill:#701143;}
	.st7{fill:#350A25;}
	.st8{opacity:0.8;fill:#350A25;enable-background:new    ;}
	.st9{fill:#E7EAE5;}
	.st10{fill:url(#SVGID_6_);}
	.st11{opacity:0.5;fill:#350A25;enable-background:new    ;}
	.st12{fill:url(#SVGID_7_);}
	.st13{fill:#FFFFFF;}
	.st14{fill:#333333;}
	.st15{fill:#2F6E91;}
	.st16{fill:#E6248A;}
</style>
<g>
	<g>
		<g>
			<g>
				
					<linearGradient id="SVGID_1_" gradientUnits="userSpaceOnUse" x1="1.7114" y1="-6082.9951" x2="10.4551" y2="-6094.7539" gradientTransform="matrix(1 0 0 -1 0 -6012.0005)">
					<stop  offset="0" style="stop-color:#317BB0"/>
					<stop  offset="1" style="stop-color:#143E5C"/>
				</linearGradient>
				<path class="st0" d="M20.7,70.2c-7.9,0.9-12.5,2.1-20.3,3.5l3.2,11L0.8,96.1c7.7-1.4,12.1-2.6,19.9-3.5
					C20.7,92.6,20.7,70.2,20.7,70.2z"/>
				
					<linearGradient id="SVGID_2_" gradientUnits="userSpaceOnUse" x1="113.1967" y1="-6085.1064" x2="100.3818" y2="-6094.6431" gradientTransform="matrix(1 0 0 -1 0 -6012.0005)">
					<stop  offset="0" style="stop-color:#317BB0"/>
					<stop  offset="1" style="stop-color:#143E5C"/>
				</linearGradient>
				<path class="st1" d="M89.7,70.2c7.9,0.9,12.5,3.3,20.3,4.7l-3.2,9.8l2.9,11.4c-7.7-1.4-12.1-2.6-19.9-3.5L89.7,70.2L89.7,70.2z"
					/>
			</g>
			<g>
				
					<linearGradient id="SVGID_3_" gradientUnits="userSpaceOnUse" x1="13.8" y1="-6105.2344" x2="13.8" y2="-6099.9121" gradientTransform="matrix(1 0 0 -1 0 -6012.0005)">
					<stop  offset="0" style="stop-color:#0D4181"/>
					<stop  offset="1" style="stop-color:#000000"/>
				</linearGradient>
				<path class="st2" d="M6.9,71.1v17.5l13.8,4V74.8L6.9,71.1z"/>
				
					<linearGradient id="SVGID_4_" gradientUnits="userSpaceOnUse" x1="96.7" y1="-6105.2344" x2="96.7" y2="-6099.9121" gradientTransform="matrix(1 0 0 -1 0 -6012.0005)">
					<stop  offset="0" style="stop-color:#0D4181"/>
					<stop  offset="1" style="stop-color:#000000"/>
				</linearGradient>
				<path class="st3" d="M103.6,71.1v17.5l-13.8,4V74.8L103.6,71.1z"/>
			</g>
		</g>
		<path class="st4" d="M104.3,54.3c0,26.8-21.7,48.6-48.6,48.6c-25.3,0-46.2-19.5-48.4-44.3c-0.1-1.4-0.2-2.8-0.2-4.3
			c0-26.8,21.7-48.6,48.6-48.6c17.2,0,32.3,8.9,41,22.5C101.6,35.8,104.3,44.8,104.3,54.3z"/>
		
			<linearGradient id="SVGID_5_" gradientUnits="userSpaceOnUse" x1="70.7529" y1="-6095.6187" x2="47.9485" y2="-6051.0625" gradientTransform="matrix(1 0 0 -1 0 -6012.0005)">
			<stop  offset="0" style="stop-color:#FFFFFF;stop-opacity:0"/>
			<stop  offset="0.9944" style="stop-color:#D8E3E2"/>
		</linearGradient>
		<path class="st5" d="M104.3,54.3c0,5.8-1,11.4-2.9,16.6c-2.6,7-6.7,13.3-11.9,18.4c-8.8,8.4-20.6,13.6-33.7,13.6
			s-25-5.2-33.8-13.7c-5.3-5.1-9.4-11.4-11.9-18.4c-1.4-3.9-2.3-8-2.7-12.2c0.2,0.1,0.5,0.1,0.7,0.1c8.7,2.1,14.9,3.6,23.2-1
			c9.9-5.5,16.9-14.9,26-21.4C69,28,83.8,25,96.7,28.3C101.6,35.8,104.3,44.8,104.3,54.3z"/>
		<g>
			<ellipse class="st6" cx="55.8" cy="54.3" rx="45.6" ry="45.6"/>
			<path class="st7" d="M55.8,9.9c10.7,0,20.9,3.9,29,10.9c8.1,7.1,13.4,16.9,14.9,27.6C103,72.7,85.9,95,61.6,98.3
				c-2,0.2-4,0.4-5.9,0.4c-10.7,0-20.9-3.9-29-10.9c-8.1-7.1-13.4-16.9-14.9-27.6C8.5,35.9,25.6,13.6,49.9,10.4
				C51.8,10.1,53.9,9.9,55.8,9.9L55.8,9.9 M55.8,8.8c-2,0-4,0.1-6.1,0.4C24.8,12.6,7.3,35.5,10.6,60.4c3.1,22.8,22.6,39.5,45.1,39.5
				c2,0,4-0.1,6.1-0.4c24.9-3.4,42.4-26.3,39.1-51.2C97.8,25.4,78.3,8.8,55.8,8.8L55.8,8.8z"/>
		</g>
		<ellipse class="st8" cx="55.8" cy="54.3" rx="34.3" ry="34.3"/>
		<ellipse class="st9" cx="55.8" cy="54.3" rx="32.3" ry="32.3"/>
		
			<linearGradient id="SVGID_6_" gradientUnits="userSpaceOnUse" x1="56.5423" y1="-6069.6558" x2="54.7532" y2="-6041.9248" gradientTransform="matrix(1 0 0 -1 0 -6012.0005)">
			<stop  offset="0" style="stop-color:#FFFFFF"/>
			<stop  offset="1" style="stop-color:#FFFFFF;stop-opacity:0"/>
		</linearGradient>
		<path class="st10" d="M86.6,44.6C79.1,51.5,68,55.7,55.7,55.7s-23.4-4.3-30.9-11.1C29,31.5,41.3,22,55.8,22S82.5,31.5,86.6,44.6z"
			/>
		<path class="st11" d="M55.3,68.3c-15.2,0-30.3,0.9-45.1,2.4c2.5,7,6.6,13.3,11.9,18.4c11-0.9,22-1.3,33.2-1.3
			c11.5,0,23,0.5,34.2,1.5c5.3-5.1,9.4-11.3,11.9-18.4C86.2,69.2,70.9,68.3,55.3,68.3z"/>
		
			<linearGradient id="SVGID_7_" gradientUnits="userSpaceOnUse" x1="58.6516" y1="-6069.3901" x2="53.5476" y2="-6100.0146" gradientTransform="matrix(1 0 0 -1 0 -6012.0005)">
			<stop  offset="0" style="stop-color:#317BB0"/>
			<stop  offset="1" style="stop-color:#143E5C"/>
		</linearGradient>
		<path class="st12" d="M103.6,88.7V67.5c-15.9-1.9-32-2.8-48.4-2.8s-32.5,1-48.4,2.8v21.1c15.9-1.9,32-2.9,48.4-2.9
			S87.8,86.8,103.6,88.7z"/>
		<g>
			<polygon class="st13" points="56.1,95.6 53.7,97.1 54.4,94.5 52.3,92.7 55,92.6 56.1,90 57,92.6 59.7,92.7 57.6,94.5 58.3,97.1 
							"/>
			<g>
				<polygon class="st13" points="64.1,94.1 62.6,95.1 63,93.3 61.6,92.1 63.5,92 64.1,90.3 64.9,92 66.7,92.1 65.3,93.3 65.7,95.1 
									"/>
				<polygon class="st13" points="47.9,94.1 46.3,95.1 46.8,93.3 45.3,92.1 47.2,92 47.9,90.3 48.6,92 50.5,92.1 49,93.3 49.5,95.1 
									"/>
			</g>
		</g>
		<g>
			<path class="st14" d="M42.8,53.8C42.8,53.7,42.8,53.7,42.8,53.8L42.8,53.8L42.8,53.8z"/>
			<path class="st14" d="M52.4,53.7c0-2.9-2.3-3.4-4.8-3.4c-1.2,0-2.3,0.2-3.2,0.7s-1.5,1.3-1.6,2.7h3.1c0.2-0.9,0.8-1.3,1.7-1.3
				c0.7,0,1.7,0.3,1.7,1.1c0,0.6-0.4,0.9-0.9,1c-2.3,0.6-6,0.2-6,3.6c0,2.1,1.6,3.1,3.6,3.1c1.3,0,2.5-0.4,3.4-1.3
				c0,0.4,0.1,0.6,0.2,1h3.3c-0.4-0.8-0.4-1.8-0.4-2.6L52.4,53.7L52.4,53.7z M47.1,59.1c-0.7,0-1.3-0.4-1.3-1.1
				c0-0.8,0.6-1.2,1.3-1.3c0.7-0.2,1.6-0.3,2.1-0.6C49.3,58.2,48.7,59.1,47.1,59.1z"/>
			<path class="st14" d="M59.9,51.7L59.9,51.7c-0.7-1-1.7-1.4-2.9-1.4c-2.9,0-4.3,2.5-4.3,5.2c0,2.9,1.3,5.6,4.6,5.6
				c1.1,0,2.2-0.6,2.8-1.5h0.1v1.2h3.2V47.5H60C59.9,47.5,59.9,51.7,59.9,51.7z M58.1,58.6c-1.5,0-2.1-1.5-2.1-2.9
				c0-1.3,0.5-2.8,2.1-2.8c1.5,0,2,1.3,2,2.8C60.1,57,59.7,58.6,58.1,58.6z"/>
			<path class="st14" d="M63.8,53.8L63.8,53.8C63.8,53.7,63.8,53.7,63.8,53.8L63.8,53.8L63.8,53.8z"/>
			<path class="st14" d="M73.5,53.7c0-2.9-2.3-3.4-4.8-3.4c-1.2,0-2.3,0.2-3.2,0.7c-0.9,0.5-1.5,1.3-1.6,2.7H67
				c0.2-0.9,0.8-1.3,1.7-1.3c0.7,0,1.7,0.3,1.7,1.1c0,0.6-0.4,0.9-0.9,1c-2.3,0.6-6,0.2-6,3.6c0,2.1,1.6,3.1,3.6,3.1
				c1.2,0,2.5-0.4,3.4-1.3c0,0.4,0.1,0.6,0.2,1h3.4c-0.4-0.8-0.4-1.8-0.4-2.6L73.5,53.7L73.5,53.7z M68.2,59.1
				c-0.7,0-1.4-0.4-1.3-1.1c0-0.8,0.6-1.2,1.3-1.3c0.7-0.2,1.6-0.3,2.1-0.6C70.3,58.2,69.8,59.1,68.2,59.1z"/>
			<path class="st15" d="M46.8,36c-3,0-5.5,2.3-5.5,5.4c0,3.5,2.3,5.4,5.6,5.4c2.3,0,4.5-1,5.1-3.4h-3.1c-0.4,0.7-1.2,1.2-2,1.2
				c-1.4,0-2.2-0.9-2.3-2.3l0,0h7.5C52.3,38.8,50.5,36,46.8,36z M44.6,40.4c0.2-1.3,1-2.1,2.1-2.1s2,1,2,2.1H44.6z"/>
			<path class="st15" d="M39.6,43.2v-4.7h2.1l0,0v-2.3h-2.1v-3.1h-3.4v3.1h-1.7v2.2h1.7V43c0,2.8,0.7,3.7,3.6,3.7
				c0.6,0,1.2-0.1,1.8-0.1v-2.4c-0.3,0-0.6,0.1-0.9,0.1C40.1,44.2,39.6,44,39.6,43.2z"/>
			<path class="st15" d="M57.8,44.3c-1.4,0-2-1.3-2-2.7s0.3-3,2.1-3c0.9,0,1.7,0.6,1.7,1.5v0.1h3.3c-0.2-2.7-2.5-4-5.1-4
				c-3.4,0-5.4,2.3-5.4,5.6c0,3.1,2.3,5.3,5.4,5.3c2.8,0,4.8-1.6,5.1-4.4h-3.2C59.5,43.6,58.9,44.3,57.8,44.3z"/>
			<path class="st15" d="M69.6,36c-1.2,0-2.6,0.7-3.1,1.7h-0.1v-4.5H63l0,0v13.4h3.4V41c0-1.1,0.6-2.2,1.8-2.2
				c1.9,0,1.7,1.4,1.7,2.8v5h3.4V40C73.3,38.5,73,36,69.6,36z"/>
			<path class="st14" d="M42.8,50.4c-0.3-0.1-0.5-0.1-0.8-0.1c-1.4,0-2.6,0.7-3.1,2h-0.1v-1.8h-3.2v10.3H39v-5.1
				c0-1.3,0.9-2.4,2.5-2.4c0.5,0,0.9,0.1,1.3,0.2V50.4L42.8,50.4z"/>
			<polygon class="st14" points="74,50.5 74.1,50.5 74.1,50.5 			"/>
			<path class="st14" d="M80.4,50.3c-1.4,0-2.6,0.7-3.1,2h-0.1v-1.8H74v10.3h3.4v-5.1c0-1.3,0.9-2.4,2.5-2.4c0.4,0,1.2,0.1,1.6,0.2
				v-3.1C81.2,50.3,80.7,50.3,80.4,50.3z"/>
			<rect x="78.2" y="57.5" class="st16" width="3.4" height="3.4"/>
		</g>
		<g>
			<g>
				<path class="st13" d="M39.5,73.5c-0.1-2.2-0.1-3.4-0.2-5.6c0.8,0,1.3,0,2.1-0.1c0.6,0,1.2,0.1,1.5,0.3c0.4,0.2,0.5,0.5,0.5,1
					c0,0.3-0.1,0.6-0.3,0.8c-0.2,0.2-0.5,0.4-0.8,0.5l0,0c0.4,0,0.7,0.2,1,0.4c0.3,0.2,0.4,0.5,0.4,0.9c0,0.5-0.2,0.9-0.5,1.2
					c-0.4,0.3-0.9,0.5-1.5,0.5C40.8,73.4,40.4,73.5,39.5,73.5z M40.7,68.8c0,0.5,0,0.8,0,1.3c0.2,0,0.3,0,0.6,0s0.5-0.1,0.6-0.2
					c0.2-0.1,0.2-0.3,0.2-0.5c0-0.4-0.3-0.6-1-0.6C41,68.8,40.9,68.8,40.7,68.8z M40.7,71c0,0.6,0,0.9,0,1.5c0.3,0,0.4,0,0.7,0
					s0.5-0.1,0.7-0.2s0.2-0.3,0.2-0.6c0-0.2-0.1-0.4-0.3-0.5c0-0.1-0.2-0.2-0.5-0.2S41,71,40.7,71z"/>
				<path class="st13" d="M48.3,71.7c-1.1,0-1.6,0-2.7,0c0.1,0.6,0.4,0.9,1.1,0.9c0.5,0,0.8-0.1,1.2-0.3c0,0.4,0,0.5,0,0.9
					c-0.4,0.2-0.9,0.3-1.5,0.3c-0.7,0-1.2-0.2-1.6-0.5c-0.4-0.4-0.6-0.8-0.6-1.5s0.2-1.2,0.6-1.6c0.4-0.4,0.9-0.6,1.5-0.6
					s1.1,0.2,1.4,0.5c0.3,0.3,0.5,0.8,0.5,1.4C48.3,71.3,48.3,71.4,48.3,71.7z M47.1,70.9c0-0.6-0.3-0.9-0.7-0.8
					c-0.2,0-0.4,0.1-0.5,0.3c-0.1,0.2-0.2,0.4-0.3,0.6C46.2,70.9,46.5,70.9,47.1,70.9z"/>
				<path class="st13" d="M48.8,73.2c0-0.4,0-0.6,0-1c0.2,0.1,0.4,0.2,0.6,0.3c0.2,0.1,0.4,0.1,0.6,0.1c0.2,0,0.4,0,0.5-0.1
					s0.2-0.2,0.2-0.3c0-0.1,0-0.1-0.1-0.2s-0.1-0.1-0.2-0.1s-0.2-0.1-0.3-0.1s-0.2-0.1-0.3-0.1c-0.2-0.1-0.3-0.1-0.4-0.2
					c-0.1-0.1-0.2-0.1-0.3-0.2s-0.2-0.2-0.2-0.3c0-0.1-0.1-0.3-0.1-0.4c0-0.2,0-0.4,0.1-0.6s0.2-0.3,0.4-0.4s0.4-0.2,0.6-0.2
					s0.4-0.1,0.7-0.1c0.2,0,0.4,0,0.6,0c0.2,0,0.4,0.1,0.6,0.1c0,0.4,0,0.6,0,1c-0.2-0.1-0.3-0.2-0.5-0.2C51,70,50.8,70,50.6,70
					c-0.1,0-0.2,0-0.2,0c-0.1,0-0.1,0-0.2,0.1c-0.1,0-0.1,0.1-0.1,0.1v0.1c0,0.1,0,0.1,0.1,0.2c0,0.1,0.1,0.1,0.2,0.1
					c0.1,0,0.2,0.1,0.3,0.1s0.2,0.1,0.3,0.1c0.2,0.1,0.3,0.1,0.5,0.2c0.1,0.1,0.3,0.1,0.4,0.2c0.1,0.1,0.2,0.2,0.2,0.3
					s0.1,0.3,0.1,0.4c0,0.2-0.1,0.4-0.2,0.6s-0.2,0.3-0.4,0.4s-0.4,0.2-0.6,0.2c-0.2,0-0.5,0.1-0.7,0.1
					C49.6,73.4,49.2,73.3,48.8,73.2z"/>
				<path class="st13" d="M55.2,73.2c-0.2,0.1-0.5,0.1-0.8,0.1c-0.9,0-1.3-0.5-1.3-1.4c0-0.7,0-1.1,0-1.8c-0.3,0-0.4,0-0.7,0
					c0-0.4,0-0.5,0-0.9c0.3,0,0.4,0,0.7,0c0-0.3,0-0.5,0-0.9c0.5-0.1,0.8-0.2,1.3-0.3c0,0.5,0,0.7,0,1.2c0.4,0,0.6,0,0.9,0
					c0,0.4,0,0.5,0,0.9c-0.4,0-0.6,0-0.9,0c0,0.6,0,1,0,1.6c0,0.4,0.2,0.6,0.5,0.6c0.1,0,0.3,0,0.4-0.1
					C55.2,72.7,55.2,72.9,55.2,73.2z"/>
				<path class="st13" d="M63,71c0,1.7-0.9,2.5-2.5,2.5s-2.3-0.9-2.3-2.5c0-1.3,0-1.9,0-3.2c0.5,0,0.8,0,1.3,0c0,1.3,0,1.9-0.1,3.2
					c0,0.9,0.3,1.4,1.1,1.4c0.7,0,1.1-0.4,1.1-1.3c0-1.3,0-2,0.1-3.3c0.5,0,0.8,0,1.3,0C63.1,69.1,63,69.7,63,71z"/>
				<path class="st13" d="M69,73.6c-0.7,0-1,0-1.6-0.1c-0.6-1-1-1.5-1.6-2.5c0,0-0.1-0.2-0.1-0.3l0,0c0,1.1-0.1,1.6-0.1,2.7
					c-0.5,0-0.8,0-1.3,0c0.1-2.2,0.1-3.4,0.2-5.6c0.5,0,0.8,0,1.3,0c0,1.1,0,1.6-0.1,2.6l0,0c0-0.1,0.1-0.2,0.2-0.3
					c0.7-0.9,1-1.4,1.7-2.3c0.6,0,0.9,0,1.6,0.1c-0.9,1-1.3,1.6-2.1,2.6C67.7,71.8,68.1,72.4,69,73.6z"/>
				<path class="st13" d="M19.7,78.6c-0.3,1.6-0.5,2.4-0.8,4.1c-0.5,0-0.8,0.1-1.3,0.1c-0.3-0.9-0.5-1.4-0.8-2.3
					c-0.1-0.2-0.1-0.3-0.1-0.5l0,0c0,0.2,0,0.4,0,0.5c-0.2,1-0.3,1.4-0.4,2.4c-0.5,0-0.8,0.1-1.3,0.1c-0.6-1.6-0.9-2.3-1.5-3.9
					c0.5,0,0.8-0.1,1.3-0.1c0.3,1,0.5,1.5,0.8,2.5c0,0.1,0.1,0.3,0.1,0.4l0,0c0-0.2,0-0.3,0-0.5c0.2-1.1,0.3-1.6,0.5-2.6
					c0.5,0,0.7-0.1,1.2-0.1c0.3,1,0.5,1.5,0.8,2.5c0,0.1,0.1,0.2,0.1,0.4l0,0c0-0.2,0-0.3,0-0.5c0.1-1.1,0.2-1.6,0.3-2.6
					C19,78.6,19.2,78.6,19.7,78.6z"/>
				<path class="st13" d="M24.1,80.6c-1.1,0.1-1.6,0.1-2.6,0.2c0.1,0.6,0.5,0.8,1.2,0.8c0.4,0,0.8-0.2,1.1-0.4c0,0.4,0,0.5,0.1,0.9
					c-0.4,0.2-0.8,0.4-1.4,0.4s-1.2-0.1-1.6-0.4s-0.6-0.8-0.7-1.5s0.1-1.2,0.5-1.6s0.8-0.6,1.4-0.7c0.6,0,1.1,0.1,1.4,0.4
					s0.5,0.8,0.6,1.4C24,80.3,24,80.4,24.1,80.6z M22.8,79.9c0-0.6-0.3-0.8-0.8-0.8c-0.2,0-0.4,0.1-0.5,0.3
					c-0.1,0.2-0.2,0.4-0.2,0.6C22,80,22.3,80,22.8,79.9z"/>
				<path class="st13" d="M26.1,81.7L26.1,81.7c0,0.2,0,0.3,0,0.5c-0.5,0-0.7,0-1.2,0.1c-0.2-2.4-0.2-3.5-0.4-5.9
					c0.5,0,0.8-0.1,1.3-0.1c0.1,1,0.1,1.5,0.2,2.5l0,0c0.3-0.5,0.7-0.7,1.3-0.8c0.5,0,0.9,0.1,1.2,0.5c0.3,0.3,0.5,0.8,0.5,1.4
					c0,0.7-0.1,1.2-0.4,1.6s-0.7,0.6-1.3,0.7C26.8,82.2,26.4,82,26.1,81.7z M26,80c0,0.2,0,0.2,0,0.4c0,0.3,0.1,0.5,0.3,0.6
					c0.2,0.2,0.4,0.2,0.6,0.2c0.3,0,0.5-0.1,0.6-0.4s0.2-0.5,0.2-0.9c0-0.3-0.1-0.6-0.3-0.8c-0.2-0.2-0.4-0.3-0.6-0.2
					c-0.3,0-0.5,0.1-0.6,0.3C26,79.4,26,79.7,26,80z"/>
				<path class="st13" d="M36,81.6c-0.5,0-0.7,0-1.2,0.1c0-0.9-0.1-1.4-0.1-2.3c0-0.6-0.3-0.9-0.7-0.8c-0.2,0-0.4,0.1-0.5,0.3
					s-0.2,0.4-0.2,0.6c0,0.9,0.1,1.4,0.1,2.3c-0.5,0-0.7,0-1.2,0.1c-0.1-2.4-0.2-3.5-0.3-5.9c0.5,0,0.8,0,1.3-0.1
					c0,1,0.1,1.5,0.1,2.5l0,0c0.3-0.5,0.7-0.7,1.2-0.7c0.9,0,1.4,0.5,1.4,1.6C35.9,80.1,35.9,80.6,36,81.6z"/>
				<path class="st13" d="M38.9,81.6c-0.7,0-1.2-0.1-1.6-0.5c-0.4-0.4-0.6-0.9-0.6-1.5c0-0.7,0.2-1.2,0.5-1.6
					c0.4-0.4,0.9-0.6,1.6-0.6c0.7,0,1.2,0.1,1.6,0.5c0.4,0.4,0.6,0.9,0.6,1.5c0,0.7-0.2,1.2-0.5,1.6S39.5,81.6,38.9,81.6z
					 M38.8,78.4c-0.3,0-0.5,0.1-0.7,0.3s-0.2,0.5-0.2,0.9c0,0.8,0.4,1.1,1,1.1s0.9-0.4,0.9-1.2C39.7,78.7,39.4,78.3,38.8,78.4z"/>
				<path class="st13" d="M41.6,81.3c0-0.4,0-0.6,0-1c0.2,0.1,0.4,0.2,0.6,0.3c0.2,0.1,0.4,0.1,0.6,0.1c0.2,0,0.4,0,0.5-0.1
					s0.2-0.2,0.2-0.3c0-0.1,0-0.1-0.1-0.2S43.3,80,43.2,80s-0.2-0.1-0.3-0.1s-0.2-0.1-0.3-0.1c-0.2-0.1-0.3-0.1-0.4-0.2
					s-0.2-0.1-0.3-0.2s-0.2-0.2-0.2-0.3c0-0.1-0.1-0.3-0.1-0.4c0-0.2,0-0.4,0.1-0.6s0.2-0.3,0.4-0.4s0.3-0.2,0.6-0.2
					s0.4-0.1,0.7-0.1c0.2,0,0.4,0,0.5,0c0.2,0,0.4,0.1,0.5,0.1c0,0.4,0,0.6,0,1c-0.2-0.1-0.3-0.2-0.5-0.2s-0.4-0.1-0.5-0.1
					s-0.2,0-0.2,0c-0.1,0-0.1,0-0.2,0.1c-0.1,0-0.1,0.1-0.1,0.1v0.1c0,0.1,0,0.1,0.1,0.2c0,0.1,0.1,0.1,0.2,0.1
					c0.1,0,0.2,0.1,0.3,0.1s0.2,0.1,0.3,0.1c0.2,0.1,0.3,0.1,0.5,0.2c0.1,0.1,0.3,0.1,0.4,0.2c0.1,0.1,0.2,0.2,0.2,0.3
					S45,80,45,80.1c0,0.2,0,0.4-0.1,0.6s-0.2,0.3-0.4,0.4s-0.4,0.2-0.6,0.2c-0.2,0.1-0.5,0.1-0.7,0.1C42.4,81.5,42,81.4,41.6,81.3z"
					/>
				<path class="st13" d="M47.8,81.3c-0.2,0.1-0.5,0.1-0.8,0.2c-0.9,0-1.3-0.4-1.3-1.3c0-0.7,0-1.1,0-1.8c-0.3,0-0.4,0-0.7,0
					c0-0.4,0-0.5,0-0.9c0.3,0,0.4,0,0.7,0c0-0.3,0-0.5,0-0.9c0.5-0.1,0.7-0.2,1.2-0.4c0,0.5,0,0.7,0,1.2c0.4,0,0.5,0,0.9,0
					c0,0.4,0,0.5,0,0.9c-0.4,0-0.5,0-0.9,0c0,0.6,0,1,0,1.6c0,0.4,0.2,0.6,0.5,0.6c0.1,0,0.3,0,0.4-0.1
					C47.8,80.7,47.8,80.9,47.8,81.3z"/>
				<path class="st13" d="M49.1,76.7c-0.2,0-0.4-0.1-0.5-0.2s-0.2-0.3-0.2-0.5s0.1-0.3,0.2-0.5c0.1-0.1,0.3-0.2,0.5-0.2
					s0.4,0.1,0.5,0.2s0.2,0.3,0.2,0.5s-0.1,0.3-0.2,0.5C49.5,76.6,49.3,76.7,49.1,76.7z M49.8,81.3c-0.5,0-0.7,0-1.2,0
					c0-1.6,0-2.4,0-4c0.5,0,0.8,0,1.3,0C49.8,78.9,49.8,79.7,49.8,81.3z"/>
				<path class="st13" d="M54.7,81.3c-0.5,0-0.7,0-1.2,0c0-0.9,0-1.3,0-2.2c0-0.6-0.2-0.9-0.7-0.9c-0.2,0-0.4,0.1-0.5,0.2
					c-0.1,0.2-0.2,0.4-0.2,0.6c0,0.9,0,1.4,0,2.3c-0.5,0-0.7,0-1.2,0c0-1.6,0-2.4,0-4c0.5,0,0.8,0,1.3,0c0,0.3,0,0.4,0,0.6l0,0
					c0.3-0.5,0.7-0.7,1.3-0.7c0.9,0,1.3,0.6,1.3,1.7C54.7,79.8,54.7,80.3,54.7,81.3z"/>
				<path class="st13" d="M59.6,80.9c0,0.7-0.2,1.3-0.7,1.7s-1.1,0.6-1.9,0.6c-0.5,0-1-0.1-1.3-0.2c0-0.4,0-0.6,0-1
					c0.4,0.2,0.8,0.4,1.2,0.4s0.7-0.1,1-0.3c0.2-0.2,0.4-0.5,0.4-0.9c0-0.1,0-0.2,0-0.3l0,0c-0.3,0.4-0.7,0.7-1.3,0.7
					c-0.5,0-0.9-0.2-1.2-0.6s-0.4-0.8-0.4-1.4c0-0.7,0.2-1.2,0.5-1.6s0.8-0.6,1.3-0.6s0.9,0.2,1.1,0.6l0,0c0-0.2,0-0.3,0-0.5
					c0.5,0,0.8,0,1.3,0C59.7,78.8,59.7,79.5,59.6,80.9z M58.4,79.4c0-0.1,0-0.2,0-0.3c0-0.3-0.1-0.5-0.2-0.6s-0.3-0.3-0.6-0.3
					s-0.5,0.1-0.7,0.3c-0.2,0.2-0.2,0.5-0.2,0.9c0,0.3,0.1,0.6,0.2,0.8s0.4,0.3,0.6,0.3c0.3,0,0.5-0.1,0.6-0.3
					C58.3,80,58.4,79.7,58.4,79.4z"/>
				<path class="st13" d="M62.6,81.3c0-0.4,0-0.6,0-1c0.2,0.1,0.4,0.2,0.6,0.3c0.2,0.1,0.4,0.1,0.6,0.1c0.2,0,0.4,0,0.5-0.1
					s0.2-0.1,0.2-0.3c0-0.1,0-0.1-0.1-0.2S64.3,80,64.2,80s-0.2-0.1-0.3-0.1s-0.2-0.1-0.3-0.1c-0.2-0.1-0.3-0.1-0.4-0.2
					c-0.1-0.1-0.2-0.2-0.3-0.2c-0.1-0.1-0.1-0.2-0.2-0.3c0-0.1-0.1-0.3-0.1-0.4c0-0.2,0.1-0.4,0.2-0.6s0.2-0.3,0.4-0.4
					s0.4-0.2,0.6-0.2c0.2,0,0.4-0.1,0.7-0.1c0.2,0,0.4,0,0.5,0.1c0.2,0,0.4,0.1,0.5,0.1c0,0.4,0,0.6,0,1c-0.2-0.1-0.3-0.2-0.5-0.2
					c-0.2-0.1-0.4-0.1-0.5-0.1s-0.2,0-0.2,0c-0.1,0-0.1,0-0.2,0.1c-0.1,0-0.1,0.1-0.1,0.1s0,0.1-0.1,0.1c0,0.1,0,0.1,0.1,0.2
					c0,0.1,0.1,0.1,0.2,0.1s0.2,0.1,0.3,0.1c0.1,0,0.2,0.1,0.3,0.1c0.2,0.1,0.3,0.1,0.4,0.2s0.2,0.2,0.3,0.2
					c0.1,0.1,0.2,0.2,0.2,0.3c0,0.1,0.1,0.3,0.1,0.4c0,0.2-0.1,0.4-0.2,0.6s-0.3,0.3-0.4,0.4c-0.2,0.1-0.4,0.2-0.6,0.2
					s-0.5,0.1-0.7,0.1C63.4,81.5,63,81.4,62.6,81.3z"/>
				<path class="st13" d="M70.1,80c-1.1,0-1.6-0.1-2.6-0.1c0,0.6,0.4,0.9,1.1,0.9c0.4,0,0.8-0.1,1.2-0.3c0,0.4,0,0.5,0,0.9
					c-0.4,0.2-0.9,0.3-1.5,0.2c-0.6,0-1.1-0.2-1.5-0.6c-0.3-0.4-0.5-0.9-0.5-1.5c0-0.7,0.2-1.2,0.6-1.6s0.9-0.6,1.5-0.5
					c0.6,0,1,0.2,1.4,0.6s0.5,0.8,0.4,1.4C70.1,79.7,70.1,79.8,70.1,80z M69,79.2c0-0.6-0.2-0.9-0.7-0.9c-0.2,0-0.4,0.1-0.5,0.2
					c-0.2,0.2-0.2,0.4-0.3,0.6C68.1,79.2,68.4,79.2,69,79.2z"/>
				<path class="st13" d="M73.5,78.9c-0.1-0.1-0.3-0.1-0.5-0.1c-0.3,0-0.5,0.1-0.7,0.3c-0.2,0.2-0.3,0.5-0.3,0.8
					c0,0.8-0.1,1.1-0.1,1.9c-0.5,0-0.7,0-1.2-0.1c0.1-1.6,0.1-2.4,0.2-4c0.5,0,0.8,0,1.3,0.1c0,0.3,0,0.4,0,0.7l0,0
					c0.2-0.5,0.6-0.8,1.1-0.8c0.1,0,0.2,0,0.3,0.1C73.6,78.2,73.6,78.5,73.5,78.9z"/>
				<path class="st13" d="M78,78c-0.7,1.6-1,2.3-1.7,3.9c-0.6,0-0.8,0-1.4-0.1c-0.5-1.6-0.7-2.4-1.2-4.1c0.5,0,0.8,0,1.3,0.1
					c0.2,1,0.3,1.5,0.6,2.5c0.1,0.3,0.1,0.5,0.1,0.7l0,0c0-0.2,0.1-0.4,0.2-0.7c0.3-1,0.5-1.5,0.9-2.4C77.3,78,77.5,78,78,78z"/>
				<path class="st13" d="M79.2,77.5c-0.2,0-0.4-0.1-0.5-0.2s-0.2-0.3-0.2-0.5s0.1-0.3,0.2-0.4s0.3-0.2,0.5-0.1
					c0.2,0,0.4,0.1,0.5,0.2s0.2,0.3,0.2,0.5s-0.1,0.3-0.2,0.4S79.5,77.5,79.2,77.5z M79.6,82.2c-0.5,0-0.7,0-1.2-0.1
					c0.1-1.6,0.1-2.4,0.2-4c0.5,0,0.8,0,1.3,0.1C79.7,79.8,79.7,80.6,79.6,82.2z"/>
				<path class="st13" d="M83.7,82.3c-0.3,0.1-0.7,0.2-1.2,0.2c-0.6,0-1.1-0.3-1.5-0.7c-0.4-0.4-0.5-0.9-0.5-1.5
					c0-0.7,0.3-1.2,0.7-1.6c0.4-0.4,1-0.5,1.7-0.5c0.5,0,0.8,0.1,1,0.3c0,0.4,0,0.6-0.1,1c-0.2-0.2-0.5-0.3-0.9-0.4
					c-0.4,0-0.6,0.1-0.9,0.2c-0.2,0.2-0.3,0.5-0.4,0.8c0,0.4,0.1,0.6,0.2,0.9c0.2,0.2,0.5,0.3,0.8,0.4c0.3,0,0.6-0.1,0.9-0.2
					C83.7,81.7,83.7,81.9,83.7,82.3z"/>
				<path class="st13" d="M88.2,81.2c-1.1-0.1-1.6-0.1-2.6-0.2c0,0.6,0.3,0.9,1,1c0.4,0,0.8,0,1.2-0.2c0,0.4,0,0.5-0.1,0.9
					c-0.4,0.2-0.9,0.2-1.5,0.2c-0.6-0.1-1.1-0.3-1.5-0.7c-0.3-0.4-0.5-0.9-0.4-1.5c0.1-0.7,0.3-1.2,0.7-1.5c0.4-0.4,0.9-0.5,1.5-0.5
					s1,0.3,1.3,0.6c0.3,0.4,0.4,0.9,0.4,1.4C88.2,80.8,88.2,80.9,88.2,81.2z M87.1,80.3c0-0.6-0.2-0.9-0.6-0.9
					c-0.2,0-0.4,0.1-0.5,0.2c-0.2,0.2-0.3,0.3-0.3,0.6C86.2,80.2,86.5,80.3,87.1,80.3z"/>
				<path class="st13" d="M88.6,82.7c0-0.4,0.1-0.6,0.1-1c0.2,0.1,0.4,0.2,0.6,0.3c0.2,0.1,0.4,0.1,0.6,0.1s0.4,0,0.5,0
					s0.2-0.1,0.2-0.3c0-0.1,0-0.1-0.1-0.2s-0.1-0.1-0.2-0.2c-0.1,0-0.2-0.1-0.3-0.1c-0.1,0-0.2-0.1-0.3-0.1
					c-0.2-0.1-0.3-0.2-0.4-0.2s-0.2-0.2-0.3-0.3c-0.1-0.1-0.1-0.2-0.2-0.3c0-0.1,0-0.3,0-0.4c0-0.2,0.1-0.4,0.2-0.6s0.3-0.3,0.4-0.4
					c0.2-0.1,0.4-0.1,0.6-0.2c0.2,0,0.4,0,0.7,0c0.2,0,0.4,0,0.5,0.1c0.2,0,0.4,0.1,0.5,0.2c0,0.4-0.1,0.6-0.1,0.9
					c-0.1-0.1-0.3-0.2-0.5-0.3s-0.4-0.1-0.5-0.1s-0.2,0-0.2,0c-0.1,0-0.1,0-0.2,0s-0.1,0.1-0.1,0.1L90,79.8c0,0.1,0,0.1,0.1,0.2
					c0,0.1,0.1,0.1,0.2,0.2c0.1,0,0.2,0.1,0.2,0.1c0.1,0,0.2,0.1,0.3,0.1c0.2,0.1,0.3,0.1,0.4,0.2s0.2,0.2,0.3,0.3s0.2,0.2,0.2,0.3
					c0,0.1,0.1,0.3,0,0.4c0,0.2-0.1,0.4-0.2,0.6s-0.3,0.3-0.4,0.4S90.7,83,90.5,83s-0.5,0-0.7,0C89.3,83,88.9,82.9,88.6,82.7z"/>
			</g>
		</g>
	</g>
</g>
<g>
	<path class="st13" d="M44,20.5l-0.3-1l0.7-1c1.3-1.9,1.9-2.8,1.7-3.6c-0.2-0.6-0.6-0.9-1.5-0.7c-0.6,0.2-1.1,0.7-1.5,1.1l-0.8-1
		c0.5-0.6,1.3-1.2,2.3-1.5c1.6-0.4,2.8,0.2,3.2,1.5c0.3,1.1-0.3,2.2-1.1,3.4l-0.6,0.7l0,0l2.8-0.8l0.4,1.4L44,20.5z"/>
	<path class="st13" d="M55.4,14.8c0.2,2.1-0.6,3.8-2.6,4c-1.9,0.2-3-1.4-3.2-3.4c-0.2-2.1,0.6-3.8,2.6-4S55.3,12.8,55.4,14.8z
		 M51.4,15.2c0.1,1.6,0.7,2.4,1.4,2.3s1.1-0.9,0.9-2.5c-0.1-1.6-0.6-2.4-1.4-2.3C51.7,12.7,51.3,13.5,51.4,15.2z"/>
	<path class="st13" d="M56.4,18.4l0.1-1l1.1-0.7c1.9-1.3,2.7-2,2.8-2.8c0.1-0.6-0.3-1.1-1.2-1.2c-0.7-0.1-1.3,0.2-1.7,0.5L57,12
		c0.6-0.4,1.6-0.7,2.6-0.6c1.6,0.1,2.6,1.1,2.4,2.5c-0.1,1.1-1,2-2.2,2.8L59,17.2l0,0l2.9,0.3l-0.1,1.4L56.4,18.4z"/>
	<g>
		<path class="st13" d="M63.7,17.3c0.2,0.3,0.8,0.8,1.5,1c0.8,0.3,1.4,0.1,1.5-0.4c0.3-0.7-0.3-1.3-1-1.5L65,16.3l0.4-1.2l0.6,0.2
			c0.5,0.2,1.3,0.2,1.5-0.3c0.2-0.4-0.1-0.9-0.8-1.1c-0.6-0.2-1.3-0.2-1.5-0.1l0.1-1.3c0.5-0.1,1.4-0.1,2.2,0.3
			c1.5,0.6,1.9,1.5,1.6,2.5c-0.3,0.7-0.9,1.2-1.8,1.1l0,0c0.8,0.5,1.2,1.3,0.9,2.2c-0.5,1.2-1.8,1.6-3.5,1.1
			c-0.9-0.3-1.5-0.9-1.8-1.3L63.7,17.3z"/>
	</g>
</g>
</svg>
