<?xml version="1.0" encoding="utf-8"?>
<!-- Generator: Adobe Illustrator 23.0.5, SVG Export Plug-In . SVG Version: 6.00 Build 0)  -->
<svg version="1.1" id="Layer_1" xmlns="http://www.w3.org/2000/svg" xmlns:xlink="http://www.w3.org/1999/xlink" x="0px" y="0px"
	 viewBox="0 0 110 110" style="enable-background:new 0 0 110 110;" xml:space="preserve">
<style type="text/css">
	.st0{fill:url(#SVGID_1_);}
	.st1{fill:url(#SVGID_2_);}
	.st2{fill:url(#SVGID_3_);}
	.st3{fill:url(#SVGID_4_);}
	.st4{fill:#C6C6C6;}
	.st5{fill:url(#SVGID_5_);}
	.st6{fill:#701143;}
	.st7{fill:#350A25;}
	.st8{opacity:0.8;fill:#350A25;enable-background:new    ;}
	.st9{fill:#E7EAE5;}
	.st10{fill:url(#SVGID_6_);}
	.st11{opacity:0.5;fill:#350A25;enable-background:new    ;}
	.st12{fill:url(#SVGID_7_);}
	.st13{fill:#FFFFFF;}
	.st14{fill:#333333;}
	.st15{fill:#2F6E91;}
	.st16{fill:#E6248A;}
</style>
<g>
	<g>
		<g>
			<g>
				
					<linearGradient id="SVGID_1_" gradientUnits="userSpaceOnUse" x1="1.6737" y1="40.9771" x2="10.4174" y2="29.2183" gradientTransform="matrix(1 0 0 -1 0 112)">
					<stop  offset="0" style="stop-color:#317BB0"/>
					<stop  offset="1" style="stop-color:#143E5C"/>
				</linearGradient>
				<path class="st0" d="M20.7,70.2c-7.9,0.9-12.5,2.1-20.3,3.5l3.2,11L0.8,96.1c7.7-1.4,12.1-2.6,19.9-3.5V70.2z"/>
				
					<linearGradient id="SVGID_2_" gradientUnits="userSpaceOnUse" x1="113.2072" y1="38.8799" x2="100.3923" y2="29.3433" gradientTransform="matrix(1 0 0 -1 0 112)">
					<stop  offset="0" style="stop-color:#317BB0"/>
					<stop  offset="1" style="stop-color:#143E5C"/>
				</linearGradient>
				<path class="st1" d="M89.7,70.2c7.9,0.9,12.5,3.3,20.3,4.7l-3.2,9.8l2.9,11.4c-7.7-1.4-12.1-2.6-19.9-3.5L89.7,70.2L89.7,70.2z"
					/>
			</g>
			<g>
				
					<linearGradient id="SVGID_3_" gradientUnits="userSpaceOnUse" x1="13.8092" y1="18.7655" x2="13.8092" y2="24.0878" gradientTransform="matrix(1 0 0 -1 0 112)">
					<stop  offset="0" style="stop-color:#0D4181"/>
					<stop  offset="1" style="stop-color:#000000"/>
				</linearGradient>
				<path class="st2" d="M6.9,71.1v17.5l13.8,4V74.8L6.9,71.1z"/>
				
					<linearGradient id="SVGID_4_" gradientUnits="userSpaceOnUse" x1="96.7133" y1="18.7655" x2="96.7133" y2="24.0878" gradientTransform="matrix(1 0 0 -1 0 112)">
					<stop  offset="0" style="stop-color:#0D4181"/>
					<stop  offset="1" style="stop-color:#000000"/>
				</linearGradient>
				<path class="st3" d="M103.6,71.1v17.5l-13.8,4V74.8L103.6,71.1z"/>
			</g>
		</g>
		<path class="st4" d="M104.3,54.3c0,26.8-21.7,48.6-48.6,48.6c-25.3,0-46.2-19.5-48.4-44.3c-0.1-1.4-0.2-2.8-0.2-4.3
			c0-26.8,21.7-48.6,48.6-48.6c17.2,0,32.3,8.9,41,22.5C101.6,35.8,104.3,44.8,104.3,54.3z"/>
		
			<linearGradient id="SVGID_5_" gradientUnits="userSpaceOnUse" x1="70.7916" y1="28.4011" x2="47.9872" y2="72.9573" gradientTransform="matrix(1 0 0 -1 0 112)">
			<stop  offset="0" style="stop-color:#FFFFFF;stop-opacity:0"/>
			<stop  offset="0.9944" style="stop-color:#D8E3E2"/>
		</linearGradient>
		<path class="st5" d="M104.3,54.3c0,5.8-1,11.4-2.9,16.6c-2.6,7-6.7,13.3-11.9,18.4c-8.8,8.4-20.6,13.6-33.7,13.6
			c-13.1,0-25-5.2-33.8-13.7c-5.3-5.1-9.4-11.4-11.9-18.4c-1.4-3.9-2.3-8-2.7-12.2c0.2,0.1,0.5,0.1,0.7,0.1c8.7,2.1,14.9,3.6,23.2-1
			c9.9-5.5,16.9-14.9,26-21.4c11.7-8.3,26.5-11.3,39.4-8C101.6,35.8,104.3,44.8,104.3,54.3z"/>
		<g>
			<ellipse class="st6" cx="55.8" cy="54.3" rx="45.6" ry="45.6"/>
			<path class="st7" d="M55.8,9.9c10.7,0,20.9,3.9,29,10.9c8.1,7.1,13.4,16.9,14.9,27.6C103,72.7,85.9,95,61.6,98.3
				c-2,0.2-4,0.4-5.9,0.4c-10.7,0-20.9-3.9-29-10.9c-8.1-7.1-13.4-16.9-14.9-27.6C8.5,35.9,25.6,13.6,49.9,10.4
				C51.8,10.1,53.9,9.9,55.8,9.9L55.8,9.9 M55.8,8.8c-2,0-4,0.1-6.1,0.4C24.8,12.6,7.3,35.5,10.6,60.4c3.1,22.8,22.6,39.5,45.1,39.5
				c2,0,4-0.1,6.1-0.4c24.9-3.4,42.4-26.3,39.1-51.2C97.8,25.4,78.3,8.8,55.8,8.8L55.8,8.8z"/>
		</g>
		<ellipse class="st8" cx="55.8" cy="54.3" rx="34.3" ry="34.3"/>
		<ellipse class="st9" cx="55.8" cy="54.3" rx="32.3" ry="32.3"/>
		
			<linearGradient id="SVGID_6_" gradientUnits="userSpaceOnUse" x1="56.5945" y1="54.3474" x2="54.8054" y2="82.0783" gradientTransform="matrix(1 0 0 -1 0 112)">
			<stop  offset="0" style="stop-color:#FFFFFF"/>
			<stop  offset="1" style="stop-color:#FFFFFF;stop-opacity:0"/>
		</linearGradient>
		<path class="st10" d="M86.6,44.6c-7.5,6.9-18.6,11.1-30.9,11.1s-23.4-4.3-30.9-11.1C29,31.5,41.3,22,55.8,22
			C70.3,22,82.5,31.5,86.6,44.6z"/>
		<path class="st11" d="M55.3,68.3c-15.2,0-30.3,0.9-45.1,2.4c2.5,7,6.6,13.3,11.9,18.4c11-0.9,22-1.3,33.2-1.3
			c11.5,0,23,0.5,34.2,1.5c5.3-5.1,9.4-11.3,11.9-18.4C86.2,69.2,70.9,68.3,55.3,68.3z"/>
		
			<linearGradient id="SVGID_7_" gradientUnits="userSpaceOnUse" x1="58.7116" y1="54.5996" x2="53.6075" y2="23.9749" gradientTransform="matrix(1 0 0 -1 0 112)">
			<stop  offset="0" style="stop-color:#317BB0"/>
			<stop  offset="1" style="stop-color:#143E5C"/>
		</linearGradient>
		<path class="st12" d="M103.6,88.7V67.5c-15.9-1.9-32-2.8-48.4-2.8s-32.5,1-48.4,2.8v21.1c15.9-1.9,32-2.9,48.4-2.9
			S87.8,86.8,103.6,88.7z"/>
		<g>
			<polygon class="st13" points="56.1,95.6 53.7,97.1 54.4,94.5 52.3,92.7 55,92.6 56.1,90 57,92.6 59.7,92.7 57.6,94.5 58.3,97.1 
							"/>
			<g>
				<polygon class="st13" points="64.1,94.1 62.6,95.1 63,93.3 61.6,92.1 63.5,92 64.1,90.3 64.9,92 66.7,92.1 65.3,93.3 65.7,95.1 
									"/>
				<polygon class="st13" points="47.9,94.1 46.3,95.1 46.8,93.3 45.3,92.1 47.2,92 47.9,90.3 48.6,92 50.5,92.1 49,93.3 49.5,95.1 
									"/>
			</g>
		</g>
		<g>
			<path class="st14" d="M42.8,53.8C42.8,53.7,42.8,53.7,42.8,53.8L42.8,53.8L42.8,53.8z"/>
			<path class="st14" d="M52.4,53.7c0-2.9-2.3-3.4-4.8-3.4c-1.2,0-2.3,0.2-3.2,0.7c-0.9,0.5-1.5,1.3-1.6,2.7h3.1
				c0.2-0.9,0.8-1.3,1.7-1.3c0.7,0,1.7,0.3,1.7,1.1c0,0.6-0.4,0.9-0.9,1c-2.3,0.6-6,0.2-6,3.6c0,2.1,1.6,3.1,3.6,3.1
				c1.3,0,2.5-0.4,3.4-1.3c0,0.4,0.1,0.6,0.2,1h3.3c-0.4-0.8-0.4-1.8-0.4-2.6V53.7z M47.1,59.1c-0.7,0-1.3-0.4-1.3-1.1
				c0-0.8,0.6-1.2,1.3-1.3c0.7-0.2,1.6-0.3,2.1-0.6C49.3,58.2,48.7,59.1,47.1,59.1z"/>
			<path class="st14" d="M59.9,51.7L59.9,51.7c-0.7-1-1.7-1.4-2.9-1.4c-2.9,0-4.3,2.5-4.3,5.2c0,2.9,1.3,5.6,4.6,5.6
				c1.1,0,2.2-0.6,2.8-1.5h0.1v1.2h3.2V47.5h-3.4C59.9,47.5,59.9,51.7,59.9,51.7z M58.1,58.6c-1.5,0-2.1-1.5-2.1-2.9
				c0-1.3,0.5-2.8,2.1-2.8c1.5,0,2,1.3,2,2.8C60.1,57,59.7,58.6,58.1,58.6z"/>
			<path class="st14" d="M63.8,53.8L63.8,53.8C63.8,53.7,63.8,53.7,63.8,53.8L63.8,53.8L63.8,53.8z"/>
			<path class="st14" d="M73.5,53.7c0-2.9-2.3-3.4-4.8-3.4c-1.2,0-2.3,0.2-3.2,0.7c-0.9,0.5-1.5,1.3-1.6,2.7H67
				c0.2-0.9,0.8-1.3,1.7-1.3c0.7,0,1.7,0.3,1.7,1.1c0,0.6-0.4,0.9-0.9,1c-2.3,0.6-6,0.2-6,3.6c0,2.1,1.6,3.1,3.6,3.1
				c1.2,0,2.5-0.4,3.4-1.3c0,0.4,0.1,0.6,0.2,1h3.4c-0.4-0.8-0.4-1.8-0.4-2.6L73.5,53.7L73.5,53.7z M68.2,59.1
				c-0.7,0-1.4-0.4-1.3-1.1c0-0.8,0.6-1.2,1.3-1.3c0.7-0.2,1.6-0.3,2.1-0.6C70.3,58.2,69.8,59.1,68.2,59.1z"/>
			<path class="st15" d="M46.8,36c-3,0-5.5,2.3-5.5,5.4c0,3.5,2.3,5.4,5.6,5.4c2.3,0,4.5-1,5.1-3.4h-3.1c-0.4,0.7-1.2,1.2-2,1.2
				c-1.4,0-2.2-0.9-2.3-2.3l0,0h7.5C52.3,38.8,50.5,36,46.8,36z M44.6,40.4c0.2-1.3,1-2.1,2.1-2.1s2,1,2,2.1H44.6z"/>
			<path class="st15" d="M39.6,43.2v-4.7h2.1l0,0v-2.3h-2.1v-3.1h-3.4v3.1h-1.7v2.2h1.7V43c0,2.8,0.7,3.7,3.6,3.7
				c0.6,0,1.2-0.1,1.8-0.1v-2.4c-0.3,0-0.6,0.1-0.9,0.1C40.1,44.2,39.6,44,39.6,43.2z"/>
			<path class="st15" d="M57.8,44.3c-1.4,0-2-1.3-2-2.7c0-1.4,0.3-3,2.1-3c0.9,0,1.7,0.6,1.7,1.5v0.1h3.3c-0.2-2.7-2.5-4-5.1-4
				c-3.4,0-5.4,2.3-5.4,5.6c0,3.1,2.3,5.3,5.4,5.3c2.8,0,4.8-1.6,5.1-4.4h-3.2C59.5,43.6,58.9,44.3,57.8,44.3z"/>
			<path class="st15" d="M69.6,36c-1.2,0-2.6,0.7-3.1,1.7h-0.1v-4.5H63l0,0v13.4h3.4V41c0-1.1,0.6-2.2,1.8-2.2
				c1.9,0,1.7,1.4,1.7,2.8v5h3.4V40C73.3,38.5,73,36,69.6,36z"/>
			<path class="st14" d="M42.8,50.4c-0.3-0.1-0.5-0.1-0.8-0.1c-1.4,0-2.6,0.7-3.1,2h-0.1v-1.8h-3.2c0,0,0,10.3,0,10.3H39v-5.1
				c0-1.3,0.9-2.4,2.5-2.4c0.5,0,0.9,0.1,1.3,0.2L42.8,50.4L42.8,50.4z"/>
			<polygon class="st14" points="74,50.5 74.1,50.5 74.1,50.5 			"/>
			<path class="st14" d="M80.4,50.3c-1.4,0-2.6,0.7-3.1,2h-0.1v-1.8h-3.2v10.3h3.4v-5.1c0-1.3,0.9-2.4,2.5-2.4
				c0.4,0,1.2,0.1,1.6,0.2v-3.1C81.2,50.3,80.7,50.3,80.4,50.3z"/>
			<rect x="78.2" y="57.5" class="st16" width="3.4" height="3.4"/>
		</g>
	</g>
</g>
<g>
	<g>
		<path class="st13" d="M9.1,73.7c0.4-0.1,1.1-0.2,1.8-0.3c0.8-0.1,1.4,0,1.9,0.2c0.4,0.2,0.8,0.6,0.8,1.2c0,0.6-0.2,1.1-0.9,1.5
			c0,0,0,0,0,0c0.8,0.1,1.3,0.7,1.4,1.5c0,0.6-0.2,1-0.5,1.4c-0.4,0.4-1.1,0.7-2.4,0.8c-0.6,0.1-1.1,0.1-1.5,0
			C9.5,77.5,9.4,76.2,9.1,73.7z M10.8,76c0.2,0,0.2,0,0.4,0c0.7-0.1,1-0.4,1-0.9c0-0.5-0.4-0.7-1-0.7c-0.3,0-0.4,0.1-0.5,0.1
			C10.7,75.1,10.7,75.4,10.8,76z M11,78.9c0.1,0,0.3,0,0.5,0c0.6-0.1,1.1-0.4,1.1-1c-0.1-0.6-0.6-0.9-1.3-0.8c-0.2,0-0.3,0-0.4,0
			C10.9,77.8,11,78.1,11,78.9z"/>
		<path class="st13" d="M16.1,77.6c0.1,0.6,0.7,0.9,1.3,0.8c0.5,0,0.8-0.1,1.2-0.3c0.1,0.4,0.2,0.6,0.3,0.9c-0.4,0.2-1,0.3-1.6,0.4
			c-1.5,0.1-2.4-0.7-2.5-2.2c-0.1-1.3,0.6-2.6,2-2.7c1.4-0.1,2,0.9,2.1,2.1c0,0.3,0,0.5,0,0.6C17.8,77.4,17.2,77.5,16.1,77.6z
			 M17.6,76.5c0-0.4-0.2-1-0.8-0.9c-0.6,0-0.7,0.6-0.7,1C16.6,76.6,16.9,76.5,17.6,76.5z"/>
		<path class="st13" d="M19.8,77.9c0.3,0.1,0.8,0.3,1.2,0.2c0.4,0,0.6-0.2,0.6-0.4c0-0.2-0.2-0.4-0.7-0.5c-0.9-0.3-1.3-0.8-1.3-1.3
			c-0.1-0.9,0.6-1.6,1.7-1.7c0.5,0,1,0.1,1.2,0.2c-0.1,0.4-0.1,0.6-0.2,1c-0.2-0.1-0.6-0.2-0.9-0.2c-0.3,0-0.5,0.2-0.5,0.4
			c0,0.2,0.2,0.3,0.7,0.5c0.9,0.3,1.2,0.7,1.3,1.4c0.1,0.9-0.6,1.5-1.8,1.6c-0.5,0-1.1-0.1-1.4-0.2C19.7,78.6,19.7,78.4,19.8,77.9z"
			/>
		<path class="st13" d="M24.9,72.8c0,0.5,0,0.8,0.1,1.3c0.4,0,0.6,0,1-0.1c0,0.4,0,0.6,0.1,1c-0.4,0-0.6,0-1,0.1
			c0,0.7,0.1,1.1,0.1,1.8c0,0.6,0.2,0.8,0.6,0.7c0.2,0,0.3,0,0.4-0.1c0,0.4,0,0.6,0.1,1.1c-0.2,0.1-0.5,0.1-0.9,0.2
			c-0.4,0-0.8-0.1-1.1-0.3c-0.3-0.3-0.4-0.7-0.5-1.3c-0.1-0.8-0.1-1.2-0.1-2c-0.2,0-0.4,0-0.6,0c0-0.4,0-0.6-0.1-1
			c0.2,0,0.4,0,0.6,0c0-0.4,0-0.6-0.1-1C24.1,73.1,24.4,73,24.9,72.8z"/>
		<path class="st13" d="M32.1,78.3c-0.2,0.1-0.6,0.2-1.1,0.3c-1.4,0.1-2.4-0.8-2.5-2.3c-0.1-1.4,0.8-2.5,2.4-2.6c0.4,0,0.7,0,1,0.1
			c-0.1,0.4-0.1,0.6-0.2,1.1c-0.2-0.1-0.4-0.1-0.7-0.1c-0.7,0-1.2,0.6-1.1,1.4c0,0.9,0.6,1.3,1.3,1.3c0.3,0,0.5-0.1,0.7-0.2
			C32,77.7,32,77.9,32.1,78.3z"/>
		<path class="st13" d="M32.6,72c0.4-0.1,1-0.2,1.8-0.2c0.9,0,1.5,0.1,2,0.4c0.4,0.3,0.7,0.8,0.7,1.4c0,0.7-0.2,1.2-0.5,1.6
			c-0.5,0.5-1.2,0.7-1.9,0.7c-0.2,0-0.3,0-0.4,0c0,0.9,0.1,1.4,0.1,2.3c-0.6,0-0.8,0-1.4,0.1C32.8,75.8,32.7,74.6,32.6,72z
			 M34.1,74.9c0.1,0,0.2,0,0.4,0c0.7,0,1.1-0.5,1.1-1.1c0-0.6-0.4-1-1.1-0.9c-0.2,0-0.4,0-0.5,0.1C34.1,73.7,34.1,74.1,34.1,74.9z"
			/>
		<path class="st13" d="M40.4,78.1c0-0.2-0.1-0.3-0.1-0.5c0,0,0,0,0,0C40,78,39.5,78.2,39,78.2c-0.9,0-1.5-0.6-1.5-1.4
			c0-1.2,1-1.8,2.5-1.9c0,0,0,0,0-0.1c0-0.3-0.2-0.6-0.8-0.6c-0.5,0-0.9,0.2-1.2,0.4c-0.1-0.4-0.2-0.5-0.3-0.9
			c0.3-0.2,0.9-0.4,1.7-0.5c1.5,0,2,0.9,2,1.9c0,0.7,0,1,0,1.7c0,0.4,0,0.8,0.1,1.1C41.1,78.1,40.9,78.1,40.4,78.1z M40.1,75.9
			c-0.7,0-1.3,0.2-1.2,0.8c0,0.4,0.3,0.6,0.6,0.6c0.3,0,0.6-0.2,0.7-0.5c0-0.1,0-0.2,0-0.2C40.1,76.2,40.1,76.1,40.1,75.9z"/>
		<path class="st13" d="M42.6,74.8c0-0.6,0-1-0.1-1.5c0.5,0,0.7,0,1.2,0c0,0.2,0,0.4,0.1,0.6c0,0,0,0,0,0c0.2-0.3,0.7-0.7,1.4-0.7
			c0.9,0,1.6,0.6,1.6,1.9c0,1.1,0,1.7,0,2.8c-0.6,0-0.8,0-1.4,0c0-1.1,0-1.6-0.1-2.7c0-0.5-0.2-0.9-0.7-0.9c-0.3,0-0.6,0.3-0.7,0.5
			c0,0.1,0,0.2,0,0.4c0,1.1,0,1.6,0.1,2.7c-0.6,0-0.8,0-1.4,0C42.6,76.7,42.6,76.1,42.6,74.8z"/>
		<path class="st13" d="M49,76c0,0.6,0.6,0.9,1.2,0.9c0.5,0,0.8-0.1,1.2-0.2c0.1,0.4,0.1,0.6,0.2,1c-0.4,0.2-1,0.3-1.6,0.3
			c-1.5,0-2.4-0.9-2.4-2.3c0-1.3,0.7-2.5,2.2-2.5c1.4,0,2,1,2,2.3c0,0.3,0,0.5,0,0.6C50.6,76,50.1,76,49,76z M50.5,75
			c0-0.4-0.2-1-0.7-1c-0.6,0-0.8,0.6-0.8,1C49.6,75.1,49.9,75.1,50.5,75z"/>
		<path class="st13" d="M52.6,71.1c0.6,0,0.9,0,1.4,0c0,2.7,0,4.1,0,6.8c-0.6,0-0.8,0-1.4,0C52.6,75.2,52.6,73.8,52.6,71.1z"/>
		<path class="st13" d="M58.4,76.3c-0.2,0.6-0.2,1-0.4,1.6c-0.6,0-0.9,0-1.4,0c0.7-2.6,1.1-3.9,1.8-6.4c0.7,0,1.1,0,1.8,0
			c0.7,2.6,1,3.9,1.7,6.5c-0.6,0-0.9,0-1.5,0c-0.2-0.6-0.2-1-0.4-1.6C59.4,76.3,59,76.3,58.4,76.3z M59.9,75.2
			c-0.1-0.5-0.2-0.8-0.3-1.4c-0.1-0.4-0.2-0.9-0.3-1.3c0,0,0,0,0,0c-0.1,0.4-0.2,0.9-0.3,1.3c-0.1,0.5-0.2,0.8-0.4,1.4
			C59.1,75.2,59.3,75.2,59.9,75.2z"/>
		<path class="st13" d="M62.7,71.2c0.6,0,0.9,0,1.4,0c0,2.7-0.1,4.1-0.1,6.8c-0.6,0-0.8,0-1.4,0C62.6,75.2,62.7,73.9,62.7,71.2z"/>
		<path class="st13" d="M66.8,72c0,0.5,0,0.8,0,1.3c0.4,0,0.6,0,1,0c0,0.4,0,0.6,0,1c-0.4,0-0.6,0-1,0c0,0.7,0,1.1,0,1.8
			c0,0.6,0.1,0.8,0.5,0.8c0.2,0,0.3,0,0.4,0c0,0.4,0,0.6,0,1.1c-0.2,0.1-0.5,0.1-0.9,0.1c-0.4,0-0.8-0.2-1-0.4
			c-0.3-0.3-0.4-0.7-0.4-1.4c0-0.8,0-1.2,0-2c-0.2,0-0.4,0-0.6,0c0-0.4,0-0.6,0-1c0.2,0,0.4,0,0.6,0c0-0.4,0-0.6,0-1
			C66,72.2,66.3,72.1,66.8,72z"/>
		<path class="st13" d="M69.6,76.2c0,0.6,0.6,0.9,1.2,1c0.5,0,0.8,0,1.2-0.1c0.1,0.4,0.1,0.6,0.2,1c-0.4,0.2-1,0.2-1.6,0.2
			c-1.5,0-2.3-1-2.3-2.4c0-1.3,0.8-2.5,2.3-2.4c1.4,0,1.9,1.1,1.9,2.4c0,0.3,0,0.5-0.1,0.6C71.2,76.3,70.7,76.2,69.6,76.2z
			 M71.1,75.3c0-0.4-0.1-1-0.7-1c-0.6,0-0.8,0.5-0.8,1C70.2,75.3,70.5,75.3,71.1,75.3z"/>
		<path class="st13" d="M73.3,75c0-0.6,0-1.1,0-1.5c0.5,0,0.7,0,1.2,0c0,0.3,0,0.5,0,0.8c0,0,0,0,0,0c0.3-0.6,0.8-0.9,1.2-0.9
			c0.1,0,0.2,0,0.3,0c0,0.5,0,0.8-0.1,1.3c-0.1,0-0.2,0-0.4,0c-0.5,0-0.8,0.2-1,0.7c0,0.1,0,0.2-0.1,0.4c0,0.9-0.1,1.4-0.1,2.4
			c-0.6,0-0.8,0-1.4-0.1C73.2,76.9,73.2,76.3,73.3,75z"/>
		<path class="st13" d="M76.7,75.1c0-0.6,0-1,0-1.5c0.5,0,0.7,0,1.2,0.1c0,0.2,0,0.4,0,0.6c0,0,0,0,0,0c0.2-0.3,0.7-0.7,1.4-0.6
			c0.9,0,1.5,0.7,1.5,2c-0.1,1.1-0.1,1.7-0.1,2.8c-0.6,0-0.8,0-1.4-0.1c0.1-1.1,0.1-1.6,0.1-2.7c0-0.5-0.1-1-0.6-1
			c-0.3,0-0.6,0.2-0.7,0.5c0,0.1-0.1,0.2-0.1,0.4c-0.1,1.1-0.1,1.6-0.1,2.7c-0.6,0-0.8,0-1.4-0.1C76.6,77.1,76.6,76.4,76.7,75.1z"/>
		<path class="st13" d="M84.3,78.7c0-0.2,0-0.3-0.1-0.5c0,0,0,0,0,0c-0.3,0.4-0.8,0.5-1.3,0.5c-0.9-0.1-1.4-0.7-1.4-1.5
			c0.1-1.2,1.2-1.7,2.7-1.6c0,0,0,0,0-0.1c0-0.3-0.1-0.6-0.8-0.7c-0.4,0-0.9,0.1-1.2,0.3c-0.1-0.4-0.1-0.6-0.2-0.9
			c0.3-0.2,0.9-0.4,1.8-0.3c1.5,0.1,1.9,1.1,1.8,2.1c0,0.7-0.1,1-0.1,1.7c0,0.4,0,0.8,0,1.1C85,78.8,84.8,78.8,84.3,78.7z
			 M84.2,76.5c-0.7,0-1.3,0.1-1.3,0.7c0,0.4,0.2,0.6,0.5,0.6c0.3,0,0.6-0.2,0.7-0.5c0-0.1,0-0.2,0-0.2
			C84.2,76.9,84.2,76.7,84.2,76.5z"/>
		<path class="st13" d="M88.4,73c0,0.5-0.1,0.8-0.1,1.3c0.4,0,0.6,0,1,0.1c0,0.4,0,0.6-0.1,1c-0.4,0-0.6,0-1-0.1
			c0,0.7-0.1,1.1-0.1,1.8c0,0.6,0.1,0.8,0.5,0.8c0.2,0,0.3,0,0.4,0c0,0.4,0,0.6-0.1,1.1c-0.2,0-0.5,0.1-0.9,0.1
			c-0.4,0-0.8-0.2-1-0.4c-0.2-0.3-0.4-0.7-0.3-1.4c0.1-0.8,0.1-1.2,0.1-2c-0.2,0-0.4,0-0.6,0c0-0.4,0-0.6,0.1-1c0.2,0,0.4,0,0.6,0
			c0-0.4,0-0.6,0.1-1C87.6,73.1,87.9,73.1,88.4,73z"/>
		<path class="st13" d="M91.7,73.3c0,0.4-0.3,0.7-0.8,0.7c-0.4,0-0.7-0.4-0.7-0.8c0-0.4,0.4-0.7,0.8-0.7
			C91.4,72.5,91.7,72.8,91.7,73.3z M89.8,79.1c0.1-1.9,0.2-2.8,0.3-4.7c0.6,0,0.8,0.1,1.4,0.1c-0.1,1.9-0.2,2.8-0.3,4.7
			C90.6,79.2,90.3,79.1,89.8,79.1z"/>
		<path class="st13" d="M93.7,74.7c0.2,0.9,0.2,1.3,0.4,2.2c0.1,0.4,0.1,0.8,0.2,1.2c0,0,0,0,0,0c0.1-0.4,0.2-0.8,0.3-1.2
			c0.3-0.8,0.4-1.3,0.7-2.1c0.6,0,0.9,0.1,1.5,0.1c-0.8,1.8-1.2,2.7-2,4.5c-0.5,0-0.8-0.1-1.4-0.1c-0.5-1.9-0.7-2.9-1.2-4.8
			C92.8,74.6,93.1,74.7,93.7,74.7z"/>
		<path class="st13" d="M98.1,77.9c0,0.6,0.5,1,1.1,1c0.5,0,0.8,0,1.2-0.1c0,0.4,0.1,0.6,0.1,1c-0.5,0.1-1,0.2-1.6,0.1
			c-1.5-0.1-2.3-1.1-2.1-2.6c0.1-1.3,1-2.4,2.5-2.3c1.4,0.1,1.9,1.2,1.7,2.5c0,0.3-0.1,0.5-0.1,0.6C99.7,78,99.2,78,98.1,77.9z
			 M99.7,77.1c0-0.4-0.1-1-0.6-1c-0.6-0.1-0.8,0.5-0.9,0.9C98.8,77,99.1,77,99.7,77.1z"/>
	</g>
</g>
</svg>
