<?xml version="1.0" encoding="utf-8"?>
<!-- Generator: Adobe Illustrator 23.0.5, SVG Export Plug-In . SVG Version: 6.00 Build 0)  -->
<svg version="1.1" id="layer" xmlns="http://www.w3.org/2000/svg" xmlns:xlink="http://www.w3.org/1999/xlink" x="0px" y="0px"
	 viewBox="0 0 600 96.9" style="enable-background:new 0 0 600 96.9;" xml:space="preserve">
<style type="text/css">
	.st0{fill:#333333;}
	.st1{fill:#2F6E91;}
	.st2{fill:#E6248A;}
</style>
<g>
	<path class="st0" d="M326.6,44.4c0-0.1,0-0.1,0-0.2h-0.1L326.6,44.4z"/>
	<path class="st0" d="M394.7,44.1c0-20.6-16.5-24.2-33.8-24.2c-8.1,0-16.6,1.6-23,5.2c-6.5,3.6-10.8,9.5-11.3,19.1h21.6
		c1.2-6.5,5.7-9.3,12.1-9.3c5.3,0,11.7,2.1,11.7,7.7c0,4.4-2.4,6-6.4,6.8c-16.5,3.7-42.3,1.6-42.3,25.4c0,15.3,11.3,22.1,25,22.1
		c8.9,0,17.8-2.5,24.2-9.3c0,2.4,0.4,4.4,1.2,6.8h23.8c-2.8-5.6-2.8-12.5-2.8-18.5V44.1z M357.2,82.2c-5.3,0-9.7-2.4-9.7-8
		c0-5.7,4.5-8.1,9.7-9.3c4.8-1.6,11.3-2,14.5-4C372.5,75.8,368.5,82.2,357.2,82.2z"/>
	<path class="st0" d="M447.7,30.3h-0.4c-4.8-6.9-11.6-10.1-20.5-10.1c-20.5,0-30.6,17.7-30.6,36.6c0,20.2,9.6,39.9,32.6,39.9
		c7.9,0.1,15.4-3.8,19.7-10.5h0.4v8.5h22.6V0.1h-23.8V30.3z M434.5,78.6c-10.9,0-14.5-10.8-14.5-20.9c0-9.3,3.6-19.8,14.5-19.3
		c10.5,0,14.1,9.6,14.1,20.1C448.6,67.7,446.2,78.6,434.5,78.6z"/>
	<path class="st0" d="M475.1,44.4h0.1c0-0.1,0-0.1,0-0.2h-0.1V44.4z"/>
	<path class="st0" d="M543.3,44.1c0-20.6-16.5-24.2-33.8-24.2c-8.1,0-16.6,1.6-23,5.2c-6.5,3.6-10.8,9.5-11.3,19.1h21.6
		c1.2-6.5,5.7-9.3,12.1-9.3c5.3,0,11.7,2.1,11.7,7.7c0,4.4-2.4,6-6.4,6.8c-16.5,3.7-42.3,1.6-42.3,25.4c0,15.3,11.3,22.1,25,22.1
		c8.5,0,17.8-2.5,24.2-9.3c0,2.4,0.4,4.4,1.2,6.8h23.8c-2.8-5.6-2.8-12.5-2.8-18.5V44.1z M505.8,82.2c-5.3,0-10.1-2.4-9.7-8
		c0-5.7,4.5-8.1,9.7-9.3c4.8-1.6,11.3-2,14.5-4C521.1,75.8,517.1,82.2,505.8,82.2z"/>
	<path class="st1" d="M86.6,19.7c-21.4,0-39.1,16.2-39.1,38.3c0,24.6,16.1,38.7,39.9,38.7c16.1,0,31.8-7.3,35.8-24.2h-22.1
		c-2.4,5.3-8.1,8.1-13.7,8.1c-10.1,0-15.7-6.4-16.1-16.5V64h53.2C125.7,39.4,112.8,19.7,86.6,19.7z M71.3,50.8
		c1.2-8.9,6.8-14.9,15.3-14.9c8.1,0,13.7,6.8,14.1,14.9C100.7,50.8,71.3,50.8,71.3,50.8z"/>
	<path class="st1" d="M35.8,70.5v-33h14.5h0.1V21.7H35.9V0H12.1v21.7H0v15.7h12v31.8C12,89,17.3,95,37.4,95c4,0,8.5-0.8,12.9-0.8
		V76.9c-2,0-4,0.4-6,0.4C39,77.3,35.8,76.1,35.8,70.5z"/>
	<path class="st1" d="M163.9,78.1c-10.1,0-14.1-9.6-14.1-18.9c0-10,2-21.3,15.3-21.3c6.1,0,11.7,4.5,11.7,10.5v0.3h23.4
		c-1.6-18.9-17.7-28.6-35.8-28.6c-23.8,0-38.3,16.5-38.3,39.5c0,22.1,16.6,37,38.3,37c19.3,0,34.2-11.3,36.2-31h-23
		C176.4,73.3,172.4,78.1,163.9,78.1z"/>
	<path class="st1" d="M247.6,19.8c-8.8,0-18.5,4.9-22.1,12.1h-0.4V0.1h-23.8h-0.1v94.7H225V55.3c0-8,4-15.7,12.9-15.7
		c13.3,0,12.1,10,12.1,20.1v35h23.8V48C273.8,37.5,271.8,19.8,247.6,19.8z"/>
	<path class="st0" d="M326.5,21c-2-0.4-3.6-0.4-5.6-0.4c-10,0-18.1,4.8-21.7,14.1h-0.4V21.8h-23c0,0,0,72.9-0.1,72.8h23.8V58.8
		c0-9.2,6-17.3,17.7-17.3c3.3,0,6.1,0.4,9.3,1.2V21z"/>
	<rect x="546.8" y="21.7" class="st0" width="0.4" height="0.1"/>
	<path class="st0" d="M591.9,20.6c-10,0-18.1,4.8-21.7,14.1h-0.4V21.8h-22.6v72.8H571V58.8c0-9.2,6-17.3,17.7-17.3
		c3.2,0,8.1,0.4,11.3,1.2V21C597.9,20.6,593.9,20.6,591.9,20.6z"/>
	<rect x="576.2" y="70.9" class="st2" width="23.8" height="23.8"/>
</g>
</svg>
