<?xml version="1.0" encoding="utf-8"?>
<!-- Generator: Adobe Illustrator 23.0.5, SVG Export Plug-In . SVG Version: 6.00 Build 0)  -->
<svg version="1.1" id="Layer_1" xmlns="http://www.w3.org/2000/svg" xmlns:xlink="http://www.w3.org/1999/xlink" x="0px" y="0px"
	 viewBox="0 0 97 97" style="enable-background:new 0 0 97 97;" xml:space="preserve">
<style type="text/css">
	.st0{fill:#168573;}
	.st1{fill:#16304B;}
	.st2{fill:#FFFFFF;}
</style>
<g id="Слой_2">
	<g id="Слой_1-2">
		<path class="st0" d="M97,29.5v37.9C97,83.8,83.8,97,67.5,97h-38C13.2,97,0,83.8,0,67.5v-38C0,13.2,13.2,0,29.5,0h37.9
			C83.8,0,97,13.2,97,29.5z"/>
		<path class="st1" d="M29.5,5h37.9C81,5,92,16,92,29.5v37.9C92,81,81,92,67.5,92h-38C16,92,5,81,5,67.5v-38C5,16,16,5,29.5,5z"/>
		<path class="st2" d="M87,29.5v37.9C87,78.3,78.3,87,67.5,87h-38C18.7,87,10,78.3,10,67.5v-38C10,18.7,18.7,10,29.5,10h37.9
			C78.3,10,87,18.7,87,29.5z"/>
		<path class="st0" d="M36.9,52h23.3c0.8,0,1.5,0.7,1.5,1.5l0,0c0,0.8-0.7,1.5-1.5,1.5H36.9c-0.8,0-1.5-0.7-1.5-1.5l0,0
			C35.4,52.7,36,52,36.9,52z"/>
		<path class="st0" d="M47,58.7v-4.5c0-0.8,0.7-1.5,1.5-1.5l0,0c0.8,0,1.5,0.7,1.5,1.5v4.5c0,0.8-0.7,1.5-1.5,1.5l0,0
			C47.7,60.2,47,59.6,47,58.7z"/>
		<path class="st0" d="M45.4,25.3l-0.2,1.3H47v2h-2.3l-0.6,3.1H42l0.6-3.1h-1.3l-0.5,3.1h-2.1l0.6-3.1h-1.8v-2h2.2l0.2-1.3H38v-2
			h2.3l0.6-3.1H43l-0.6,3.1h1.3l0.6-3.1h2.1l-0.6,3.1h1.8v2H45.4z M41.7,26.6H43l0.2-1.3h-1.3L41.7,26.6z"/>
		<path class="st1" d="M22.8,36.5H25l-2.3,7h-2.3l-2.3-7h2.1l1,3.6c0.2,0.5,0.3,1.1,0.3,1.7c0-0.2,0.1-0.5,0.1-0.8s0.1-0.6,0.2-0.8
			L22.8,36.5z"/>
		<path class="st1" d="M30.8,38.7c0,0.7-0.2,1.3-0.7,1.8c-0.6,0.5-1.3,0.7-2,0.6h-0.5v2.3h-1.9v-7h2.4c0.7,0,1.4,0.2,2,0.6
			C30.6,37.5,30.9,38.1,30.8,38.7z M27.6,39.6H28c0.2,0,0.5-0.1,0.7-0.2c0.2-0.2,0.3-0.4,0.3-0.7c0-0.5-0.3-0.7-0.8-0.7h-0.5
			L27.6,39.6z"/>
		<path class="st1" d="M36.6,41.4c0,0.4-0.1,0.8-0.3,1.2s-0.6,0.6-1,0.8c-0.5,0.2-1,0.3-1.5,0.3c-0.4,0-0.8,0-1.2-0.1
			c-0.3-0.1-0.7-0.2-1-0.3v-1.7c0.4,0.2,0.7,0.3,1.1,0.4c0.4,0.1,0.7,0.1,1.1,0.2c0.2,0,0.4,0,0.6-0.1c0.1-0.1,0.2-0.2,0.2-0.4
			c0-0.1,0-0.2-0.1-0.3s-0.2-0.2-0.3-0.2c-0.3-0.2-0.6-0.3-0.9-0.5c-0.4-0.2-0.7-0.4-1-0.6c-0.2-0.2-0.4-0.4-0.5-0.7
			s-0.2-0.6-0.2-0.9c0-0.6,0.2-1.2,0.7-1.5c0.6-0.4,1.3-0.6,2-0.5c0.8,0,1.5,0.2,2.2,0.5L36,38.4c-0.5-0.3-1.1-0.4-1.7-0.5
			c-0.2,0-0.4,0-0.5,0.1s-0.2,0.2-0.2,0.3c0,0.2,0.1,0.3,0.2,0.4c0.4,0.2,0.8,0.4,1.2,0.6c0.5,0.2,0.9,0.5,1.3,0.9
			C36.5,40.6,36.6,41,36.6,41.4z"/>
		<path class="st1" d="M46.3,43.5h-1.9v-2.9h-2.2v2.9h-1.9v-7h1.9v2.6h2.2v-2.6h1.9V43.5z"/>
		<path class="st1" d="M52.9,40.8c0,0.8-0.2,1.5-0.7,2.1c-0.5,0.5-1.3,0.8-2,0.8s-1.5-0.2-2-0.8c-1-1.2-1-2.9,0-4.2
			c0.5-0.5,1.3-0.8,2-0.7c0.5,0,1,0.1,1.4,0.3s0.8,0.6,1,1C52.8,39.8,52.9,40.3,52.9,40.8z M49.3,40.8c0,0.4,0,0.7,0.2,1.1
			c0.1,0.2,0.4,0.4,0.6,0.4c0.3,0,0.5-0.1,0.6-0.4c0.2-0.3,0.2-0.7,0.2-1.1c0-0.3,0-0.7-0.2-1s-0.6-0.5-1-0.3
			c-0.1,0.1-0.2,0.2-0.3,0.3C49.4,40.1,49.3,40.4,49.3,40.8z"/>
		<path class="st1" d="M58.2,41.9c0,0.5-0.2,1-0.6,1.3c-0.5,0.3-1.1,0.5-1.7,0.5c-0.4,0-0.7,0-1.1-0.1c-0.3-0.1-0.6-0.1-0.9-0.2
			v-1.5c0.3,0.1,0.7,0.2,1,0.3s0.6,0.1,0.9,0.1c0.4,0,0.6-0.1,0.6-0.3c0-0.1-0.1-0.2-0.2-0.3c-0.3-0.2-0.7-0.3-1-0.4
			c-0.4-0.1-0.8-0.4-1-0.7s-0.3-0.6-0.3-1c0-0.5,0.2-0.9,0.6-1.2c0.5-0.3,1.1-0.4,1.6-0.4c0.3,0,0.7,0,1,0.1s0.7,0.2,1,0.3l-0.5,1.2
			c-0.3-0.1-0.5-0.2-0.8-0.3c-0.2-0.1-0.5-0.1-0.7-0.1c-0.3,0-0.5,0.1-0.5,0.2c0,0.1,0.1,0.2,0.2,0.2c0.3,0.1,0.6,0.3,0.9,0.4
			c0.3,0.1,0.6,0.3,0.8,0.5c0.2,0.1,0.3,0.3,0.4,0.5C58.1,41.4,58.2,41.6,58.2,41.9z"/>
		<path class="st1" d="M61.9,42.1c0.3,0,0.6-0.1,0.9-0.2v1.4c-0.2,0.1-0.5,0.2-0.7,0.2c-0.3,0.1-0.5,0.1-0.8,0.1
			c-0.5,0-1-0.1-1.4-0.5c-0.3-0.4-0.5-0.9-0.4-1.4v-2.2h-0.7v-0.8l0.8-0.6l0.5-1.1h1.2v1.1h1.3v1.4h-1.3v2.1
			C61.4,42,61.5,42.1,61.9,42.1z"/>
		<path class="st1" d="M63.7,36.7c0-0.2,0.1-0.5,0.2-0.6c0.5-0.3,1.1-0.3,1.5,0c0.2,0.2,0.3,0.4,0.3,0.6c0,0.5-0.3,0.8-1,0.8
			S63.7,37.3,63.7,36.7z M65.6,43.5h-1.9V38h1.9V43.5z"/>
		<path class="st1" d="M70.4,43.5v-3c0-0.3,0-0.6-0.2-0.8c-0.1-0.2-0.3-0.3-0.5-0.3c-0.3,0-0.6,0.1-0.7,0.4
			c-0.2,0.4-0.2,0.9-0.2,1.3v2.4H67v-5.4h1.4l0.2,0.7h0.1c0.2-0.3,0.4-0.5,0.7-0.6c0.3-0.1,0.7-0.2,1-0.2c0.5,0,1,0.2,1.4,0.5
			c0.3,0.4,0.5,1,0.4,1.5v3.5L70.4,43.5z"/>
		<path class="st1" d="M78.7,38.1V39L78,39.3c0.1,0.2,0.2,0.4,0.2,0.7c0,0.5-0.2,1-0.6,1.4c-0.5,0.4-1.2,0.5-1.8,0.5
			c-0.2,0-0.3,0-0.5,0c0,0.1-0.1,0.1-0.1,0.2c0,0.1,0.1,0.2,0.2,0.2c0.2,0.1,0.4,0.1,0.6,0.1h0.9c1.2,0,1.8,0.5,1.8,1.5
			c0,0.6-0.3,1.2-0.8,1.5c-0.7,0.4-1.6,0.6-2.4,0.6c-0.6,0-1.2-0.1-1.8-0.4c-0.4-0.2-0.7-0.7-0.6-1.2c0-0.7,0.4-1.1,1.2-1.3
			c-0.2-0.1-0.3-0.2-0.4-0.3s-0.2-0.3-0.2-0.5s0-0.3,0.1-0.5c0.2-0.2,0.4-0.3,0.6-0.5c-0.3-0.1-0.5-0.3-0.7-0.6s-0.3-0.7-0.2-1
			c0-0.5,0.2-1,0.6-1.4c0.5-0.4,1.1-0.5,1.8-0.5h0.5l0.5,0.1L78.7,38.1z M74.6,44.2c0,0.2,0.1,0.3,0.3,0.4c0.2,0.1,0.4,0.1,0.7,0.1
			c0.4,0,0.7,0,1.1-0.2c0.3-0.1,0.4-0.3,0.4-0.4c0-0.2-0.1-0.3-0.3-0.3c-0.2-0.1-0.5-0.1-0.7-0.1h-0.7c-0.2,0-0.4,0-0.5,0.2
			C74.7,43.9,74.6,44.1,74.6,44.2z M75.2,39.9c0,0.6,0.2,0.8,0.6,0.8c0.2,0,0.3-0.1,0.4-0.2c0.1-0.2,0.2-0.4,0.1-0.6
			c0-0.6-0.2-0.8-0.6-0.8S75.2,39.3,75.2,39.9z"/>
		<path class="st1" d="M33.8,69.3c0.2,0,0.5,0,0.7-0.1V70h-0.4c-0.2,0-0.4,0-0.5,0c-0.9,0-1.4-0.5-1.4-1.5V66h-0.6v-0.4l0.7-0.4
			l0.3-1h0.6v1h1.3V66h-1.3v2.6c0,0.2,0,0.4,0.2,0.5C33.5,69.2,33.6,69.3,33.8,69.3z"/>
		<path class="st1" d="M37.5,70.1c-0.6,0-1.2-0.2-1.7-0.6c-0.4-0.5-0.6-1.1-0.6-1.7s0.2-1.3,0.6-1.8c0.4-0.4,1-0.7,1.6-0.7
			c0.5,0,1.1,0.2,1.5,0.6s0.6,1,0.5,1.5v0.5h-3.1c0,0.4,0.1,0.7,0.4,1c0.3,0.3,0.6,0.4,1,0.4c0.3,0,0.5,0,0.8-0.1s0.5-0.1,0.8-0.3
			v0.8c-0.2,0.1-0.5,0.2-0.7,0.2C38.1,70,37.8,70.1,37.5,70.1z M37.3,66c-0.3,0-0.6,0.1-0.8,0.3c-0.2,0.2-0.3,0.6-0.3,0.9h2.1
			c0-0.3-0.1-0.6-0.3-0.9C37.9,66.1,37.6,66,37.3,66z"/>
		<path class="st1" d="M42.3,70.1c-0.6,0-1.2-0.2-1.6-0.6c-0.4-0.5-0.6-1.1-0.5-1.8c0-0.7,0.2-1.3,0.6-1.8c0.4-0.4,1-0.7,1.7-0.6
			c0.5,0,0.9,0.1,1.3,0.3l-0.3,0.8c-0.3-0.1-0.7-0.2-1-0.2c-0.8,0-1.2,0.5-1.2,1.6c0,0.4,0.1,0.8,0.3,1.2c0.2,0.3,0.5,0.4,0.9,0.4
			s0.9-0.1,1.3-0.3V70c-0.4-0.1-0.6,0-0.8,0C42.8,70.1,42.5,70.1,42.3,70.1z"/>
		<path class="st1" d="M48.8,70h-1v-2.8c0-0.3-0.1-0.6-0.2-0.8c-0.2-0.2-0.4-0.3-0.7-0.3s-0.7,0.1-0.9,0.4c-0.2,0.4-0.3,0.8-0.3,1.2
			V70h-1v-6.5h1v1.7c0,0.3,0,0.6,0,0.8h0.1c0.1-0.2,0.3-0.4,0.6-0.5s0.5-0.2,0.8-0.2c0.8-0.1,1.6,0.4,1.7,1.2c0,0.2,0,0.3,0,0.5
			L48.8,70L48.8,70z"/>
		<path class="st1" d="M49.7,72.1c-0.3,0-0.5,0-0.7-0.1v-0.8c0.2,0.1,0.4,0.1,0.6,0.1c0.4,0,0.6-0.2,0.6-0.7v-5.2h1v5.3
			c0,0.4-0.1,0.8-0.4,1.1C50.5,72,50.1,72.1,49.7,72.1z M50.1,64.1c0-0.1,0-0.3,0.1-0.4c0.1-0.1,0.3-0.1,0.4-0.1
			c0.1,0,0.3,0,0.4,0.1c0.1,0.1,0.2,0.3,0.2,0.4c0,0.1,0,0.3-0.2,0.4c-0.1,0.1-0.3,0.1-0.4,0.1c-0.2,0-0.3,0-0.4-0.1
			C50.1,64.4,50.1,64.3,50.1,64.1L50.1,64.1z"/>
		<path class="st1" d="M55.8,70l-0.1-0.6l0,0c-0.1,0.2-0.3,0.4-0.6,0.5s-0.6,0.2-0.9,0.2c-0.8,0.1-1.6-0.4-1.7-1.2
			c0-0.2,0-0.3,0-0.5v-3h1v2.9c0,0.3,0.1,0.6,0.2,0.8c0.2,0.2,0.4,0.3,0.7,0.3s0.7-0.1,0.9-0.4c0.2-0.4,0.3-0.8,0.3-1.2v-2.4h1V70
			H55.8z"/>
		<path class="st1" d="M60.4,65.3c0.2,0,0.3,0,0.5,0l-0.1,0.9c-0.1,0-0.3,0-0.4,0c-0.4,0-0.7,0.1-1,0.4c-0.2,0.3-0.4,0.6-0.4,1V70
			h-1v-4.6h0.8l0.1,0.8H59c0.1-0.3,0.4-0.5,0.6-0.7C59.8,65.4,60.1,65.3,60.4,65.3z"/>
		<path class="st1" d="M61,65.4h1.1L63,68c0.1,0.3,0.2,0.7,0.3,1.1l0,0c0-0.2,0.1-0.3,0.1-0.6s0.4-1.3,1.1-3.1h1.1l-2,5.3
			c-0.2,0.8-0.9,1.4-1.8,1.4c-0.2,0-0.4,0-0.6-0.1v-0.8c0.2,0,0.3,0,0.5,0c0.5,0,0.9-0.3,1-0.8l0.2-0.4L61,65.4z"/>
	</g>
</g>
<path class="st0" d="M56.9,31.5h-8.2v-2l2.7-2.7c0.7-0.7,1.3-1.5,1.5-1.6s0.4-0.5,0.5-0.7c0-0.2,0.2-0.4,0.2-0.7
	c0-0.2,0-0.5-0.4-0.7c-0.2-0.2-0.5-0.2-0.7-0.2c-0.4,0-0.7,0.2-1.1,0.4c-0.4,0.2-0.9,0.5-1.3,0.9l-1.6-2c0.4-0.4,0.9-0.7,1.5-1.1
	c0.4-0.2,0.9-0.4,1.3-0.5c0.5-0.2,1.1-0.2,1.6-0.2c0.7,0,1.3,0.2,2,0.4c0.5,0.2,0.9,0.5,1.3,1.1c0.4,0.5,0.5,1.1,0.5,1.6
	c0,0.4,0,0.9-0.2,1.3s-0.4,0.7-0.5,1.1c-0.2,0.4-0.5,0.7-0.9,1.1s-1.3,1.1-2.4,2.4l0,0h4.2C56.9,29.1,56.9,31.5,56.9,31.5z"/>
<g>
	<path class="st1" d="M38.5,81v-0.9l0.8-0.7c1.4-1.2,2-1.9,2-2.6c0-0.5-0.3-0.9-1-0.9c-0.5,0-1,0.3-1.3,0.5l-0.4-1
		c0.5-0.3,1.2-0.6,2-0.6c1.4,0,2.2,0.8,2.2,1.9c0,1-0.7,1.9-1.6,2.6l-0.6,0.5v0h2.3V81H38.5z"/>
	<path class="st1" d="M46,81.1c-1.6,0-2.3-1.4-2.3-3.2c0-1.8,0.7-3.2,2.3-3.2c1.6,0,2.3,1.5,2.3,3.1C48.3,79.8,47.5,81.1,46,81.1
		L46,81.1z M46,80c0.6,0,0.9-0.7,0.9-2.1c0-1.4-0.3-2.1-0.9-2.1c-0.5,0-0.9,0.7-0.9,2.1C45.1,79.3,45.4,80,46,80L46,80z"/>
	<path class="st1" d="M49,81v-0.9l0.8-0.7c1.4-1.2,2-1.9,2-2.6c0-0.5-0.3-0.9-1-0.9c-0.5,0-1,0.3-1.3,0.5l-0.4-1
		c0.5-0.3,1.2-0.6,2-0.6c1.4,0,2.2,0.8,2.2,1.9c0,1-0.7,1.9-1.6,2.6L51,79.8v0h2.3V81H49z"/>
	<path class="st1" d="M54.5,79.6c0.3,0.1,0.8,0.4,1.4,0.4c0.7,0,1.1-0.4,1.1-0.8c0-0.6-0.6-0.9-1.2-0.9h-0.6v-1h0.6
		c0.5,0,1.1-0.2,1.1-0.7c0-0.4-0.3-0.6-0.9-0.6c-0.5,0-1,0.2-1.3,0.4l-0.3-1c0.4-0.2,1.1-0.5,1.9-0.5c1.3,0,2,0.7,2,1.5
		c0,0.7-0.4,1.2-1.1,1.4v0c0.7,0.1,1.3,0.7,1.3,1.5c0,1.1-1,1.9-2.5,1.9c-0.8,0-1.5-0.2-1.8-0.4L54.5,79.6z"/>
</g>
</svg>
