<?xml version="1.0" encoding="utf-8"?>
<!-- Generator: Adobe Illustrator 23.0.5, SVG Export Plug-In . SVG Version: 6.00 Build 0)  -->
<svg version="1.1" id="Layer_1" xmlns="http://www.w3.org/2000/svg" xmlns:xlink="http://www.w3.org/1999/xlink" x="0px" y="0px"
	 viewBox="0 0 383 245.1" style="enable-background:new 0 0 383 245.1;" xml:space="preserve">
<style type="text/css">
	.st0{opacity:0.3;fill:#D5E1F2;enable-background:new    ;}
	.st1{fill:#6F86A6;}
	.st2{fill:#C1CEDF;}
	.st3{fill:#95AAC6;}
	.st4{fill:#EBF0F8;}
	.st5{fill:#FFFFFF;}
	.st6{fill:#A4B6CE;}
	.st7{fill:#2478DD;}
	.st8{fill:#43A048;}
	.st9{fill:#66BF6B;}
	.st10{fill:#2378DF;}
	.st11{fill:#B0D4FF;}
	.st12{fill:#5793CE;}
	.st13{fill:#D4ECFF;}
	.st14{fill:#173D7A;}
	.st15{fill:#396CAA;}
	.st16{fill:#D3D0CF;}
	.st17{fill:#F2F2F2;}
	.st18{fill:#8FCF92;}
	.st19{fill:#C2E4C4;}
	.st20{fill:#7FBBFF;}
	.st21{fill:#FFC2B0;}
	.st22{fill:#EA9C92;}
	.st23{fill:#00377A;}
	.st24{fill:#4386D7;}
	.st25{fill:#1856A1;}
	.st26{fill:#C3CFE0;}
	.st27{fill:#386FB2;}
	.st28{fill:#3C8EF0;}
	.st29{enable-background:new    ;}
</style>
<g>
	<g>
		<g>
			<g>
				<path class="st0" d="M273.4,238.3l-104-60.1c-2.9-1.7-2.6-4.7,0.8-6.6l70.9-40.9c3.4-2,8.5-2.2,11.5-0.5l104.1,60.1
					c2.9,1.7,2.6,4.7-0.8,6.6L285,237.8C281.5,239.7,276.4,240,273.4,238.3z"/>
				<g>
					<path class="st1" d="M360.5,72.1l-105.8-61c-1.4-0.8-2.6-0.9-3.6-0.5l0,0l-0.2,0.1l0,0l-3.5,1.5l3.7,1.9c0,0.1,0,0.1,0,0.2
						v86.9c0,4.3,2.7,9.4,6,11.3l103,59.4l0.6,4.8l3.8-1.8c1.2-0.7,2-2.4,2-4.7V83.3C366.5,79,363.8,74,360.5,72.1z"/>
					<path class="st2" d="M360.5,72.1l-105.8-61c-1.4-0.8-2.6-0.9-3.6-0.5l0,0l-0.2,0.1l0,0l-3.5,1.5l3.7,1.9c0,0.1,0,0.1,0,0.2
						v57.3l48.1,38l65.4-32.9C363.6,74.7,362.1,73,360.5,72.1z"/>
					<path class="st3" d="M362.2,73.4l-10.4,4.4l7.8,6l6.5-2.8C365.7,78.2,364.2,75.3,362.2,73.4z"/>
					<path class="st4" d="M357,176.3l-105.8-61c-3.3-1.9-6-7-6-11.3V17.1c0-4.3,2.7-6.3,6-4.4l105.8,61c3.3,1.9,6,7,6,11.3v86.9
						C363,176.3,360.3,178.2,357,176.3z"/>
					<path class="st5" d="M353.5,169.9l-98.8-57c-3-1.8-5.5-6.4-5.5-10.4V23c0-4,2.5-5.8,5.5-4l98.8,57c3,1.8,5.5,6.4,5.5,10.4v79.5
						C359,169.8,356.5,171.6,353.5,169.9z"/>
					<path class="st5" d="M353.5,169.9l-98.8-57c-3-1.8-5.5-6.4-5.5-10.4V23c0-4,2.5-5.8,5.5-4l98.8,57c3,1.8,5.5,6.4,5.5,10.4v79.5
						C359,169.8,356.5,171.6,353.5,169.9z"/>
				</g>
				<path class="st1" d="M358.6,179l-14.2-1.9l-91.8-53c-2.9-1.7-8.1-1.5-11.5,0.5L176,162.2l-8.6-1.1v4.9l0,0c-0.1,1.1,0.6,2.2,2,3
					l104,60c2.9,1.7,8.1,1.5,11.5-0.5l70.9-40.9c1.9-1.1,2.9-2.5,2.8-3.9l0,0L358.6,179L358.6,179z"/>
				<path class="st2" d="M289.6,145.5l-6.5-3.8h-71.7L176,162.1l-8.6-1.1v4.9l0,0c-0.1,1.1,0.6,2.2,2,3l104,60.1
					c1.6,0.9,3.7,1.3,5.9,1.1L289.6,145.5z"/>
				<path class="st6" d="M171.2,161.5l-3.8-0.5v4.9l0,0c-0.1,1.1,0.6,2.2,2,3l1.8,1.1V161.5z"/>
				<path class="st3" d="M274.5,229.5c2.8,1.1,6.8,0.8,9.8-0.6V218h-9.8V229.5z"/>
				<path class="st4" d="M273.4,224.1l-104-60.1c-2.9-1.7-2.6-4.7,0.8-6.6l70.9-40.9c3.4-2,8.5-2.2,11.5-0.5l104.1,60.1
					c2.9,1.7,2.6,4.7-0.8,6.6L285,223.6C281.5,225.6,276.4,225.8,273.4,224.1z"/>
				<path class="st5" d="M355.8,181l-70.9,40.9c-3.4,2-8.5,2.2-11.5,0.5l-104-60.1c-1-0.6-1.6-1.3-1.8-2c-0.5,1.4,0.1,2.8,1.8,3.8
					l104,60c2.9,1.7,8.1,1.5,11.5-0.5l70.9-40.9c2.3-1.3,3.2-3.1,2.7-4.6C358.1,179.1,357.2,180.1,355.8,181z"/>
				<g>
					<path class="st7" d="M213.6,144.2l-4.7-2.7c-0.4-0.2-0.3-0.6,0.1-0.9l5.6-3.2c0.4-0.3,1.1-0.3,1.5-0.1l4.7,2.7
						c0.4,0.2,0.3,0.6-0.1,0.9l-5.6,3.2C214.7,144.3,214,144.4,213.6,144.2z"/>
					<path class="st7" d="M220.9,148.4l-4.7-2.7c-0.4-0.2-0.3-0.6,0.1-0.9l5.6-3.2c0.4-0.3,1.1-0.3,1.5-0.1l4.7,2.7
						c0.4,0.2,0.3,0.6-0.1,0.9l-5.6,3.2C221.9,148.5,221.3,148.6,220.9,148.4z"/>
					<path class="st7" d="M228.2,152.5l-4.7-2.7c-0.4-0.2-0.3-0.6,0.1-0.9l5.6-3.2c0.4-0.3,1.1-0.3,1.5-0.1l4.7,2.7
						c0.4,0.2,0.3,0.6-0.1,0.9l-5.6,3.2C229.2,152.7,228.6,152.8,228.2,152.5z"/>
					<path class="st7" d="M238.2,149.1l-4.7-2.7c-0.4-0.2-0.3-0.6,0.1-0.9l4.7-2.7c0.4-0.3,1.1-0.3,1.5-0.1l4.7,2.7
						c0.4,0.2,0.3,0.6-0.1,0.9l-4.7,2.7C239.3,149.3,238.6,149.3,238.2,149.1z"/>
					<path class="st7" d="M245.5,153.3l-4.7-2.7c-0.4-0.2-0.3-0.6,0.1-0.9l4.7-2.7c0.4-0.3,1.1-0.3,1.5-0.1l4.7,2.7
						c0.4,0.2,0.3,0.6-0.1,0.9l-4.7,2.7C246.5,153.5,245.9,153.5,245.5,153.3z"/>
					<path class="st7" d="M252.8,157.5l-4.7-2.7c-0.4-0.2-0.3-0.6,0.1-0.9l4.7-2.7c0.4-0.3,1.1-0.3,1.5-0.1l4.7,2.7
						c0.4,0.2,0.3,0.6-0.1,0.9l-4.7,2.7C253.8,157.7,253.2,157.7,252.8,157.5z"/>
					<path class="st7" d="M260,161.7l-4.7-2.7c-0.4-0.2-0.3-0.6,0.1-0.9l4.7-2.7c0.4-0.3,1.1-0.3,1.5-0.1l4.7,2.7
						c0.4,0.2,0.3,0.6-0.1,0.9l-4.7,2.7C261.1,161.9,260.4,161.9,260,161.7z"/>
					<path class="st7" d="M267.3,165.9l-4.7-2.7c-0.4-0.2-0.3-0.6,0.1-0.9l4.7-2.7c0.4-0.3,1.1-0.3,1.5-0.1l4.7,2.7
						c0.4,0.2,0.3,0.6-0.1,0.9l-4.7,2.7C268.4,166.1,267.7,166.1,267.3,165.9z"/>
					<path class="st7" d="M274.6,170.1l-4.7-2.7c-0.4-0.2-0.3-0.6,0.1-0.9l4.7-2.7c0.4-0.3,1.1-0.3,1.5-0.1l4.7,2.7
						c0.4,0.2,0.3,0.6-0.1,0.9l-4.7,2.7C275.6,170.3,275,170.3,274.6,170.1z"/>
					<path class="st7" d="M281.9,174.3l-4.7-2.7c-0.4-0.2-0.3-0.6,0.1-0.9l4.7-2.7c0.4-0.3,1.1-0.3,1.5-0.1l4.7,2.7
						c0.4,0.2,0.3,0.6-0.1,0.9l-4.7,2.7C282.9,174.5,282.2,174.5,281.9,174.3z"/>
					<path class="st7" d="M289.1,178.5l-4.7-2.7c-0.4-0.2-0.3-0.6,0.1-0.9l4.7-2.7c0.4-0.3,1.1-0.3,1.5-0.1l4.7,2.7
						c0.4,0.2,0.3,0.6-0.1,0.9l-4.7,2.7C290.2,178.7,289.5,178.7,289.1,178.5z"/>
					<path class="st7" d="M296.4,182.7l-4.7-2.7c-0.4-0.2-0.3-0.6,0.1-0.9l4.7-2.7c0.4-0.3,1.1-0.3,1.5-0.1l4.7,2.7
						c0.4,0.2,0.3,0.6-0.1,0.9l-4.7,2.7C297.4,182.9,296.8,182.9,296.4,182.7z"/>
					<path class="st7" d="M303.7,186.9l-4.7-2.7c-0.4-0.2-0.3-0.6,0.1-0.9l4.7-2.7c0.4-0.3,1.1-0.3,1.5-0.1l4.7,2.7
						c0.4,0.2,0.3,0.6-0.1,0.9l-4.7,2.7C304.7,187.1,304.1,187.1,303.7,186.9z"/>
					<path class="st7" d="M248.9,147.1l-4.7-2.7c-0.4-0.2-0.3-0.6,0.1-0.9l4.7-2.7c0.4-0.3,1.1-0.3,1.5-0.1l4.7,2.7
						c0.4,0.2,0.3,0.6-0.1,0.9l-4.7,2.7C250,147.3,249.3,147.3,248.9,147.1z"/>
					<path class="st7" d="M241.6,142.8l-4.7-2.7c-0.4-0.2-0.3-0.6,0.1-0.9l4.7-2.7c0.4-0.3,1.1-0.3,1.5-0.1l4.7,2.7
						c0.4,0.2,0.3,0.6-0.1,0.9l-4.7,2.7C242.6,143,241.9,143.1,241.6,142.8z"/>
					<path class="st7" d="M234.2,138.6l-10.1-5.9c-0.4-0.2-0.3-0.6,0.1-0.9l4.7-2.7c0.4-0.3,1.1-0.3,1.5-0.1l10.1,5.9
						c0.4,0.2,0.3,0.6-0.1,0.9l-4.7,2.7C235.2,138.8,234.6,138.8,234.2,138.6z"/>
					<path class="st7" d="M239.3,133.4l-8.2-4.8c-0.4-0.2-0.3-0.6,0.1-0.9l4.7-2.7c0.4-0.3,1.1-0.3,1.5-0.1l8.2,4.8
						c0.4,0.2,0.3,0.6-0.1,0.9l-4.7,2.7C240.4,133.6,239.7,133.6,239.3,133.4z"/>
					<path class="st7" d="M256.2,151.3l-4.7-2.7c-0.4-0.2-0.3-0.6,0.1-0.9l4.7-2.7c0.4-0.3,1.1-0.3,1.5-0.1l4.7,2.7
						c0.4,0.2,0.3,0.6-0.1,0.9l-4.7,2.7C257.3,151.5,256.6,151.5,256.2,151.3z"/>
					<path class="st7" d="M263.5,155.5l-4.7-2.7c-0.4-0.2-0.3-0.6,0.1-0.9l4.7-2.7c0.4-0.3,1.1-0.3,1.5-0.1l4.7,2.7
						c0.4,0.2,0.3,0.6-0.1,0.9l-4.7,2.7C264.5,155.7,263.9,155.7,263.5,155.5z"/>
					<path class="st7" d="M270.8,159.7l-4.7-2.7c-0.4-0.2-0.3-0.6,0.1-0.9l4.7-2.7c0.4-0.3,1.1-0.3,1.5-0.1l4.7,2.7
						c0.4,0.2,0.3,0.6-0.1,0.9l-4.7,2.7C271.8,159.9,271.1,159.9,270.8,159.7z"/>
					<path class="st7" d="M278,163.9l-4.7-2.7c-0.4-0.2-0.3-0.6,0.1-0.9l4.7-2.7c0.4-0.3,1.1-0.3,1.5-0.1l4.7,2.7
						c0.4,0.2,0.3,0.6-0.1,0.9l-4.7,2.7C279.1,164.1,278.4,164.1,278,163.9z"/>
					<path class="st7" d="M285.3,168.1l-4.7-2.7c-0.4-0.2-0.3-0.6,0.1-0.9l4.7-2.7c0.4-0.3,1.1-0.3,1.5-0.1l4.7,2.7
						c0.4,0.2,0.3,0.6-0.1,0.9l-4.7,2.7C286.3,168.3,285.7,168.3,285.3,168.1z"/>
					<path class="st7" d="M292.6,172.3l-4.7-2.7c-0.4-0.2-0.3-0.6,0.1-0.9l4.7-2.7c0.4-0.3,1.1-0.3,1.5-0.1l4.7,2.7
						c0.4,0.2,0.3,0.6-0.1,0.9l-4.7,2.7C293.6,172.5,293,172.5,292.6,172.3z"/>
					<path class="st7" d="M299.8,176.5l-4.7-2.7c-0.4-0.2-0.3-0.6,0.1-0.9l4.7-2.7c0.4-0.3,1.1-0.3,1.5-0.1l4.7,2.7
						c0.4,0.2,0.3,0.6-0.1,0.9l-4.7,2.7C300.9,176.7,300.2,176.7,299.8,176.5z"/>
					<path class="st7" d="M307.1,180.7l-4.7-2.7c-0.4-0.2-0.3-0.6,0.1-0.9l4.7-2.7c0.4-0.3,1.1-0.3,1.5-0.1l4.7,2.7
						c0.4,0.2,0.3,0.6-0.1,0.9l-4.7,2.7C308.2,180.9,307.5,180.9,307.1,180.7z"/>
					<path class="st7" d="M314.4,184.9l-4.7-2.7c-0.4-0.2-0.3-0.6,0.1-0.9l4.7-2.7c0.4-0.3,1.1-0.3,1.5-0.1l4.7,2.7
						c0.4,0.2,0.3,0.6-0.1,0.9l-4.7,2.7C315.4,185.1,314.8,185.1,314.4,184.9z"/>
					<path class="st7" d="M327.3,192.3l-10.3-5.9c-0.4-0.2-0.3-0.6,0.1-0.9l4.7-2.7c0.4-0.3,1.1-0.3,1.5-0.1l10.3,5.9
						c0.4,0.2,0.3,0.6-0.1,0.9l-4.7,2.7C328.4,192.5,327.7,192.6,327.3,192.3z"/>
					<path class="st7" d="M341.5,184.2l-8.7-5c-0.4-0.2-0.3-0.6,0.1-0.9l4.7-2.7c0.4-0.3,1.1-0.3,1.5-0.1l8.7,5
						c0.4,0.2,0.3,0.6-0.1,0.9l-4.7,2.7C342.5,184.4,341.9,184.4,341.5,184.2z"/>
					<path class="st7" d="M269,150.5l-4.7-2.7c-0.4-0.2-0.3-0.6,0.1-0.9l4.7-2.7c0.4-0.3,1.1-0.3,1.5-0.1l4.7,2.7
						c0.4,0.2,0.3,0.6-0.1,0.9l-4.8,2.7C270,150.7,269.3,150.7,269,150.5z"/>
					<path class="st7" d="M261.5,146.2l-4.7-2.7c-0.4-0.2-0.3-0.6,0.1-0.9l4.7-2.7c0.4-0.3,1.1-0.3,1.5-0.1l4.7,2.7
						c0.4,0.2,0.3,0.6-0.1,0.9l-4.7,2.7C262.5,146.4,261.9,146.4,261.5,146.2z"/>
					<path class="st7" d="M254,141.9l-4.7-2.7c-0.4-0.2-0.3-0.6,0.1-0.9l4.7-2.7c0.4-0.3,1.1-0.3,1.5-0.1l4.7,2.7
						c0.4,0.2,0.3,0.6-0.1,0.9l-4.7,2.7C255.1,142.1,254.4,142.1,254,141.9z"/>
					<path class="st7" d="M246.6,137.6l-4.7-2.7c-0.4-0.2-0.3-0.6,0.1-0.9l4.7-2.7c0.4-0.3,1.1-0.3,1.5-0.1l4.7,2.7
						c0.4,0.2,0.3,0.6-0.1,0.9l-4.7,2.7C247.6,137.8,247,137.8,246.6,137.6z"/>
					<path class="st7" d="M276.2,154.7l-4.7-2.7c-0.4-0.2-0.3-0.6,0.1-0.9l4.7-2.7c0.4-0.3,1.1-0.3,1.5-0.1l4.7,2.7
						c0.4,0.2,0.3,0.6-0.1,0.9l-4.7,2.7C277.3,154.9,276.6,154.9,276.2,154.7z"/>
					<path class="st7" d="M283.5,158.9l-4.7-2.7c-0.4-0.2-0.3-0.6,0.1-0.9l4.7-2.7c0.4-0.3,1.1-0.3,1.5-0.1l4.7,2.7
						c0.4,0.2,0.3,0.6-0.1,0.9l-4.7,2.7C284.5,159.1,283.9,159.1,283.5,158.9z"/>
					<path class="st7" d="M290.8,163.1l-4.7-2.7c-0.4-0.2-0.3-0.6,0.1-0.9l4.7-2.7c0.4-0.3,1.1-0.3,1.5-0.1l4.7,2.7
						c0.4,0.2,0.3,0.6-0.1,0.9l-4.7,2.7C291.8,163.3,291.1,163.3,290.8,163.1z"/>
					<path class="st7" d="M298,167.3l-4.7-2.7c-0.4-0.2-0.3-0.6,0.1-0.9l4.7-2.7c0.4-0.3,1.1-0.3,1.5-0.1l4.7,2.7
						c0.4,0.2,0.3,0.6-0.1,0.9l-4.7,2.7C299.1,167.5,298.4,167.5,298,167.3z"/>
					<path class="st7" d="M305.3,171.5l-4.7-2.7c-0.4-0.2-0.3-0.6,0.1-0.9l4.7-2.7c0.4-0.3,1.1-0.3,1.5-0.1l4.7,2.7
						c0.4,0.2,0.3,0.6-0.1,0.9l-4.7,2.7C306.3,171.7,305.7,171.7,305.3,171.5z"/>
					<path class="st7" d="M312.6,175.7l-4.7-2.7c-0.4-0.2-0.3-0.6,0.1-0.9l4.7-2.7c0.4-0.3,1.1-0.3,1.5-0.1l4.7,2.7
						c0.4,0.2,0.3,0.6-0.1,0.9l-4.7,2.7C313.6,175.9,313,175.9,312.6,175.7z"/>
					<path class="st7" d="M319.9,179.9l-4.7-2.7c-0.4-0.2-0.3-0.6,0.1-0.9l4.7-2.7c0.4-0.3,1.1-0.3,1.5-0.1l4.7,2.7
						c0.4,0.2,0.3,0.6-0.1,0.9l-4.7,2.7C320.9,180.1,320.2,180.1,319.9,179.9z"/>
					<path class="st7" d="M327.1,184.1l-4.7-2.7c-0.4-0.2-0.3-0.6,0.1-0.9l4.7-2.7c0.4-0.3,1.1-0.3,1.5-0.1l4.7,2.7
						c0.4,0.2,0.3,0.6-0.1,0.9l-4.7,2.7C328.2,184.2,327.5,184.3,327.1,184.1z"/>
					<path class="st7" d="M334.4,188.3l-4.7-2.7c-0.4-0.2-0.3-0.6,0.1-0.9l4.7-2.7c0.4-0.3,1.1-0.3,1.5-0.1l4.7,2.7
						c0.4,0.2,0.3,0.6-0.1,0.9l-4.7,2.7C335.4,188.4,334.8,188.5,334.4,188.3z"/>
					<path class="st7" d="M265.1,140.1l-4.7-2.7c-0.4-0.2-0.3-0.6,0.1-0.9l4.7-2.7c0.4-0.3,1.1-0.3,1.5-0.1l4.7,2.7
						c0.4,0.2,0.3,0.6-0.1,0.9l-4.7,2.7C266.2,140.3,265.5,140.3,265.1,140.1z"/>
					<path class="st7" d="M257.9,135.9l-4.7-2.7c-0.4-0.2-0.3-0.6,0.1-0.9l4.7-2.7c0.4-0.3,1.1-0.3,1.5-0.1l4.7,2.7
						c0.4,0.2,0.3,0.6-0.1,0.9l-4.7,2.7C258.9,136.1,258.3,136.1,257.9,135.9z"/>
					<path class="st7" d="M250.7,131.7L246,129c-0.4-0.2-0.3-0.6,0.1-0.9l4.7-2.7c0.4-0.3,1.1-0.3,1.5-0.1l4.7,2.7
						c0.4,0.2,0.3,0.6-0.1,0.9l-4.7,2.7C251.7,131.9,251,132,250.7,131.7z"/>
					<path class="st7" d="M243.4,127.6l-4.7-2.7c-0.4-0.2-0.3-0.6,0.1-0.9l4.7-2.7c0.4-0.3,1.1-0.3,1.5-0.1l4.7,2.7
						c0.4,0.2,0.3,0.6-0.1,0.9l-4.7,2.7C244.5,127.7,243.8,127.8,243.4,127.6z"/>
					<path class="st7" d="M250.9,123.3l-4.7-2.7c-0.4-0.2-0.3-0.6,0.1-0.9l1.5-0.9c0.4-0.3,1.1-0.3,1.5-0.1l4.7,2.7
						c0.4,0.2,0.3,0.6-0.1,0.9l-1.5,0.9C251.9,123.4,251.2,123.5,250.9,123.3z"/>
					<path class="st7" d="M260.3,128.7l-4.7-2.7c-0.4-0.2-0.3-0.6,0.1-0.9l1.5-0.9c0.4-0.3,1.1-0.3,1.5-0.1l4.7,2.7
						c0.4,0.2,0.3,0.6-0.1,0.9l-1.5,0.9C261.3,128.9,260.7,128.9,260.3,128.7z"/>
					<path class="st7" d="M267.5,132.9l-4.7-2.7c-0.4-0.2-0.3-0.6,0.1-0.9l1.5-0.9c0.4-0.3,1.1-0.3,1.5-0.1l4.7,2.7
						c0.4,0.2,0.3,0.6-0.1,0.9l-1.5,0.9C268.5,133.1,267.9,133.1,267.5,132.9z"/>
					<path class="st7" d="M274.7,137l-4.7-2.7c-0.4-0.2-0.3-0.6,0.1-0.9l1.5-0.9c0.4-0.3,1.1-0.3,1.5-0.1l4.7,2.7
						c0.4,0.2,0.3,0.6-0.1,0.9l-1.5,0.9C275.7,137.2,275.1,137.2,274.7,137z"/>
					<path class="st7" d="M281.9,141.2l-4.7-2.7c-0.4-0.2-0.3-0.6,0.1-0.9l1.5-0.9c0.4-0.3,1.1-0.3,1.5-0.1l4.7,2.7
						c0.4,0.2,0.3,0.6-0.1,0.9l-1.5,0.9C283,141.4,282.3,141.4,281.9,141.2z"/>
					<path class="st7" d="M322.1,164.4l-4.7-2.7c-0.4-0.2-0.3-0.6,0.1-0.9l1.5-0.9c0.4-0.3,1.1-0.3,1.5-0.1l4.7,2.7
						c0.4,0.2,0.3,0.6-0.1,0.9l-1.5,0.9C323.2,164.6,322.5,164.6,322.1,164.4z"/>
					<path class="st7" d="M329.3,168.6l-4.7-2.7c-0.4-0.2-0.3-0.6,0.1-0.9l1.5-0.9c0.4-0.3,1.1-0.3,1.5-0.1l4.7,2.7
						c0.4,0.2,0.3,0.6-0.1,0.9l-1.5,0.9C330.4,168.8,329.7,168.8,329.3,168.6z"/>
					<path class="st7" d="M336.6,172.7l-4.7-2.7c-0.4-0.2-0.3-0.6,0.1-0.9l1.5-0.9c0.4-0.3,1.1-0.3,1.5-0.1l4.7,2.7
						c0.4,0.2,0.3,0.6-0.1,0.9l-1.5,0.9C337.6,172.9,336.9,173,336.6,172.7z"/>
					<path class="st7" d="M343.8,176.9l-4.7-2.7c-0.4-0.2-0.3-0.6,0.1-0.9l1.5-0.9c0.4-0.3,1.1-0.3,1.5-0.1l4.7,2.7
						c0.4,0.2,0.3,0.6-0.1,0.9l-1.5,0.9C344.8,177.1,344.1,177.1,343.8,176.9z"/>
					<path class="st7" d="M272.4,144.3l-4.7-2.7c-0.4-0.2-0.3-0.6,0.1-0.9l4.7-2.7c0.4-0.3,1.1-0.3,1.5-0.1l4.7,2.7
						c0.4,0.2,0.3,0.6-0.1,0.9l-4.7,2.7C273.4,144.5,272.8,144.5,272.4,144.3z"/>
					<path class="st7" d="M279.7,148.5l-4.7-2.7c-0.4-0.2-0.3-0.6,0.1-0.9l4.7-2.7c0.4-0.3,1.1-0.3,1.5-0.1l4.7,2.7
						c0.4,0.2,0.3,0.6-0.1,0.9l-4.7,2.7C280.7,148.7,280,148.7,279.7,148.5z"/>
					<path class="st7" d="M286.9,152.7l-4.7-2.7c-0.4-0.2-0.3-0.6,0.1-0.9l4.7-2.7c0.4-0.3,1.1-0.3,1.5-0.1l4.7,2.7
						c0.4,0.2,0.3,0.6-0.1,0.9l-4.7,2.7C288,152.9,287.3,152.9,286.9,152.7z"/>
					<path class="st7" d="M294.2,156.9l-4.7-2.7c-0.4-0.2-0.3-0.6,0.1-0.9l4.7-2.7c0.4-0.3,1.1-0.3,1.5-0.1l4.7,2.7
						c0.4,0.2,0.3,0.6-0.1,0.9l-4.7,2.7C295.2,157.1,294.6,157.1,294.2,156.9z"/>
					<path class="st7" d="M301.5,161.1l-4.7-2.7c-0.4-0.2-0.3-0.6,0.1-0.9l4.7-2.7c0.4-0.3,1.1-0.3,1.5-0.1l4.7,2.7
						c0.4,0.2,0.3,0.6-0.1,0.9L303,161C302.5,161.3,301.9,161.3,301.5,161.1z"/>
					<path class="st7" d="M308.8,165.3l-4.7-2.7c-0.4-0.2-0.3-0.6,0.1-0.9l4.7-2.7c0.4-0.3,1.1-0.3,1.5-0.1l4.7,2.7
						c0.4,0.2,0.3,0.6-0.1,0.9l-4.7,2.7C309.8,165.5,309.1,165.5,308.8,165.3z"/>
					<path class="st7" d="M316,169.5l-4.7-2.7c-0.4-0.2-0.3-0.6,0.1-0.9l4.7-2.7c0.4-0.3,1.1-0.3,1.5-0.1l4.7,2.7
						c0.4,0.2,0.3,0.6-0.1,0.9l-4.7,2.7C317.1,169.7,316.4,169.7,316,169.5z"/>
					<path class="st7" d="M323.3,173.7l-4.7-2.7c-0.4-0.2-0.3-0.6,0.1-0.9l4.7-2.7c0.4-0.3,1.1-0.3,1.5-0.1l4.7,2.7
						c0.4,0.2,0.3,0.6-0.1,0.9l-4.7,2.7C324.3,173.9,323.7,173.9,323.3,173.7z"/>
					<path class="st7" d="M330.6,177.9l-4.7-2.7c-0.4-0.2-0.3-0.6,0.1-0.9l4.7-2.7c0.4-0.3,1.1-0.3,1.5-0.1l4.7,2.7
						c0.4,0.2,0.3,0.6-0.1,0.9l-4.7,2.7C331.6,178.1,330.9,178.1,330.6,177.9z"/>
					<path class="st7" d="M230.8,144.8l-13.9-8c-0.4-0.2-0.3-0.6,0.1-0.9l4.7-2.7c0.4-0.3,1.1-0.3,1.5-0.1l13.9,8
						c0.4,0.2,0.3,0.6-0.1,0.9l-4.7,2.7C231.9,145,231.2,145,230.8,144.8z"/>
					<path class="st7" d="M320.2,196.4l-13.9-8c-0.4-0.2-0.3-0.6,0.1-0.9l4.7-2.7c0.4-0.3,1.1-0.3,1.5-0.1l13.9,8
						c0.4,0.2,0.3,0.6-0.1,0.9l-4.7,2.7C321.2,196.6,320.5,196.6,320.2,196.4z"/>
					<path class="st7" d="M291.1,188.9l-4.7-2.7c-0.4-0.2-0.3-0.6,0.1-0.9l5.6-3.2c0.4-0.3,1.1-0.3,1.5-0.1l4.7,2.7
						c0.4,0.2,0.3,0.6-0.1,0.9l-5.6,3.2C292.1,189.1,291.5,189.1,291.1,188.9z"/>
					<path class="st7" d="M238.3,158.4l-7.5-4.3c-0.4-0.2-0.3-0.6,0.1-0.9l5.6-3.2c0.4-0.3,1.1-0.3,1.5-0.1l7.5,4.3
						c0.4,0.2,0.3,0.6-0.1,0.9l-5.6,3.2C239.3,158.6,238.6,158.6,238.3,158.4z"/>
					<path class="st7" d="M284.1,184.8l-7.5-4.3c-0.4-0.2-0.3-0.6,0.1-0.9l5.6-3.2c0.4-0.3,1.1-0.3,1.5-0.1l7.5,4.3
						c0.4,0.2,0.3,0.6-0.1,0.9l-5.6,3.2C285.1,185,284.4,185,284.1,184.8z"/>
					<path class="st7" d="M248.8,164.4l-7.5-4.3c-0.4-0.2-0.3-0.6,0.1-0.9l5.6-3.2c0.4-0.3,1.1-0.3,1.5-0.1l7.5,4.3
						c0.4,0.2,0.3,0.6-0.1,0.9l-5.6,3.2C249.8,164.6,249.1,164.7,248.8,164.4z"/>
					<path class="st7" d="M248.4,156l32.7,18.9c0.4,0.2,0.4,0.6,0,0.8l-5.7,3.3c-0.4,0.2-1.1,0.2-1.5,0l-32.7-18.9L248.4,156z"/>
					<path class="st7" d="M311.4,196.5l5.2,3c0.3,0.2,0.3,0.5-0.1,0.7l-2.3,1.3c-0.4,0.2-0.9,0.2-1.2,0.1l-5.2-3
						c-0.3-0.2-0.3-0.5,0.1-0.7l2.3-1.3C310.5,196.3,311.1,196.3,311.4,196.5z"/>
					<path class="st7" d="M304.1,192.2l5.2,3c0.3,0.2,0.3,0.5-0.1,0.7l-2.3,1.3c-0.4,0.2-0.9,0.2-1.2,0.1l-5.2-3
						c-0.3-0.2-0.3-0.5,0.1-0.7l2.3-1.3C303.2,192.1,303.8,192.1,304.1,192.2z"/>
					<path class="st7" d="M296.8,188l5.2,3c0.3,0.2,0.3,0.5-0.1,0.7l-2.3,1.3c-0.4,0.2-0.9,0.2-1.2,0.1l-5.2-3
						c-0.3-0.2-0.3-0.5,0.1-0.7l2.3-1.3C295.9,187.9,296.5,187.9,296.8,188z"/>
					<path class="st7" d="M308.1,189.9l5.2,3c0.3,0.2,0.3,0.5-0.1,0.7l-2.3,1.3c-0.4,0.2-0.9,0.2-1.2,0.1l-5.2-3
						c-0.3-0.2-0.3-0.5,0.1-0.7l2.3-1.3C307.2,189.8,307.8,189.7,308.1,189.9z"/>
				</g>
			</g>
		</g>
	</g>
	<g>
		<g>
			<path class="st8" d="M213,40.1l-23.7-13.7c-0.4-0.3-0.9-0.3-1.2-0.1l0,0l-2.4,1.3c0,0,1,0.4,1.6,0.6v17.3c0,1.4,0.8,3.1,1.9,3.7
				l22.7,13.1v2l2.3-1.3l0,0c0.4-0.2,0.7-0.7,0.7-1.5V43.7C214.9,42.3,214,40.7,213,40.1z"/>
			<path class="st9" d="M210.6,64.2l-23.7-13.7c-1-0.6-1.9-2.2-1.9-3.7V29.2c0-1.4,0.8-2.1,1.9-1.4l23.7,13.7c1,0.6,1.9,2.2,1.9,3.7
				v17.7C212.6,64.1,211.7,64.8,210.6,64.2z"/>
		</g>
		<g>
			<path class="st5" d="M194.9,44.4c0,1-0.7,1.4-1.6,0.9c-0.9-0.5-1.6-1.8-1.6-2.8s0.7-1.4,1.6-0.9
				C194.2,42.1,194.9,43.4,194.9,44.4z"/>
			<path class="st5" d="M199.7,47.2c0,1-0.7,1.4-1.6,0.9c-0.9-0.5-1.6-1.7-1.6-2.8c0-1,0.7-1.4,1.6-0.9
				C199,44.9,199.7,46.1,199.7,47.2z"/>
			<path class="st5" d="M204.6,50c0,1-0.7,1.4-1.6,0.9c-0.9-0.5-1.6-1.7-1.6-2.8c0-1,0.7-1.4,1.6-0.9C203.9,47.7,204.6,49,204.6,50z
				"/>
		</g>
	</g>
	<g>
		<g>
			<path class="st10" d="M49.3,194l-23.9-13.8c-0.5-0.2-0.9-0.3-1.3-0.1l0,0l-2.3,1.3c0,0,1,0.4,1.6,0.6v17.4c0,1.4,0.9,3.1,2,3.7
				l22.8,13.2v2l2.3-1.3l0,0c0.4-0.2,0.6-0.8,0.6-1.6v-17.7C51.3,196.3,50.4,194.6,49.3,194z"/>
			<path class="st11" d="M47,218.3l-23.9-13.8c-1.1-0.6-2-2.3-2-3.7V183c0-1.4,0.9-2,2-1.5L47,195.3c1.1,0.6,2,2.3,2,3.7v17.8
				C48.9,218.2,48.1,218.9,47,218.3z"/>
		</g>
		<g>
			<path class="st5" d="M31.1,198.4c0,1-0.7,1.4-1.6,0.9s-1.6-1.8-1.6-2.8s0.7-1.4,1.6-0.9C30.4,196.1,31.1,197.3,31.1,198.4z"/>
			<path class="st5" d="M36,201.2c0,1-0.7,1.4-1.6,0.9s-1.6-1.8-1.6-2.8s0.7-1.4,1.6-0.9C35.2,198.9,36,200.2,36,201.2z"/>
			<path class="st5" d="M40.9,204c0,1-0.7,1.4-1.6,0.9s-1.6-1.8-1.6-2.8s0.7-1.4,1.6-0.9S40.9,203,40.9,204z"/>
		</g>
	</g>
</g>
<g>
	<path class="st0" d="M108.7,64.8L66.8,89.4c-10.6-3.3-24.2-2.3-33.1,3c-10.9,6.4-10.8,16.6,0.2,22.8c2.5,1.4,5.3,2.5,8.2,3.2
		c2.1,0.5,4.3,0.9,6.6,1.1c8.7,0.8,18-0.7,24.7-4.6c8.1-4.8,10.1-11.7,6.1-17.5l5.8-3.4L85,90.4l6.1,0L91,86.9l6.1,0l-0.2-3.4l6.1,0
		l-0.2-3.4l6.1,0l-0.2-3.4l6.5,0l2-1.2l2.2-9L108.7,64.8z M49.7,111.9c-2.8,1.7-7.4,1.7-10.3,0.1c-2.9-1.6-2.9-4.3,0-5.9
		c2.8-1.7,7.4-1.7,10.3-0.1C52.5,107.5,52.5,110.2,49.7,111.9z"/>
	<path class="st0" d="M147.8,230l-56.5-32.5c-3.8-2.2-3.3-6,1.1-8.6l54.9-31.7c4.4-2.5,11-2.8,14.9-0.6l56.5,32.5
		c3.8,2.2,3.3,6-1.1,8.6l-54.9,31.7C158.3,231.9,151.6,232.2,147.8,230z"/>
	<g>
		<g>
			<path class="st12" d="M214.1,156.3l-9.8-5.6l36-20.8c1.7-1,1.7-2.6,0-3.6L203.6,105c-1.7-1-4.5-1-6.2,0l-36,20.8l-9.8-5.6
				l36-20.8c7.1-4.1,18.6-4.1,25.7,0l36.8,21.3c7.1,4.1,7.1,10.8,0,14.9L214.1,156.3z"/>
		</g>
		<g>
			<path class="st13" d="M229.9,158.8c0-5.2-3.2-11.3-7.1-13.6l-65.3-37.7c-1.8-1-3.4-1.1-4.6-0.4l0,0l-78,45.3l75.4,56.8l76.8-44.6
				c0.2-0.1,0.5-0.2,0.7-0.4l0,0l0,0C229.1,163.3,229.9,161.4,229.9,158.8z"/>
			<path class="st14" d="M150.3,209.2l76.8-44.6c0.2-0.1,0.5-0.2,0.7-0.4l0,0l0,0c1.3-1,2.1-2.9,2.1-5.5c0-2.5-0.7-5.2-1.9-7.6
				l-87.6,50.6L150.3,209.2z"/>
			<path class="st12" d="M145.4,209l-65.3-37.7c-3.9-2.3-7.1-8.3-7.1-13.6l0,0c0-5.2,3.2-7.6,7.1-5.4l65.3,37.7
				c3.9,2.3,7.1,8.3,7.1,13.6l0,0C152.5,208.9,149.3,211.3,145.4,209z"/>
		</g>
		<path class="st5" d="M135.6,196.3l-7.9-4.5c-0.8-0.5-1.4-1.7-1.4-2.7l0,0c0-1,0.6-1.5,1.4-1.1l7.9,4.5c0.8,0.5,1.4,1.7,1.4,2.7
			l0,0C137,196.3,136.4,196.8,135.6,196.3z"/>
	</g>
	<g>
		<g>
			<polygon class="st15" points="60.5,54 73.9,61.6 87.6,53.6 87.5,50.1 87.4,50.1 87.4,49.9 93.5,49.8 93.5,46.4 99.4,46.4 
				99.4,42.9 105.4,42.9 105.3,39.4 111.3,39.4 111.3,35.9 117.6,35.9 119.6,34.7 121.8,25.7 121.8,22.2 120.7,25.6 111.1,24.3 			
				"/>
			<g>
				<g>
					<g>
						<g>
							<g>
								<polygon class="st13" points="73.8,58.1 87.5,50.1 87.4,46.4 93.5,46.3 93.3,42.9 99.4,42.9 99.2,39.4 105.3,39.4 
									105.2,35.9 111.3,35.9 111.1,32.5 117.6,32.4 119.6,31.2 121.8,22.2 111,20.8 60.4,50.5 								"/>
							</g>
						</g>
						<g>
							<g>
								<path class="st15" d="M83,52.7c-1.4-2-3.4-3.8-6.2-5.4c-2-1.1-4.1-2-6.4-2.7l-9.9,5.8l13.4,7.6L83,52.7z"/>
							</g>
						</g>
						<g>
							<g>
								<polygon class="st12" points="121.4,23.7 121.8,22.2 120,22 77.2,47.1 79.5,48.3 								"/>
							</g>
						</g>
						<g>
							<g>
								<polygon class="st16" points="28,65 27.9,60 29.5,63.4 								"/>
							</g>
						</g>
						<path class="st15" d="M36.3,76.2c11,6.2,28.7,6.1,39.5-0.3c5.5-3.2,8.2-7.4,8.1-11.5l0,0l-0.2-5.3l-0.9,1
							c-1.3-2.6-3.7-5-7.2-7.1c-11-6.2-28.7-6.1-39.5,0.3C25.3,59.7,25.3,69.9,36.3,76.2z M52.1,66.9c2.9,1.6,2.9,4.3,0,5.9
							c-2.8,1.7-7.4,1.7-10.3,0.1c-2.9-1.6-2.9-4.3,0-5.9C44.7,65.3,49.3,65.2,52.1,66.9z"/>
						<g>
							<g>
								<path class="st17" d="M36.1,71.2c11,6.2,28.7,6.1,39.5-0.3c10.9-6.4,10.8-16.6-0.2-22.8c-11-6.2-28.7-6.1-39.5,0.3
									C25.1,54.7,25.2,65,36.1,71.2z M52,61.9c2.9,1.6,2.9,4.3,0,5.9c-2.8,1.7-7.4,1.7-10.3,0.1c-2.9-1.6-2.9-4.3,0-5.9
									C44.5,60.3,49.1,60.3,52,61.9z"/>
							</g>
						</g>
						<path class="st12" d="M48.9,73.9c-2.4,0.4-5.1,0-7-1c-2-1.2-2.6-2.9-1.8-4.3l-5-3.9c0,0-2.6-2.9-5.2-5.8
							c-4,5.8-1.9,12.7,6.3,17.4c3.6,2.1,7.7,3.2,12.3,3.9L48.9,73.9z"/>
						<g>
							<g>
								<path class="st13" d="M36.1,71.2c2.5,1.4,5.3,2.5,8.2,3.2c2.1,0.5,4.3,0.9,6.6,1.1c8.7,0.8,18-0.7,24.7-4.6
									c10.9-6.4,10.8-16.6-0.2-22.8c-11-6.2-28.7-6.1-39.5,0.3C25.1,54.7,25.2,65,36.1,71.2z M52,61.9c2.9,1.6,2.9,4.3,0,5.9
									c-2.8,1.7-7.4,1.7-10.3,0.1c-2.9-1.6-2.9-4.3,0-5.9C44.5,60.3,49.1,60.3,52,61.9z"/>
							</g>
						</g>
						<g>
							<g>
								<g>
									<path class="st15" d="M31,59.9c0.5-3.2,2.9-6.3,7.1-8.8c9.7-5.7,25.4-5.8,35.2-0.2c4.8,2.8,7.3,6.4,7.4,10
										c0.7-4.1-1.7-8.4-7.2-11.6c-9.8-5.5-25.5-5.4-35.2,0.2C33.3,52.5,30.9,56.2,31,59.9z"/>
								</g>
							</g>
						</g>
					</g>
					<g>
						<g>
							<g>
								<g>
									<path class="st15" d="M24.4,105.1c-2,0-3.8-0.5-5.5-1.4c-3.9-2.2-6.1-6.7-6.2-12.6c-0.1-10.8,7.4-24,16.7-29.4
										c5.1-3,10.1-3.4,14-1.2c1.7,1,3,2.3,4.1,4.1c1.4,2.3,2.1,5.2,2.1,8.5c0.1,10.8-7.4,24-16.7,29.4
										C29.9,104.2,27,105.1,24.4,105.1z M37.9,63c-2,0-4.2,0.7-6.5,2c-8.2,4.8-14.8,16.5-14.8,26c0,4.4,1.5,7.7,4.2,9.2
										c2.6,1.5,6.2,1.1,10-1.1c8.2-4.8,14.8-16.5,14.8-26c0-2.6-0.6-4.9-1.5-6.6l0,0c-0.7-1.1-1.5-2-2.6-2.6
										C40.4,63.3,39.2,63,37.9,63z"/>
								</g>
							</g>
						</g>
					</g>
				</g>
			</g>
		</g>
		<path class="st13" d="M43.1,71.7l7.8,1.9l1.1-5.8c-2.8,1.7-7.4,1.7-10.3,0.1L43.1,71.7z"/>
		<path class="st13" d="M36.1,71.2c2.5,1.4,5.3,2.5,8.2,3.2c2.1,0.5,4.3,0.9,6.6,1.1c8.7,0.8,18-0.7,24.7-4.6l-31.8-0.7L36.1,71.2z"
			/>
		<path class="st15" d="M47.9,75.2c0,0-3.4-0.5-6.9-1.8v4.9c1.7,0.6,4.4,1.4,6.8,1.7C55.1,81,47.9,75.2,47.9,75.2z"/>
	</g>
	<path class="st12" d="M42.8,74c-1.5-0.4-3-1-4.5-1.7c-4.3-2,1.1,5.4,1.1,5.4s1.4,0.6,3.4,1.2V74z"/>
</g>
<path class="st12" d="M149.4,161.7l-24.5,16.5l-6.8-1.1l38.4-25.8l0,0C155.5,155.6,153,159.3,149.4,161.7z"/>
<path class="st12" d="M137.6,153.9l-24.5,16.5l-6.8-1.1l38.4-25.8l0,0C143.7,147.8,141.2,151.5,137.6,153.9z"/>
<g>
	<g transform="translate(4.170399, 0.000000)">
		<path class="st8" d="M117.8,214.5c0,0-4-2-6.5,1c-2.5,3.1-5.9,10.1-6.1,14.9c-0.1,4.8,3.7,4.5,6.1,3.3c2.3-1.2,9.1-11,9.6-12.9
			c0.4-1.9-0.4-4.5-1.2-5.1C119.1,215.3,117.8,214.5,117.8,214.5z"/>
		<path class="st18" d="M118.6,213.5l0.1,4.2c0,0.9-0.4,1.7-1.2,2.1c-0.8,0.4-1.7,0.7-3.1,0.4c-3.1-0.4-3.3-1.3-3.5-5.5
			C111,210.6,118.6,213.5,118.6,213.5z"/>
		<g transform="translate(0.000000, 105.426378)">
			<path class="st8" d="M103.1,101.1c0,0-4-2-6.5,1c-2.5,3.1-5.9,10.1-6,14.9s3.7,4.5,6.1,3.3c2.3-1.2,9.1-11,9.6-12.9
				c0.4-1.9-0.4-4.5-1.2-5.1C104.5,101.9,103.1,101.1,103.1,101.1z"/>
			<path class="st18" d="M104,100.2l0.1,4.2c0,0.9-0.4,1.7-1.2,2.1c-0.7,0.4-1.7,0.7-3.1,0.4c-3.1-0.4-3.3-1.3-3.5-5.5
				C96.2,97.3,104,100.2,104,100.2z"/>
			<path class="st19" d="M139.7,24.1C138.6,4.9,119,27,119,27l-13.4,13.1L93.3,53.4c-2.3,2.6-3.5,6.1-3,9.6l4.9,37.3
				c0.3,1.9,1.9,3.2,3.6,3.2c0.6,0,1.2,0,1.9-0.1c4.4-0.7,4-4.8,4-4.8l-0.8-34.9l25.4-15.3C129.3,48.2,140.9,43.3,139.7,24.1z"/>
		</g>
		<path class="st19" d="M154.3,136.9c-1.2-19.2-20.8,2.9-20.8,2.9L120.1,153l-12.1,13.3c-2.3,2.6-3.5,6.1-3.1,9.6l4.9,37.3
			c0.3,1.9,1.9,3.2,3.6,3.2c0.6,0,1.2,0,1.9-0.1c4.4-0.7,4-4.8,4-4.8l-0.9-34.9l25.5-15.3C143.9,161.1,155.5,156.1,154.3,136.9z"/>
		<path class="st20" d="M142.8,75c14.9,6.2,14.6,15,14.6,15s-2.9,32.2-1.9,53.9c0.4,8.9-47.8,9.7-40.8-14.3
			c8.5-28.4,5.3-51.3,9.2-54.8C128,71.3,138.8,73.4,142.8,75z"/>
		<path class="st21" d="M147.5,82.9c-0.7,3.1-4.8,4.6-8.8,3.6c-4-1-6.8-4.4-6.1-7.3c0.7-3.1,4.8-4.6,8.8-3.6
			C145.5,76.6,148.3,80,147.5,82.9z"/>
		<path class="st5" d="M141.2,87.5c-0.9,0-1.9-0.1-2.8-0.3c-4.5-1.2-7.3-4.9-6.5-8.2c0.4-1.7,1.7-3.1,3.6-3.7c1.9-0.7,4-0.9,6.1-0.3
			c2.1,0.6,4,1.7,5.2,3.2c1.3,1.6,1.7,3.3,1.3,5.1c-0.4,1.7-1.7,3.1-3.6,3.7C143.5,87.3,142.3,87.5,141.2,87.5z M138.8,75.9
			c-1,0-2,0.1-2.9,0.6c-1.5,0.6-2.4,1.6-2.8,2.9c-0.7,2.6,1.7,5.6,5.5,6.5c1.9,0.4,3.7,0.4,5.2-0.3c1.5-0.6,2.4-1.6,2.8-2.9l0,0
			c0.3-1.3,0-2.6-1-3.7c-1-1.3-2.6-2.3-4.5-2.8C140.4,76.1,139.7,75.9,138.8,75.9z"/>
		<path class="st21" d="M136.7,74.5c0,0,0.1,0.6-0.1,5.3c-0.1,1.5,5.1,2.9,6.5,1.6c1.3-1.3,0.9-2.8,1.2-7.8
			C144.5,68.4,136.7,74.5,136.7,74.5z"/>
		<path class="st22" d="M144.2,73.4c0,0-1.3,4.6-7.7,6.5l0.1-4.2L144.2,73.4z"/>
		<circle class="st21" cx="137.1" cy="64.4" r="11.4"/>
		<path class="st22" d="M139.7,64.9c0,0-6.4,2.8-10.7,2.8c-4.3,0-3.5-3.6-3.5-3.6l13-1.9L139.7,64.9z"/>
		<path class="st10" d="M127.8,65.6c0,0,5.5-2.3,10.3-1.3c1.2,0.3,2.1,0.9,2.9,1.7c0.3,0.3,0.6,0.6,0.9,0.6c0.9,0.1,2.3-3.3,3.9-3.5
			c1.7-0.1,2.8,1.2,1.5,3.3c-1.3,2.1-0.9,4.6-0.3,4.9c0.6,0.3,7.2-4.8,1.5-16.4c-6-11.5-20.9-5.3-23.2-3c0,0-2.4,2.1-4.5,0.3
			C120.8,52.2,118.5,68.9,127.8,65.6z"/>
		<path class="st21" d="M149,113.7v8.7c0,1-0.4,2-1.2,2.6l-18,16.4l2,3.2l23.8-17.3c1.2-0.9,1.9-2,2-3.3l1.6-15.2L149,113.7z"/>
		<path class="st20" d="M156,85.7c0,0,5.5,8.2,7.5,29.8c0,0-9.2,3.1-14.6,1.3C143.6,115.1,156,85.7,156,85.7z"/>
		<path class="st15" d="M148,96c0,0-2.1,11.4-2.3,16.8c0,1.5,0.9,2.8,2.3,3.3l0,0V96z"/>
	</g>
	<g transform="translate(4.170399, 124.193173)">
		<path class="st23" d="M143.4,28.6l-3.9-0.6l-25.6-14.8c-0.8-0.4-2.3-0.4-3.1,0.1L92.6,23.8l-2.4-0.3V26l0,0c0,0.3,0.1,0.6,0.6,0.9
			l29,16.8c0.9,0.4,2.3,0.4,3.2-0.1l19.8-11.4c0.6-0.3,0.9-0.7,0.7-1l0,0v-2.4H143.4z"/>
		<path class="st24" d="M124.2,19.2l-1.9-1h-19.9l-9.8,5.6L90,23.6V26l0,0c0,0.3,0.1,0.6,0.6,0.9l29,16.8c0.4,0.3,1,0.3,1.6,0.3
			L124.2,19.2z"/>
		<path class="st12" d="M91.2,23.7l-1-0.1V26l0,0c0,0.3,0.1,0.6,0.6,0.9l0.6,0.3L91.2,23.7C91.2,23.7,91.2,23.7,91.2,23.7z"/>
		<path class="st25" d="M119.9,43.7c0.7,0.3,1.9,0.3,2.8-0.1v-4h-2.8V43.7z"/>
		<path class="st5" d="M119.6,41l-29-16.8c-0.9-0.4-0.7-1.3,0.3-1.9L110.7,11c1-0.6,2.3-0.6,3.2-0.1l29,16.8
			c0.9,0.4,0.7,1.3-0.3,1.9l-19.8,11.4C121.8,41.4,120.3,41.7,119.6,41z"/>
		<path class="st26" d="M119.1,38.6L95,24.7c-0.7-0.4-0.6-1,0.1-1.6l10.5-5.9c0.7-0.4,2-0.4,2.6-0.1L132.4,31c0.7,0.4,0.6,1-0.1,1.6
			l-10.5,5.9C121,38.9,119.8,39,119.1,38.6z"/>
	</g>
	<path class="st21" d="M115.9,134.7l-0.3,2c-0.3,1.7-0.1,3.5,0.1,5.1l0.3,1.7c0.1,1,1,1.7,2,1.9l0,0c0.7,0.1,1.5-0.4,1.6-1.2
		l0.4-4.4c0,0,1.2,1.5,1.6,1.5c0.6,0-0.6-4.4-1.7-6.7C118.8,132.4,115.9,134.7,115.9,134.7z"/>
	<path class="st21" d="M125.7,102.9l-3.2,6.2c-0.7,1.5-1.2,3.1-1.3,4.6l-1.3,21.1l-4-0.1L114,111c0-0.7,0-1.5,0.1-2.1l2.1-12
		L125.7,102.9z"/>
	<g transform="translate(0.000000, 106.345169)">
		<path class="st23" d="M122.8,60.6l-2.4-3.2L94.7,42.7c-0.9-0.4-1.5-1.7-1.5-2.9V18.8L91.9,17l1.5-0.9l0,0c0.3-0.1,0.6-0.1,1,0
			l28.9,16.8c0.9,0.4,1.5,1.7,1.5,2.9v22.8c0,0.6-0.1,1-0.6,1.2l0,0L122.8,60.6z"/>
		<path class="st24" d="M105.2,48.7l-1.9-1l-10-17.3V18.8L91.9,17l1.5-0.9l0,0c0.3-0.1,0.6-0.1,1,0l28.9,16.8
			c0.4,0.3,0.9,0.7,1.2,1.3L105.2,48.7z"/>
		<path class="st27" d="M92.4,17.7l-0.7-0.9l1.5-0.9l0,0c0.3-0.1,0.6-0.1,1,0l0.5,0.4L92.4,17.7z"/>
		<path class="st25" d="M123.5,33.2c0.6,0.6,1.2,1.6,1.2,2.4l-2.9,1.6l-1.3-2.3L123.5,33.2z"/>
		<path class="st28" d="M121.8,33.7L92.8,17c-0.8-0.4-1.5,0-1.5,1.2V41c0,1.2,0.7,2.3,1.5,2.9l28.9,16.8c0.9,0.4,1.5,0,1.5-1.2V36.7
			C123.4,35.5,122.7,34.2,121.8,33.7z"/>
	</g>
	<path class="st21" d="M136.1,144.6l-0.4,1c-0.6,1.2-1.5,2-2.4,2.8l-2.9,1.7c-0.9,0.6-2,0.6-2.9,0c0,0,0,0-0.1,0
		c-0.9-0.6-1-1.9-0.3-2.6l3.1-3.1c0,0-1.7,1.3-2.1,0.7c-0.3-0.4,1.6-2.3,3.2-2.3s3.1-1.3,3.1-1.3L136.1,144.6z"/>
	<path class="st20" d="M128.4,74.8c0,0-11,12-15.5,23c0,0,3.7,6.8,13,9.4C135.2,109.9,128.4,74.8,128.4,74.8z"/>
	<path class="st15" d="M124,106.6l1.7-17.2l-4.2,16.2C122.2,105.8,123.1,106.1,124,106.6z"/>
	<path class="st5" d="M136.7,72.3l-2.9-0.9c0,0,1.5,2.1,3.5,2.8c2,0.6,2.4-1.2,2.4-1.2L136.7,72.3z"/>
</g>
<g>
	<g>
		<path class="st28" d="M320.3,86.6c1.3,5.1,1.8,10.4,1.3,15.6c-1.1,11-6.4,18.7-13.5,20.8l9.3-23.3c1.7-3.7,2.4-6.9,2.7-10
			C320.3,88.6,320.3,87.6,320.3,86.6z"/>
	</g>
	<g class="st29">
		<g>
			<path class="st28" d="M280.7,70.4l6.6,44c-6.9-8.3-10.9-20.9-9.8-32.7C278,77.4,279.1,73.6,280.7,70.4z"/>
		</g>
		<g>
			<path class="st28" d="M299.7,94.8l4.3,28.4c0,0.2,0.1,0.3,0.1,0.5c-2.4,0-4.9-0.5-7.5-1.7c-2.2-1-4.2-2.4-6.1-4.1L299.7,94.8z"/>
		</g>
		<g>
			<path class="st28" d="M302.5,62c5.7,2.7,10.7,8.1,14.1,14.8c-0.1-0.1-0.2-0.1-0.3-0.2c-2.2-1-3.9,0.8-4.2,3.6
				c-0.2,2.5,0.6,5,1.5,8c0.6,2.4,1.4,5.4,1,9.1c-0.3,2.6-1.3,5.2-2.6,8.9l-3.2,9L304,79.3c1.3,0.5,2.5,0.9,2.5,0.9
				c1.2,0.4,1.3-2,0.2-2.5c-0.1,0-3.7-1.3-6-2.4c-2.2-1-5.6-3-5.8-3.1c-1.2-0.6-1.5,1.8-0.4,2.4c0.1,0,1.1,0.7,2.3,1.4l2.2,14.4
				l-6.8,17.4l-4.8-36.2c1.3,0.5,2.5,0.9,2.5,0.9c1.2,0.4,1.3-2,0.2-2.5c-0.1,0-3.7-1.3-6-2.4c-0.4-0.2-0.9-0.4-1.4-0.7
				C287.6,60.7,294.9,58.4,302.5,62z"/>
		</g>
		<g>
			<path class="st28" d="M303,57.1c14.1,6.6,24.1,27.6,22.2,46.9s-15,29.6-29.1,23C282,120.3,272,99.3,273.9,80S288.9,50.5,303,57.1
				z M296.3,125.3c13.5,6.3,26-3.5,27.8-21.9c1.8-18.4-7.7-38.4-21.2-44.7c-13.5-6.3-26,3.5-27.8,21.9S282.8,119,296.3,125.3"/>
		</g>
	</g>
</g>
</svg>
