<?xml version="1.0" encoding="utf-8"?>
<!-- Generator: Adobe Illustrator 23.0.5, SVG Export Plug-In . SVG Version: 6.00 Build 0)  -->
<svg version="1.1" id="Layer_1" xmlns="http://www.w3.org/2000/svg" xmlns:xlink="http://www.w3.org/1999/xlink" x="0px" y="0px"
	 viewBox="0 0 383 245.1" style="enable-background:new 0 0 383 245.1;" xml:space="preserve">
<style type="text/css">
	.st0{opacity:0.3;fill:#9CBEEB;enable-background:new    ;}
	.st1{opacity:0.3;fill:#D5E1F2;enable-background:new    ;}
	.st2{fill:#0D54A9;}
	.st3{fill:#2378DF;}
	.st4{fill:#3C8EF0;}
	.st5{fill:#2767B3;}
	.st6{fill:#B0D4FF;}
	.st7{fill:#FFFFFF;}
	.st8{enable-background:new    ;}
	.st9{fill:url(#SVGID_1_);}
	.st10{fill:url(#SVGID_2_);}
	.st11{fill:url(#SVGID_3_);}
	.st12{fill:url(#SVGID_4_);}
	.st13{fill:url(#SVGID_5_);}
	.st14{fill:url(#SVGID_6_);}
	.st15{fill:url(#SVGID_7_);}
	.st16{fill:url(#SVGID_8_);}
	.st17{fill:url(#SVGID_9_);}
	.st18{fill:url(#SVGID_10_);}
	.st19{fill:url(#SVGID_11_);}
	.st20{fill:url(#SVGID_12_);}
	.st21{fill:url(#SVGID_13_);}
	.st22{fill:url(#SVGID_14_);}
	.st23{fill:url(#SVGID_15_);}
	.st24{fill:url(#SVGID_16_);}
	.st25{fill:url(#SVGID_17_);}
	.st26{fill:url(#SVGID_18_);}
	.st27{fill:url(#SVGID_19_);}
	.st28{fill:url(#SVGID_20_);}
	.st29{fill:url(#SVGID_21_);}
	.st30{opacity:0.3;enable-background:new    ;}
	.st31{fill:#B5BFCD;}
	.st32{fill:#B6C1CF;}
</style>
<path class="st0" d="M182.2,234c-1.6,0-3-0.3-4-1L75.7,173.6c-1.2-0.7-1.7-1.6-1.7-2.6c0-1.3,0.9-2.4,2.4-3.3l109.8-63.4
	c2.8-1.6,6.9-1.7,9.3-0.4l102.4,59.5c1.2,0.7,1.7,1.6,1.7,2.6c0,1.3-0.9,2.4-2.4,3.3l-109.8,63.4C185.9,233.7,184,234,182.2,234z
	 M178.5,232.3c2.1,1.3,5.9,1,8.3-0.4l109.9-63.4c1.3-0.7,1.9-1.6,1.9-2.5c0-0.7-0.5-1.3-1.3-1.8l-102.4-59.5c-2.1-1.3-5.9-1-8.3,0.4
	L76.8,168.5c-1.3,0.7-1.9,1.6-1.9,2.5c0,0.7,0.5,1.3,1.3,1.8L178.5,232.3z"/>
<g transform="translate(42.424636, 393.262753)">
	<g>
		<path class="st1" d="M135.6-159l-92.8-53.5c-3.9-2.3-3.6-6.3,1.1-8.8l95.7-50.9c4.5-2.7,11.5-2.9,15.5-0.7l92.4,49.5
			c3.9,2.3,3.6,6.3-1.1,8.8l-95.3,55C146.4-157,139.5-156.7,135.6-159z"/>
		<path class="st2" d="M250.1-244.7l-19.2,3.5L155-281.1c-3.9-2.3-10.8-2-15.5,0.7l-87.9,40.3l-11.5-1.6v10.6l0,0
			c-0.2,1.6,0.9,4.9,2.7,6.1l92.9,53.4c3.9,2.3,10.7,2.1,15.4-0.6l95.3-55c2.5-1.6,3.8-3.4,3.8-5.2l0,0L250.1-244.7L250.1-244.7z"/>
		<path class="st3" d="M201.5-263l-11.1-6.1l-90.9,11.8l-47.9,17.4L40-241.5v10.6l0,0c-0.2,1.6,0.9,4.9,2.7,6.1l86.6,49.9
			c2.1,1.3,4.4,2.4,7.8,4L201.5-263z"/>
		<path class="st4" d="M45.2-240.9l-5.1-0.7v10.6l0,0c-0.2,1.6,0.9,4.9,2.7,6.1l2.5,1.4V-241L45.2-240.9L45.2-240.9z"/>
		<path class="st5" d="M137-170.8c3.8,1.4,9.2,1.1,13.1-0.9v-14.6H137V-170.8z"/>
		<path class="st6" d="M135.6-184l-92.8-53.6c-3.9-2.3-3.6-6.3,1.1-8.8l95.7-50.9c4.5-2.7,11.5-2.9,15.5-0.7l92.4,49.5
			c3.9,2.3,3.6,6.3-1.1,8.8l-95.3,55C146.4-182,139.5-181.8,135.6-184z"/>
		<path class="st7" d="M246.3-242L151-187c-4.5,2.7-11.5,2.9-15.5,0.7l-92.8-53.6c-1.3-0.7-2.1-1.7-2.4-2.7
			c-0.6,1.8,0.2,3.8,2.4,5.1l92.8,53.6c3.9,2.3,10.8,2,15.5-0.7l95.3-55c3.1-1.8,4.3-4.3,3.6-6.2C249.4-244.4,248.3-243.1,246.3-242
			z"/>
	</g>
</g>
<g>
	<g>
		<g class="st8">
			<g>
				
					<linearGradient id="SVGID_1_" gradientUnits="userSpaceOnUse" x1="246.9081" y1="90.6023" x2="275.2365" y2="236.3399" gradientTransform="matrix(1 0 0 -1 0 246)">
					<stop  offset="0" style="stop-color:#FFE3C4"/>
					<stop  offset="1" style="stop-color:#FFCBA3"/>
				</linearGradient>
				<path class="st9" d="M247,146.2c-0.6-0.2-1-1.7-1-4.1c0.8,0.3,1.6,0.7,2.4,1c0.8,0.3,1.6,0.7,2.4,1c0.1,2.4,0.4,3.9,1,4.1
					C250.2,147.6,248.4,146.8,247,146.2z"/>
			</g>
			<g>
				
					<linearGradient id="SVGID_2_" gradientUnits="userSpaceOnUse" x1="245.8322" y1="90.8114" x2="274.1606" y2="236.5491" gradientTransform="matrix(1 0 0 -1 0 246)">
					<stop  offset="0" style="stop-color:#FFE3C4"/>
					<stop  offset="1" style="stop-color:#FFCBA3"/>
				</linearGradient>
				<path class="st10" d="M245.9,142.2c0-0.3,0-0.6,0-0.9c1.6,0.7,3.1,1.3,4.7,2c0,0.3,0,0.6,0,0.9
					C249,143.5,247.5,142.8,245.9,142.2z"/>
			</g>
			<g>
				
					<linearGradient id="SVGID_3_" gradientUnits="userSpaceOnUse" x1="270.9859" y1="85.922" x2="299.3143" y2="231.6597" gradientTransform="matrix(1 0 0 -1 0 246)">
					<stop  offset="0" style="stop-color:#FFE3C4"/>
					<stop  offset="1" style="stop-color:#FFCBA3"/>
				</linearGradient>
				<path class="st11" d="M282,84c1.6,0.7,3.1,1.3,4.7,2c2,4.4-8.3,22.8-2.5,27.1l-4.7-2C273.7,106.7,283.9,88.4,282,84z"/>
			</g>
			<g>
				
					<linearGradient id="SVGID_4_" gradientUnits="userSpaceOnUse" x1="269.7824" y1="86.1559" x2="298.1108" y2="231.8936" gradientTransform="matrix(1 0 0 -1 0 246)">
					<stop  offset="0" style="stop-color:#FFE3C4"/>
					<stop  offset="1" style="stop-color:#FFCBA3"/>
				</linearGradient>
				<path class="st12" d="M282,83.9c1.6,0.7,3.1,1.3,4.7,2l0,0C285.1,85.3,283.5,84.6,282,83.9C282,84,282,83.9,282,83.9z"/>
			</g>
			<g>
				
					<linearGradient id="SVGID_5_" gradientUnits="userSpaceOnUse" x1="269.0235" y1="86.3034" x2="297.3519" y2="232.0411" gradientTransform="matrix(1 0 0 -1 0 246)">
					<stop  offset="0" style="stop-color:#FFE3C4"/>
					<stop  offset="1" style="stop-color:#FFCBA3"/>
				</linearGradient>
				<path class="st13" d="M284.6,88.5l-4.7-2c0.8-1,1.5-1.9,2.1-2.5l4.7,2C286.1,86.6,285.3,87.4,284.6,88.5z"/>
			</g>
			<g>
				
					<linearGradient id="SVGID_6_" gradientUnits="userSpaceOnUse" x1="271.4565" y1="85.8306" x2="299.7849" y2="231.5682" gradientTransform="matrix(1 0 0 -1 0 246)">
					<stop  offset="0" style="stop-color:#FFE3C4"/>
					<stop  offset="1" style="stop-color:#FFCBA3"/>
				</linearGradient>
				<path class="st14" d="M286.7,85.9l-2.1,2.5C285.3,87.4,286.1,86.6,286.7,85.9z"/>
			</g>
			<g>
				
					<linearGradient id="SVGID_7_" gradientUnits="userSpaceOnUse" x1="265.5113" y1="125.5241" x2="263.4634" y2="187.6418" gradientTransform="matrix(1 0 0 -1 0 246)">
					<stop  offset="0" style="stop-color:#FFB579"/>
					<stop  offset="1" style="stop-color:#FFCBA3"/>
				</linearGradient>
				<path class="st15" d="M267.7,109.1l-4.7-2c-0.3-0.1-0.4-0.2-0.5-0.2l4.7,2C267.3,108.9,267.4,109,267.7,109.1z"/>
			</g>
			<g>
				
					<linearGradient id="SVGID_8_" gradientUnits="userSpaceOnUse" x1="269.3221" y1="86.2454" x2="297.6505" y2="231.9832" gradientTransform="matrix(1 0 0 -1 0 246)">
					<stop  offset="0" style="stop-color:#FFE3C4"/>
					<stop  offset="1" style="stop-color:#FFCBA3"/>
				</linearGradient>
				<path class="st16" d="M282,83.9c-0.2-0.4-0.4-0.7-0.8-0.8l4.7,2c0.4,0.2,0.6,0.4,0.8,0.8c-1.4-0.6-2.9-1.2-4.3-1.8
					c-0.1,0-0.1-0.1-0.2-0.1c0,0,0,0-0.1,0C282.1,84,282.1,84,282,83.9C282,84,282,84,282,83.9z"/>
			</g>
			<g>
				
					<linearGradient id="SVGID_9_" gradientUnits="userSpaceOnUse" x1="284.5801" y1="126.1527" x2="282.5323" y2="188.2704" gradientTransform="matrix(1 0 0 -1 0 246)">
					<stop  offset="0" style="stop-color:#FFB579"/>
					<stop  offset="1" style="stop-color:#FFCBA3"/>
				</linearGradient>
				<path class="st17" d="M281.2,83.1l4.7,2c-0.1,0-0.2-0.1-0.3-0.1l-4.7-2C281,83.1,281.1,83.1,281.2,83.1z"/>
			</g>
			<g>
				
					<linearGradient id="SVGID_10_" gradientUnits="userSpaceOnUse" x1="282.9286" y1="126.0983" x2="280.8808" y2="188.216" gradientTransform="matrix(1 0 0 -1 0 246)">
					<stop  offset="0" style="stop-color:#FFB579"/>
					<stop  offset="1" style="stop-color:#FFCBA3"/>
				</linearGradient>
				<path class="st18" d="M282.6,85.3l-4.7-2c0.9-0.4,1.8-0.5,2.8-0.3c0.1,0,0.1,0,0.2,0l4.7,2c-0.1,0-0.1,0-0.2,0
					C284.4,84.8,283.5,84.9,282.6,85.3z"/>
			</g>
			<g>
				
					<linearGradient id="SVGID_11_" gradientUnits="userSpaceOnUse" x1="244.7404" y1="91.1927" x2="272.6981" y2="235.0228" gradientTransform="matrix(1 0 0 -1 0 246)">
					<stop  offset="0" style="stop-color:#FFE3C4"/>
					<stop  offset="1" style="stop-color:#FFCBA3"/>
				</linearGradient>
				<path class="st19" d="M246.2,141.6c-0.1-5.4,0.8-14.2,1.8-22.1c1.6,0.7,2.8,1,4.4,1.6c-1,7.9-1.9,16.7-1.8,22.1
					C249,142.5,247.7,142.2,246.2,141.6z"/>
			</g>
			<g>
				
					<linearGradient id="SVGID_12_" gradientUnits="userSpaceOnUse" x1="273.3467" y1="125.7824" x2="271.299" y2="187.9001" gradientTransform="matrix(1 0 0 -1 0 246)">
					<stop  offset="0" style="stop-color:#FFB579"/>
					<stop  offset="1" style="stop-color:#FFCBA3"/>
				</linearGradient>
				<path class="st20" d="M267.2,108.9l-4.7-2c1.8-5.6,3.8-10.3,5.4-12.1c0.1-0.1,0.2-0.2,0.3-0.4c0.1-0.1,0.1-0.1,0.2-0.2
					s0.1-0.2,0.2-0.3c0.3-0.4,0.6-0.7,0.8-1.1c0.1-0.1,0.1-0.2,0.2-0.2c0.1-0.1,0.2-0.2,0.2-0.3c2.6-3.6,4.9-7.6,7.9-9
					c0.1,0,0.1-0.1,0.2-0.1l4.7,2c-0.1,0-0.1,0-0.2,0.1c-2.9,1.3-5.2,5.4-7.9,9c-0.1,0.1-0.2,0.2-0.2,0.3c-0.1,0.1-0.1,0.2-0.2,0.2
					c-0.3,0.4-0.5,0.7-0.8,1.1c-0.1,0.1-0.1,0.2-0.2,0.3c-0.1,0.1-0.1,0.1-0.2,0.2s-0.2,0.2-0.3,0.4C271,98.6,269,103.3,267.2,108.9
					z"/>
			</g>
			<g>
				
					<linearGradient id="SVGID_13_" gradientUnits="userSpaceOnUse" x1="277.7474" y1="125.9275" x2="275.6996" y2="188.0452" gradientTransform="matrix(1 0 0 -1 0 246)">
					<stop  offset="0" style="stop-color:#FFB579"/>
					<stop  offset="1" style="stop-color:#FFCBA3"/>
				</linearGradient>
				<path class="st21" d="M282.6,85.3c0.9-0.4,1.8-0.5,2.8-0.3c0.1,0,0.1,0,0.2,0c0.5,0.1,0.9,0.4,1.1,0.9c-0.6,0.6-1.3,1.5-2.1,2.5
					c-5.1,6.6-12.8,20-13.8,20.8c-0.1,0.1-0.2,0.2-0.3,0.2c-1.2,0.5-3.1-0.5-3.2-0.5c1.8-5.6,3.8-10.3,5.4-12.1
					c0.1-0.1,0.2-0.2,0.3-0.4c0.1-0.1,0.1-0.1,0.2-0.2s0.1-0.2,0.2-0.3c0.3-0.4,0.6-0.7,0.8-1.1c0.1-0.1,0.1-0.2,0.2-0.2
					c0.1-0.1,0.2-0.2,0.2-0.3C277.2,90.7,279.5,86.7,282.6,85.3C282.5,85.3,282.6,85.3,282.6,85.3z"/>
			</g>
			<g>
				
					<linearGradient id="SVGID_14_" gradientUnits="userSpaceOnUse" x1="243.1328" y1="91.926" x2="270.989" y2="235.2342" gradientTransform="matrix(1 0 0 -1 0 246)">
					<stop  offset="0" style="stop-color:#FFE3C4"/>
					<stop  offset="1" style="stop-color:#FFCBA3"/>
				</linearGradient>
				<path class="st22" d="M248,119.5c1.1-8.6,2.2-16.1,2.3-17l4.4,1.6c-0.1,0.9-1.3,8.4-2.3,17C250.8,120.4,249.5,120.1,248,119.5z"
					/>
			</g>
			<g>
				
					<linearGradient id="SVGID_15_" gradientUnits="userSpaceOnUse" x1="229.7194" y1="92.6809" x2="258.7245" y2="241.8996" gradientTransform="matrix(1 0 0 -1 0 246)">
					<stop  offset="0" style="stop-color:#FFE3C4"/>
					<stop  offset="1" style="stop-color:#FFCBA3"/>
				</linearGradient>
				<path class="st23" d="M254.4,104L243,99.9c-3-1.3-11.4-9.6-13-11.2c-1.6-1.7-4.5-6.1-3.9-8.4c0.7-2.3,24.7-41.4,26.3-43.3
					l16.6,5.9c-1.5,2-30.8,39.3-31.4,41.6c-0.7,2.3,2.2,6.7,3.9,8.4C243,94.4,251.3,102.7,254.4,104z"/>
			</g>
			<g>
				
					<linearGradient id="SVGID_16_" gradientUnits="userSpaceOnUse" x1="253.86" y1="80.7079" x2="283.8702" y2="235.098" gradientTransform="matrix(1 0 0 -1 0 246)">
					<stop  offset="0" style="stop-color:#FFE3C4"/>
					<stop  offset="1" style="stop-color:#FFCBA3"/>
				</linearGradient>
				<path class="st24" d="M298.2,14.7l4.7,2c-4.2-1.8-11.9-3.3-22.8,1.2L263.5,12C274.4,7.5,294.1,13,298.2,14.7z"/>
			</g>
			<g>
				
					<linearGradient id="SVGID_17_" gradientUnits="userSpaceOnUse" x1="239.5003" y1="85.2643" x2="269.4701" y2="239.4461" gradientTransform="matrix(1 0 0 -1 0 246)">
					<stop  offset="0" style="stop-color:#FFE3C4"/>
					<stop  offset="1" style="stop-color:#FFCBA3"/>
				</linearGradient>
				<polygon class="st25" points="269,42.7 252.3,36.8 261.8,12.9 278.4,18.7 				"/>
			</g>
			<g>
				
					<linearGradient id="SVGID_18_" gradientUnits="userSpaceOnUse" x1="254.664" y1="89.0946" x2="282.9924" y2="234.8323" gradientTransform="matrix(1 0 0 -1 0 246)">
					<stop  offset="0" style="stop-color:#FFE3C4"/>
					<stop  offset="1" style="stop-color:#FFCBA3"/>
				</linearGradient>
				<path class="st26" d="M280.1,18c16.8-7,25.9,0.4,26.4,0.8c-7.1,13.8-7.7,37.6-6.1,41c1.6,3.5,1.9,11.6,1.3,16.1
					s-3.2,14.7-3.4,16.9c-0.2,2.1-7.1,9.4-8.9,14.6c-1.3,3.7-3.5,5.1-4.6,5.5c-0.4,0.2-0.6,0.2-0.7,0.2c-5.8-4.3,4.4-22.7,2.5-27.1
					c-0.2-0.5-0.6-0.8-1.1-0.9c-1.2-0.2-2.1-0.1-2.9,0.2c-3.2,1.4-5.5,5.5-8.1,9.1c-0.1,0.1-0.2,0.2-0.2,0.3c-0.4,0.6-0.7,0.9-1,1.3
					c-0.5,0.6-0.6,0.8-0.8,0.9c-1.6,1.8-3.6,6.6-5.4,12.1c-3.1,9.6-5.8,21.5-6,24.9c-0.2,4.6-4.6,12.9-8,14.3
					c-0.5,0.2-1.1,0.3-1.6,0.1c-3.5-1.2,2.7-42,3.1-44.1c-2.6-0.6-11.7-9.6-13.3-11.4c-1.6-1.7-4.5-6.1-3.9-8.4
					c0.7-2.3,29.9-39.7,31.4-41.6l9.5-24C279,18.5,279.6,18.2,280.1,18z"/>
			</g>
			<g>
				
					<linearGradient id="SVGID_19_" gradientUnits="userSpaceOnUse" x1="224.6976" y1="-7.2995" x2="273.3057" y2="242.7691" gradientTransform="matrix(1 0 0 -1 0 246)">
					<stop  offset="0" style="stop-color:#FFE3C4"/>
					<stop  offset="1" style="stop-color:#FFCBA3"/>
				</linearGradient>
				<path class="st27" d="M278.4,18.7l-16.6-5.9c0.6-0.3,1.2-0.5,1.7-0.8l16.6,5.9C279.6,18.2,279,18.5,278.4,18.7z"/>
			</g>
		</g>
	</g>
	
		<linearGradient id="SVGID_20_" gradientUnits="userSpaceOnUse" x1="249.7713" y1="97.1912" x2="249.3642" y2="109.538" gradientTransform="matrix(1 0 0 -1 0 246)">
		<stop  offset="0" style="stop-color:#FFFFFF"/>
		<stop  offset="1" style="stop-color:#FFECDE"/>
	</linearGradient>
	<path class="st28" d="M245.9,140.7c0,0-0.1,4.1,1,6.1s4.8,1.9,4.8,1.9s0.8,0.3,1.4-8C253.5,135,245.5,135.1,245.9,140.7z"/>
	
		<linearGradient id="SVGID_21_" gradientUnits="userSpaceOnUse" x1="287.0271" y1="133.0074" x2="286.7852" y2="140.3466" gradientTransform="matrix(1 0 0 -1 0 246)">
		<stop  offset="0" style="stop-color:#FFE5D4"/>
		<stop  offset="1" style="stop-color:#FFCBA3"/>
	</linearGradient>
	<path class="st29" d="M290.1,105.7c0,0-3.2-0.9-4.9,2.3c-1.7,3.2-1.9,3.8-1,5C284.2,113.1,288.3,113.6,290.1,105.7z"/>
</g>
<g>
	<g>
		<path class="st7" d="M160.4,124c10.3-5,22.3-7.1,33.5-6.4c-0.2,0.1-0.4,0.1-0.5,0.2c-3.9,1.9-4.5,5.4-2.1,7.7
			c2.1,2.1,5.8,2.9,9.9,4c3.2,1,7.2,2.3,10.3,5.4c2.2,2.2,3.4,5.3,5.2,9.7l4.6,10.4l-41.9-20.3c2.3-1.2,4.2-2.4,4.3-2.4
			c1.9-1.2-0.2-3-2.2-2c-0.1,0.1-6.2,3.5-10.4,5.5c-3.9,1.9-10.4,4.6-10.8,4.7c-2.2,1-0.3,3.1,1.9,2.2c0.1,0,2.2-0.8,4.4-1.8
			l17.1,7.8l8.1,20.8l-42.2-20.4c2.3-1.2,4.2-2.4,4.3-2.4c1.9-1.2-0.2-3-2.2-2c-0.1,0.1-6.2,3.5-10.4,5.5c-0.7,0.4-1.6,0.8-2.6,1.2
			C138.9,141.2,146.5,130.7,160.4,124z"/>
	</g>
	<g class="st8">
		<g>
			<path class="st7" d="M188.9,151.2l33.8,15.4c0.2,0.1,0.4,0.2,0.6,0.2c-3.2,2.9-7.1,5.6-11.7,7.8c-3.9,1.9-8,3.4-12.3,4.4
				L188.9,151.2z"/>
		</g>
		<g>
			<path class="st7" d="M139.3,156.6l52.4,23.9c-17.4,2.3-35.3-1.9-45.4-11.9C142.5,164.9,140.2,160.8,139.3,156.6z"/>
		</g>
		<g>
			<path class="st7" d="M156.2,119.8c25.5-12.4,59.7-9.2,76.1,7.1s9,39.6-16.5,52s-59.7,9.2-76.1-7.1S130.6,132.2,156.2,119.8z
				 M214.4,177.5c24.4-11.8,31.4-34.1,15.7-49.6s-48.3-18.6-72.6-6.8c-24.4,11.8-31.4,34.1-15.7,49.6S190,189.3,214.4,177.5"/>
		</g>
		<g>
			<path class="st7" d="M208.6,120.3c6.7,2.1,12.7,5.4,17.1,9.8c9.4,9.3,9.7,21.4,2.3,31.5l-10.4-28.3c-1.4-4.7-3.5-8-6.1-10.5
				C210.5,121.8,209.5,121,208.6,120.3z"/>
		</g>
	</g>
</g>
<g class="st30">
	<g>
		<g>
			<path class="st31" d="M129.3,30c2.6,1.4,5.3,2.8,7.7,4.3c5.1,3.3,9.4,7,12.6,11c7.1,9,8.7,18.2,4.2,27.8
				c-0.3,0.6-0.7,1.1-1.4,1.5c-0.6,0.3-1.3,0.6-2.2,0.7c-12.8,2.5-25.7,2.5-38.5,0.5c-10.8-1.7-20.5-4.7-29-8.6
				c-3.4-1.6-6.5-3.3-9.7-4.9c-0.2-0.1-0.4-0.3-0.6-0.4c5.9-5.6,5.5-9.8-1.6-14.7l32.5-18.1c3.5,1.9,7.8,3,12.8,3.1
				C120.9,32.4,125.4,31.6,129.3,30z M141.4,59.7c0.5-2.3-0.8-4.3-3.9-6c-1.6-0.9-3.2-1.5-5-1.8c-1.7-0.3-3.7-0.4-5.8-0.3
				c-2.1,0.2-5.1,0.7-8.7,1.5c-3.3,0.8-5.6,1.2-7.1,1.4s-2.7,0.2-3.8,0.1c-1-0.1-2-0.5-2.9-1c-1.3-0.7-1.9-1.6-1.7-2.6
				c0.2-1,1.2-2,3.1-3.1c2-1.1,4.7-2.1,8.1-3c0.3-0.1,0.5-0.2,0.7-0.3c0.7-0.4,1-1,0.6-1.6l-0.8-1c-0.6-0.7-2.1-1.1-3.4-0.7
				c-3.8,1-7.1,2.3-10,3.9c-3.5,2-5.5,4-6,6.1c-0.4,2.1,0.8,4,3.8,5.6c2.3,1.3,5,2,8,2.2s6.8-0.3,11.3-1.4c4.4-1.1,7.6-1.6,9.5-1.7
				c1.9-0.1,3.5,0.3,4.8,1c1.5,0.8,2.1,1.8,1.8,2.8c-0.2,1.1-1.5,2.3-3.8,3.6c-1.6,0.9-3.5,1.7-5.7,2.5c-1.1,0.4-2.3,0.7-3.5,1.1
				c-0.3,0.1-0.5,0.2-0.7,0.3c-1,0.5-1.1,1.5,0,2l1.5,0.8c0.7,0.4,1.9,0.5,2.9,0.3c3.3-0.8,6.6-2.2,10-4.1
				C138.6,64.2,140.9,61.9,141.4,59.7"/>
		</g>
	</g>
</g>
<g class="st30">
	<g>
		<g>
			<path class="st31" d="M61.7,211.4c0.3,2,2.8,2.9,5.6,3.6c2.1,0.5,4.4,0.8,6.7,0.8c0.2,0,0.5,0,0.7,0c0,0,0,0,0.1,0.1
				c-0.2,0.1-0.4,0.2-0.5,0.3c-4.8,2.6-9.6,5.1-14.4,7.7c-2.7,1.5-6.3,1.4-8.9-0.1c-2-1.1-4-2.3-6.1-3.4
				C50.5,217.4,56.1,214.5,61.7,211.4z"/>
		</g>
		<g>
			<path class="st31" d="M58.7,204.8c0.3-0.2,0.7-0.2,1.2-0.2c0.8,0.1,1.3,0,1.7-0.2c0.3-0.2,0.5-0.4,0.8-0.7
				c0.7-0.9,1.7-1.7,2.9-2.4c4.1-2.2,10.8-2.7,16-0.8c6.2,2.2,7.8,6.7,3.5,10.1c-0.4,0.4-0.9,0.7-1.5,1c-4.3,2.3-11.4,2.7-16.2,0.8
				c-1.1-0.4-1.4-1.1-0.7-1.7c0.1-0.1,0.2-0.1,0.3-0.2c0.7-0.4,1.8-0.4,2.7-0.1c3.6,1.2,7.9,1,10.8-0.5c0.4-0.2,0.7-0.4,1-0.6
				c2.7-2,2-4.8-1.6-6.4c-3.2-1.5-8.2-1.4-11.3,0.3c-0.1,0-0.1,0.1-0.2,0.1c-0.7,0.4-1.3,0.9-1.9,1.4c0.1,0,0.1,0.1,0.2,0.1
				c0.4,0,0.8,0,1.1,0c0.7,0,1.2,0.2,1.4,0.6c0.2,0.3,0.1,0.6-0.4,0.9c-0.7,0.4-1.4,0.8-2.1,1.2c-0.6,0.3-1.2,0.6-1.8,0.9
				c-0.7,0.4-1.5,0.4-2.2,0c-1.3-0.7-2.5-1.4-3.7-2.1c-0.5-0.3-0.6-0.6-0.3-1C58.4,205,58.5,204.8,58.7,204.8z"/>
		</g>
		<g>
			<path class="st31" d="M60.7,198.8c0.5,0.3,0.9,0.5,1.3,0.7c-1.1,0.9-2.1,1.7-3.2,2.6c0,0,0,0-0.1,0c-0.2,0.1-0.4,0.1-0.7,0.2
				c-1,0.2-1.8,0.5-2.5,0.8c-1.8,0.9-2.3,2.4-1.1,3.7c0.4,0.4,1,0.8,1.6,1.1c0.9,0.5,1.8,1.1,2.8,1.6c-5.7,3-11.3,6-17,9
				c-3-1.7-6-3.4-8.9-5.1C42.2,208.6,51.4,203.7,60.7,198.8z"/>
		</g>
		<g>
			<path class="st31" d="M50.9,193.2c2.3,1.2,4.5,2.5,6.8,3.8c-9.3,4.9-18.5,9.9-27.8,14.8c-2.3-1.3-4.5-2.5-6.7-3.8
				c-2.1-1.3-1.8-3.2,0.5-4.4c2.7-1.4,5.4-2.9,8.1-4.3c3.7-2,7.4-3.9,11.1-5.9c0.3-0.1,0.5-0.3,0.8-0.4
				C46,192.2,48.9,192.2,50.9,193.2z M47.8,199.1c1.2-0.7,1.3-1.8,0-2.5s-3.2-0.7-4.5,0l0,0c-1.3,0.7-1.3,1.8,0,2.5
				C44.4,199.7,46.5,199.7,47.8,199.1C47.7,199.1,47.7,199.1,47.8,199.1 M32.3,207.3c1.3-0.7,1.3-1.8,0.1-2.5s-3.2-0.7-4.5,0l0,0
				c-1.3,0.7-1.3,1.8-0.1,2.5C28.9,208,31,208,32.3,207.3 M40,203.2c1.3-0.7,1.3-1.8,0-2.5s-3.2-0.7-4.5,0l0,0
				c-1.3,0.7-1.3,1.8-0.1,2.5C36.6,203.8,38.7,203.9,40,203.2"/>
		</g>
	</g>
</g>
<g class="st30">
	<g>
		<g>
			<path class="st32" d="M354.1,199.9c0.8-0.4,1.3-0.4,2,0s1.3,0.8,2,1.2c0.6,0.4,0.6,0.7-0.1,1.1c-0.6,0.3-1.1,0.6-1.7,0.9
				c-0.1,0.1-0.2,0.1-0.3,0.2c-0.2,0.1-0.2,0.3-0.1,0.4c0.4,0.7,0.9,1.3,1.3,2c0.1,0.2,0.3,0.3,0.8,0.3c0.8,0,1.7,0,2.5,0
				c0.9,0,1.3,0.2,1.3,0.8s0,1.1-0.1,1.7c0,0.2-0.1,0.4-0.3,0.5c-0.2,0.1-0.6,0.2-1.1,0.2c-0.9,0-1.7,0-2.6,0
				c-0.2,0-0.4,0.1-0.5,0.2c-0.1,0-0.1,0.1-0.1,0.1c-0.6,0.7-1.1,1.3-1.6,2c-0.1,0.1-0.1,0.4,0.1,0.5c0.6,0.4,1.2,0.7,1.8,1.1
				c0.6,0.4,0.6,0.7-0.1,1c-0.7,0.4-1.4,0.8-2.1,1.1c-0.7,0.4-1.3,0.4-2,0c-0.6-0.4-1.2-0.7-1.8-1.1c-0.1-0.1-0.5-0.1-0.6-0.1
				c-1.4,0.3-2.8,0.6-4.3,1c0,0.5,0,1.1-0.1,1.6c0,0.3-0.1,0.5-0.4,0.6c-0.2,0.1-0.6,0.2-1.1,0.2c-0.9,0-1.8,0-2.8,0
				s-1.4-0.3-1.3-0.8c0-0.6,0.1-1.1,0.1-1.6c-1.4-0.4-2.8-0.8-4.2-1.2c-0.1,0-0.5,0-0.7,0.1c-0.6,0.3-1.2,0.7-1.9,1
				c-0.7,0.4-1.3,0.4-1.9,0c-0.7-0.4-1.4-0.8-2-1.2s-0.6-0.7,0.1-1.1c0.8-0.4,1.5-0.8,2.2-1.2c-0.5-0.9-1-1.7-1.5-2.5
				c-0.1-0.1-0.4-0.1-0.6-0.1c-0.9,0-1.7,0-2.6-0.1c-0.9,0-1.4-0.3-1.3-0.8c0-0.5,0.1-1.1,0.1-1.6c0-0.3,0.1-0.4,0.4-0.6
				c0.2-0.1,0.6-0.2,1-0.2c1,0,2.1,0,3.1,0c0.3-0.5,0.7-1,1-1.5c0.1-0.1,0.2-0.2,0.3-0.4c0.7-0.7,0.7-0.7-0.3-1.3
				c-0.4-0.2-0.8-0.5-1.1-0.7c-0.6-0.4-0.6-0.7,0-1.1c0.7-0.4,1.4-0.8,2.2-1.2c0.7-0.3,1.2-0.3,1.9,0c0.6,0.4,1.2,0.7,1.9,1.1
				c0.2,0.1,0.5,0.1,0.7,0.1c1.4-0.3,2.7-0.6,4.2-1c0-0.5,0.1-1,0.1-1.6c0-0.3,0.1-0.5,0.4-0.7c0.2-0.1,0.6-0.2,1.2-0.2
				c0.9,0,1.7,0,2.6,0c1,0,1.4,0.3,1.4,0.9c0,0.5-0.1,1-0.1,1.4c0,0.1,0.2,0.3,0.4,0.4c1.3,0.3,2.7,0.6,4.2,1
				C352.6,200.7,353.3,200.3,354.1,199.9z M351.2,209.4c2-2.3,0.3-5-3.7-6.1c-3.1-0.8-6.7-0.4-9,0.9c-0.6,0.3-1.1,0.8-1.5,1.2
				c-1.9,2.2-0.2,5,3.6,6c3.2,0.8,6.7,0.5,9-0.8C350.2,210.3,350.8,209.9,351.2,209.4"/>
		</g>
		<g>
			<path class="st32" d="M324.1,200.5c1.2-0.3,1.9-0.1,2.5,0.5c0.5,0.7,1.1,1.3,1.6,2c0.3,0.4,0.3,0.8-0.2,1.1
				c-0.2,0.1-0.4,0.2-0.7,0.3c-1.1,0.3-2.2,0.5-3.3,0.9c0,0-0.1,0-0.1,0.1c-0.2,0.1-0.4,0.3-0.4,0.5c0,1,0.1,1.9,0.1,2.9
				c0,0.4,0.2,0.5,0.7,0.6c1.1,0.2,2.1,0.4,3.2,0.7s1.5,0.6,1.1,1.3s-0.9,1.4-1.4,2.1c-0.1,0.2-0.3,0.3-0.5,0.4
				c-0.4,0.2-1,0.3-1.8,0.1c-1.1-0.2-2.2-0.5-3.3-0.7c-0.3-0.1-0.8,0-1,0.2c-0.1,0-0.2,0.1-0.3,0.1c-1.1,0.6-2.2,1.3-3.3,2
				c-0.2,0.1-0.3,0.4-0.2,0.6c0.4,0.6,1,1.2,1.4,1.9c0.3,0.5,0.3,0.8-0.1,1c-0.2,0.1-0.4,0.2-0.8,0.3c-1.1,0.3-2.3,0.6-3.5,0.9
				c-1.2,0.3-1.9,0.1-2.5-0.5c-0.5-0.6-0.9-1.2-1.5-1.8c-0.1-0.1-0.5-0.3-0.7-0.3c-2,0-4,0.1-6.1,0.2c-0.4,0.6-0.9,1.3-1.4,2
				c-0.2,0.2-0.4,0.4-0.6,0.5c-0.5,0.3-1.1,0.3-1.9,0.1c-1.2-0.2-2.3-0.5-3.5-0.7c-1.2-0.3-1.5-0.7-1.1-1.4c0.5-0.7,0.9-1.4,1.4-2
				c-1.5-0.9-2.9-1.7-4.4-2.5c-0.2-0.1-0.6-0.1-0.9,0c-1,0.2-2.1,0.5-3.1,0.8c-1.1,0.3-1.9,0.1-2.4-0.5c-0.6-0.7-1.1-1.3-1.6-2
				c-0.3-0.4-0.3-0.8,0.2-1.1c0.2-0.1,0.4-0.2,0.7-0.3c1.2-0.3,2.5-0.7,3.6-0.9c0-1.2,0-2.4,0-3.6c0-0.1-0.4-0.3-0.6-0.3
				c-1.1-0.2-2.2-0.5-3.2-0.7c-1.2-0.3-1.5-0.7-1.1-1.3c0.4-0.7,0.9-1.3,1.4-2c0.2-0.2,0.3-0.4,0.5-0.5c0.4-0.2,1-0.3,1.8-0.1
				c1.3,0.3,2.6,0.5,3.9,0.8c0.8-0.6,1.6-1.1,2.4-1.6c0.1,0,0.1-0.1,0.2-0.1c0.2-0.1,0.3-0.2,0.5-0.3c0.3-0.1,0.5-0.3,0.7-0.4
				c0.7-0.4,0.6-0.6-0.1-1.4c-0.3-0.4-0.6-0.8-0.9-1.2c-0.3-0.5-0.2-0.8,0.2-1.1c0.2-0.1,0.4-0.2,0.7-0.3c1.2-0.3,2.4-0.6,3.6-0.9
				c1.1-0.3,1.8-0.1,2.3,0.5s1,1.2,1.5,1.9c0.1,0.1,0.5,0.3,0.8,0.3c2,0,3.9-0.1,6-0.2c0.4-0.6,0.8-1.3,1.3-1.9
				c0.2-0.3,0.4-0.5,0.6-0.6c0.5-0.3,1.1-0.3,2-0.1c1.1,0.2,2.2,0.5,3.3,0.7c1.3,0.3,1.6,0.7,1.1,1.4c-0.4,0.6-0.8,1.2-1.2,1.8
				c-0.1,0.2,0,0.5,0.2,0.6c1.4,0.8,2.9,1.5,4.5,2.3C321.6,201.2,322.8,200.8,324.1,200.5z M313.2,211.8c4.2-2.4,4.1-6.2,0-8.5
				c-4-2.3-10.7-2.3-14.7,0h-0.1c-4.1,2.4-4.1,6.2,0,8.5C302.7,214.2,309,214.2,313.2,211.8"/>
		</g>
	</g>
</g>
<path class="st0" d="M57.3,235.5c-1.6,0-3-0.3-4-1L9,210c-1.2-0.7-1.7-1.6-1.7-2.6c0-1.3,0.9-2.4,2.4-3.3l41.2-23.5
	c2.8-1.6,6.9-1.7,9.3-0.4l44.3,24.5c1.2,0.7,1.7,1.6,1.7,2.6c0,1.3-0.9,2.4-2.4,3.3l-41.2,23.5C61.1,235.1,59.2,235.5,57.3,235.5z
	 M53.7,233.8c2.1,1.3,5.9,1,8.3-0.4l41.3-23.5c1.3-0.7,1.9-1.6,1.9-2.5c0-0.7-0.5-1.3-1.3-1.8l-44.3-24.5c-2.1-1.3-5.9-1-8.3,0.4
	L10,204.9c-1.3,0.7-1.9,1.6-1.9,2.5c0,0.7,0.5,1.3,1.3,1.8L53.7,233.8z"/>
<path class="st0" d="M321,239.1c-1.6,0-3-0.3-4-1l-50.2-28.4c-1.2-0.7-1.7-1.6-1.7-2.6c0-1.3,0.9-2.4,2.4-3.3l47.1-26.3
	c2.8-1.6,6.9-1.7,9.3-0.4l50.2,28.4c1.2,0.7,1.7,1.6,1.7,2.6c0,1.3-0.9,2.4-2.4,3.3l-47.1,26.4C324.8,238.8,322.9,239.1,321,239.1z
	 M317.4,237.4c2.1,1.3,5.9,1,8.3-0.4l47.2-26.3c1.3-0.7,1.9-1.6,1.9-2.5c0-0.7-0.5-1.3-1.3-1.8L323.3,178c-2.1-1.3-5.9-1-8.3,0.4
	l-47.1,26.3c-1.3,0.7-1.9,1.6-1.9,2.5c0,0.7,0.5,1.3,1.3,1.8L317.4,237.4z"/>
<path class="st0" d="M123.5,99.9c-1.6,0-3-0.3-4-1L45,57.6c-1.2-0.7-1.7-1.6-1.7-2.6c0-1.3,0.9-2.4,2.4-3.3L110,15.6
	c2.8-1.6,6.9-1.7,9.3-0.4l74.5,41.3c1.2,0.7,1.7,1.6,1.7,2.6c0,1.3-0.9,2.4-2.4,3.3l-64.3,36.2C127.2,99.6,125.3,99.9,123.5,99.9z
	 M119.8,98.2c2.1,1.3,5.9,1,8.3-0.4l64.4-36.1c1.3-0.7,1.9-1.6,1.9-2.5c0-0.7-0.5-1.3-1.3-1.8l-74.5-41.3c-2.1-1.3-5.9-1-8.3,0.4
	L46,52.6c-1.3,0.7-1.9,1.6-1.9,2.5c0,0.7,0.5,1.3,1.3,1.8L119.8,98.2z"/>
<path class="st0" d="M98.3,140.5l-45.7-26.1c-1.1-0.7-1.8-1.8-1.8-3.1c0-1.3,0.7-2.5,1.8-3.1l40.9-23.5l1,0.6L53.2,109
	c-0.8,0.5-1.3,1.3-1.3,2.3s0.5,1.8,1.3,2.3L99.4,140L98.3,140.5z"/>
<path class="st0" d="M334.7,183.2l-1-0.6l26-15.9c0.8-0.5,1.3-1.3,1.3-2.3s-0.5-1.8-1.3-2.2l-50.1-28.7c-3.2-1.9-7.3-1.9-10.5,0
	l-14.5,8.3l-1-0.6l15-8.6c3.5-2,8-2,11.5,0l50.1,28.7c1.1,0.6,1.8,1.8,1.8,3.1s-0.6,2.5-1.7,3.1L334.7,183.2z"/>
<polygon class="st0" points="85.2,194.1 84.2,193.5 97.2,186 98.2,186.6 "/>
</svg>
