<?xml version="1.0" encoding="utf-8"?>
<!-- Generator: Adobe Illustrator 27.5.0, SVG Export Plug-In . SVG Version: 6.00 Build 0)  -->
<svg version="1.1" xmlns="http://www.w3.org/2000/svg" xmlns:xlink="http://www.w3.org/1999/xlink" x="0px" y="0px"
	 viewBox="0 0 500 500" style="enable-background:new 0 0 500 500;" xml:space="preserve">
<g id="Background_Simple">
	<g>
		<path style="fill:#C6FF00;" d="M455.293,279.897c9.009-28.934,13.428-59.434,13.888-88.679
			c0.486-30.945-2.875-64.413-23.361-87.612c-20.036-22.69-52.186-30.442-82.427-31.757c-12.25-0.533-24.757-0.176-36.386,3.711
			c-23.482,7.849-39.943,28.661-60.77,42.049c-40.209,25.846-94.537,22.787-133.192,50.904
			c-9.933,7.225-18.457,16.305-25.489,26.376c-28.181,40.363-30.38,96.279-8.875,140.561c21.505,44.281,64.767,76.405,112.568,88.17
			c47.801,11.764,99.399,4.061,143.687-17.432C406.564,381.132,438.707,333.168,455.293,279.897z"/>
		<path style="opacity:0.7;fill:#FFFFFF;" d="M455.293,279.897c9.009-28.934,13.428-59.434,13.888-88.679
			c0.486-30.945-2.875-64.413-23.361-87.612c-20.036-22.69-52.186-30.442-82.427-31.757c-12.25-0.533-24.757-0.176-36.386,3.711
			c-23.482,7.849-39.943,28.661-60.77,42.049c-40.209,25.846-94.537,22.787-133.192,50.904
			c-9.933,7.225-18.457,16.305-25.489,26.376c-28.181,40.363-30.38,96.279-8.875,140.561c21.505,44.281,64.767,76.405,112.568,88.17
			c47.801,11.764,99.399,4.061,143.687-17.432C406.564,381.132,438.707,333.168,455.293,279.897z"/>
	</g>
</g>
<g id="Window">
	<g>
		<path style="fill:#FFFFFF;" d="M383.973,93.663v202.52c0,6.02-4.88,10.9-10.91,10.9h-270.11c-1.05,0-2.07-0.15-3.03-0.43
			c-4.55-1.31-7.87-5.5-7.87-10.47V93.663c0-6.03,4.88-10.91,10.9-10.91h270.11C379.093,82.753,383.973,87.633,383.973,93.663z"/>
		<g>
			<path style="fill:#263238;" d="M383.973,99.923v196.26c0,6.02-4.88,10.9-10.91,10.9h-270.11c-1.05,0-2.07-0.15-3.03-0.43
				L383.973,99.923z"/>
			<path style="opacity:0.9;fill:#FFFFFF;" d="M383.973,99.923v196.26c0,6.02-4.88,10.9-10.91,10.9h-270.11
				c-1.05,0-2.07-0.15-3.03-0.43L383.973,99.923z"/>
		</g>
		<path style="fill:#C6FF00;stroke:#263238;stroke-miterlimit:10;" d="M309.103,209.553l14.71-6.64l-3.14-17.6l-16.21-1.3
			c-2.04-5.43-4.78-10.58-8.15-15.3l5.09-8.62l3.26-5.53l-12.62-12.53l-14.14,8.49c-8.12-5.6-17.34-9.4-27.05-11.15l-4.07-16.2
			h-17.88l-4.19,16.32c-5.51,1.1-10.88,2.83-16.01,5.15l-12.81-11.04l-14.62,9.96l6.08,15.78c-3.87,4.01-7.21,8.49-9.96,13.33
			l-16.83-1.7l-6.05,16.8l13.91,9.45c-0.68,3.94-1.01,7.94-0.99,11.94c-0.11,1.65-0.11,3.3,0,4.95l-14.71,8.26l4.67,17.2h16.61
			c1.59,3.43,3.46,6.71,5.58,9.84c1.08,1.6,2.23,3.16,3.44,4.67l-7.16,14.82l13.72,11.51l13.24-9.92
			c5.04,2.91,10.41,5.18,16.01,6.76l2.66,16.01l17.82,1.58l5.35-15.1c5.83-0.59,11.58-1.86,17.11-3.79l11.32,11.31l15.5-8.94
			l-4.27-15.42c4.5-3.77,8.51-8.11,11.93-12.89l15.7,2.82l7.56-16.18l-12.34-9.95C308.503,221.083,309.153,215.333,309.103,209.553z
			 M268.343,209.553c0,16.75-13.58,30.33-30.33,30.33c-10.9,0-20.46-5.75-25.81-14.39c-2.87-4.63-4.52-10.1-4.52-15.94
			c0-16.74,13.58-30.32,30.33-30.32c8.34,0,15.89,3.37,21.38,8.81c0.55,0.55,1.08,1.11,1.57,1.7c4.56,5.27,7.34,12.12,7.38,19.62
			V209.553z"/>
		<path style="opacity:0.2;" d="M307.173,226.703l12.34,9.95l-7.56,16.18l-15.7-2.82c-3.42,4.78-7.43,9.12-11.93,12.89l4.27,15.42
			l-15.5,8.94l-11.32-11.31c-5.53,1.93-11.28,3.2-17.11,3.79l-5.35,15.1l-17.82-1.58l-2.66-16.01c-5.6-1.58-10.97-3.85-16.01-6.76
			l-13.24,9.92l-13.72-11.51l7.16-14.82c-1.21-1.51-2.36-3.07-3.44-4.67l32.62-23.92c5.35,8.64,14.91,14.39,25.81,14.39
			c16.75,0,30.33-13.58,30.33-30.33v-0.19c-0.04-7.5-2.82-14.35-7.38-19.62l40.44-29.65l-5.09,8.62c3.37,4.72,6.11,9.87,8.15,15.3
			l16.21,1.3l3.14,17.6l-14.71,6.64C309.153,215.333,308.503,221.083,307.173,226.703z"/>
		<path style="fill:#C6FF00;stroke:#263238;stroke-miterlimit:10;" d="M370.41,162.788l0.74-0.34c0.851-0.374,1.332-1.286,1.16-2.2
			l-0.15-0.9c-0.151-0.916-0.913-1.608-1.84-1.67l-0.89-0.07c-0.718-0.053-1.352-0.489-1.66-1.14c-0.24-0.51-0.5-1-0.78-1.48
			c-0.357-0.619-0.357-1.381,0-2l0.46-0.78c0.46-0.802,0.329-1.812-0.32-2.47l-0.64-0.64c-0.655-0.667-1.685-0.792-2.48-0.3
			l-0.79,0.47c-0.619,0.357-1.381,0.357-2,0c-1.276-0.734-2.645-1.292-4.07-1.66c-0.712-0.185-1.265-0.746-1.44-1.46l-0.23-0.93
			c-0.218-0.922-1.053-1.565-2-1.54h-0.9c-0.944-0.026-1.778,0.612-2,1.53l-0.25,1c-0.176,0.699-0.715,1.249-1.41,1.44
			c-0.5,0.14-1,0.29-1.47,0.47c-0.684,0.25-1.451,0.108-2-0.37l-0.8-0.69c-0.69-0.606-1.705-0.664-2.46-0.14l-0.71,0.48
			c-0.789,0.524-1.102,1.53-0.75,2.41l0.36,0.94c0.267,0.674,0.148,1.439-0.31,2c-0.32,0.381-0.62,0.779-0.9,1.19
			c-0.415,0.607-1.129,0.937-1.86,0.86l-1-0.09c-0.927-0.103-1.803,0.449-2.11,1.33l-0.32,0.88c-0.319,0.855-0.019,1.818,0.73,2.34
			l0.92,0.65c0.589,0.414,0.91,1.113,0.84,1.83c-0.057,0.521-0.083,1.046-0.08,1.57l0,0c-0.025,0.699-0.401,1.339-1,1.7l-0.94,0.52
			c-0.837,0.437-1.254,1.4-1,2.31l0.23,0.87c0.234,0.906,1.064,1.53,2,1.5h1c0.721-0.006,1.389,0.376,1.75,1
			c0.27,0.48,0.56,0.94,0.87,1.39c0.405,0.592,0.462,1.355,0.15,2l-0.41,0.85c-0.415,0.837-0.195,1.85,0.53,2.44l0.69,0.58
			c0.708,0.607,1.74,0.644,2.49,0.09l0.71-0.5c0.584-0.418,1.348-0.49,2-0.19c0.507,0.24,1.027,0.46,1.56,0.66
			c0.668,0.25,1.151,0.837,1.27,1.54l0.15,0.87c0.151,0.916,0.913,1.608,1.84,1.67l0.92,0.08c0.922,0.086,1.783-0.473,2.08-1.35
			l0.28-0.78c0.24-0.686,0.834-1.187,1.55-1.31c0.566-0.089,1.127-0.209,1.68-0.36c0.695-0.185,1.436,0.017,1.94,0.53l0.59,0.6
			c0.643,0.662,1.655,0.798,2.45,0.33l0.79-0.45c0.837-0.437,1.254-1.401,1-2.31l-0.22-0.78c-0.214-0.71-0.017-1.479,0.51-2
			c0.41-0.41,0.81-0.84,1.18-1.29c0.466-0.557,1.197-0.817,1.91-0.68l0.8,0.15c0.912,0.18,1.828-0.292,2.21-1.14l0.38-0.82
			c0.406-0.846,0.169-1.861-0.57-2.44l-0.6-0.49c-0.561-0.443-0.844-1.152-0.74-1.86c0.098-0.596,0.161-1.197,0.19-1.8
			C369.286,163.712,369.742,163.08,370.41,162.788z M363.23,163.307c0,5.6-4.54,10.14-10.14,10.14c-5.6,0-10.14-4.54-10.14-10.14
			c0-5.6,4.54-10.14,10.14-10.14l0,0c5.576-0.005,10.103,4.504,10.12,10.08L363.23,163.307z"/>
		<path style="fill:#263238;" d="M383.976,93.665v0.55H92.056v-0.55c0-6.03,4.88-10.91,10.9-10.91h270.11
			C379.096,82.755,383.976,87.635,383.976,93.665z"/>
		<path style="fill:none;stroke:#263238;stroke-linecap:round;stroke-linejoin:round;stroke-miterlimit:10;" d="M383.976,93.665
			v202.52c0,6.02-4.88,10.9-10.91,10.9h-270.11c-6.02,0-10.9-4.88-10.9-10.9V93.665c0-6.03,4.88-10.91,10.9-10.91h270.11
			C379.096,82.755,383.976,87.635,383.976,93.665z"/>
		
			<line style="fill:none;stroke:#263238;stroke-linecap:round;stroke-linejoin:round;stroke-miterlimit:10;" x1="92.056" y1="93.665" x2="383.976" y2="93.665"/>
		<path style="fill:#C6FF00;" d="M116.393,88.485c0,1.222-0.99,2.212-2.212,2.212c-1.222,0-2.212-0.99-2.212-2.212
			c0-1.222,0.99-2.212,2.212-2.212C115.403,86.273,116.393,87.263,116.393,88.485z"/>
		<path style="fill:#C6FF00;" d="M126.874,88.485c0,1.222-0.99,2.212-2.212,2.212c-1.222,0-2.212-0.99-2.212-2.212
			c0-1.222,0.99-2.212,2.212-2.212C125.883,86.273,126.874,87.263,126.874,88.485z"/>
		<path style="fill:#C6FF00;" d="M137.354,88.485c0,1.222-0.99,2.212-2.212,2.212c-1.222,0-2.212-0.99-2.212-2.212
			c0-1.222,0.99-2.212,2.212-2.212C136.364,86.273,137.354,87.263,137.354,88.485z"/>
		<path style="fill:none;stroke:#263238;stroke-width:4;stroke-miterlimit:10;" d="M284.639,209.558
			c0,25.61-20.761,46.371-46.371,46.371s-46.371-20.761-46.371-46.371s20.761-46.371,46.371-46.371l0,0l0,0
			c25.496,0,46.21,20.582,46.371,46.077V209.558z"/>
	</g>
</g>
<g id="Graphics">
	<g>
		<g>
			<path style="fill:#FFFFFF;stroke:#263238;stroke-miterlimit:10;" d="M456.754,163.465H291.719
				c-6.022,0-10.904-4.882-10.904-10.904v-36.633c0-6.022,4.882-10.904,10.904-10.904h165.034c6.022,0,10.904,4.882,10.904,10.904
				v36.633C467.657,158.583,462.775,163.465,456.754,163.465z"/>
			<g>
				<line style="fill:none;stroke:#263238;stroke-miterlimit:10;" x1="313.52" y1="133.982" x2="440.85" y2="133.982"/>
				<polyline style="fill:none;stroke:#263238;stroke-miterlimit:10;" points="309.551,133.982 329.66,119.808 380.87,119.808 
					401.767,133.982 				"/>
				<path style="fill:#C6FF00;stroke:#263238;stroke-miterlimit:10;" d="M405.736,133.982c0,2.192-1.777,3.969-3.969,3.969
					c-2.192,0-3.969-1.777-3.969-3.969c0-2.192,1.777-3.969,3.969-3.969C403.959,130.013,405.736,131.79,405.736,133.982z"/>
				<circle style="fill:#C6FF00;stroke:#263238;stroke-miterlimit:10;" cx="329.66" cy="119.808" r="3.969"/>
				<path style="fill:#C6FF00;stroke:#263238;stroke-miterlimit:10;" d="M384.839,119.808c0,2.192-1.777,3.969-3.969,3.969
					c-2.192,0-3.969-1.777-3.969-3.969s1.777-3.969,3.969-3.969C383.062,115.839,384.839,117.616,384.839,119.808z"/>
				<polyline style="fill:none;stroke:#263238;stroke-miterlimit:10;" points="309.551,133.982 329.66,148.155 424.048,148.155 
					440.85,133.982 				"/>
				<path style="fill:#C6FF00;stroke:#263238;stroke-miterlimit:10;" d="M364.377,148.155c0,2.192-1.777,3.969-3.969,3.969
					c-2.192,0-3.969-1.777-3.969-3.969c0-2.192,1.777-3.969,3.969-3.969C362.6,144.186,364.377,145.963,364.377,148.155z"/>
				<path style="fill:#C6FF00;stroke:#263238;stroke-miterlimit:10;" d="M333.629,148.155c0,2.192-1.777,3.969-3.969,3.969
					s-3.969-1.777-3.969-3.969c0-2.192,1.777-3.969,3.969-3.969S333.629,145.963,333.629,148.155z"/>
				<path style="fill:#C6FF00;stroke:#263238;stroke-miterlimit:10;" d="M428.017,148.155c0,2.192-1.777,3.969-3.969,3.969
					c-2.192,0-3.969-1.777-3.969-3.969c0-2.192,1.777-3.969,3.969-3.969C426.24,144.186,428.017,145.963,428.017,148.155z"/>
				<circle style="fill:#C6FF00;stroke:#263238;stroke-miterlimit:10;" cx="440.85" cy="133.982" r="3.969"/>
				<path style="fill:#C6FF00;stroke:#263238;stroke-miterlimit:10;" d="M313.52,133.982c0,2.192-1.777,3.969-3.969,3.969
					c-2.192,0-3.969-1.777-3.969-3.969c0-2.192,1.777-3.969,3.969-3.969C311.743,130.013,313.52,131.79,313.52,133.982z"/>
			</g>
		</g>
		<g>
			<g>
				<path style="fill:#FFFFFF;stroke:#263238;stroke-miterlimit:10;" d="M193.735,344.993H98.662
					c-6.022,0-10.904-4.882-10.904-10.904v-95.073c0-6.022,4.882-10.904,10.904-10.904h95.072c6.022,0,10.904,4.882,10.904,10.904
					v95.073C204.638,340.112,199.757,344.993,193.735,344.993z"/>
				<g>
					<polyline style="fill:none;stroke:#263238;stroke-linecap:round;stroke-linejoin:round;stroke-miterlimit:10;" points="
						131.588,294.844 116.449,324.264 185.062,324.264 					"/>
					<polyline style="fill:none;stroke:#263238;stroke-linecap:round;stroke-linejoin:round;stroke-miterlimit:10;" points="
						185.062,250.387 153.041,271.674 185.062,281.307 					"/>
					<rect x="177.492" y="242.817" style="fill:#C6FF00;stroke:#263238;stroke-miterlimit:10;" width="15.14" height="15.14"/>
					<rect x="177.492" y="273.737" style="fill:#C6FF00;stroke:#263238;stroke-miterlimit:10;" width="15.14" height="15.14"/>
					<rect x="145.471" y="264.104" style="fill:#C6FF00;stroke:#263238;stroke-miterlimit:10;" width="15.14" height="15.14"/>
					<rect x="124.018" y="287.274" style="fill:#C6FF00;stroke:#263238;stroke-miterlimit:10;" width="15.14" height="15.14"/>
					<rect x="108.879" y="316.694" style="fill:#C6FF00;stroke:#263238;stroke-miterlimit:10;" width="15.14" height="15.14"/>
					<rect x="177.492" y="316.694" style="fill:#C6FF00;stroke:#263238;stroke-miterlimit:10;" width="15.14" height="15.14"/>
				</g>
			</g>
			<g>
				<g>
					<path style="fill:#FFFFFF;stroke:#263238;stroke-miterlimit:10;" d="M138.319,299.185H43.246
						c-6.022,0-10.904-4.882-10.904-10.904v-95.072c0-6.022,4.882-10.904,10.904-10.904h95.072c6.022,0,10.904,4.882,10.904,10.904
						v95.072C149.223,294.303,144.341,299.185,138.319,299.185z"/>
					<g>
						<rect x="44.702" y="193.615" style="fill:#C6FF00;" width="77.748" height="6.024"/>
						<rect x="44.702" y="203.53" style="fill:#C6FF00;" width="44.917" height="6.024"/>
						<rect x="44.702" y="213.446" style="fill:#C6FF00;" width="26.164" height="6.024"/>
						<rect x="44.702" y="223.361" style="fill:#C6FF00;" width="43.057" height="6.024"/>
						<rect x="44.702" y="233.277" style="fill:#C6FF00;" width="67.119" height="6.024"/>
						<rect x="44.702" y="243.192" style="fill:#C6FF00;" width="44.917" height="6.024"/>
						<rect x="44.702" y="253.107" style="fill:#C6FF00;" width="31.337" height="6.024"/>
						<rect x="44.702" y="263.023" style="fill:#C6FF00;" width="50.737" height="6.024"/>
						<rect x="44.702" y="272.938" style="fill:#C6FF00;" width="61.515" height="6.024"/>
						<rect x="44.702" y="282.853" style="fill:#C6FF00;" width="77.748" height="6.024"/>
						<rect x="44.702" y="193.615" style="opacity:0.3;" width="77.748" height="6.024"/>
						<rect x="44.702" y="203.53" style="opacity:0.3;" width="44.917" height="6.024"/>
						<rect x="44.702" y="213.446" style="opacity:0.3;" width="26.164" height="6.024"/>
						<rect x="44.702" y="223.361" style="opacity:0.3;" width="43.057" height="6.024"/>
						<rect x="44.702" y="233.277" style="opacity:0.3;" width="67.119" height="6.024"/>
						<rect x="44.702" y="243.192" style="opacity:0.3;" width="44.917" height="6.024"/>
						<rect x="44.702" y="253.107" style="opacity:0.3;" width="31.337" height="6.024"/>
						<rect x="44.702" y="263.023" style="opacity:0.3;" width="50.737" height="6.024"/>
						<rect x="44.702" y="272.938" style="opacity:0.3;" width="61.515" height="6.024"/>
						<rect x="44.702" y="282.853" style="opacity:0.3;" width="77.748" height="6.024"/>
					</g>
				</g>
				<path style="fill:#FFFFFF;stroke:#263238;stroke-miterlimit:10;" d="M123.063,172.033H94.771c-2.845,0-5.151,2.306-5.151,5.152
					v5.121h38.595v-5.121C128.214,174.339,125.908,172.033,123.063,172.033z"/>
				<path style="fill:#C6FF00;stroke:#263238;stroke-miterlimit:10;" d="M103.597,172.033H75.641c-2.938,0-5.32,2.382-5.32,5.32
					v4.952h38.595v-4.952C108.917,174.414,106.535,172.033,103.597,172.033z"/>
				<path style="fill:#FFFFFF;stroke:#263238;stroke-miterlimit:10;" d="M82.779,172.033H54.142c-2.75,0-4.979,2.229-4.979,4.979
					v5.293h38.595v-5.293C87.758,174.262,85.529,172.033,82.779,172.033z"/>
			</g>
		</g>
	</g>
</g>
<g id="Table">
	<g>
		<g>
			
				<line style="fill:none;stroke:#263238;stroke-linecap:round;stroke-linejoin:round;stroke-miterlimit:10;" x1="418.27" y1="386.308" x2="439.514" y2="386.308"/>
			
				<line style="fill:none;stroke:#263238;stroke-linecap:round;stroke-linejoin:round;stroke-miterlimit:10;" x1="83.576" y1="386.308" x2="407.088" y2="386.308"/>
		</g>
		<g>
			<g id="Coffee--inject-189_2_">
				<path style="fill:#C6FF00;stroke:#263238;stroke-linecap:round;stroke-linejoin:round;" d="M412.433,373.86
					c0,0,3.768-3.079,5.559,0.288c1.549,2.913-2.159,6.167-6.38,6.164v2.459c0,0,9.049,0.241,9.753-7.38
					c0.704-7.621-8.932-5.517-8.932-5.517V373.86z"/>
				<polygon style="fill:#C6FF00;stroke:#263238;stroke-linecap:round;stroke-linejoin:round;" points="412.124,386.261 
					393.997,386.261 391.28,363.498 414.85,363.498 				"/>
				<path style="fill:#FFFFFF;stroke:#263238;stroke-linecap:round;stroke-linejoin:round;" d="M391.314,362.409h23.494
					c0.686,0,1.242,0.556,1.242,1.242v0.119c0,0.686-0.556,1.242-1.242,1.242h-23.494c-0.686,0-1.242-0.556-1.242-1.242v-0.119
					C390.072,362.965,390.628,362.409,391.314,362.409z"/>
			</g>
			<path style="fill:none;stroke:#263238;stroke-linecap:round;stroke-linejoin:round;" d="M399.98,359.929c0,0,8.34-5,5.62-10.74
				c-2.72-5.74-11.92-9.52-11.92-18.45c0-7.69,8.18-10.54,13.52-13.62"/>
			<path style="fill:none;stroke:#263238;stroke-linecap:round;stroke-linejoin:round;" d="M402.725,322.555
				c-2.168,1.471-3.716,3.826-4.206,6.4c-0.49,2.573,0.083,5.333,1.558,7.498"/>
			<path style="fill:none;stroke:#263238;stroke-linecap:round;stroke-linejoin:round;" d="M407.263,345.245
				c1.653,3.152,2.121,6.907,1.295,10.369"/>
		</g>
		<g>
			<g>
				<path style="fill:#FFFFFF;stroke:#263238;stroke-linecap:round;stroke-linejoin:round;" d="M183.982,384.421
					c0,0-0.38-6.53-6.14-8.83c-5.76-2.3-8.84-1.35-21.7,2.11c-8.104,2.12-16.404,3.406-24.77,3.84v2.88H183.982z"/>
				<path style="fill:#FFFFFF;stroke:#263238;stroke-linecap:round;stroke-linejoin:round;" d="M183.772,384.421
					c0,0,0.38-6.53,6.14-8.83c5.76-2.3,8.83-1.35,21.7,2.11c8.101,2.12,16.398,3.406,24.76,3.84v2.88H183.772z"/>
				
					<rect x="130.032" y="383.271" style="fill:#263238;stroke:#263238;stroke-linecap:round;stroke-linejoin:round;" width="108.48" height="2.11"/>
			</g>
			<path style="fill:none;stroke:#263238;stroke-linecap:round;stroke-linejoin:round;" d="M186.574,384.304
				c1.014-3.077,3.403-5.672,6.386-6.937"/>
			<path style="fill:none;stroke:#263238;stroke-linecap:round;stroke-linejoin:round;" d="M189.858,383.845
				c1.506-2.65,4.22-4.581,7.218-5.135c3.589-0.663,7.238,0.572,10.62,1.944c3.382,1.373,9.258,3.179,12.908,3.19"/>
			<path style="fill:none;stroke:#263238;stroke-linecap:round;stroke-linejoin:round;" d="M152.293,383.244
				c3.588-0.381,7.121-1.266,10.464-2.623c2.063-0.837,4.067-1.857,6.23-2.383c2.163-0.526,4.572-0.506,6.473,0.652
				c0.87,0.53,1.592,1.271,2.226,2.068c0.857,1.078,1.568,2.271,2.107,3.538"/>
			<path style="fill:none;stroke:#263238;stroke-linecap:round;stroke-linejoin:round;" d="M172.131,380.31
				c1.169,0.122,2.23,0.781,3.054,1.619c0.824,0.838,1.443,1.853,2.054,2.857"/>
		</g>
	</g>
</g>
<g id="Character">
	<g>
		<path style="fill:#C6FF00;" d="M266.148,383.378c0,0-5.939,2.93-12.652,2.93s-20.404-13.89-20.404-13.89s-0.496-1.5,0.572-7.094
			c1.068-5.593,11.109-56.943,11.109-56.943s1.188-11.948,7.978-19.283c6.791-7.335,20.117-9.944,20.117-9.944
			s29.482-12.841,46.012-8.876c16.555,6.566,34.557,13.226,40.581,18.393c6.024,5.166,20.829,46.611,25.958,67.924
			c0,0-11.301,24.007-21.835,30.755c-10.535,6.748-35.989,4.543-35.989,4.543L266.148,383.378z"/>
		<path style="opacity:0.3;" d="M262.407,341.651l-4.259-56.589c0,0-8.95,3.086-11.163,13.203
			c-2.213,10.116-15.527,72.417-13.894,74.153c1.633,1.736,10.348,9.177,10.348,9.177s9.372,8.015,18.968,3.227
			C272.002,380.032,262.407,341.651,262.407,341.651z"/>
		<path style="opacity:0.3;" d="M304.726,290.304c-0.499,1.693-2.621,2.233-4.387,2.257c-5.029,0.071-10.061-1.766-13.862-5.058
			c-0.705-0.61-13.208,7.111-14.649,7.885c-2.267,1.217-4.495,2.566-6.806,3.696c-2.162,1.057-4.197,1.584-5.608,3.727
			c-1.006,1.527-1.552,3.303-2.085,5.052c-3.029,9.926-6.23,19.828-8.987,29.825c-2.386,8.65-5.607,18.236-5.469,27.317
			c0.01,0.65,0.033,1.298,0.139,1.941c1.903,11.609,23.136,16.432,23.136,16.432s-7.502,4.594-12.652,2.93
			c-5.15-1.664-17.109-8.535-20.888-14.956l10.404-54.443c0,0-0.13-26.197,18.771-34.027c18.901-7.831,26.33-8.969,26.33-8.969
			L304.726,290.304z"/>
		<path style="opacity:0.3;" d="M374.492,375.882c0,0,8.253-9.124,10.926-19.285c0,0-12.661-41.713-15.916-49.512
			c-3.255-7.8-8.589-16.722-12.318-20.53l-6.042,85.864l-1.271,18.064c0,0,6.764,0.289,11.515-1.943
			C366.137,386.308,374.492,375.882,374.492,375.882z"/>
		<path style="fill:none;stroke:#263238;stroke-linecap:round;stroke-linejoin:round;stroke-miterlimit:10;" d="M349.871,390.482
			l7.314-103.928c0,0-35.413-16.551-44.651-18.091c-9.238-1.54-54.273,16.167-54.273,16.167l6.544,99.694"/>
		<path style="fill:#FFFFFF;" d="M286.027,217.702l-3.64,17.44c0,0-4.659-3.29-5.649,0.43c-0.99,3.72,2.042,8.837,7.9,9.12
			c0,0,1.594,7.896,6.779,13.264c5.185,5.368,7.743,7.422,7.743,7.422s2.046,13.242,8.731,13.746
			c6.685,0.504,7.998-5.521,9.35-13.89c0,0,5.778-10.028,7.465-15.449c0,0,7.096-4.946,2.362-12.17c0,0,2.344-17.255-1.727-20.175
			C321.273,214.522,293.127,216.029,286.027,217.702z"/>
		<path style="fill:#FFFFFF;" d="M307.625,280.508c0,0-2.251,11.307-3.645,11.596c-1.394,0.289-6.935-5.002-11.773-11.596
			c-4.838-6.594-4.094-6.595-4.094-6.595s2.244-8.647,4.094-9.91s8.495-1.101,8.495-1.101l14.579-0.557c0,0,4.895-0.694,7.853,1.239
			s4.46,10.329,4.46,10.329s-8.71,16.117-15.867,18.191C311.727,292.104,309.49,286.97,307.625,280.508z"/>
		<line style="fill:none;stroke:#263238;stroke-miterlimit:10;" x1="259.857" y1="365.424" x2="261.783" y2="338.301"/>
		<g>
			<path style="fill:#C6FF00;" d="M327.593,222.712c0,0-8.272,3.206-15.589,2.589c0,0-7.728,7.784-17.616,3.156
				c0,0-8.92,24.154,11.529,39.953c0,0-16.413-5.288-21.279-23.718c0,0-5.812,0.909-7.9-7.793c0,0-1.681-3.348,5.986-3.37
				l-0.337-16.804l19.7,3.949l14.134-2.063L327.593,222.712z"/>
			<path style="opacity:0.4;fill:#FFFFFF;" d="M327.593,222.712c0,0-8.272,3.206-15.589,2.589c0,0-7.728,7.784-17.616,3.156
				c0,0-7.206,25.859,10.694,39.518c0,0-16.228-5.63-20.444-23.283c0,0-5.774-0.614-7.9-7.793c0,0-1.681-3.348,5.986-3.37
				l-0.337-16.804l19.7,3.949l14.134-2.063L327.593,222.712z"/>
		</g>
		<path style="fill:none;stroke:#263238;stroke-linecap:round;stroke-linejoin:round;stroke-miterlimit:10;" d="M305.082,256.188
			c0.644,0.517,1.319,0.998,2.019,1.439c0.456,0.287,1.143,0.523,1.467,0.099c0.126-0.164,0.145-0.381,0.158-0.586
			c0.294-4.773-0.818-9.588-0.138-14.323"/>
		<path style="fill:none;stroke:#263238;stroke-width:2;stroke-linecap:round;stroke-linejoin:round;stroke-miterlimit:10;" d="
			M311.717,240.107c0,0,2.371-5.229,8.484-0.531"/>
		<path style="fill:none;stroke:#263238;stroke-width:2;stroke-linecap:round;stroke-linejoin:round;stroke-miterlimit:10;" d="
			M304.037,241.074c0,0-4.467-5.561-10.01,0.172"/>
		<path style="fill:none;stroke:#263238;stroke-linecap:round;stroke-linejoin:round;stroke-miterlimit:10;" d="M298.003,264.548
			c0,0,2.382,14.256,10.774,14.688c6.81,0.35,8.142-11.434,8.403-15.652"/>
		<path style="fill:none;stroke:#263238;stroke-linecap:round;stroke-linejoin:round;stroke-miterlimit:10;" d="M283.542,236.732
			c0,0-3.703-4.419-6.211-2.26c-2.508,2.159,1.25,11.663,7.308,10.221"/>
		<path style="fill:none;stroke:#263238;stroke-linecap:round;stroke-linejoin:round;stroke-miterlimit:10;" d="M299.556,257.957
			c0,0,2.504,3.352,7.117,4.388"/>
		<ellipse style="fill:#263238;" cx="299.161" cy="247.642" rx="0.961" ry="2.041"/>
		<path style="fill:#263238;" d="M315.713,247.642c0,1.127-0.43,2.041-0.961,2.041c-0.531,0-0.961-0.914-0.961-2.041
			c0-1.127,0.43-2.041,0.961-2.041C315.282,245.601,315.713,246.515,315.713,247.642z"/>
		<path style="fill:none;stroke:#263238;stroke-linecap:round;stroke-linejoin:round;stroke-miterlimit:10;" d="M307.893,279.125
			c0,0-2.335,12.693-3.913,12.979c-1.578,0.287-13.517-10.563-15.867-18.191c0,0,2.531-9.967,4.826-10.329
			c1.102-0.174,2.36-0.338,3.369-0.462"/>
		<path style="fill:none;stroke:#263238;stroke-linecap:round;stroke-linejoin:round;stroke-miterlimit:10;" d="M307.893,279.125
			c0,0,2.256,12.693,3.834,12.979c1.578,0.287,13.517-10.563,15.867-18.191c0,0-2.854-9.896-5.024-10.728
			c-2.191-0.84-4.254-1.213-4.254-1.213"/>
		<path style="fill:#263238;" d="M285.781,247.894c1.533,2.654,3.441-6.721,2.631-9.677c-0.541-1.975-1.604-3.836-1.696-5.881
			c-0.102-2.274,1.006-4.397,1.808-6.527c0.802-2.13,1.271-4.668,0.022-6.57c4.365,3.189,9.588,4.898,14.973,5.379
			c1.378,0.123,2.805,0.144,4.102-0.338s2.448-1.56,2.668-2.926c5.044,0.643,10.048,1.303,15.086,0.618
			c4.221-0.574,10.787-1.643,12.959-5.953c3.176-6.302-5.01-12.839-9.835-15.041c-11.697-5.337-27.41-6.236-37.944,2.133
			c-1.119,0.889-2.176,1.865-3.387,2.623c-2.327,1.458-7.615,2.587-9.465,4.615c-2.489,2.729,0.633,23.811,0.633,23.811
			s4.053-1.878,5.733,4.398C285.207,242.815,284.228,245.204,285.781,247.894z"/>
		<path style="fill:#263238;" d="M323.982,220.61c-0.066,0.269-0.113,0.536-0.132,0.8c-0.176,2.381,0.243,4.783,0.838,7.08
			c0.266,1.028,0.646,2.033,0.809,3.074c0.392,2.504,0.386,4.914,2.232,6.945c0,0,3.542-12.371,2.116-21.208
			c-0.165-1.024-0.493-3.598-2.056-3.122c-1.142,0.347-1.966,2.314-2.445,3.263C324.855,218.41,324.252,219.518,323.982,220.61z"/>
		<path style="fill:none;stroke:#263238;stroke-linecap:round;stroke-linejoin:round;stroke-miterlimit:10;" d="M275.172,209.006
			c1.546-1.131,6.108-3.323,10.855-1.458c4.469-8.159,11.494-12.627,11.494-12.627"/>
		<path style="opacity:0.47;fill:none;stroke:#FFFFFF;stroke-linecap:round;stroke-linejoin:round;stroke-miterlimit:10;" d="
			M290.37,206.001c0,0,19.039,13.541,30.569,10.19c11.53-3.352,8.313-13.273,8.313-13.273"/>
		<path style="opacity:0.47;fill:none;stroke:#FFFFFF;stroke-linecap:round;stroke-linejoin:round;stroke-miterlimit:10;" d="
			M292.207,203.722c0,0,23.905,10.994,27.928-4.559"/>
		<path style="fill:#263238;" d="M298.003,264.548c0,0,4.549,8.836,8.113,8.686s10.106-9.65,10.106-9.65s-3.528,4.549-8.885,5.021
			C303.814,268.915,298.003,264.548,298.003,264.548z"/>
		<path style="fill:#263238;" d="M325.516,329.026l0.74-0.34c0.851-0.375,1.332-1.286,1.16-2.2l-0.15-0.9
			c-0.151-0.916-0.913-1.608-1.84-1.67l-0.89-0.07c-0.718-0.053-1.352-0.489-1.66-1.14c-0.24-0.51-0.5-1-0.78-1.48
			c-0.357-0.619-0.357-1.381,0-2l0.46-0.78c0.46-0.802,0.329-1.812-0.32-2.47l-0.64-0.64c-0.655-0.668-1.685-0.792-2.48-0.3
			l-0.79,0.47c-0.619,0.357-1.381,0.357-2,0c-1.276-0.734-2.645-1.292-4.07-1.66c-0.712-0.185-1.265-0.746-1.44-1.46l-0.23-0.93
			c-0.218-0.922-1.053-1.565-2-1.54h-0.9c-0.944-0.026-1.778,0.612-2,1.53l-0.25,1c-0.176,0.699-0.715,1.249-1.41,1.44
			c-0.5,0.14-1,0.29-1.47,0.47c-0.684,0.25-1.451,0.108-2-0.37l-0.8-0.69c-0.69-0.606-1.705-0.664-2.46-0.14l-0.71,0.48
			c-0.789,0.524-1.102,1.53-0.75,2.41l0.36,0.94c0.266,0.674,0.148,1.439-0.31,2c-0.32,0.381-0.62,0.779-0.9,1.19
			c-0.415,0.607-1.129,0.937-1.86,0.86l-1-0.09c-0.927-0.103-1.803,0.449-2.11,1.33l-0.32,0.88c-0.319,0.855-0.019,1.818,0.73,2.34
			l0.92,0.65c0.589,0.414,0.91,1.113,0.84,1.83c-0.056,0.521-0.083,1.046-0.08,1.57l0,0c-0.025,0.699-0.401,1.339-1,1.7l-0.94,0.52
			c-0.837,0.437-1.254,1.401-1,2.31l0.23,0.87c0.234,0.906,1.065,1.53,2,1.5h1c0.721-0.007,1.39,0.376,1.75,1
			c0.27,0.48,0.56,0.94,0.87,1.39c0.405,0.592,0.462,1.355,0.15,2l-0.41,0.85c-0.415,0.837-0.195,1.85,0.53,2.44l0.69,0.58
			c0.708,0.607,1.74,0.644,2.49,0.09l0.71-0.5c0.584-0.418,1.348-0.49,2-0.19c0.507,0.24,1.027,0.46,1.56,0.66
			c0.668,0.25,1.151,0.837,1.27,1.54l0.15,0.87c0.151,0.916,0.913,1.608,1.84,1.67l0.92,0.08c0.922,0.086,1.783-0.473,2.08-1.35
			l0.28-0.78c0.24-0.686,0.834-1.187,1.55-1.31c0.566-0.089,1.127-0.209,1.68-0.36c0.695-0.185,1.436,0.017,1.94,0.53l0.59,0.6
			c0.643,0.662,1.655,0.798,2.45,0.33l0.79-0.45c0.837-0.437,1.254-1.4,1-2.31l-0.22-0.78c-0.214-0.71-0.017-1.479,0.51-2
			c0.41-0.41,0.81-0.84,1.18-1.29c0.466-0.557,1.197-0.817,1.91-0.68l0.8,0.15c0.912,0.18,1.828-0.292,2.21-1.14l0.38-0.82
			c0.406-0.846,0.169-1.861-0.57-2.44l-0.6-0.49c-0.562-0.443-0.844-1.152-0.74-1.86c0.098-0.596,0.161-1.197,0.19-1.8
			C324.392,329.95,324.848,329.318,325.516,329.026z M313.477,329.546c0,2.917-2.365,5.281-5.281,5.281
			c-2.917,0-5.281-2.365-5.281-5.281c0-2.917,2.365-5.281,5.281-5.281l0,0c2.904-0.003,5.262,2.346,5.271,5.25L313.477,329.546z"/>
		<path style="fill:none;stroke:#263238;stroke-linecap:round;stroke-linejoin:round;stroke-miterlimit:10;" d="M260.061,361.764
			c-0.71,0.968-1.738,1.59-2.593,2.408c-2.415,2.311-4.551,5.61-5.532,8.818c-0.475,1.553-0.58,3.274,0.033,4.778
			c1.172,2.873,4.901,5.849,7.888,3.962"/>
		<path style="fill:none;stroke:#263238;stroke-linecap:round;stroke-linejoin:round;stroke-miterlimit:10;" d="M259.82,356.654
			c-2.841-0.443-5.637,1.204-7.583,3.32c-1.946,2.116-3.295,4.707-5.066,6.972"/>
		<path style="fill:none;stroke:#263238;stroke-linecap:round;stroke-linejoin:round;stroke-miterlimit:10;" d="M259.606,385.852
			c-3.451,0.713-8.093,0.336-11.26-1.208c-2.292-1.118-4.28-2.759-6.245-4.385c-2.459-2.035-4.917-4.07-7.376-6.106
			c-1.186-0.982-2.503-2.374-2.012-3.834c0,0,12.333-65.026,14.272-72.054c2.239-8.115,11.275-13.636,11.275-13.636"/>
		<path style="fill:none;stroke:#263238;stroke-linecap:round;stroke-linejoin:round;stroke-miterlimit:10;" d="M352.171,362.493
			c2.976,2.065,5.795,5.944,7.012,9.355c1.217,3.412,1.713,7.031,2.202,10.62c-1.914,1.07-5.85,3.839-9.215,3.839"/>
		<path style="fill:none;stroke:#263238;stroke-linecap:round;stroke-linejoin:round;stroke-miterlimit:10;" d="M352.589,357.055
			c2.992-0.791,5.96,1.243,8.218,3.36c2.257,2.118,4.594,4.579,7.671,4.909"/>
		<path style="fill:none;stroke:#263238;stroke-linecap:round;stroke-linejoin:round;stroke-miterlimit:10;" d="M353.165,390.843
			c5.795-0.611,11.08-3.782,15.269-7.834c4.189-4.051,7.423-8.967,10.622-13.839c2.591-3.947,5.226-7.992,6.362-12.575
			c0,0-10.232-33.813-15.916-49.512c-5.921-16.355-12.318-20.53-12.318-20.53"/>
		<path style="fill:none;stroke:#263238;stroke-linecap:round;stroke-linejoin:round;stroke-miterlimit:10;" d="M352.589,357.055
			c5.275-4.433,13.367-0.84,19.043,2.125"/>
		<g>
			<rect x="260.061" y="338.953" style="fill:#FFFFFF;" width="92.11" height="52.942"/>
			<rect x="259.599" y="391.895" style="fill:#263238;" width="92.991" height="2.766"/>
			<g>
				<polygon style="fill:#263238;" points="259.599,391.895 352.171,338.953 352.589,391.895 				"/>
				<polygon style="opacity:0.9;fill:#FFFFFF;" points="259.599,391.895 352.171,338.953 352.589,391.895 				"/>
			</g>
			
				<ellipse transform="matrix(0.7071 -0.7071 0.7071 0.7071 -167.7669 324.1139)" style="fill:#263238;" cx="307.357" cy="364.569" rx="7.848" ry="7.848"/>
			
				<rect x="260.061" y="338.953" style="fill:none;stroke:#263238;stroke-linecap:round;stroke-linejoin:round;stroke-miterlimit:10;" width="92.11" height="52.942"/>
		</g>
	</g>
	<path style="fill:none;stroke:#263238;stroke-linecap:round;stroke-linejoin:round;stroke-miterlimit:10;" d="M283.115,231.37
		c0,0,2.015,18.498,4.579,21.794c2.564,3.297,10.806,15.384,19.78,15.201c8.974-0.183,14.835-11.721,16.3-16.666
		c1.465-4.945,2.93-11.904,3.297-19.23"/>
	<path style="fill:none;stroke:#263238;stroke-linecap:round;stroke-linejoin:round;stroke-miterlimit:10;" d="M324.708,249.787
		c0,0,6.658-3.438,2.362-12.17"/>
</g>
</svg>
